<svg version="1.1" id="Layer_1" xmlns="http://www.w3.org/2000/svg" xmlns:xlink="http://www.w3.org/1999/xlink" x="0px" y="0px"
	 width="100%" viewBox="0 0 1280 720" enable-background="new 0 0 1280 720" xml:space="preserve">
<path fill="#08AA5B" opacity="1.000000" stroke="none" 
	d="
M832.000000,721.000000 
	C554.701233,721.000000 277.902466,721.000000 1.051853,721.000000 
	C1.051853,481.064545 1.051853,241.129074 1.051853,1.096807 
	C427.548859,1.096807 854.097717,1.096807 1280.823242,1.096807 
	C1280.823242,240.999893 1280.823242,480.999939 1280.823242,721.000000 
	C1131.462280,721.000000 981.981140,721.000000 832.000000,721.000000 
M267.500000,249.000000 
	C253.834839,249.000000 240.169693,248.999969 226.504532,249.000000 
	C186.005280,249.000092 145.505875,248.939453 105.006813,249.026367 
	C85.214310,249.068832 70.020264,263.615875 70.015488,282.454376 
	C69.983788,407.618744 69.999084,532.783081 69.999474,657.947449 
	C69.999496,667.270081 73.524223,675.110718 80.067513,681.638733 
	C87.653748,689.207214 96.978218,691.253540 107.453514,691.250427 
	C463.113647,691.144897 818.773804,691.162842 1174.433960,691.161926 
	C1175.933838,691.161926 1177.434082,691.167847 1178.933472,691.137451 
	C1197.588745,690.759338 1211.982300,676.206726 1211.986328,657.509460 
	C1212.013428,532.845093 1212.014282,408.180695 1211.932007,283.516327 
	C1211.929565,279.913055 1211.333252,276.183167 1210.292725,272.729492 
	C1205.759644,257.681152 1192.683228,249.001892 1174.983398,249.001740 
	C872.822266,248.999298 570.661133,249.000000 267.500000,249.000000 
M262.041046,89.223358 
	C261.091858,88.509933 260.168396,87.224129 259.189087,87.180084 
	C254.419235,86.965561 249.634460,87.083069 244.741608,87.083069 
	C244.741608,110.014587 244.741608,132.393173 244.741608,154.717102 
	C249.383148,154.717102 253.648331,154.717102 257.442841,154.717102 
	C257.442841,139.721817 257.442841,125.028381 257.442841,110.125450 
	C257.784729,110.977585 258.143372,111.798492 258.447021,112.639252 
	C262.400452,123.585991 266.484863,134.488663 270.208618,145.513107 
	C271.318512,148.798950 273.202393,149.198502 276.155579,149.167755 
	C278.955017,149.138611 280.629700,148.649994 281.661377,145.614075 
	C285.084717,135.540207 288.873932,125.590668 292.523590,115.593712 
	C293.127197,113.940369 293.734680,112.288437 294.445038,110.350334 
	C294.445038,125.469055 294.445038,140.041260 294.445038,154.690063 
	C298.755951,154.690063 303.148010,154.690063 307.616333,154.690063 
	C307.616333,132.111542 307.616333,109.856522 307.616333,87.077400 
	C303.254669,87.077400 299.121948,87.267441 295.016602,87.013924 
	C292.031769,86.829605 290.680817,87.830994 289.708160,90.731812 
	C285.441010,103.458229 280.886261,116.088196 276.332947,129.045807 
	C271.604675,115.898163 266.947632,102.948555 262.041046,89.223358 
M85.086243,151.649750 
	C86.332825,152.768692 87.510666,154.746536 88.838287,154.852783 
	C93.694305,155.241425 98.600220,155.006592 104.128990,155.006592 
	C98.814941,145.534210 93.917206,136.803940 89.030243,128.092850 
	C90.782990,126.901222 92.073357,126.137848 93.236580,125.214325 
	C99.936829,119.894699 101.606102,112.663773 100.634323,104.645897 
	C99.738358,97.253464 95.737770,91.831261 88.682846,89.401489 
	C76.106918,85.070236 63.142902,87.847992 50.410400,86.969208 
	C50.410400,110.159058 50.410400,132.388092 50.410400,154.683228 
	C55.578426,154.683228 60.460423,154.683228 65.812340,154.683228 
	C65.812340,146.621964 65.812340,138.876297 65.812340,131.281799 
	C71.442932,129.714233 74.963463,130.916168 77.140739,136.389664 
	C79.154106,141.451111 82.183022,146.108582 85.086243,151.649750 
M167.864029,100.771454 
	C160.806229,88.519020 149.712799,84.526405 136.425873,86.302818 
	C123.975403,87.967407 115.987579,95.482201 112.549858,107.511841 
	C109.881592,116.848892 109.966270,126.306702 112.997650,135.567078 
	C117.337982,148.826050 127.717003,156.207993 141.579498,156.201309 
	C155.461685,156.194595 165.865265,148.868042 170.082428,135.513367 
	C173.714447,124.011620 173.427979,112.547935 167.864029,100.771454 
M223.915207,155.007065 
	C228.198898,155.007065 232.482590,155.007065 237.291504,155.007065 
	C231.452911,136.406281 225.801865,118.349045 220.108643,100.305115 
	C218.762482,96.038612 218.474182,90.104073 215.526230,88.039291 
	C212.355408,85.818398 206.606735,87.465927 202.023758,87.012161 
	C198.529373,86.666176 197.103638,87.988243 196.127502,91.262512 
	C192.044296,104.958923 187.676636,118.570442 183.427872,132.217636 
	C181.115799,139.644028 178.833099,147.079559 176.448181,154.799011 
	C181.956299,154.799011 186.888901,154.799011 191.979767,154.799011 
	C193.449493,149.431595 194.878189,144.214035 196.265335,139.148193 
	C203.395203,139.148193 210.025589,139.148193 216.795425,139.148193 
	C217.916199,143.465729 218.850082,147.683792 220.170502,151.777191 
	C220.574234,153.028854 222.039368,153.938141 223.915207,155.007065 
M1084.371704,145.443848 
	C1084.371704,148.549713 1084.371704,151.655579 1084.371704,154.616760 
	C1089.948730,154.616760 1094.846924,154.616760 1099.910889,154.616760 
	C1099.910889,144.238419 1099.901489,134.253860 1099.914673,124.269333 
	C1099.921143,119.284370 1103.844238,115.364555 1108.929810,115.215111 
	C1113.261597,115.087814 1115.164551,117.260277 1115.519409,123.304382 
	C1115.763062,127.455605 1115.645996,131.629044 1115.656860,135.792633 
	C1115.673462,142.097107 1115.661133,148.401642 1115.661133,154.662689 
	C1121.025024,154.662689 1125.924561,154.662689 1130.930908,154.662689 
	C1130.930908,142.667648 1131.181641,131.012985 1130.830078,119.376549 
	C1130.640503,113.104134 1129.000610,106.901749 1122.659180,103.825706 
	C1115.921631,100.557487 1109.383667,101.728790 1103.358643,106.027939 
	C1101.757935,107.170044 1100.185059,108.351143 1098.399170,109.661293 
	C1097.781616,107.397888 1097.237183,105.402214 1096.760620,103.655258 
	C1092.519165,103.655258 1088.616699,103.655258 1084.371948,103.655258 
	C1084.371948,117.518768 1084.371948,130.989853 1084.371704,145.443848 
M582.832275,134.499771 
	C582.832275,124.243637 582.832275,113.987511 582.832275,103.615860 
	C577.331299,103.615860 572.456543,103.615860 567.208496,103.615860 
	C567.208496,114.099083 567.239014,124.221863 567.195435,134.344315 
	C567.173889,139.356537 563.381836,143.071472 558.427246,143.089966 
	C553.974609,143.106583 552.119385,140.852966 551.956848,134.981079 
	C551.851013,131.157425 551.912903,127.328972 551.910156,123.502655 
	C551.905457,116.908264 551.908875,110.313881 551.908875,103.634262 
	C546.426270,103.634262 541.557983,103.634262 537.004150,103.634262 
	C537.004150,116.791161 536.379028,129.601852 537.203918,142.318512 
	C537.852905,152.324310 544.395142,157.388870 554.275879,155.898117 
	C559.444763,155.118256 564.229492,151.791763 569.104431,149.651962 
	C569.398743,150.853531 569.897156,152.888809 570.339355,154.694336 
	C574.656494,154.694336 578.572937,154.694336 582.832214,154.694336 
	C582.832214,148.084869 582.832214,141.792191 582.832275,134.499771 
M384.315033,138.958389 
	C379.392883,142.853317 373.972992,144.212616 367.962585,141.940201 
	C360.818970,139.239334 356.598846,130.303497 357.279633,119.572701 
	C357.958954,108.864479 362.644592,101.895592 370.263123,99.727699 
	C376.438507,97.970451 381.137909,100.970779 386.011292,104.473915 
	C388.766327,101.084953 391.327026,97.935020 393.967743,94.686676 
	C384.549500,85.975754 374.184845,83.611671 362.682190,87.892517 
	C348.917725,93.015114 342.764526,103.901215 341.730103,117.910629 
	C340.702911,131.821930 344.004822,144.203140 356.793304,151.995346 
	C369.528992,159.755417 386.412567,156.991699 394.761841,145.976318 
	C392.666534,143.486938 390.656708,140.824173 388.308441,138.503876 
	C387.726257,137.928665 386.047424,138.463303 384.315033,138.958389 
M853.646423,146.423279 
	C853.453491,136.603149 853.851624,126.726845 852.924988,116.976433 
	C851.632751,103.379807 839.304260,97.783669 827.570312,104.930313 
	C825.357971,106.277771 823.273865,107.835846 820.771790,109.541328 
	C820.207275,107.229721 819.757629,105.388504 819.321838,103.603813 
	C815.074524,103.603813 811.167908,103.603813 807.280762,103.603813 
	C807.280762,120.861412 807.280762,137.778137 807.280762,154.764648 
	C812.328369,154.764648 817.085815,154.764648 822.282410,154.764648 
	C822.282410,144.407486 822.268127,134.287613 822.288574,124.167816 
	C822.298279,119.374199 826.496338,115.305023 831.467712,115.199913 
	C835.833862,115.107597 837.855835,117.526062 838.036133,123.317184 
	C838.155334,127.146019 838.088074,130.980881 838.091431,134.813049 
	C838.097229,141.421036 838.092957,148.029007 838.092957,154.661926 
	C843.547668,154.661926 848.429565,154.661926 853.646240,154.661926 
	C853.646240,152.015457 853.646240,149.704590 853.646423,146.423279 
M888.369141,144.463135 
	C888.369141,147.898300 888.369141,151.333466 888.369141,154.609772 
	C893.967529,154.609772 898.866028,154.609772 904.215271,154.609772 
	C904.215271,145.799042 904.215271,137.386154 904.215271,128.597778 
	C912.107605,128.597778 919.527649,128.597778 926.951050,128.597778 
	C926.951050,124.149063 926.951050,120.108322 926.951050,115.642090 
	C919.134460,115.642090 911.701233,115.642090 904.205200,115.642090 
	C904.205200,110.293716 904.205200,105.385597 904.205200,100.052589 
	C913.245178,100.052589 922.002747,100.052589 930.925049,100.052589 
	C930.925049,95.571075 930.925049,91.525467 930.925049,87.342308 
	C916.702942,87.342308 902.795837,87.342308 888.369446,87.342308 
	C888.369446,106.226059 888.369446,124.849251 888.369141,144.463135 
M645.258911,122.816673 
	C641.269836,123.946739 637.092834,124.646873 633.328979,126.292229 
	C624.188049,130.288223 620.872009,139.142715 624.878845,147.719330 
	C628.685669,155.867874 638.273132,158.733536 647.094788,154.257584 
	C649.393250,153.091385 651.522034,151.590591 653.886475,150.147156 
	C654.475952,151.976898 654.963318,153.489532 655.334106,154.640472 
	C659.742920,154.640472 663.655090,154.640472 667.034546,154.640472 
	C667.034546,142.140076 667.394226,130.000061 666.886963,117.896400 
	C666.622498,111.587112 663.103699,106.400604 656.935791,104.025543 
	C645.522644,99.630699 635.264709,103.013199 625.119324,109.020439 
	C627.111877,112.648926 628.830200,115.778084 630.521362,118.857719 
	C645.125061,112.267929 650.830994,113.045067 651.895630,121.650757 
	C649.967896,121.981819 648.029541,122.314713 645.258911,122.816673 
M771.502075,156.201950 
	C794.786621,155.844498 801.817322,130.147156 792.704041,114.257660 
	C787.503479,105.190102 776.797302,100.464188 766.715942,102.586914 
	C753.311890,105.409256 745.190857,116.820717 746.197021,131.419373 
	C747.185791,145.765961 756.429932,155.152130 771.502075,156.201950 
M970.980896,123.499657 
	C971.342957,130.618790 971.036865,137.853622 972.244385,144.826324 
	C973.606567,152.691895 978.922363,156.009872 986.926941,156.250183 
	C993.614319,156.450958 998.411987,152.877380 1003.348022,148.301239 
	C1003.941406,150.936554 1004.388367,152.921204 1004.776672,154.645630 
	C1009.176575,154.645630 1013.085571,154.645630 1016.790527,154.645630 
	C1016.790527,137.400558 1016.790527,120.516609 1016.790527,103.592209 
	C1011.688904,103.592209 1006.954041,103.592209 1002.162170,103.592209 
	C1002.048828,104.553955 1001.906494,105.204437 1001.905396,105.855148 
	C1001.889465,115.504280 1001.940613,125.153809 1001.868408,134.802429 
	C1001.836487,139.068771 997.988586,142.792938 993.579041,143.084320 
	C989.033386,143.384689 987.146301,141.606506 986.522339,136.132980 
	C986.259705,133.828751 986.280762,131.485733 986.273499,129.160034 
	C986.246948,120.713142 986.262939,112.266106 986.262939,103.663559 
	C980.903076,103.663559 976.050476,103.663559 970.980896,103.663559 
	C970.980896,110.204102 970.980896,116.352158 970.980896,123.499657 
M444.700806,115.089394 
	C438.818451,100.234734 418.521362,97.306664 403.638031,109.435020 
	C405.309479,112.522064 407.011475,115.665520 408.691162,118.767838 
	C423.913574,112.356590 429.658905,113.195358 429.884125,121.139359 
	C423.713837,122.843307 417.433472,123.963387 411.653809,126.314331 
	C402.448181,130.058807 399.104614,139.195312 403.080872,147.683273 
	C406.883240,155.799957 416.487457,158.700974 425.269592,154.289688 
	C427.563934,153.137222 429.700470,151.670563 432.091156,150.239456 
	C432.767609,152.073334 433.305847,153.532532 433.702728,154.608490 
	C438.072571,154.608490 441.966797,154.608490 446.496948,154.608490 
	C445.952240,141.418549 445.424896,128.649521 444.700806,115.089394 
M1230.544800,103.259720 
	C1225.515747,102.235023 1222.842407,104.199707 1222.143921,109.371475 
	C1221.746704,112.311829 1220.662598,115.160110 1219.879150,118.047470 
	C1218.049072,124.792198 1216.213623,131.535461 1214.100708,139.307678 
	C1210.381958,127.759781 1207.131958,117.348923 1203.594727,107.036530 
	C1203.080566,105.537537 1201.300171,103.599518 1199.919312,103.435715 
	C1195.861572,102.954353 1191.709961,103.264130 1187.113525,103.264130 
	C1187.830811,105.309822 1188.317993,106.860115 1188.912109,108.368317 
	C1194.455444,122.440262 1200.045776,136.493759 1205.559937,150.577087 
	C1207.860840,156.453842 1204.270508,162.443176 1198.202271,162.967941 
	C1196.742554,163.094177 1195.262817,162.986694 1193.494751,162.986694 
	C1192.644287,166.734711 1191.821533,170.359985 1191.008301,173.943802 
	C1202.475952,177.339142 1211.645142,173.780426 1216.941040,164.011627 
	C1218.675293,160.812576 1220.113647,157.412140 1221.319458,153.974701 
	C1226.820557,138.292862 1232.199219,122.568069 1237.587891,106.847023 
	C1237.937988,105.826065 1238.002930,104.707367 1238.269531,103.259827 
	C1235.732666,103.259827 1233.588135,103.259827 1230.544800,103.259720 
M1066.258423,141.578735 
	C1061.934937,142.466125 1057.605591,144.097809 1053.289551,144.063248 
	C1047.103394,144.013733 1043.601807,140.001221 1043.153442,133.730164 
	C1053.088257,133.730164 1062.999146,133.730164 1074.194214,133.730164 
	C1073.579346,127.825089 1073.692017,122.301903 1072.329102,117.170616 
	C1069.361572,105.998093 1058.868164,100.113724 1047.558838,102.546104 
	C1037.144287,104.786034 1029.528442,113.054497 1027.930054,123.856827 
	C1025.991577,136.957413 1030.559204,147.771973 1040.265991,153.064438 
	C1049.772827,158.247894 1063.501831,156.957733 1071.785278,149.912842 
	C1070.209961,147.273148 1068.604858,144.583420 1066.258423,141.578735 
M709.783569,103.536446 
	C706.022827,103.365578 702.262085,103.194702 697.984375,103.000343 
	C697.984375,98.427704 697.984375,94.189751 697.984375,90.171082 
	C693.385986,90.171082 689.338318,90.171082 685.379456,90.171082 
	C684.739441,94.734764 684.165405,98.828300 683.562988,103.124069 
	C680.965149,103.511414 678.551941,103.871216 676.148438,104.229584 
	C676.148438,108.030914 676.148438,111.574203 676.148438,115.219368 
	C678.452454,115.408195 680.409119,115.568550 683.010559,115.781746 
	C683.010559,123.884888 682.756531,131.848938 683.078003,139.789688 
	C683.439026,148.707138 688.340698,154.961029 695.988525,155.766129 
	C701.138489,156.308258 706.428101,155.524994 712.276184,155.312057 
	C711.267212,150.653107 710.510620,147.159744 709.762085,143.703217 
	C701.646179,144.591217 698.763245,143.430038 698.422302,138.167709 
	C697.942261,130.757736 698.300903,123.293434 698.300903,115.242226 
	C702.597107,115.242226 706.492310,115.242226 710.375427,115.242226 
	C710.375427,111.146362 710.375427,107.671555 709.783569,103.536446 
M497.718567,152.940262 
	C508.759247,158.303925 520.663696,157.061005 527.863953,149.607742 
	C525.900269,146.529755 523.904175,143.401062 521.933411,140.312088 
	C513.766052,144.855881 508.713104,144.683594 504.728607,140.056763 
	C500.471741,135.113617 500.080811,124.926788 503.936035,119.402565 
	C507.520325,114.266563 512.107361,113.588356 520.597412,117.107506 
	C522.768250,114.112885 524.982971,111.057709 527.174255,108.034920 
	C517.248230,98.938332 500.319092,100.743401 491.382233,111.459846 
	C481.881622,122.852348 483.783325,144.828522 497.718567,152.940262 
M1141.692017,122.423409 
	C1141.820801,127.687149 1141.108154,133.143707 1142.260498,138.172928 
	C1144.398804,147.504074 1150.738647,153.610077 1160.177002,155.564194 
	C1168.547852,157.297348 1176.579834,156.242401 1183.512207,149.924240 
	C1181.422119,146.547394 1179.524292,143.481003 1177.647217,140.448242 
	C1168.572754,144.760681 1164.177246,144.606216 1160.220581,139.998886 
	C1155.848755,134.908157 1155.606689,124.354050 1159.737549,118.941422 
	C1163.309204,114.261436 1167.865234,113.695297 1176.155884,117.085701 
	C1178.313354,114.098053 1180.522461,111.038727 1182.712280,108.006134 
	C1168.949463,95.825256 1147.437256,103.159630 1141.692017,122.423409 
M611.271729,134.316727 
	C611.271729,117.050262 611.271729,99.783791 611.271729,82.405563 
	C605.908020,82.405563 601.041016,82.405563 596.068298,82.405563 
	C596.068298,102.406342 596.056885,122.042511 596.093811,141.678589 
	C596.096252,142.991623 596.377380,144.324280 596.676941,145.613403 
	C598.936096,155.333847 608.748413,159.427948 617.803589,154.268097 
	C617.090576,150.941940 617.214722,145.226196 615.478516,144.590393 
	C610.056702,142.604965 611.628479,138.764694 611.271729,134.316727 
M957.040100,133.400055 
	C957.040100,116.354218 957.040100,99.308372 957.040100,82.349098 
	C951.583923,82.349098 946.842041,82.349098 942.026672,82.349098 
	C942.026672,102.917557 941.755615,123.183228 942.152710,143.435791 
	C942.324951,152.221039 947.727661,156.472748 956.644653,156.114395 
	C958.819458,156.026993 962.785828,155.095169 962.807007,154.449188 
	C962.918213,151.060074 962.870422,145.187775 961.334717,144.658859 
	C955.242859,142.560822 957.589539,138.070358 957.040100,133.400055 
M470.333618,82.040726 
	C466.571747,82.040726 462.809875,82.040726 458.991394,82.040726 
	C458.991394,102.797714 458.731506,122.905212 459.105682,143.000916 
	C459.281525,152.445221 464.904083,156.765930 474.700958,156.055252 
	C476.576019,155.919235 479.964661,154.588531 479.933472,153.939819 
	C479.773346,150.608902 479.660797,145.295929 477.793732,144.432281 
	C473.701996,142.539581 474.060059,139.860916 474.054504,136.792343 
	C474.024231,119.998955 474.064484,103.205399 474.005463,86.412155 
	C473.998901,84.542259 475.115814,81.667816 470.333618,82.040726 
M735.922913,126.500031 
	C735.922913,118.907326 735.922913,111.314621 735.922913,103.624420 
	C730.460144,103.624420 725.596741,103.624420 720.647034,103.624420 
	C720.647034,120.893517 720.647034,137.780136 720.647034,154.691422 
	C725.838257,154.691422 730.728210,154.691422 735.922913,154.691422 
	C735.922913,145.409286 735.922913,136.454651 735.922913,126.500031 
M730.051941,80.035011 
	C729.056580,80.012131 728.052124,79.891663 727.067322,79.982925 
	C722.266602,80.427826 719.104675,83.645699 719.169128,87.948112 
	C719.234863,92.333099 722.885803,95.719978 727.746460,95.905113 
	C732.195435,96.074570 736.065613,93.537857 736.773254,89.654579 
	C737.655090,84.816010 735.483459,81.666245 730.051941,80.035011 
z"/>
<path fill="#FFFFFF" opacity="1.000000" stroke="none" 
	d="
M268.000000,249.000000 
	C570.661133,249.000000 872.822266,248.999298 1174.983398,249.001740 
	C1192.683228,249.001892 1205.759644,257.681152 1210.292725,272.729492 
	C1211.333252,276.183167 1211.929565,279.913055 1211.932007,283.516327 
	C1212.014282,408.180695 1212.013428,532.845093 1211.986328,657.509460 
	C1211.982300,676.206726 1197.588745,690.759338 1178.933472,691.137451 
	C1177.434082,691.167847 1175.933838,691.161926 1174.433960,691.161926 
	C818.773804,691.162842 463.113647,691.144897 107.453514,691.250427 
	C96.978218,691.253540 87.653748,689.207214 80.067513,681.638733 
	C73.524223,675.110718 69.999496,667.270081 69.999474,657.947449 
	C69.999084,532.783081 69.983788,407.618744 70.015488,282.454376 
	C70.020264,263.615875 85.214310,249.068832 105.006813,249.026367 
	C145.505875,248.939453 186.005280,249.000092 226.504532,249.000000 
	C240.169693,248.999969 253.834839,249.000000 268.000000,249.000000 
M714.143005,420.651520 
	C724.718262,414.197449 729.108337,404.375580 728.796143,392.423401 
	C728.488892,380.663544 723.464783,371.717133 711.294495,367.637787 
	C712.174927,366.797729 712.577209,366.274353 713.099426,365.936432 
	C722.444885,359.888824 725.480530,351.184723 723.809998,340.513794 
	C722.256348,330.589539 716.864624,323.181000 707.278687,320.575073 
	C700.076721,318.617249 692.119019,317.647064 684.746704,318.469177 
	C667.748901,320.364777 658.189087,335.428253 659.206970,352.245789 
	C663.385925,352.245789 667.575562,352.245789 671.675842,352.245789 
	C674.881958,335.922455 681.260132,329.185181 692.529419,329.876892 
	C702.885681,330.512573 709.757263,336.120148 709.826599,344.934113 
	C709.854858,348.529266 708.788513,352.742157 706.742493,355.625427 
	C701.504700,363.006805 693.122375,363.494629 684.971191,363.239014 
	C684.971191,367.357880 684.971191,370.900269 684.971191,374.430054 
	C705.606812,374.962799 713.752869,380.164001 714.288025,392.850708 
	C714.752136,403.853119 707.137451,412.517944 695.850464,413.831024 
	C680.580261,415.607513 673.092957,409.244019 669.571106,391.323120 
	C665.386353,391.323120 661.164001,391.323120 656.980042,391.323120 
	C655.474854,405.438354 661.968872,417.642853 674.413696,422.696777 
	C687.536987,428.026306 700.732056,427.371368 714.143005,420.651520 
M740.805115,590.126648 
	C739.952515,594.304688 739.099915,598.482666 738.169678,603.040955 
	C761.978333,603.040955 785.045898,603.040955 808.231018,603.040955 
	C808.231018,599.119507 808.231018,595.534729 808.231018,591.244629 
	C790.293091,591.244629 772.612488,591.244629 754.781067,591.244629 
	C756.400940,584.300415 760.085022,579.665405 767.434387,574.547302 
	C777.926147,567.240845 788.833313,560.433655 798.712097,552.370667 
	C809.323914,543.709412 811.250305,531.422302 808.294922,518.701721 
	C805.315796,505.879028 795.852112,499.680878 783.459534,497.186951 
	C762.630005,492.995148 744.885376,504.855469 741.963806,525.028870 
	C740.496460,535.160767 740.610718,535.180298 750.953247,535.037781 
	C753.902527,534.997131 755.042297,534.179932 755.232056,531.119812 
	C755.425110,528.007324 756.091919,524.826416 757.134766,521.882202 
	C760.716797,511.768494 770.569702,506.691040 780.715332,509.472534 
	C791.206299,512.348633 796.607422,521.165894 794.687988,532.018494 
	C793.346619,539.602417 788.799988,545.018372 782.844788,549.259277 
	C775.122375,554.758728 767.068848,559.790771 759.237732,565.140869 
	C750.450073,571.144470 744.073181,579.030945 740.805115,590.126648 
M798.306274,418.217010 
	C798.306274,412.138519 798.306274,406.060028 798.306274,399.422424 
	C803.576111,399.422424 807.989807,399.422424 812.731934,399.422424 
	C812.731934,396.691345 812.539673,394.527191 812.774658,392.410522 
	C813.180908,388.751740 811.926575,387.182068 808.078735,387.538177 
	C804.994873,387.823578 801.863586,387.595886 798.209595,387.595886 
	C798.209595,363.905884 798.209595,340.878632 798.209595,318.348022 
	C790.306335,315.928802 785.917664,319.010498 781.777649,325.227539 
	C769.336304,343.910339 756.459839,362.322479 743.159729,380.403687 
	C738.691162,386.478607 738.790100,392.462769 739.498657,399.605927 
	C741.370300,399.605927 742.994324,399.605927 744.618408,399.605927 
	C756.439819,399.605957 768.267334,399.825958 780.079468,399.495117 
	C784.653320,399.367065 785.783875,400.907471 785.551758,405.185486 
	C785.212891,411.430359 785.464722,417.707306 785.464722,424.238892 
	C789.988647,424.238892 793.893311,424.238892 798.306274,424.238892 
	C798.306274,422.383362 798.306274,420.760559 798.306274,418.217010 
M692.340942,555.499939 
	C692.340942,571.283447 692.340942,587.067017 692.340942,603.009033 
	C697.078369,603.009033 701.299866,603.009033 705.550964,603.009033 
	C705.550964,567.415100 705.550964,532.196106 705.550964,496.547974 
	C703.062927,496.547974 700.796631,496.116455 698.813416,496.680359 
	C697.135315,497.157532 694.904907,498.501251 694.433228,499.953308 
	C691.535950,508.873138 685.236084,513.532715 676.410034,515.209351 
	C672.693237,515.915405 668.893677,516.186157 665.181885,516.648560 
	C665.181885,520.381714 665.181885,523.773193 665.181885,527.365784 
	C672.867004,527.365784 680.199829,527.539612 687.518494,527.292175 
	C691.153076,527.169250 692.570374,528.130432 692.423279,532.006836 
	C692.139221,539.494751 692.340820,547.001160 692.340942,555.499939 
M516.043274,537.590454 
	C516.043274,544.702026 516.043274,551.813599 516.043274,559.613159 
	C504.906952,559.613159 494.355713,559.613159 483.726349,559.613159 
	C483.726349,563.569153 483.726349,566.818420 483.726349,570.621887 
	C492.814301,570.621887 501.610199,570.900085 510.376526,570.511230 
	C515.167114,570.298706 516.291687,572.024170 516.134277,576.476440 
	C515.824219,585.246155 516.042908,594.034607 516.042908,603.055115 
	C519.922119,603.055115 523.304199,603.055115 527.181946,603.055115 
	C527.181946,593.939209 527.426758,585.143494 527.081543,576.371094 
	C526.901428,571.793091 528.219421,570.308533 532.901306,570.512390 
	C541.650513,570.893250 550.428162,570.621887 559.216431,570.621887 
	C559.216431,566.564514 559.216431,563.196960 559.216431,559.300171 
	C548.352539,559.300171 537.939880,559.300171 527.066406,559.300171 
	C527.066406,548.347473 527.066406,537.923645 527.066406,527.343323 
	C523.221008,527.343323 519.859863,527.343323 516.043762,527.343323 
	C516.043762,530.687317 516.043762,533.657532 516.043274,537.590454 
M768.500122,636.768616 
	C671.299072,636.768616 574.097961,636.768616 476.411926,636.768616 
	C477.012085,638.336548 477.049469,638.799805 477.248474,638.884888 
	C477.822784,639.130249 478.462250,639.357056 479.076111,639.357056 
	C591.700623,639.357910 704.325073,639.339233 816.949585,639.289001 
	C817.349243,639.288818 817.763428,638.840210 818.136658,638.556152 
	C818.218933,638.493469 818.157104,638.239502 818.158997,638.073608 
	C818.160889,637.906982 818.159485,637.740417 818.159485,636.768616 
	C801.952698,636.768616 785.726440,636.768616 768.500122,636.768616 
z"/>
<path fill="#F8FDFA" opacity="1.000000" stroke="none" 
	d="
M262.165833,89.611145 
	C266.947632,102.948555 271.604675,115.898163 276.332947,129.045807 
	C280.886261,116.088196 285.441010,103.458229 289.708160,90.731812 
	C290.680817,87.830994 292.031769,86.829605 295.016602,87.013924 
	C299.121948,87.267441 303.254669,87.077400 307.616333,87.077400 
	C307.616333,109.856522 307.616333,132.111542 307.616333,154.690063 
	C303.148010,154.690063 298.755951,154.690063 294.445038,154.690063 
	C294.445038,140.041260 294.445038,125.469055 294.445038,110.350334 
	C293.734680,112.288437 293.127197,113.940369 292.523590,115.593712 
	C288.873932,125.590668 285.084717,135.540207 281.661377,145.614075 
	C280.629700,148.649994 278.955017,149.138611 276.155579,149.167755 
	C273.202393,149.198502 271.318512,148.798950 270.208618,145.513107 
	C266.484863,134.488663 262.400452,123.585991 258.447021,112.639252 
	C258.143372,111.798492 257.784729,110.977585 257.442841,110.125450 
	C257.442841,125.028381 257.442841,139.721817 257.442841,154.717102 
	C253.648331,154.717102 249.383148,154.717102 244.741608,154.717102 
	C244.741608,132.393173 244.741608,110.014587 244.741608,87.083069 
	C249.634460,87.083069 254.419235,86.965561 259.189087,87.180084 
	C260.168396,87.224129 261.091858,88.509933 262.165833,89.611145 
z"/>
<path fill="#F9FDFB" opacity="1.000000" stroke="none" 
	d="
M84.925468,151.296860 
	C82.183022,146.108582 79.154106,141.451111 77.140739,136.389664 
	C74.963463,130.916168 71.442932,129.714233 65.812340,131.281799 
	C65.812340,138.876297 65.812340,146.621964 65.812340,154.683228 
	C60.460423,154.683228 55.578426,154.683228 50.410400,154.683228 
	C50.410400,132.388092 50.410400,110.159058 50.410400,86.969208 
	C63.142902,87.847992 76.106918,85.070236 88.682846,89.401489 
	C95.737770,91.831261 99.738358,97.253464 100.634323,104.645897 
	C101.606102,112.663773 99.936829,119.894699 93.236580,125.214325 
	C92.073357,126.137848 90.782990,126.901222 89.030243,128.092850 
	C93.917206,136.803940 98.814941,145.534210 104.128990,155.006592 
	C98.600220,155.006592 93.694305,155.241425 88.838287,154.852783 
	C87.510666,154.746536 86.332825,152.768692 84.925468,151.296860 
M81.394997,100.833649 
	C76.301056,100.193253 71.207115,99.552864 66.000641,98.898323 
	C66.000641,106.075706 66.000641,111.953064 66.000641,118.012367 
	C69.910774,118.012367 73.541725,118.288109 77.111122,117.937363 
	C80.931953,117.561913 84.060295,115.762032 85.202240,111.693222 
	C86.364967,107.550346 86.045914,103.811699 81.394997,100.833649 
z"/>
<path fill="#FBFDFC" opacity="1.000000" stroke="none" 
	d="
M168.006317,101.116135 
	C173.427979,112.547935 173.714447,124.011620 170.082428,135.513367 
	C165.865265,148.868042 155.461685,156.194595 141.579498,156.201309 
	C127.717003,156.207993 117.337982,148.826050 112.997650,135.567078 
	C109.966270,126.306702 109.881592,116.848892 112.549858,107.511841 
	C115.987579,95.482201 123.975403,87.967407 136.425873,86.302818 
	C149.712799,84.526405 160.806229,88.519020 168.006317,101.116135 
M156.231583,125.621613 
	C155.767487,120.200577 155.989075,114.605354 154.667297,109.402199 
	C152.981583,102.766350 147.504135,99.126343 141.497269,99.158264 
	C135.487335,99.190201 129.930908,102.846657 128.422745,109.506317 
	C127.091537,115.384583 126.717781,121.704292 127.220085,127.720642 
	C127.977959,136.798065 133.856049,142.684616 140.944626,142.990097 
	C148.299866,143.307053 153.660263,138.261932 155.839630,128.934860 
	C156.027618,128.130371 156.046204,127.286308 156.231583,125.621613 
z"/>
<path fill="#FBFEFC" opacity="1.000000" stroke="none" 
	d="
M223.466827,155.005646 
	C222.039368,153.938141 220.574234,153.028854 220.170502,151.777191 
	C218.850082,147.683792 217.916199,143.465729 216.795425,139.148193 
	C210.025589,139.148193 203.395203,139.148193 196.265335,139.148193 
	C194.878189,144.214035 193.449493,149.431595 191.979767,154.799011 
	C186.888901,154.799011 181.956299,154.799011 176.448181,154.799011 
	C178.833099,147.079559 181.115799,139.644028 183.427872,132.217636 
	C187.676636,118.570442 192.044296,104.958923 196.127502,91.262512 
	C197.103638,87.988243 198.529373,86.666176 202.023758,87.012161 
	C206.606735,87.465927 212.355408,85.818398 215.526230,88.039291 
	C218.474182,90.104073 218.762482,96.038612 220.108643,100.305115 
	C225.801865,118.349045 231.452911,136.406281 237.291504,155.007065 
	C232.482590,155.007065 228.198898,155.007065 223.466827,155.005646 
M202.722702,126.938744 
	C206.157150,126.938744 209.591583,126.938744 213.596252,126.938744 
	C211.211731,117.410133 208.973801,108.467369 206.515274,98.643074 
	C204.183212,107.843208 202.025040,116.145699 200.067764,124.495277 
	C199.917114,125.137848 201.181747,126.112183 202.722702,126.938744 
z"/>
<path fill="#F9FDFB" opacity="1.000000" stroke="none" 
	d="
M1084.371826,144.952393 
	C1084.371948,130.989853 1084.371948,117.518768 1084.371948,103.655258 
	C1088.616699,103.655258 1092.519165,103.655258 1096.760620,103.655258 
	C1097.237183,105.402214 1097.781616,107.397888 1098.399170,109.661293 
	C1100.185059,108.351143 1101.757935,107.170044 1103.358643,106.027939 
	C1109.383667,101.728790 1115.921631,100.557487 1122.659180,103.825706 
	C1129.000610,106.901749 1130.640503,113.104134 1130.830078,119.376549 
	C1131.181641,131.012985 1130.930908,142.667648 1130.930908,154.662689 
	C1125.924561,154.662689 1121.025024,154.662689 1115.661133,154.662689 
	C1115.661133,148.401642 1115.673462,142.097107 1115.656860,135.792633 
	C1115.645996,131.629044 1115.763062,127.455605 1115.519409,123.304382 
	C1115.164551,117.260277 1113.261597,115.087814 1108.929810,115.215111 
	C1103.844238,115.364555 1099.921143,119.284370 1099.914673,124.269333 
	C1099.901489,134.253860 1099.910889,144.238419 1099.910889,154.616760 
	C1094.846924,154.616760 1089.948730,154.616760 1084.371704,154.616760 
	C1084.371704,151.655579 1084.371704,148.549713 1084.371826,144.952393 
z"/>
<path fill="#F6FCF9" opacity="1.000000" stroke="none" 
	d="
M582.832275,134.999634 
	C582.832214,141.792191 582.832214,148.084869 582.832214,154.694336 
	C578.572937,154.694336 574.656494,154.694336 570.339355,154.694336 
	C569.897156,152.888809 569.398743,150.853531 569.104431,149.651962 
	C564.229492,151.791763 559.444763,155.118256 554.275879,155.898117 
	C544.395142,157.388870 537.852905,152.324310 537.203918,142.318512 
	C536.379028,129.601852 537.004150,116.791161 537.004150,103.634262 
	C541.557983,103.634262 546.426270,103.634262 551.908875,103.634262 
	C551.908875,110.313881 551.905457,116.908264 551.910156,123.502655 
	C551.912903,127.328972 551.851013,131.157425 551.956848,134.981079 
	C552.119385,140.852966 553.974609,143.106583 558.427246,143.089966 
	C563.381836,143.071472 567.173889,139.356537 567.195435,134.344315 
	C567.239014,124.221863 567.208496,114.099083 567.208496,103.615860 
	C572.456543,103.615860 577.331299,103.615860 582.832275,103.615860 
	C582.832275,113.987511 582.832275,124.243637 582.832275,134.999634 
z"/>
<path fill="#FAFDFC" opacity="1.000000" stroke="none" 
	d="
M384.593872,138.723083 
	C386.047424,138.463303 387.726257,137.928665 388.308441,138.503876 
	C390.656708,140.824173 392.666534,143.486938 394.761841,145.976318 
	C386.412567,156.991699 369.528992,159.755417 356.793304,151.995346 
	C344.004822,144.203140 340.702911,131.821930 341.730103,117.910629 
	C342.764526,103.901215 348.917725,93.015114 362.682190,87.892517 
	C374.184845,83.611671 384.549500,85.975754 393.967743,94.686676 
	C391.327026,97.935020 388.766327,101.084953 386.011292,104.473915 
	C381.137909,100.970779 376.438507,97.970451 370.263123,99.727699 
	C362.644592,101.895592 357.958954,108.864479 357.279633,119.572701 
	C356.598846,130.303497 360.818970,139.239334 367.962585,141.940201 
	C373.972992,144.212616 379.392883,142.853317 384.593872,138.723083 
z"/>
<path fill="#FAFDFC" opacity="1.000000" stroke="none" 
	d="
M853.646362,146.908508 
	C853.646240,149.704590 853.646240,152.015457 853.646240,154.661926 
	C848.429565,154.661926 843.547668,154.661926 838.092957,154.661926 
	C838.092957,148.029007 838.097229,141.421036 838.091431,134.813049 
	C838.088074,130.980881 838.155334,127.146019 838.036133,123.317184 
	C837.855835,117.526062 835.833862,115.107597 831.467712,115.199913 
	C826.496338,115.305023 822.298279,119.374199 822.288574,124.167816 
	C822.268127,134.287613 822.282410,144.407486 822.282410,154.764648 
	C817.085815,154.764648 812.328369,154.764648 807.280762,154.764648 
	C807.280762,137.778137 807.280762,120.861412 807.280762,103.603813 
	C811.167908,103.603813 815.074524,103.603813 819.321838,103.603813 
	C819.757629,105.388504 820.207275,107.229721 820.771790,109.541328 
	C823.273865,107.835846 825.357971,106.277771 827.570312,104.930313 
	C839.304260,97.783669 851.632751,103.379807 852.924988,116.976433 
	C853.851624,126.726845 853.453491,136.603149 853.646362,146.908508 
z"/>
<path fill="#F8FDFA" opacity="1.000000" stroke="none" 
	d="
M888.369263,143.967789 
	C888.369446,124.849251 888.369446,106.226059 888.369446,87.342308 
	C902.795837,87.342308 916.702942,87.342308 930.925049,87.342308 
	C930.925049,91.525467 930.925049,95.571075 930.925049,100.052589 
	C922.002747,100.052589 913.245178,100.052589 904.205200,100.052589 
	C904.205200,105.385597 904.205200,110.293716 904.205200,115.642090 
	C911.701233,115.642090 919.134460,115.642090 926.951050,115.642090 
	C926.951050,120.108322 926.951050,124.149063 926.951050,128.597778 
	C919.527649,128.597778 912.107605,128.597778 904.215271,128.597778 
	C904.215271,137.386154 904.215271,145.799042 904.215271,154.609772 
	C898.866028,154.609772 893.967529,154.609772 888.369141,154.609772 
	C888.369141,151.333466 888.369141,147.898300 888.369263,143.967789 
z"/>
<path fill="#F9FDFB" opacity="1.000000" stroke="none" 
	d="
M645.675049,122.732147 
	C648.029541,122.314713 649.967896,121.981819 651.895630,121.650757 
	C650.830994,113.045067 645.125061,112.267929 630.521362,118.857719 
	C628.830200,115.778084 627.111877,112.648926 625.119324,109.020439 
	C635.264709,103.013199 645.522644,99.630699 656.935791,104.025543 
	C663.103699,106.400604 666.622498,111.587112 666.886963,117.896400 
	C667.394226,130.000061 667.034546,142.140076 667.034546,154.640472 
	C663.655090,154.640472 659.742920,154.640472 655.334106,154.640472 
	C654.963318,153.489532 654.475952,151.976898 653.886475,150.147156 
	C651.522034,151.590591 649.393250,153.091385 647.094788,154.257584 
	C638.273132,158.733536 628.685669,155.867874 624.878845,147.719330 
	C620.872009,139.142715 624.188049,130.288223 633.328979,126.292229 
	C637.092834,124.646873 641.269836,123.946739 645.675049,122.732147 
M638.125732,138.847183 
	C638.079041,144.290253 641.800781,144.559082 645.678345,144.053970 
	C651.589111,143.283997 653.128784,139.886200 651.692627,131.183044 
	C646.568481,132.267532 640.994019,132.277542 638.125732,138.847183 
z"/>
<path fill="#FAFDFC" opacity="1.000000" stroke="none" 
	d="
M771.048828,156.197418 
	C756.429932,155.152130 747.185791,145.765961 746.197021,131.419373 
	C745.190857,116.820717 753.311890,105.409256 766.715942,102.586914 
	C776.797302,100.464188 787.503479,105.190102 792.704041,114.257660 
	C801.817322,130.147156 794.786621,155.844498 771.048828,156.197418 
M762.211060,125.107193 
	C762.747070,129.656509 762.563293,134.471451 764.105164,138.649567 
	C764.948792,140.935608 768.674194,143.415100 771.164490,143.484192 
	C773.670227,143.553726 777.384033,141.344925 778.592285,139.080200 
	C782.030212,132.635696 781.998718,125.479416 778.447632,119.062279 
	C777.280090,116.952354 773.742920,115.038940 771.306763,115.060036 
	C768.880371,115.081039 766.192505,117.336464 764.171021,119.208153 
	C763.007935,120.285049 762.939209,122.543991 762.211060,125.107193 
z"/>
<path fill="#FCFEFD" opacity="1.000000" stroke="none" 
	d="
M970.980896,122.999939 
	C970.980896,116.352158 970.980896,110.204102 970.980896,103.663559 
	C976.050476,103.663559 980.903076,103.663559 986.262939,103.663559 
	C986.262939,112.266106 986.246948,120.713142 986.273499,129.160034 
	C986.280762,131.485733 986.259705,133.828751 986.522339,136.132980 
	C987.146301,141.606506 989.033386,143.384689 993.579041,143.084320 
	C997.988586,142.792938 1001.836487,139.068771 1001.868408,134.802429 
	C1001.940613,125.153809 1001.889465,115.504280 1001.905396,105.855148 
	C1001.906494,105.204437 1002.048828,104.553955 1002.162170,103.592209 
	C1006.954041,103.592209 1011.688904,103.592209 1016.790527,103.592209 
	C1016.790527,120.516609 1016.790527,137.400558 1016.790527,154.645630 
	C1013.085571,154.645630 1009.176575,154.645630 1004.776672,154.645630 
	C1004.388367,152.921204 1003.941406,150.936554 1003.348022,148.301239 
	C998.411987,152.877380 993.614319,156.450958 986.926941,156.250183 
	C978.922363,156.009872 973.606567,152.691895 972.244385,144.826324 
	C971.036865,137.853622 971.342957,130.618790 970.980896,122.999939 
z"/>
<path fill="#FBFEFC" opacity="1.000000" stroke="none" 
	d="
M444.799194,115.484940 
	C445.424896,128.649521 445.952240,141.418549 446.496948,154.608490 
	C441.966797,154.608490 438.072571,154.608490 433.702728,154.608490 
	C433.305847,153.532532 432.767609,152.073334 432.091156,150.239456 
	C429.700470,151.670563 427.563934,153.137222 425.269592,154.289688 
	C416.487457,158.700974 406.883240,155.799957 403.080872,147.683273 
	C399.104614,139.195312 402.448181,130.058807 411.653809,126.314331 
	C417.433472,123.963387 423.713837,122.843307 429.884125,121.139359 
	C429.658905,113.195358 423.913574,112.356590 408.691162,118.767838 
	C407.011475,115.665520 405.309479,112.522064 403.638031,109.435020 
	C418.521362,97.306664 438.818451,100.234734 444.799194,115.484940 
M424.086517,144.122467 
	C430.880157,141.451050 431.554382,140.057541 430.147583,130.833847 
	C427.105713,131.685059 424.018585,132.262299 421.169678,133.423752 
	C418.094879,134.677292 415.703796,136.917618 416.523438,140.685455 
	C417.312012,144.310440 420.341614,144.307083 424.086517,144.122467 
z"/>
<path fill="#F9FDFB" opacity="1.000000" stroke="none" 
	d="
M1230.994141,103.259773 
	C1233.588135,103.259827 1235.732666,103.259827 1238.269531,103.259827 
	C1238.002930,104.707367 1237.937988,105.826065 1237.587891,106.847023 
	C1232.199219,122.568069 1226.820557,138.292862 1221.319458,153.974701 
	C1220.113647,157.412140 1218.675293,160.812576 1216.941040,164.011627 
	C1211.645142,173.780426 1202.475952,177.339142 1191.008301,173.943802 
	C1191.821533,170.359985 1192.644287,166.734711 1193.494751,162.986694 
	C1195.262817,162.986694 1196.742554,163.094177 1198.202271,162.967941 
	C1204.270508,162.443176 1207.860840,156.453842 1205.559937,150.577087 
	C1200.045776,136.493759 1194.455444,122.440262 1188.912109,108.368317 
	C1188.317993,106.860115 1187.830811,105.309822 1187.113525,103.264130 
	C1191.709961,103.264130 1195.861572,102.954353 1199.919312,103.435715 
	C1201.300171,103.599518 1203.080566,105.537537 1203.594727,107.036530 
	C1207.131958,117.348923 1210.381958,127.759781 1214.100708,139.307678 
	C1216.213623,131.535461 1218.049072,124.792198 1219.879150,118.047470 
	C1220.662598,115.160110 1221.746704,112.311829 1222.143921,109.371475 
	C1222.842407,104.199707 1225.515747,102.235023 1230.994141,103.259773 
z"/>
<path fill="#F9FDFB" opacity="1.000000" stroke="none" 
	d="
M1066.629150,141.736206 
	C1068.604858,144.583420 1070.209961,147.273148 1071.785278,149.912842 
	C1063.501831,156.957733 1049.772827,158.247894 1040.265991,153.064438 
	C1030.559204,147.771973 1025.991577,136.957413 1027.930054,123.856827 
	C1029.528442,113.054497 1037.144287,104.786034 1047.558838,102.546104 
	C1058.868164,100.113724 1069.361572,105.998093 1072.329102,117.170616 
	C1073.692017,122.301903 1073.579346,127.825089 1074.194214,133.730164 
	C1062.999146,133.730164 1053.088257,133.730164 1043.153442,133.730164 
	C1043.601807,140.001221 1047.103394,144.013733 1053.289551,144.063248 
	C1057.605591,144.097809 1061.934937,142.466125 1066.629150,141.736206 
M1044.426636,123.636124 
	C1049.804932,123.636124 1055.183105,123.636124 1061.153442,123.636124 
	C1060.465332,121.104897 1060.247681,119.445038 1059.575073,117.996391 
	C1057.777588,114.124390 1052.818726,112.714516 1048.364258,114.644936 
	C1044.245361,116.429939 1042.334106,120.056442 1044.426636,123.636124 
z"/>
<path fill="#FBFEFC" opacity="1.000000" stroke="none" 
	d="
M710.079468,103.866592 
	C710.375427,107.671555 710.375427,111.146362 710.375427,115.242226 
	C706.492310,115.242226 702.597107,115.242226 698.300903,115.242226 
	C698.300903,123.293434 697.942261,130.757736 698.422302,138.167709 
	C698.763245,143.430038 701.646179,144.591217 709.762085,143.703217 
	C710.510620,147.159744 711.267212,150.653107 712.276184,155.312057 
	C706.428101,155.524994 701.138489,156.308258 695.988525,155.766129 
	C688.340698,154.961029 683.439026,148.707138 683.078003,139.789688 
	C682.756531,131.848938 683.010559,123.884888 683.010559,115.781746 
	C680.409119,115.568550 678.452454,115.408195 676.148438,115.219368 
	C676.148438,111.574203 676.148438,108.030914 676.148438,104.229584 
	C678.551941,103.871216 680.965149,103.511414 683.562988,103.124069 
	C684.165405,98.828300 684.739441,94.734764 685.379456,90.171082 
	C689.338318,90.171082 693.385986,90.171082 697.984375,90.171082 
	C697.984375,94.189751 697.984375,98.427704 697.984375,103.000343 
	C702.262085,103.194702 706.022827,103.365578 710.079468,103.866592 
z"/>
<path fill="#FAFDFB" opacity="1.000000" stroke="none" 
	d="
M497.398041,152.751556 
	C483.783325,144.828522 481.881622,122.852348 491.382233,111.459846 
	C500.319092,100.743401 517.248230,98.938332 527.174255,108.034920 
	C524.982971,111.057709 522.768250,114.112885 520.597412,117.107506 
	C512.107361,113.588356 507.520325,114.266563 503.936035,119.402565 
	C500.080811,124.926788 500.471741,135.113617 504.728607,140.056763 
	C508.713104,144.683594 513.766052,144.855881 521.933411,140.312088 
	C523.904175,143.401062 525.900269,146.529755 527.863953,149.607742 
	C520.663696,157.061005 508.759247,158.303925 497.398041,152.751556 
z"/>
<path fill="#FAFDFB" opacity="1.000000" stroke="none" 
	d="
M1141.793457,122.017792 
	C1147.437256,103.159630 1168.949463,95.825256 1182.712280,108.006134 
	C1180.522461,111.038727 1178.313354,114.098053 1176.155884,117.085701 
	C1167.865234,113.695297 1163.309204,114.261436 1159.737549,118.941422 
	C1155.606689,124.354050 1155.848755,134.908157 1160.220581,139.998886 
	C1164.177246,144.606216 1168.572754,144.760681 1177.647217,140.448242 
	C1179.524292,143.481003 1181.422119,146.547394 1183.512207,149.924240 
	C1176.579834,156.242401 1168.547852,157.297348 1160.177002,155.564194 
	C1150.738647,153.610077 1144.398804,147.504074 1142.260498,138.172928 
	C1141.108154,133.143707 1141.820801,127.687149 1141.793457,122.017792 
z"/>
<path fill="#FEFFFE" opacity="1.000000" stroke="none" 
	d="
M611.271790,134.788177 
	C611.628479,138.764694 610.056702,142.604965 615.478516,144.590393 
	C617.214722,145.226196 617.090576,150.941940 617.803589,154.268097 
	C608.748413,159.427948 598.936096,155.333847 596.676941,145.613403 
	C596.377380,144.324280 596.096252,142.991623 596.093811,141.678589 
	C596.056885,122.042511 596.068298,102.406342 596.068298,82.405563 
	C601.041016,82.405563 605.908020,82.405563 611.271729,82.405563 
	C611.271729,99.783791 611.271729,117.050262 611.271790,134.788177 
z"/>
<path fill="#FEFFFE" opacity="1.000000" stroke="none" 
	d="
M957.040100,133.881241 
	C957.589539,138.070358 955.242859,142.560822 961.334717,144.658859 
	C962.870422,145.187775 962.918213,151.060074 962.807007,154.449188 
	C962.785828,155.095169 958.819458,156.026993 956.644653,156.114395 
	C947.727661,156.472748 942.324951,152.221039 942.152710,143.435791 
	C941.755615,123.183228 942.026672,102.917557 942.026672,82.349098 
	C946.842041,82.349098 951.583923,82.349098 957.040100,82.349098 
	C957.040100,99.308372 957.040100,116.354218 957.040100,133.881241 
z"/>
<path fill="#FEFFFE" opacity="1.000000" stroke="none" 
	d="
M470.811707,82.041458 
	C475.115814,81.667816 473.998901,84.542259 474.005463,86.412155 
	C474.064484,103.205399 474.024231,119.998955 474.054504,136.792343 
	C474.060059,139.860916 473.701996,142.539581 477.793732,144.432281 
	C479.660797,145.295929 479.773346,150.608902 479.933472,153.939819 
	C479.964661,154.588531 476.576019,155.919235 474.700958,156.055252 
	C464.904083,156.765930 459.281525,152.445221 459.105682,143.000916 
	C458.731506,122.905212 458.991394,102.797714 458.991394,82.040726 
	C462.809875,82.040726 466.571747,82.040726 470.811707,82.041458 
z"/>
<path fill="#F4FBF8" opacity="1.000000" stroke="none" 
	d="
M735.922913,127.000015 
	C735.922913,136.454651 735.922913,145.409286 735.922913,154.691422 
	C730.728210,154.691422 725.838257,154.691422 720.647034,154.691422 
	C720.647034,137.780136 720.647034,120.893517 720.647034,103.624420 
	C725.596741,103.624420 730.460144,103.624420 735.922913,103.624420 
	C735.922913,111.314621 735.922913,118.907326 735.922913,127.000015 
z"/>
<path fill="#F6FCF9" opacity="1.000000" stroke="none" 
	d="
M730.454163,80.092422 
	C735.483459,81.666245 737.655090,84.816010 736.773254,89.654579 
	C736.065613,93.537857 732.195435,96.074570 727.746460,95.905113 
	C722.885803,95.719978 719.234863,92.333099 719.169128,87.948112 
	C719.104675,83.645699 722.266602,80.427826 727.067322,79.982925 
	C728.052124,79.891663 729.056580,80.012131 730.454163,80.092422 
z"/>
<path fill="#0B0B0B" opacity="1.000000" stroke="none" 
	d="
M713.833740,420.845367 
	C700.732056,427.371368 687.536987,428.026306 674.413696,422.696777 
	C661.968872,417.642853 655.474854,405.438354 656.980042,391.323120 
	C661.164001,391.323120 665.386353,391.323120 669.571106,391.323120 
	C673.092957,409.244019 680.580261,415.607513 695.850464,413.831024 
	C707.137451,412.517944 714.752136,403.853119 714.288025,392.850708 
	C713.752869,380.164001 705.606812,374.962799 684.971191,374.430054 
	C684.971191,370.900269 684.971191,367.357880 684.971191,363.239014 
	C693.122375,363.494629 701.504700,363.006805 706.742493,355.625427 
	C708.788513,352.742157 709.854858,348.529266 709.826599,344.934113 
	C709.757263,336.120148 702.885681,330.512573 692.529419,329.876892 
	C681.260132,329.185181 674.881958,335.922455 671.675842,352.245789 
	C667.575562,352.245789 663.385925,352.245789 659.206970,352.245789 
	C658.189087,335.428253 667.748901,320.364777 684.746704,318.469177 
	C692.119019,317.647064 700.076721,318.617249 707.278687,320.575073 
	C716.864624,323.181000 722.256348,330.589539 723.809998,340.513794 
	C725.480530,351.184723 722.444885,359.888824 713.099426,365.936432 
	C712.577209,366.274353 712.174927,366.797729 711.294495,367.637787 
	C723.464783,371.717133 728.488892,380.663544 728.796143,392.423401 
	C729.108337,404.375580 724.718262,414.197449 713.833740,420.845367 
z"/>
<path fill="#0A0A0A" opacity="1.000000" stroke="none" 
	d="
M740.875061,589.734497 
	C744.073181,579.030945 750.450073,571.144470 759.237732,565.140869 
	C767.068848,559.790771 775.122375,554.758728 782.844788,549.259277 
	C788.799988,545.018372 793.346619,539.602417 794.687988,532.018494 
	C796.607422,521.165894 791.206299,512.348633 780.715332,509.472534 
	C770.569702,506.691040 760.716797,511.768494 757.134766,521.882202 
	C756.091919,524.826416 755.425110,528.007324 755.232056,531.119812 
	C755.042297,534.179932 753.902527,534.997131 750.953247,535.037781 
	C740.610718,535.180298 740.496460,535.160767 741.963806,525.028870 
	C744.885376,504.855469 762.630005,492.995148 783.459534,497.186951 
	C795.852112,499.680878 805.315796,505.879028 808.294922,518.701721 
	C811.250305,531.422302 809.323914,543.709412 798.712097,552.370667 
	C788.833313,560.433655 777.926147,567.240845 767.434387,574.547302 
	C760.085022,579.665405 756.400940,584.300415 754.781067,591.244629 
	C772.612488,591.244629 790.293091,591.244629 808.231018,591.244629 
	C808.231018,595.534729 808.231018,599.119507 808.231018,603.040955 
	C785.045898,603.040955 761.978333,603.040955 738.169678,603.040955 
	C739.099915,598.482666 739.952515,594.304688 740.875061,589.734497 
z"/>
<path fill="#090909" opacity="1.000000" stroke="none" 
	d="
M798.306274,418.677368 
	C798.306274,420.760559 798.306274,422.383362 798.306274,424.238892 
	C793.893311,424.238892 789.988647,424.238892 785.464722,424.238892 
	C785.464722,417.707306 785.212891,411.430359 785.551758,405.185486 
	C785.783875,400.907471 784.653320,399.367065 780.079468,399.495117 
	C768.267334,399.825958 756.439819,399.605957 744.618408,399.605927 
	C742.994324,399.605927 741.370300,399.605927 739.498657,399.605927 
	C738.790100,392.462769 738.691162,386.478607 743.159729,380.403687 
	C756.459839,362.322479 769.336304,343.910339 781.777649,325.227539 
	C785.917664,319.010498 790.306335,315.928802 798.209595,318.348022 
	C798.209595,340.878632 798.209595,363.905884 798.209595,387.595886 
	C801.863586,387.595886 804.994873,387.823578 808.078735,387.538177 
	C811.926575,387.182068 813.180908,388.751740 812.774658,392.410522 
	C812.539673,394.527191 812.731934,396.691345 812.731934,399.422424 
	C807.989807,399.422424 803.576111,399.422424 798.306274,399.422424 
	C798.306274,406.060028 798.306274,412.138519 798.306274,418.677368 
M765.794861,366.262482 
	C761.174255,373.076996 756.553650,379.891541 751.251160,387.711731 
	C761.781799,387.711731 771.181152,387.555206 780.570801,387.787781 
	C784.399170,387.882629 785.755737,386.889954 785.673279,382.802124 
	C785.405273,369.508881 785.581909,356.206818 785.554932,342.908234 
	C785.552490,341.689056 785.319031,340.470367 785.059631,337.965027 
	C778.288086,347.897644 772.234375,356.777252 765.794861,366.262482 
z"/>
<path fill="#0D0D0D" opacity="1.000000" stroke="none" 
	d="
M692.341003,554.999878 
	C692.340820,547.001160 692.139221,539.494751 692.423279,532.006836 
	C692.570374,528.130432 691.153076,527.169250 687.518494,527.292175 
	C680.199829,527.539612 672.867004,527.365784 665.181885,527.365784 
	C665.181885,523.773193 665.181885,520.381714 665.181885,516.648560 
	C668.893677,516.186157 672.693237,515.915405 676.410034,515.209351 
	C685.236084,513.532715 691.535950,508.873138 694.433228,499.953308 
	C694.904907,498.501251 697.135315,497.157532 698.813416,496.680359 
	C700.796631,496.116455 703.062927,496.547974 705.550964,496.547974 
	C705.550964,532.196106 705.550964,567.415100 705.550964,603.009033 
	C701.299866,603.009033 697.078369,603.009033 692.340942,603.009033 
	C692.340942,587.067017 692.340942,571.283447 692.341003,554.999878 
z"/>
<path fill="#101010" opacity="1.000000" stroke="none" 
	d="
M516.043518,537.109070 
	C516.043762,533.657532 516.043762,530.687317 516.043762,527.343323 
	C519.859863,527.343323 523.221008,527.343323 527.066406,527.343323 
	C527.066406,537.923645 527.066406,548.347473 527.066406,559.300171 
	C537.939880,559.300171 548.352539,559.300171 559.216431,559.300171 
	C559.216431,563.196960 559.216431,566.564514 559.216431,570.621887 
	C550.428162,570.621887 541.650513,570.893250 532.901306,570.512390 
	C528.219421,570.308533 526.901428,571.793091 527.081543,576.371094 
	C527.426758,585.143494 527.181946,593.939209 527.181946,603.055115 
	C523.304199,603.055115 519.922119,603.055115 516.042908,603.055115 
	C516.042908,594.034607 515.824219,585.246155 516.134277,576.476440 
	C516.291687,572.024170 515.167114,570.298706 510.376526,570.511230 
	C501.610199,570.900085 492.814301,570.621887 483.726349,570.621887 
	C483.726349,566.818420 483.726349,563.569153 483.726349,559.613159 
	C494.355713,559.613159 504.906952,559.613159 516.043274,559.613159 
	C516.043274,551.813599 516.043274,544.702026 516.043518,537.109070 
z"/>
<path fill="#000000" opacity="1.000000" stroke="none" 
	d="
M769.000122,636.768616 
	C785.726440,636.768616 801.952698,636.768616 818.159485,636.768616 
	C818.159485,637.740417 818.160889,637.906982 818.158997,638.073608 
	C818.157104,638.239502 818.218933,638.493469 818.136658,638.556152 
	C817.763428,638.840210 817.349243,639.288818 816.949585,639.289001 
	C704.325073,639.339233 591.700623,639.357910 479.076111,639.357056 
	C478.462250,639.357056 477.822784,639.130249 477.248474,638.884888 
	C477.049469,638.799805 477.012085,638.336548 476.411926,636.768616 
	C574.097961,636.768616 671.299072,636.768616 769.000122,636.768616 
z"/>
<path fill="#0DAC5F" opacity="1.000000" stroke="none" 
	d="
M81.761726,100.984192 
	C86.045914,103.811699 86.364967,107.550346 85.202240,111.693222 
	C84.060295,115.762032 80.931953,117.561913 77.111122,117.937363 
	C73.541725,118.288109 69.910774,118.012367 66.000641,118.012367 
	C66.000641,111.953064 66.000641,106.075706 66.000641,98.898323 
	C71.207115,99.552864 76.301056,100.193253 81.761726,100.984192 
z"/>
<path fill="#0AAB5D" opacity="1.000000" stroke="none" 
	d="
M156.187531,126.041122 
	C156.046204,127.286308 156.027618,128.130371 155.839630,128.934860 
	C153.660263,138.261932 148.299866,143.307053 140.944626,142.990097 
	C133.856049,142.684616 127.977959,136.798065 127.220085,127.720642 
	C126.717781,121.704292 127.091537,115.384583 128.422745,109.506317 
	C129.930908,102.846657 135.487335,99.190201 141.497269,99.158264 
	C147.504135,99.126343 152.981583,102.766350 154.667297,109.402199 
	C155.989075,114.605354 155.767487,120.200577 156.187531,126.041122 
z"/>
<path fill="#0DAC5F" opacity="1.000000" stroke="none" 
	d="
M202.255615,126.935524 
	C201.181747,126.112183 199.917114,125.137848 200.067764,124.495277 
	C202.025040,116.145699 204.183212,107.843208 206.515274,98.643074 
	C208.973801,108.467369 211.211731,117.410133 213.596252,126.938744 
	C209.591583,126.938744 206.157150,126.938744 202.255615,126.935524 
z"/>
<path fill="#0DAC5F" opacity="1.000000" stroke="none" 
	d="
M638.212402,138.470856 
	C640.994019,132.277542 646.568481,132.267532 651.692627,131.183044 
	C653.128784,139.886200 651.589111,143.283997 645.678345,144.053970 
	C641.800781,144.559082 638.079041,144.290253 638.212402,138.470856 
z"/>
<path fill="#0DAC5F" opacity="1.000000" stroke="none" 
	d="
M762.294434,124.689026 
	C762.939209,122.543991 763.007935,120.285049 764.171021,119.208153 
	C766.192505,117.336464 768.880371,115.081039 771.306763,115.060036 
	C773.742920,115.038940 777.280090,116.952354 778.447632,119.062279 
	C781.998718,125.479416 782.030212,132.635696 778.592285,139.080200 
	C777.384033,141.344925 773.670227,143.553726 771.164490,143.484192 
	C768.674194,143.415100 764.948792,140.935608 764.105164,138.649567 
	C762.563293,134.471451 762.747070,129.656509 762.294434,124.689026 
z"/>
<path fill="#1AB168" opacity="1.000000" stroke="none" 
	d="
M423.673523,144.166107 
	C420.341614,144.307083 417.312012,144.310440 416.523438,140.685455 
	C415.703796,136.917618 418.094879,134.677292 421.169678,133.423752 
	C424.018585,132.262299 427.105713,131.685059 430.147583,130.833847 
	C431.554382,140.057541 430.880157,141.451050 423.673523,144.166107 
z"/>
<path fill="#1AB168" opacity="1.000000" stroke="none" 
	d="
M1044.035400,123.618820 
	C1042.334106,120.056442 1044.245361,116.429939 1048.364258,114.644936 
	C1052.818726,112.714516 1057.777588,114.124390 1059.575073,117.996391 
	C1060.247681,119.445038 1060.465332,121.104897 1061.153442,123.636124 
	C1055.183105,123.636124 1049.804932,123.636124 1044.035400,123.618820 
z"/>
<path fill="#EFEFEF" opacity="1.000000" stroke="none" 
	d="
M765.987793,365.959686 
	C772.234375,356.777252 778.288086,347.897644 785.059631,337.965027 
	C785.319031,340.470367 785.552490,341.689056 785.554932,342.908234 
	C785.581909,356.206818 785.405273,369.508881 785.673279,382.802124 
	C785.755737,386.889954 784.399170,387.882629 780.570801,387.787781 
	C771.181152,387.555206 761.781799,387.711731 751.251160,387.711731 
	C756.553650,379.891541 761.174255,373.076996 765.987793,365.959686 
z"/>
</svg>