<svg xmlns="http://www.w3.org/2000/svg" xmlns:xlink="http://www.w3.org/1999/xlink" width="1280" zoomAndPan="magnify" viewBox="0 0 960 540.000001" height="720" preserveAspectRatio="xMidYMid meet" version="1.0"><defs><g/><clipPath id="9d34c5a2b6"><path d="M 0.886719 0 L 959.113281 0 L 959.113281 539 L 0.886719 539 Z M 0.886719 0 " clip-rule="nonzero"/></clipPath><clipPath id="f6bc8bcd25"><path d="M 55.882812 197.796875 L 904.117188 197.796875 L 904.117188 518.714844 L 55.882812 518.714844 Z M 55.882812 197.796875 " clip-rule="nonzero"/></clipPath><clipPath id="1a074deec6"><path d="M 81.335938 197.796875 L 878.664062 197.796875 C 885.414062 197.796875 891.886719 200.480469 896.660156 205.253906 C 901.433594 210.027344 904.117188 216.5 904.117188 223.25 L 904.117188 493.261719 C 904.117188 500.015625 901.433594 506.488281 896.660156 511.261719 C 891.886719 516.035156 885.414062 518.714844 878.664062 518.714844 L 81.335938 518.714844 C 74.585938 518.714844 68.109375 516.035156 63.339844 511.261719 C 58.566406 506.488281 55.882812 500.015625 55.882812 493.261719 L 55.882812 223.25 C 55.882812 216.5 58.566406 210.027344 63.339844 205.253906 C 68.109375 200.480469 74.585938 197.796875 81.335938 197.796875 " clip-rule="nonzero"/></clipPath><clipPath id="423134f7e4"><path d="M 490.519531 223.976562 L 630.503906 223.976562 L 630.503906 348.996094 L 490.519531 348.996094 Z M 490.519531 223.976562 " clip-rule="nonzero"/></clipPath><clipPath id="bce96bd5a8"><path d="M 329.433594 223.976562 L 469.417969 223.976562 L 469.417969 348.996094 L 329.433594 348.996094 Z M 329.433594 223.976562 " clip-rule="nonzero"/></clipPath><clipPath id="ed14af761e"><path d="M 490.519531 367.242188 L 630.503906 367.242188 L 630.503906 492.257812 L 490.519531 492.257812 Z M 490.519531 367.242188 " clip-rule="nonzero"/></clipPath><clipPath id="83f22fe65a"><path d="M 329.433594 367.242188 L 469.417969 367.242188 L 469.417969 492.257812 L 329.433594 492.257812 Z M 329.433594 367.242188 " clip-rule="nonzero"/></clipPath><clipPath id="845609f224"><path d="M 787 225.097656 L 817 225.097656 L 817 314.183594 L 787 314.183594 Z M 787 225.097656 " clip-rule="nonzero"/></clipPath><clipPath id="a34d80caf9"><path d="M 767.625 246 L 782 246 L 782 293 L 767.625 293 Z M 767.625 246 " clip-rule="nonzero"/></clipPath><clipPath id="02a6e37d3d"><path d="M 848 230 L 868.6875 230 L 868.6875 310 L 848 310 Z M 848 230 " clip-rule="nonzero"/></clipPath></defs><g clip-path="url(#9d34c5a2b6)"><path fill="#ffffff" d="M 0.886719 0 L 959.113281 0 L 959.113281 539 L 0.886719 539 Z M 0.886719 0 " fill-opacity="1" fill-rule="nonzero"/><path fill="#eb9504" d="M 0.886719 0 L 959.113281 0 L 959.113281 539 L 0.886719 539 Z M 0.886719 0 " fill-opacity="1" fill-rule="nonzero"/></g><g clip-path="url(#f6bc8bcd25)"><g clip-path="url(#1a074deec6)"><path fill="#ffffff" d="M 55.882812 197.796875 L 904.117188 197.796875 L 904.117188 518.714844 L 55.882812 518.714844 Z M 55.882812 197.796875 " fill-opacity="1" fill-rule="nonzero"/></g></g><g fill="#ffffff" fill-opacity="1"><g transform="translate(63.143301, 166.691354)"><g><path d="M 7.78125 -107.046875 L 46.0625 -107.046875 C 56.351562 -107.046875 64.742188 -104.296875 71.234375 -98.796875 C 77.722656 -93.304688 80.96875 -85.457031 80.96875 -75.25 C 80.96875 -67.382812 79 -60.789062 75.0625 -55.46875 C 71.125 -50.144531 65.78125 -46.40625 59.03125 -44.25 L 95.890625 0 L 64.875 0 L 32.171875 -42.296875 L 32.171875 0 L 7.78125 0 Z M 32.171875 -59.5625 L 35.03125 -59.5625 C 37.28125 -59.5625 39.179688 -59.601562 40.734375 -59.6875 C 42.296875 -59.769531 44.070312 -60.070312 46.0625 -60.59375 C 48.050781 -61.113281 49.648438 -61.847656 50.859375 -62.796875 C 52.066406 -63.742188 53.101562 -65.125 53.96875 -66.9375 C 54.84375 -68.757812 55.28125 -70.96875 55.28125 -73.5625 C 55.28125 -76.15625 54.84375 -78.359375 53.96875 -80.171875 C 53.101562 -81.992188 52.066406 -83.378906 50.859375 -84.328125 C 49.648438 -85.285156 48.050781 -86.023438 46.0625 -86.546875 C 44.070312 -87.066406 42.296875 -87.367188 40.734375 -87.453125 C 39.179688 -87.535156 37.28125 -87.578125 35.03125 -87.578125 L 32.171875 -87.578125 Z M 32.171875 -59.5625 "/></g></g></g><g fill="#ffffff" fill-opacity="1"><g transform="translate(156.048475, 166.691354)"><g><path d="M 2.984375 -53.59375 C 2.984375 -69.070312 8.257812 -82.171875 18.8125 -92.890625 C 29.363281 -103.617188 42.078125 -108.984375 56.953125 -108.984375 C 71.921875 -108.984375 84.640625 -103.640625 95.109375 -92.953125 C 105.578125 -82.273438 110.8125 -69.15625 110.8125 -53.59375 C 110.8125 -37.9375 105.660156 -24.765625 95.359375 -14.078125 C 85.066406 -3.390625 72.265625 1.953125 56.953125 1.953125 C 41.296875 1.953125 28.382812 -3.34375 18.21875 -13.9375 C 8.0625 -24.539062 2.984375 -37.757812 2.984375 -53.59375 Z M 29.328125 -53.59375 C 29.328125 -47.96875 30.191406 -42.835938 31.921875 -38.203125 C 33.648438 -33.578125 36.675781 -29.664062 41 -26.46875 C 45.320312 -23.269531 50.640625 -21.671875 56.953125 -21.671875 C 66.035156 -21.671875 72.890625 -24.785156 77.515625 -31.015625 C 82.148438 -37.242188 84.46875 -44.769531 84.46875 -53.59375 C 84.46875 -62.320312 82.109375 -69.820312 77.390625 -76.09375 C 72.679688 -82.363281 65.867188 -85.5 56.953125 -85.5 C 48.128906 -85.5 41.316406 -82.363281 36.515625 -76.09375 C 31.722656 -69.820312 29.328125 -62.320312 29.328125 -53.59375 Z M 29.328125 -53.59375 "/></g></g></g><g fill="#ffffff" fill-opacity="1"><g transform="translate(269.844329, 166.691354)"><g><path d="M 62.15625 -107.046875 L 105.359375 0 L 79.140625 0 L 71.234375 -21.40625 L 30.484375 -21.40625 L 22.578125 0 L -3.640625 0 L 39.578125 -107.046875 Z M 62.921875 -42.8125 L 50.984375 -73.953125 L 50.734375 -73.953125 L 38.796875 -42.8125 Z M 62.921875 -42.8125 "/></g></g></g><g fill="#ffffff" fill-opacity="1"><g transform="translate(371.572901, 166.691354)"><g><path d="M 7.78125 -107.046875 L 46.0625 -107.046875 C 56.351562 -107.046875 64.742188 -104.296875 71.234375 -98.796875 C 77.722656 -93.304688 80.96875 -85.457031 80.96875 -75.25 C 80.96875 -67.382812 79 -60.789062 75.0625 -55.46875 C 71.125 -50.144531 65.78125 -46.40625 59.03125 -44.25 L 95.890625 0 L 64.875 0 L 32.171875 -42.296875 L 32.171875 0 L 7.78125 0 Z M 32.171875 -59.5625 L 35.03125 -59.5625 C 37.28125 -59.5625 39.179688 -59.601562 40.734375 -59.6875 C 42.296875 -59.769531 44.070312 -60.070312 46.0625 -60.59375 C 48.050781 -61.113281 49.648438 -61.847656 50.859375 -62.796875 C 52.066406 -63.742188 53.101562 -65.125 53.96875 -66.9375 C 54.84375 -68.757812 55.28125 -70.96875 55.28125 -73.5625 C 55.28125 -76.15625 54.84375 -78.359375 53.96875 -80.171875 C 53.101562 -81.992188 52.066406 -83.378906 50.859375 -84.328125 C 49.648438 -85.285156 48.050781 -86.023438 46.0625 -86.546875 C 44.070312 -87.066406 42.296875 -87.367188 40.734375 -87.453125 C 39.179688 -87.535156 37.28125 -87.578125 35.03125 -87.578125 L 32.171875 -87.578125 Z M 32.171875 -59.5625 "/></g></g></g><g fill="#ffffff" fill-opacity="1"><g transform="translate(464.478075, 166.691354)"><g/></g></g><g fill="#ffffff" fill-opacity="1"><g transform="translate(499.91258, 166.691354)"><g><path d="M 32.171875 -107.046875 L 32.171875 -21.40625 L 69.03125 -21.40625 L 69.03125 0 L 7.78125 0 L 7.78125 -107.046875 Z M 32.171875 -107.046875 "/></g></g></g><g fill="#ffffff" fill-opacity="1"><g transform="translate(573.224618, 166.691354)"><g><path d="M 75.125 -30.109375 L 26.859375 -30.109375 C 26.859375 -25.429688 28.367188 -21.96875 31.390625 -19.71875 C 34.421875 -17.46875 37.710938 -16.34375 41.265625 -16.34375 C 44.984375 -16.34375 47.921875 -16.835938 50.078125 -17.828125 C 52.242188 -18.828125 54.710938 -20.800781 57.484375 -23.75 L 74.09375 -15.4375 C 67.164062 -3.84375 55.660156 1.953125 39.578125 1.953125 C 29.535156 1.953125 20.925781 -1.484375 13.75 -8.359375 C 6.570312 -15.242188 2.984375 -23.53125 2.984375 -33.21875 C 2.984375 -42.90625 6.570312 -51.207031 13.75 -58.125 C 20.925781 -65.050781 29.535156 -68.515625 39.578125 -68.515625 C 50.128906 -68.515625 58.710938 -65.460938 65.328125 -59.359375 C 71.941406 -53.265625 75.25 -44.550781 75.25 -33.21875 C 75.25 -31.65625 75.207031 -30.617188 75.125 -30.109375 Z M 27.5 -42.8125 L 52.8125 -42.8125 C 52.289062 -46.269531 50.925781 -48.929688 48.71875 -50.796875 C 46.507812 -52.660156 43.675781 -53.59375 40.21875 -53.59375 C 36.414062 -53.59375 33.390625 -52.597656 31.140625 -50.609375 C 28.890625 -48.617188 27.675781 -46.019531 27.5 -42.8125 Z M 27.5 -42.8125 "/></g></g></g><g fill="#ffffff" fill-opacity="1"><g transform="translate(651.467378, 166.691354)"><g><path d="M 11.671875 -66.5625 L 11.671875 -91.34375 L 34.640625 -91.34375 L 34.640625 -66.5625 L 48.65625 -66.5625 L 48.65625 -49.046875 L 34.640625 -49.046875 L 34.640625 -27.890625 C 34.640625 -21.753906 36.367188 -18.6875 39.828125 -18.6875 C 40.691406 -18.6875 41.597656 -18.859375 42.546875 -19.203125 C 43.503906 -19.546875 44.242188 -19.890625 44.765625 -20.234375 L 45.546875 -20.765625 L 51.25 -2.203125 C 46.320312 0.566406 40.703125 1.953125 34.390625 1.953125 C 30.054688 1.953125 26.332031 1.195312 23.21875 -0.3125 C 20.101562 -1.832031 17.742188 -3.867188 16.140625 -6.421875 C 14.546875 -8.972656 13.398438 -11.65625 12.703125 -14.46875 C 12.015625 -17.28125 11.671875 -20.285156 11.671875 -23.484375 L 11.671875 -49.046875 L 2.078125 -49.046875 L 2.078125 -66.5625 Z M 11.671875 -66.5625 "/></g></g></g><g fill="#ffffff" fill-opacity="1"><g transform="translate(702.720946, 166.691354)"><g><path d="M 11.671875 -66.5625 L 11.671875 -91.34375 L 34.640625 -91.34375 L 34.640625 -66.5625 L 48.65625 -66.5625 L 48.65625 -49.046875 L 34.640625 -49.046875 L 34.640625 -27.890625 C 34.640625 -21.753906 36.367188 -18.6875 39.828125 -18.6875 C 40.691406 -18.6875 41.597656 -18.859375 42.546875 -19.203125 C 43.503906 -19.546875 44.242188 -19.890625 44.765625 -20.234375 L 45.546875 -20.765625 L 51.25 -2.203125 C 46.320312 0.566406 40.703125 1.953125 34.390625 1.953125 C 30.054688 1.953125 26.332031 1.195312 23.21875 -0.3125 C 20.101562 -1.832031 17.742188 -3.867188 16.140625 -6.421875 C 14.546875 -8.972656 13.398438 -11.65625 12.703125 -14.46875 C 12.015625 -17.28125 11.671875 -20.285156 11.671875 -23.484375 L 11.671875 -49.046875 L 2.078125 -49.046875 L 2.078125 -66.5625 Z M 11.671875 -66.5625 "/></g></g></g><g fill="#ffffff" fill-opacity="1"><g transform="translate(753.974502, 166.691354)"><g><path d="M 75.125 -30.109375 L 26.859375 -30.109375 C 26.859375 -25.429688 28.367188 -21.96875 31.390625 -19.71875 C 34.421875 -17.46875 37.710938 -16.34375 41.265625 -16.34375 C 44.984375 -16.34375 47.921875 -16.835938 50.078125 -17.828125 C 52.242188 -18.828125 54.710938 -20.800781 57.484375 -23.75 L 74.09375 -15.4375 C 67.164062 -3.84375 55.660156 1.953125 39.578125 1.953125 C 29.535156 1.953125 20.925781 -1.484375 13.75 -8.359375 C 6.570312 -15.242188 2.984375 -23.53125 2.984375 -33.21875 C 2.984375 -42.90625 6.570312 -51.207031 13.75 -58.125 C 20.925781 -65.050781 29.535156 -68.515625 39.578125 -68.515625 C 50.128906 -68.515625 58.710938 -65.460938 65.328125 -59.359375 C 71.941406 -53.265625 75.25 -44.550781 75.25 -33.21875 C 75.25 -31.65625 75.207031 -30.617188 75.125 -30.109375 Z M 27.5 -42.8125 L 52.8125 -42.8125 C 52.289062 -46.269531 50.925781 -48.929688 48.71875 -50.796875 C 46.507812 -52.660156 43.675781 -53.59375 40.21875 -53.59375 C 36.414062 -53.59375 33.390625 -52.597656 31.140625 -50.609375 C 28.890625 -48.617188 27.675781 -46.019531 27.5 -42.8125 Z M 27.5 -42.8125 "/></g></g></g><g fill="#ffffff" fill-opacity="1"><g transform="translate(832.217262, 166.691354)"><g><path d="M 7.78125 0 L 7.78125 -66.5625 L 30.75 -66.5625 L 30.75 -56.953125 L 31.015625 -56.953125 C 31.179688 -57.304688 31.457031 -57.738281 31.84375 -58.25 C 32.238281 -58.769531 33.082031 -59.675781 34.375 -60.96875 C 35.675781 -62.269531 37.0625 -63.441406 38.53125 -64.484375 C 40 -65.523438 41.898438 -66.457031 44.234375 -67.28125 C 46.578125 -68.101562 48.957031 -68.515625 51.375 -68.515625 C 53.882812 -68.515625 56.347656 -68.164062 58.765625 -67.46875 C 61.191406 -66.78125 62.96875 -66.085938 64.09375 -65.390625 L 65.90625 -64.359375 L 56.3125 -44.890625 C 53.457031 -47.316406 49.476562 -48.53125 44.375 -48.53125 C 41.601562 -48.53125 39.222656 -47.921875 37.234375 -46.703125 C 35.242188 -45.492188 33.835938 -44.023438 33.015625 -42.296875 C 32.191406 -40.566406 31.609375 -39.097656 31.265625 -37.890625 C 30.921875 -36.679688 30.75 -35.726562 30.75 -35.03125 L 30.75 0 Z M 7.78125 0 "/></g></g></g><g clip-path="url(#423134f7e4)"><path stroke-linecap="butt" transform="matrix(0.748301, 0, 0, 0.747006, 490.517774, 223.977898)" fill="none" stroke-linejoin="miter" d="M 0.00234802 -0.00178778 L 187.071944 -0.00178778 L 187.071944 167.359001 L 0.00234802 167.359001 L 0.00234802 -0.00178778 " stroke="#000000" stroke-width="10" stroke-opacity="1" stroke-miterlimit="4"/></g><g clip-path="url(#bce96bd5a8)"><path stroke-linecap="butt" transform="matrix(0.748301, 0, 0, 0.747006, 329.43348, 223.977898)" fill="none" stroke-linejoin="miter" d="M 0.000151885 -0.00178778 L 187.069747 -0.00178778 L 187.069747 167.359001 L 0.000151885 167.359001 L 0.000151885 -0.00178778 " stroke="#000000" stroke-width="10" stroke-opacity="1" stroke-miterlimit="4"/></g><g clip-path="url(#ed14af761e)"><path stroke-linecap="butt" transform="matrix(0.748301, 0, 0, 0.747006, 490.517774, 367.240487)" fill="none" stroke-linejoin="miter" d="M 0.00234802 0.00227619 L 187.071944 0.00227619 L 187.071944 167.357836 L 0.00234802 167.357836 L 0.00234802 0.00227619 " stroke="#000000" stroke-width="10" stroke-opacity="1" stroke-miterlimit="4"/></g><g clip-path="url(#83f22fe65a)"><path stroke-linecap="butt" transform="matrix(0.748301, 0, 0, 0.747006, 329.43348, 367.240487)" fill="none" stroke-linejoin="miter" d="M 0.000151885 0.00227619 L 187.069747 0.00227619 L 187.069747 167.357836 L 0.000151885 167.357836 L 0.000151885 0.00227619 " stroke="#000000" stroke-width="10" stroke-opacity="1" stroke-miterlimit="4"/></g><g clip-path="url(#845609f224)"><path fill="#231f20" d="M 787.195312 292.523438 L 816.527344 314.183594 L 816.527344 225.097656 L 787.195312 246.753906 Z M 787.195312 292.523438 " fill-opacity="1" fill-rule="nonzero"/></g><g clip-path="url(#a34d80caf9)"><path fill="#231f20" d="M 767.636719 246.753906 L 781.488281 246.753906 L 781.488281 292.523438 L 767.636719 292.523438 Z M 767.636719 246.753906 " fill-opacity="1" fill-rule="nonzero"/></g><path fill="#231f20" d="M 822.984375 257.160156 C 822.027344 258.117188 822.027344 259.667969 822.984375 260.625 C 825.382812 263.035156 826.707031 266.234375 826.707031 269.640625 C 826.707031 273.042969 825.382812 276.246094 822.984375 278.65625 C 822.027344 279.613281 822.027344 281.164062 822.984375 282.121094 C 823.460938 282.601562 824.085938 282.839844 824.710938 282.839844 C 825.335938 282.839844 825.960938 282.601562 826.441406 282.121094 C 829.765625 278.785156 831.59375 274.355469 831.59375 269.640625 C 831.59375 264.925781 829.765625 260.492188 826.441406 257.160156 C 825.484375 256.203125 823.9375 256.199219 822.984375 257.160156 Z M 822.984375 257.160156 " fill-opacity="1" fill-rule="nonzero"/><path fill="#231f20" d="M 839.542969 244.019531 C 838.585938 243.0625 837.039062 243.0625 836.085938 244.019531 C 835.128906 244.976562 835.128906 246.527344 836.082031 247.484375 C 841.980469 253.410156 845.226562 261.277344 845.226562 269.640625 C 845.226562 278.003906 841.980469 285.871094 836.082031 291.792969 C 835.128906 292.75 835.128906 294.300781 836.085938 295.257812 C 836.5625 295.738281 837.1875 295.976562 837.8125 295.976562 C 838.4375 295.976562 839.0625 295.738281 839.542969 295.257812 C 846.359375 288.410156 850.117188 279.3125 850.117188 269.640625 C 850.117188 259.96875 846.359375 250.867188 839.542969 244.019531 Z M 839.542969 244.019531 " fill-opacity="1" fill-rule="nonzero"/><g clip-path="url(#02a6e37d3d)"><path fill="#231f20" d="M 852.632812 230.886719 C 851.675781 229.929688 850.128906 229.929688 849.175781 230.886719 C 848.21875 231.84375 848.21875 233.394531 849.175781 234.351562 C 858.570312 243.777344 863.746094 256.308594 863.746094 269.640625 C 863.746094 282.96875 858.570312 295.5 849.171875 304.925781 C 848.21875 305.886719 848.21875 307.4375 849.171875 308.394531 C 849.652344 308.875 850.277344 309.113281 850.902344 309.113281 C 851.527344 309.113281 852.152344 308.875 852.628906 308.394531 C 862.953125 298.039062 868.636719 284.277344 868.636719 269.640625 C 868.636719 255 862.953125 241.238281 852.632812 230.886719 Z M 852.632812 230.886719 " fill-opacity="1" fill-rule="nonzero"/></g><g fill="#000000" fill-opacity="1"><g transform="translate(383.409461, 305.71547)"><g><path d="M 23.421875 10.890625 L 23.421875 -3.78125 L 22.90625 -3.875 C 21.851562 -2.363281 20.570312 -1.253906 19.0625 -0.546875 C 17.5625 0.160156 15.835938 0.515625 13.890625 0.515625 C 11.742188 0.515625 9.84375 0.00390625 8.1875 -1.015625 C 6.539062 -2.046875 5.253906 -3.585938 4.328125 -5.640625 C 3.410156 -7.691406 2.953125 -10.222656 2.953125 -13.234375 C 2.953125 -16.367188 3.4375 -18.988281 4.40625 -21.09375 C 5.382812 -23.207031 6.726562 -24.785156 8.4375 -25.828125 C 10.15625 -26.867188 12.144531 -27.390625 14.40625 -27.390625 C 16.1875 -27.390625 17.796875 -27.054688 19.234375 -26.390625 C 20.671875 -25.722656 21.894531 -24.609375 22.90625 -23.046875 L 23.421875 -23.15625 L 23.421875 -26.875 L 27.390625 -26.875 L 27.390625 10.890625 Z M 15.1875 -3.046875 C 16.8125 -3.046875 18.238281 -3.40625 19.46875 -4.125 C 20.707031 -4.851562 21.675781 -5.976562 22.375 -7.5 C 23.070312 -9.03125 23.421875 -10.941406 23.421875 -13.234375 C 23.421875 -16.828125 22.671875 -19.488281 21.171875 -21.21875 C 19.679688 -22.957031 17.6875 -23.828125 15.1875 -23.828125 C 9.800781 -23.828125 7.109375 -20.296875 7.109375 -13.234375 C 7.109375 -9.742188 7.8125 -7.171875 9.21875 -5.515625 C 10.625 -3.867188 12.613281 -3.046875 15.1875 -3.046875 Z M 15.1875 -3.046875 "/></g></g></g><g fill="#000000" fill-opacity="1"><g transform="translate(544.505395, 305.71547)"><g><path d="M 4.671875 10.890625 L 4.671875 -26.875 L 8.65625 -26.875 L 8.65625 -22.859375 L 9.15625 -22.765625 C 11.15625 -25.847656 14.085938 -27.390625 17.953125 -27.390625 C 20.203125 -27.390625 22.160156 -26.875 23.828125 -25.84375 C 25.503906 -24.820312 26.804688 -23.269531 27.734375 -21.1875 C 28.660156 -19.101562 29.125 -16.515625 29.125 -13.421875 C 29.125 -10.359375 28.632812 -7.785156 27.65625 -5.703125 C 26.6875 -3.617188 25.335938 -2.0625 23.609375 -1.03125 C 21.890625 0 19.910156 0.515625 17.671875 0.515625 C 15.847656 0.515625 14.226562 0.195312 12.8125 -0.4375 C 11.40625 -1.070312 10.1875 -2.113281 9.15625 -3.5625 L 8.65625 -3.453125 L 8.65625 10.890625 Z M 16.796875 -3.046875 C 22.234375 -3.046875 24.953125 -6.503906 24.953125 -13.421875 C 24.953125 -20.359375 22.234375 -23.828125 16.796875 -23.828125 C 15.203125 -23.828125 13.796875 -23.460938 12.578125 -22.734375 C 11.359375 -22.003906 10.398438 -20.863281 9.703125 -19.3125 C 9.003906 -17.757812 8.65625 -15.796875 8.65625 -13.421875 C 8.65625 -11.066406 9.003906 -9.113281 9.703125 -7.5625 C 10.398438 -6.007812 11.359375 -4.867188 12.578125 -4.140625 C 13.796875 -3.410156 15.203125 -3.046875 16.796875 -3.046875 Z M 16.796875 -3.046875 "/></g></g></g><g fill="#000000" fill-opacity="1"><g transform="translate(387.029709, 448.978044)"><g><path d="M 12.25 0.515625 C 10.5625 0.515625 9 0.289062 7.5625 -0.15625 C 6.125 -0.601562 4.910156 -1.21875 3.921875 -2 C 2.929688 -2.78125 2.234375 -3.65625 1.828125 -4.625 L 4.171875 -7.0625 L 4.671875 -7.0625 C 5.554688 -5.726562 6.613281 -4.722656 7.84375 -4.046875 C 9.082031 -3.378906 10.550781 -3.046875 12.25 -3.046875 C 14.238281 -3.046875 15.75 -3.429688 16.78125 -4.203125 C 17.8125 -4.972656 18.328125 -6.050781 18.328125 -7.4375 C 18.328125 -8.488281 18.015625 -9.359375 17.390625 -10.046875 C 16.765625 -10.742188 15.753906 -11.257812 14.359375 -11.59375 L 9.828125 -12.71875 C 7.398438 -13.300781 5.628906 -14.226562 4.515625 -15.5 C 3.398438 -16.769531 2.84375 -18.335938 2.84375 -20.203125 C 2.84375 -21.660156 3.21875 -22.929688 3.96875 -24.015625 C 4.71875 -25.097656 5.796875 -25.929688 7.203125 -26.515625 C 8.609375 -27.097656 10.273438 -27.390625 12.203125 -27.390625 C 14.671875 -27.390625 16.613281 -27.039062 18.03125 -26.34375 C 19.457031 -25.65625 20.570312 -24.695312 21.375 -23.46875 L 19.125 -21.28125 L 18.640625 -21.28125 C 17.773438 -22.269531 16.832031 -22.984375 15.8125 -23.421875 C 14.800781 -23.859375 13.597656 -24.078125 12.203125 -24.078125 C 10.429688 -24.078125 9.070312 -23.757812 8.125 -23.125 C 7.1875 -22.488281 6.71875 -21.570312 6.71875 -20.375 C 6.71875 -19.28125 7.050781 -18.398438 7.71875 -17.734375 C 8.382812 -17.066406 9.546875 -16.53125 11.203125 -16.125 L 15.671875 -15.0625 C 18.003906 -14.507812 19.691406 -13.585938 20.734375 -12.296875 C 21.773438 -11.015625 22.296875 -9.410156 22.296875 -7.484375 C 22.296875 -5.910156 21.921875 -4.519531 21.171875 -3.3125 C 20.429688 -2.113281 19.300781 -1.175781 17.78125 -0.5 C 16.269531 0.175781 14.425781 0.515625 12.25 0.515625 Z M 12.25 0.515625 "/></g></g></g><g fill="#000000" fill-opacity="1"><g transform="translate(553.769471, 448.978044)"><g><path d="M 4.671875 0 L 4.671875 -26.875 L 8.453125 -26.875 L 8.453125 -22.65625 L 8.96875 -22.546875 C 10.21875 -25.597656 12.570312 -27.125 16.03125 -27.125 C 17.863281 -27.125 19.238281 -26.789062 20.15625 -26.125 L 19.125 -22.765625 L 18.640625 -22.65625 C 17.628906 -23.164062 16.523438 -23.421875 15.328125 -23.421875 C 13.179688 -23.421875 11.53125 -22.613281 10.375 -21 C 9.226562 -19.394531 8.65625 -16.789062 8.65625 -13.1875 L 8.65625 0 Z M 4.671875 0 "/></g></g></g></svg>