<svg version="1.1" id="Layer_1" xmlns="http://www.w3.org/2000/svg" xmlns:xlink="http://www.w3.org/1999/xlink" x="0px" y="0px"
	 width="100%" viewBox="0 0 1280 720" enable-background="new 0 0 1280 720" xml:space="preserve">
<path fill="#0197B2" opacity="1.000000" stroke="none" 
	d="
M944.000000,721.000000 
	C629.372559,721.000000 315.245117,721.000000 1.058846,721.000000 
	C1.058846,481.069214 1.058846,241.138412 1.058846,1.103800 
	C427.544159,1.103800 854.088379,1.103800 1280.816284,1.103800 
	C1280.816284,240.999878 1280.816284,480.999939 1280.816284,721.000000 
	C1168.804932,721.000000 1056.652466,721.000000 944.000000,721.000000 
M1204.189209,261.351837 
	C1196.403320,252.103195 1186.258545,248.939178 1174.439941,248.941559 
	C818.807739,249.013504 463.175476,249.000076 107.543243,249.002289 
	C105.877060,249.002304 104.207588,248.973267 102.545189,249.061676 
	C84.494385,250.021851 70.034737,264.455566 70.027504,281.920715 
	C69.975571,407.408569 69.934456,532.896545 70.212662,658.383789 
	C70.225243,664.056091 72.318420,670.323730 75.221603,675.269836 
	C82.154129,687.080872 93.265541,691.273376 106.893181,691.265198 
	C344.870026,691.121643 582.847046,691.161804 820.823975,691.161865 
	C938.645874,691.161865 1056.469604,690.817505 1174.288208,691.441101 
	C1198.977905,691.571777 1212.370239,672.893250 1212.283447,653.650330 
	C1211.728271,530.664734 1211.984985,407.675446 1212.034912,284.687378 
	C1212.038330,276.214020 1209.886841,268.592346 1204.189209,261.351837 
M560.888000,145.304825 
	C555.233398,129.139969 549.634094,112.955223 543.833191,96.843048 
	C543.290405,95.335419 541.535889,93.274971 540.238831,93.195930 
	C533.981384,92.814613 527.687988,93.024239 521.296570,93.024239 
	C521.296570,122.253960 521.296570,150.970901 521.296570,179.713654 
	C527.175354,179.713654 532.751160,179.713654 539.233704,179.713654 
	C538.636963,160.429871 538.049988,141.461472 537.433838,121.548790 
	C538.190552,123.703743 538.651428,125.058670 539.140686,126.403275 
	C544.314514,140.622238 549.667419,154.779984 554.554932,169.096603 
	C555.877930,172.971848 558.348083,172.557388 561.140015,172.512314 
	C564.026917,172.465714 566.774658,173.173599 568.187073,169.007889 
	C572.883972,155.154648 578.082520,141.471405 583.097961,127.726357 
	C583.846191,125.675812 584.644226,123.643463 585.408752,121.630203 
	C584.817078,141.014771 584.229980,160.247726 583.635986,179.707550 
	C590.307556,179.707550 596.025208,179.707550 601.711548,179.707550 
	C601.711548,150.695511 601.711548,121.982475 601.711548,93.020767 
	C596.040100,93.020767 590.712769,93.249825 585.416870,92.940735 
	C581.850525,92.732574 580.185120,93.863121 579.035950,97.355911 
	C573.943848,112.832703 568.549500,128.210464 563.180237,143.594681 
	C562.851868,144.535507 561.797607,145.222992 560.888000,145.304825 
M400.550415,93.021507 
	C398.102264,93.021507 395.654083,93.021507 393.113342,93.021507 
	C393.113342,122.265846 393.113342,150.962555 393.113342,179.653503 
	C399.005005,179.653503 404.569183,179.653503 410.780731,179.653503 
	C410.254303,160.559036 409.737976,141.831345 409.193420,122.079208 
	C410.069611,124.357521 410.650177,125.797195 411.179871,127.255363 
	C416.230286,141.158142 421.437653,155.007629 426.207367,169.006165 
	C427.505402,172.815689 429.942688,172.576660 432.781555,172.513184 
	C435.654724,172.448944 438.565765,173.291382 439.925568,169.120087 
	C442.653534,160.752060 445.999084,152.586929 449.009857,144.309036 
	C451.845551,136.512527 454.578613,128.678696 457.217438,121.253487 
	C456.656830,140.559479 456.089447,160.097809 455.522247,179.630920 
	C462.271729,179.630920 467.986603,179.630920 473.674805,179.630920 
	C473.674805,150.677155 473.674805,122.097549 473.674805,93.021416 
	C467.821808,93.021416 462.194397,93.228516 456.592285,92.941780 
	C453.361694,92.776428 451.974365,93.906677 450.971191,96.933441 
	C445.743591,112.705933 440.293060,128.404587 434.895813,144.120575 
	C434.571930,145.063660 434.036987,145.934265 433.500366,147.045486 
	C428.489716,132.852005 423.654449,119.061584 418.751648,105.295197 
	C414.376282,93.009766 414.343353,93.021492 400.550415,93.021507 
M194.566208,96.791473 
	C191.396652,95.836594 188.260178,94.203545 185.051697,94.047073 
	C172.755219,93.447464 160.435684,93.317841 148.124496,93.024734 
	C146.545288,92.987129 144.964401,93.019577 143.414795,93.019577 
	C143.414795,122.392410 143.414795,150.985046 143.414795,179.596039 
	C150.068420,179.596039 156.435699,179.596039 163.269501,179.596039 
	C163.269501,169.117111 163.269501,159.043991 163.269501,149.421356 
	C171.230331,146.854401 175.308517,150.067184 178.189728,156.981354 
	C181.057327,163.862793 185.019592,170.297607 188.665939,176.836746 
	C189.373413,178.105484 190.798645,179.802628 191.957092,179.854065 
	C198.507309,180.144958 205.077103,179.994705 212.345749,179.994705 
	C205.578308,168.011337 199.234955,156.778931 192.909134,145.577530 
	C212.783646,131.925064 213.795700,108.228470 194.566208,96.791473 
M263.140106,181.597778 
	C277.974487,180.337952 289.110840,173.417450 295.107758,159.604340 
	C301.792999,144.205612 301.909119,128.433319 295.164795,113.051521 
	C288.537750,97.937370 275.966156,91.470833 259.974335,91.417999 
	C243.399399,91.363235 230.759766,99.946136 224.713364,114.558243 
	C220.843063,123.911423 220.312042,133.674332 221.220596,143.523529 
	C223.425339,167.424057 239.148407,181.913605 263.140106,181.597778 
M782.073730,165.494827 
	C782.073730,170.255157 782.073730,175.015488 782.073730,179.689087 
	C789.035889,179.689087 795.285278,179.689087 801.888123,179.689087 
	C801.888123,172.906296 801.990295,166.435394 801.864380,159.968903 
	C801.669983,149.988876 802.058533,139.921967 800.858032,130.055176 
	C799.151306,116.028572 789.119751,109.497581 775.403992,113.072777 
	C770.429993,114.369339 765.934387,117.501190 761.465332,119.676437 
	C761.465332,109.072769 761.465332,98.020615 761.465332,86.810402 
	C755.030579,86.810402 748.670593,86.810402 742.322083,86.810402 
	C742.322083,117.999893 742.322083,148.767685 742.322083,179.618027 
	C748.940430,179.618027 755.304565,179.618027 761.888123,179.618027 
	C761.888123,166.079132 761.882690,152.928955 761.890625,139.778763 
	C761.894104,134.003967 767.234619,129.112244 773.615662,129.011841 
	C779.196594,128.924011 781.859070,131.913742 781.998108,139.001846 
	C782.164734,147.497162 782.060608,155.997818 782.073730,165.494827 
M369.604980,180.004791 
	C374.000702,180.004791 378.396423,180.004791 383.239685,180.004791 
	C374.306549,151.395081 365.627808,123.500122 356.789185,95.655922 
	C356.432648,94.532799 354.588287,93.180489 353.395905,93.139702 
	C346.432678,92.901451 339.457153,93.022896 332.343964,93.022896 
	C323.276367,122.053436 314.303925,150.779327 305.175568,180.004364 
	C311.439178,180.004364 316.769287,180.217041 322.060974,179.860413 
	C323.449188,179.766846 325.443451,178.159256 325.910156,176.813675 
	C327.484070,172.275635 328.730011,167.587646 329.637787,162.867844 
	C330.212860,159.877838 331.646454,159.190613 334.405487,159.260040 
	C340.725739,159.419098 347.059082,159.476852 353.374298,159.237656 
	C356.377502,159.123917 357.413239,160.387512 358.025391,163.045364 
	C359.319336,168.663589 360.879089,174.220581 362.382355,180.004791 
	C364.686035,180.004791 366.667145,180.004791 369.604980,180.004791 
M674.796997,163.497574 
	C674.536377,153.515701 674.717896,143.496735 673.884583,133.562897 
	C673.127136,124.533775 668.743652,117.219482 659.703674,114.146957 
	C645.474304,109.310631 632.706909,113.688644 620.034973,120.944389 
	C622.595032,125.582962 624.862732,129.691772 626.475769,132.614410 
	C633.608337,130.901489 639.601013,128.775177 645.740967,128.187317 
	C651.504578,127.635498 654.079285,130.950851 654.475586,137.399902 
	C652.885925,137.616592 651.216003,137.650604 649.660278,138.089417 
	C642.495544,140.110275 634.968323,141.405731 628.312500,144.537170 
	C618.743103,149.039368 615.430359,159.401840 619.097900,169.202789 
	C622.534424,178.386673 631.493469,183.509552 641.649353,181.050186 
	C646.978210,179.759720 651.886841,176.734299 657.183228,174.405334 
	C657.641968,175.889832 658.255737,177.875763 658.818665,179.697266 
	C664.221497,179.697266 669.311096,179.697266 674.796936,179.697266 
	C674.796936,174.429459 674.796936,169.462555 674.796997,163.497574 
M968.795471,144.580215 
	C968.504089,140.598068 968.522278,136.563461 967.858337,132.644440 
	C966.376160,123.896095 962.221375,116.880814 953.304871,114.003845 
	C939.193787,109.450783 926.599487,113.769058 914.046936,120.931274 
	C916.582703,125.547195 918.846924,129.668793 920.511353,132.698593 
	C927.377625,130.959503 933.194092,128.793060 939.172241,128.164566 
	C945.313965,127.518867 947.952209,130.655899 948.526245,137.367081 
	C946.939819,137.593124 945.280090,137.645767 943.728271,138.082184 
	C936.561462,140.097763 929.032471,141.382996 922.370483,144.503723 
	C912.781860,148.995346 909.438354,159.337463 913.075684,169.141251 
	C916.490112,178.344223 925.445374,183.503937 935.586914,181.060974 
	C940.926086,179.774811 945.846985,176.751862 951.221436,174.397171 
	C951.647644,175.841919 952.234314,177.830460 952.791931,179.720566 
	C958.174866,179.720566 963.266296,179.720566 968.796509,179.720566 
	C968.796509,168.145309 968.796509,156.852478 968.795471,144.580215 
M846.793396,148.499969 
	C846.793396,158.912506 846.793396,169.325043 846.793396,179.851868 
	C853.640259,179.851868 859.768677,179.851868 866.607056,179.851868 
	C866.607056,168.679977 866.607056,157.642212 866.607056,146.175385 
	C876.907776,146.175385 886.508484,146.175385 896.256958,146.175385 
	C896.256958,140.507050 896.256958,135.302612 896.256958,129.661392 
	C886.266235,129.661392 876.654053,129.661392 866.826233,129.661392 
	C866.826233,122.857750 866.826233,116.504372 866.826233,109.542572 
	C878.594543,109.542572 889.982483,109.542572 901.323425,109.542572 
	C901.323425,103.696342 901.323425,98.471260 901.323425,93.318550 
	C883.003357,93.318550 865.078674,93.318550 846.793274,93.318550 
	C846.793274,111.575539 846.793274,129.537750 846.793396,148.499969 
M1120.708984,137.904663 
	C1117.755493,136.270935 1113.361816,135.365280 1114.753784,130.698975 
	C1116.221680,125.778366 1120.886719,126.458405 1124.453369,127.238792 
	C1128.391235,128.100388 1132.061157,130.186615 1136.198486,131.883270 
	C1138.827393,128.376114 1141.590454,124.689957 1144.532471,120.765152 
	C1133.972290,112.828751 1122.881958,109.900215 1110.472168,113.936310 
	C1102.385132,116.566536 1097.026978,121.810303 1096.020508,130.612671 
	C1094.959595,139.892487 1099.887573,145.795532 1107.551025,149.757950 
	C1111.968018,152.041763 1116.740601,153.627411 1121.257324,155.732712 
	C1124.119873,157.066925 1127.395386,158.610016 1126.515259,162.593445 
	C1125.600098,166.735962 1121.792358,167.536942 1118.566284,166.850052 
	C1112.682129,165.597198 1106.989380,163.445282 1100.356934,161.403748 
	C1098.314941,164.276398 1095.480713,168.263550 1092.676025,172.209274 
	C1104.683716,182.321579 1122.704590,184.592407 1134.737305,177.742203 
	C1141.311646,173.999405 1144.884766,168.412064 1145.067261,160.684601 
	C1145.248779,152.999466 1141.653564,147.552399 1135.154663,144.086380 
	C1130.774170,141.750153 1126.029541,140.096924 1120.708984,137.904663 
M714.465393,161.454819 
	C714.465393,150.885315 714.465393,140.315826 714.465393,129.249771 
	C719.039856,129.249771 723.968994,129.249771 728.968018,129.249771 
	C728.968018,123.882866 728.968018,119.014854 728.968018,113.635788 
	C723.687866,113.635788 718.779846,113.635788 713.353149,113.635788 
	C713.353149,107.544731 713.353149,101.965370 713.353149,96.369843 
	C707.683105,96.369843 702.569092,96.369843 697.199463,96.369843 
	C696.361755,102.256577 695.551392,107.951279 694.724976,113.758492 
	C691.326416,114.053070 688.235901,114.320953 685.091919,114.593468 
	C685.091919,119.658806 685.091919,124.236290 685.091919,129.010529 
	C688.111694,129.150482 690.839172,129.276901 693.955261,129.421341 
	C693.955261,139.772583 693.686401,149.580139 694.017700,159.367401 
	C694.527283,174.423172 703.627502,182.588470 718.634827,181.642212 
	C722.719543,181.384628 726.754028,180.329346 731.382507,179.543198 
	C730.273804,174.389984 729.288757,169.811523 728.256714,165.014465 
	C722.929932,166.376434 718.118408,167.449814 714.465393,161.454819 
M1085.707275,122.444504 
	C1085.707275,119.685982 1085.707275,116.927467 1085.707275,113.720207 
	C1080.039062,113.720207 1075.111206,113.720207 1069.680908,113.720207 
	C1069.680908,107.686859 1069.680908,102.107819 1069.680908,96.492340 
	C1063.926270,96.492340 1058.695068,96.492340 1053.415405,96.492340 
	C1052.585815,102.407852 1051.804321,107.980072 1051.008789,113.652779 
	C1047.546387,114.044151 1044.342163,114.406334 1041.393188,114.739677 
	C1041.393188,119.914856 1041.393188,124.474136 1041.393188,129.382523 
	C1044.399780,129.382523 1047.005005,129.382523 1050.054199,129.382523 
	C1050.054199,139.208755 1049.834229,148.672699 1050.116699,158.121613 
	C1050.393433,167.380432 1052.931641,175.792130 1062.444092,179.717117 
	C1070.654175,183.104782 1078.938599,182.024139 1087.521606,179.021103 
	C1086.483276,174.198303 1085.520752,169.728546 1084.564819,165.288956 
	C1082.322998,165.599548 1080.533936,166.003815 1078.732788,166.066895 
	C1073.793701,166.239929 1070.307007,163.790619 1070.132568,159.027267 
	C1069.775146,149.263519 1070.025269,139.477509 1070.025269,129.220490 
	C1075.271118,129.220490 1080.195923,129.220490 1085.707153,129.220490 
	C1085.707153,126.956276 1085.707153,125.173355 1085.707275,122.444504 
M1034.237427,118.841095 
	C1020.601562,108.374229 999.899048,110.810524 988.946472,124.170921 
	C977.390869,138.266983 978.885742,162.014328 992.069458,173.783585 
	C1003.990112,184.425339 1024.949951,184.324524 1035.633179,173.327759 
	C1033.221680,169.335724 1030.765625,165.269836 1028.244995,161.097000 
	C1025.994263,162.301163 1024.173584,163.434464 1022.229126,164.284439 
	C1017.290588,166.443222 1012.475464,166.224945 1008.089111,162.899445 
	C1001.090088,157.593231 999.270569,143.209351 1004.463745,134.899399 
	C1008.878784,127.834770 1016.032410,126.664177 1026.242310,131.641891 
	C1029.021240,127.645966 1031.850708,123.577461 1034.237427,118.841095 
z"/>
<path fill="#FFFFFF" opacity="1.000000" stroke="none" 
	d="
M1204.425049,261.619324 
	C1209.886841,268.592346 1212.038330,276.214020 1212.034912,284.687378 
	C1211.984985,407.675446 1211.728271,530.664734 1212.283447,653.650330 
	C1212.370239,672.893250 1198.977905,691.571777 1174.288208,691.441101 
	C1056.469604,690.817505 938.645874,691.161865 820.823975,691.161865 
	C582.847046,691.161804 344.870026,691.121643 106.893181,691.265198 
	C93.265541,691.273376 82.154129,687.080872 75.221603,675.269836 
	C72.318420,670.323730 70.225243,664.056091 70.212662,658.383789 
	C69.934456,532.896545 69.975571,407.408569 70.027504,281.920715 
	C70.034737,264.455566 84.494385,250.021851 102.545189,249.061676 
	C104.207588,248.973267 105.877060,249.002304 107.543243,249.002289 
	C463.175476,249.000076 818.807739,249.013504 1174.439941,248.941559 
	C1186.258545,248.939178 1196.403320,252.103195 1204.425049,261.619324 
M790.744385,444.720398 
	C789.344788,439.800201 788.721680,434.474213 786.401611,430.035034 
	C779.118286,416.099213 766.146606,411.590942 751.477112,410.785522 
	C729.419739,409.574585 711.268188,423.282623 708.540039,444.044922 
	C706.337891,460.803925 705.207458,457.109436 720.795410,457.650055 
	C723.374207,457.739502 724.157227,456.721436 724.389832,454.188019 
	C724.752136,450.243317 725.285095,446.225006 726.461609,442.461700 
	C729.529785,432.647430 737.873230,425.887512 747.741516,425.520111 
	C757.800293,425.145630 765.965759,429.046173 770.909790,438.188202 
	C776.154236,447.885620 773.737000,461.463562 764.196655,470.010590 
	C757.065979,476.398743 748.678894,481.369415 740.977173,487.139404 
	C733.154236,493.000244 724.771912,498.354462 717.921326,505.215363 
	C708.288330,514.862793 704.911987,527.542664 704.159607,541.104370 
	C732.862915,541.104370 761.087463,541.104370 789.250244,541.104370 
	C789.250244,536.176147 789.250244,531.611633 789.250244,526.530762 
	C767.337158,526.530762 745.779053,526.530762 723.391479,526.530762 
	C724.440308,523.859924 724.747620,521.524170 726.042542,520.064697 
	C730.307007,515.258301 734.407227,510.055603 739.526245,506.311981 
	C749.170837,499.258759 759.654541,493.365234 769.474426,486.536743 
	C783.616577,476.702698 791.982056,463.604492 790.744385,444.720398 
M459.610565,443.544617 
	C461.589020,457.048065 455.987549,467.311035 445.415680,474.966766 
	C436.132812,481.689087 426.412262,487.808746 416.859650,494.156464 
	C407.498230,500.377136 400.138123,508.335144 395.685547,518.739685 
	C392.621063,525.900452 390.945312,533.377502 390.852417,541.203308 
	C419.526733,541.203308 447.625824,541.203308 475.894287,541.203308 
	C475.894287,536.346130 475.894287,531.746582 475.894287,526.576355 
	C453.946564,526.576355 432.229248,526.576355 409.039490,526.576355 
	C411.633789,522.174133 412.941681,518.085632 415.703644,515.637573 
	C422.501770,509.612061 429.829620,504.148773 437.203430,498.817535 
	C445.272919,492.983337 453.980835,487.991058 461.775116,481.828186 
	C470.699005,474.772156 476.073608,465.254700 477.175293,453.705597 
	C479.563477,428.670135 464.969635,412.063629 438.536835,410.904633 
	C408.964661,409.607941 392.377014,430.318420 394.588928,457.247955 
	C399.777649,457.247955 405.000427,457.247955 410.483093,457.247955 
	C411.557129,441.367493 415.833344,427.758698 434.310333,425.539001 
	C445.567322,424.186615 454.897156,431.016876 459.610565,443.544617 
M601.057190,502.619415 
	C604.235718,502.233734 607.410034,501.561859 610.593506,501.515472 
	C620.534302,501.370667 630.478577,501.462311 640.476318,501.462311 
	C640.476318,496.708984 640.476318,492.644073 640.476318,487.969421 
	C627.245544,487.969421 614.351807,487.969421 600.983643,487.969421 
	C600.983643,474.436615 600.983643,461.508423 600.983643,448.229004 
	C596.435059,448.229004 592.378052,448.229004 588.362122,448.229004 
	C588.137939,448.607178 587.827576,448.887390 587.825012,449.170349 
	C587.744324,458.158966 587.665771,467.147736 587.644958,476.136658 
	C587.617249,488.085022 587.638123,488.085083 575.573792,488.085083 
	C566.465515,488.085083 557.357300,488.085083 547.748840,488.085083 
	C547.748840,491.684753 547.896301,494.655487 547.708801,497.604950 
	C547.505737,500.800568 549.003479,501.561737 551.901489,501.506104 
	C559.228577,501.365387 566.560303,501.461517 573.890137,501.462250 
	C578.333069,501.462708 582.776062,501.462311 587.671082,501.462311 
	C587.671082,515.145630 587.671082,528.062073 587.671082,541.006592 
	C592.331848,541.006592 596.510071,541.006592 600.984985,541.006592 
	C600.984985,528.235718 600.984985,515.920959 601.057190,502.619415 
M950.052551,506.338074 
	C923.096985,506.337769 896.141296,506.305817 869.185852,506.354736 
	C860.002380,506.371399 861.332031,504.982910 860.962891,514.621155 
	C860.805054,518.742737 861.985168,519.995789 866.213745,519.967834 
	C894.166443,519.783203 922.121033,519.876282 950.074951,519.860779 
	C951.352905,519.860046 952.630737,519.685608 954.298340,519.563477 
	C954.298340,515.982056 954.582764,512.639465 954.144592,509.394379 
	C953.990540,508.253418 952.064880,507.351624 950.052551,506.338074 
M949.232788,482.834473 
	C950.816406,482.745850 952.400085,482.657196 954.035217,482.565704 
	C954.035217,478.028229 954.035217,473.926544 954.035217,469.653381 
	C923.075806,469.653381 892.378296,469.653381 861.059814,469.653381 
	C861.059814,472.196686 861.301147,474.516785 861.009460,476.767792 
	C860.405823,481.425842 861.920837,483.001617 866.898010,482.955078 
	C894.028381,482.701355 921.162231,482.834412 949.232788,482.834473 
z"/>
<path fill="#FCFEFE" opacity="1.000000" stroke="none" 
	d="
M560.984497,145.666595 
	C561.797607,145.222992 562.851868,144.535507 563.180237,143.594681 
	C568.549500,128.210464 573.943848,112.832703 579.035950,97.355911 
	C580.185120,93.863121 581.850525,92.732574 585.416870,92.940735 
	C590.712769,93.249825 596.040100,93.020767 601.711548,93.020767 
	C601.711548,121.982475 601.711548,150.695511 601.711548,179.707550 
	C596.025208,179.707550 590.307556,179.707550 583.635986,179.707550 
	C584.229980,160.247726 584.817078,141.014771 585.408752,121.630203 
	C584.644226,123.643463 583.846191,125.675812 583.097961,127.726357 
	C578.082520,141.471405 572.883972,155.154648 568.187073,169.007889 
	C566.774658,173.173599 564.026917,172.465714 561.140015,172.512314 
	C558.348083,172.557388 555.877930,172.971848 554.554932,169.096603 
	C549.667419,154.779984 544.314514,140.622238 539.140686,126.403275 
	C538.651428,125.058670 538.190552,123.703743 537.433838,121.548790 
	C538.049988,141.461472 538.636963,160.429871 539.233704,179.713654 
	C532.751160,179.713654 527.175354,179.713654 521.296570,179.713654 
	C521.296570,150.970901 521.296570,122.253960 521.296570,93.024239 
	C527.687988,93.024239 533.981384,92.814613 540.238831,93.195930 
	C541.535889,93.274971 543.290405,95.335419 543.833191,96.843048 
	C549.634094,112.955223 555.233398,129.139969 560.984497,145.666595 
z"/>
<path fill="#FCFEFE" opacity="1.000000" stroke="none" 
	d="
M401.039368,93.021507 
	C414.343353,93.021492 414.376282,93.009766 418.751648,105.295197 
	C423.654449,119.061584 428.489716,132.852005 433.500366,147.045486 
	C434.036987,145.934265 434.571930,145.063660 434.895813,144.120575 
	C440.293060,128.404587 445.743591,112.705933 450.971191,96.933441 
	C451.974365,93.906677 453.361694,92.776428 456.592285,92.941780 
	C462.194397,93.228516 467.821808,93.021416 473.674805,93.021416 
	C473.674805,122.097549 473.674805,150.677155 473.674805,179.630920 
	C467.986603,179.630920 462.271729,179.630920 455.522247,179.630920 
	C456.089447,160.097809 456.656830,140.559479 457.217438,121.253487 
	C454.578613,128.678696 451.845551,136.512527 449.009857,144.309036 
	C445.999084,152.586929 442.653534,160.752060 439.925568,169.120087 
	C438.565765,173.291382 435.654724,172.448944 432.781555,172.513184 
	C429.942688,172.576660 427.505402,172.815689 426.207367,169.006165 
	C421.437653,155.007629 416.230286,141.158142 411.179871,127.255363 
	C410.650177,125.797195 410.069611,124.357521 409.193420,122.079208 
	C409.737976,141.831345 410.254303,160.559036 410.780731,179.653503 
	C404.569183,179.653503 399.005005,179.653503 393.113342,179.653503 
	C393.113342,150.962555 393.113342,122.265846 393.113342,93.021507 
	C395.654083,93.021507 398.102264,93.021507 401.039368,93.021507 
z"/>
<path fill="#FBFDFE" opacity="1.000000" stroke="none" 
	d="
M194.912781,96.932510 
	C213.795700,108.228470 212.783646,131.925064 192.909134,145.577530 
	C199.234955,156.778931 205.578308,168.011337 212.345749,179.994705 
	C205.077103,179.994705 198.507309,180.144958 191.957092,179.854065 
	C190.798645,179.802628 189.373413,178.105484 188.665939,176.836746 
	C185.019592,170.297607 181.057327,163.862793 178.189728,156.981354 
	C175.308517,150.067184 171.230331,146.854401 163.269501,149.421356 
	C163.269501,159.043991 163.269501,169.117111 163.269501,179.596039 
	C156.435699,179.596039 150.068420,179.596039 143.414795,179.596039 
	C143.414795,150.985046 143.414795,122.392410 143.414795,93.019577 
	C144.964401,93.019577 146.545288,92.987129 148.124496,93.024734 
	C160.435684,93.317841 172.755219,93.447464 185.051697,94.047073 
	C188.260178,94.203545 191.396652,95.836594 194.912781,96.932510 
M162.937775,113.605766 
	C162.937775,120.002823 162.937775,126.399872 162.937775,133.569626 
	C169.423401,132.939178 175.264420,132.908310 180.840622,131.677551 
	C186.359344,130.459473 189.167099,125.375534 188.842117,119.422615 
	C188.538147,113.854897 186.120041,110.671227 180.134369,109.609009 
	C175.611237,108.806351 170.892059,109.175446 166.282257,108.770996 
	C163.105133,108.492241 162.646835,110.130157 162.937775,113.605766 
z"/>
<path fill="#FBFEFE" opacity="1.000000" stroke="none" 
	d="
M262.698853,181.626373 
	C239.148407,181.913605 223.425339,167.424057 221.220596,143.523529 
	C220.312042,133.674332 220.843063,123.911423 224.713364,114.558243 
	C230.759766,99.946136 243.399399,91.363235 259.974335,91.417999 
	C275.966156,91.470833 288.537750,97.937370 295.164795,113.051521 
	C301.909119,128.433319 301.792999,144.205612 295.107758,159.604340 
	C289.110840,173.417450 277.974487,180.337952 262.698853,181.626373 
M245.937271,156.420059 
	C255.074524,168.682724 270.345276,167.188766 276.431915,153.181213 
	C280.839172,143.038437 280.766113,132.421021 277.488708,121.973572 
	C274.712921,113.125328 268.551605,108.589043 260.378967,108.567360 
	C252.231735,108.545746 245.902130,113.104347 243.212753,121.902977 
	C239.699387,133.397354 239.896103,144.832779 245.937271,156.420059 
z"/>
<path fill="#FAFDFE" opacity="1.000000" stroke="none" 
	d="
M782.073730,164.995483 
	C782.060608,155.997818 782.164734,147.497162 781.998108,139.001846 
	C781.859070,131.913742 779.196594,128.924011 773.615662,129.011841 
	C767.234619,129.112244 761.894104,134.003967 761.890625,139.778763 
	C761.882690,152.928955 761.888123,166.079132 761.888123,179.618027 
	C755.304565,179.618027 748.940430,179.618027 742.322083,179.618027 
	C742.322083,148.767685 742.322083,117.999893 742.322083,86.810402 
	C748.670593,86.810402 755.030579,86.810402 761.465332,86.810402 
	C761.465332,98.020615 761.465332,109.072769 761.465332,119.676437 
	C765.934387,117.501190 770.429993,114.369339 775.403992,113.072777 
	C789.119751,109.497581 799.151306,116.028572 800.858032,130.055176 
	C802.058533,139.921967 801.669983,149.988876 801.864380,159.968903 
	C801.990295,166.435394 801.888123,172.906296 801.888123,179.689087 
	C795.285278,179.689087 789.035889,179.689087 782.073730,179.689087 
	C782.073730,175.015488 782.073730,170.255157 782.073730,164.995483 
z"/>
<path fill="#FCFEFE" opacity="1.000000" stroke="none" 
	d="
M369.126617,180.004791 
	C366.667145,180.004791 364.686035,180.004791 362.382355,180.004791 
	C360.879089,174.220581 359.319336,168.663589 358.025391,163.045364 
	C357.413239,160.387512 356.377502,159.123917 353.374298,159.237656 
	C347.059082,159.476852 340.725739,159.419098 334.405487,159.260040 
	C331.646454,159.190613 330.212860,159.877838 329.637787,162.867844 
	C328.730011,167.587646 327.484070,172.275635 325.910156,176.813675 
	C325.443451,178.159256 323.449188,179.766846 322.060974,179.860413 
	C316.769287,180.217041 311.439178,180.004364 305.175568,180.004364 
	C314.303925,150.779327 323.276367,122.053436 332.343964,93.022896 
	C339.457153,93.022896 346.432678,92.901451 353.395905,93.139702 
	C354.588287,93.180489 356.432648,94.532799 356.789185,95.655922 
	C365.627808,123.500122 374.306549,151.395081 383.239685,180.004791 
	C378.396423,180.004791 374.000702,180.004791 369.126617,180.004791 
M339.684937,144.008270 
	C343.993988,144.008270 348.303009,144.008270 353.003265,144.008270 
	C349.944427,131.976776 346.995148,120.376343 343.738586,107.567230 
	C340.561218,120.506088 337.727020,132.047623 334.834595,143.826294 
	C336.447052,143.901184 337.598053,143.954636 339.684937,144.008270 
z"/>
<path fill="#FAFDFE" opacity="1.000000" stroke="none" 
	d="
M674.796997,163.996613 
	C674.796936,169.462555 674.796936,174.429459 674.796936,179.697266 
	C669.311096,179.697266 664.221497,179.697266 658.818665,179.697266 
	C658.255737,177.875763 657.641968,175.889832 657.183228,174.405334 
	C651.886841,176.734299 646.978210,179.759720 641.649353,181.050186 
	C631.493469,183.509552 622.534424,178.386673 619.097900,169.202789 
	C615.430359,159.401840 618.743103,149.039368 628.312500,144.537170 
	C634.968323,141.405731 642.495544,140.110275 649.660278,138.089417 
	C651.216003,137.650604 652.885925,137.616592 654.475586,137.399902 
	C654.079285,130.950851 651.504578,127.635498 645.740967,128.187317 
	C639.601013,128.775177 633.608337,130.901489 626.475769,132.614410 
	C624.862732,129.691772 622.595032,125.582962 620.034973,120.944389 
	C632.706909,113.688644 645.474304,109.310631 659.703674,114.146957 
	C668.743652,117.219482 673.127136,124.533775 673.884583,133.562897 
	C674.717896,143.496735 674.536377,153.515701 674.796997,163.996613 
M655.013977,151.984589 
	C654.533752,151.164108 653.797241,149.573578 653.610779,149.635635 
	C648.807190,151.234314 643.758667,152.488968 639.457336,155.006958 
	C637.797363,155.978729 636.812012,160.200394 637.460510,162.357788 
	C637.983826,164.098541 641.337036,165.833054 643.585632,166.057266 
	C651.273560,166.823868 655.016785,162.228806 655.013977,151.984589 
z"/>
<path fill="#FAFDFE" opacity="1.000000" stroke="none" 
	d="
M968.796021,145.069946 
	C968.796509,156.852478 968.796509,168.145309 968.796509,179.720566 
	C963.266296,179.720566 958.174866,179.720566 952.791931,179.720566 
	C952.234314,177.830460 951.647644,175.841919 951.221436,174.397171 
	C945.846985,176.751862 940.926086,179.774811 935.586914,181.060974 
	C925.445374,183.503937 916.490112,178.344223 913.075684,169.141251 
	C909.438354,159.337463 912.781860,148.995346 922.370483,144.503723 
	C929.032471,141.382996 936.561462,140.097763 943.728271,138.082184 
	C945.280090,137.645767 946.939819,137.593124 948.526245,137.367081 
	C947.952209,130.655899 945.313965,127.518867 939.172241,128.164566 
	C933.194092,128.793060 927.377625,130.959503 920.511353,132.698593 
	C918.846924,129.668793 916.582703,125.547195 914.046936,120.931274 
	C926.599487,113.769058 939.193787,109.450783 953.304871,114.003845 
	C962.221375,116.880814 966.376160,123.896095 967.858337,132.644440 
	C968.522278,136.563461 968.504089,140.598068 968.796021,145.069946 
M948.548706,149.566895 
	C943.460938,151.299438 938.106567,152.533768 933.430664,155.036026 
	C931.804260,155.906418 930.810730,160.233002 931.470215,162.386383 
	C932.003113,164.126724 935.392822,165.839203 937.622192,165.990662 
	C940.191589,166.165222 943.083679,164.998810 945.473572,163.731918 
	C951.330322,160.627274 948.389893,154.964478 948.548706,149.566895 
z"/>
<path fill="#FCFEFE" opacity="1.000000" stroke="none" 
	d="
M846.793335,147.999969 
	C846.793274,129.537750 846.793274,111.575539 846.793274,93.318550 
	C865.078674,93.318550 883.003357,93.318550 901.323425,93.318550 
	C901.323425,98.471260 901.323425,103.696342 901.323425,109.542572 
	C889.982483,109.542572 878.594543,109.542572 866.826233,109.542572 
	C866.826233,116.504372 866.826233,122.857750 866.826233,129.661392 
	C876.654053,129.661392 886.266235,129.661392 896.256958,129.661392 
	C896.256958,135.302612 896.256958,140.507050 896.256958,146.175385 
	C886.508484,146.175385 876.907776,146.175385 866.607056,146.175385 
	C866.607056,157.642212 866.607056,168.679977 866.607056,179.851868 
	C859.768677,179.851868 853.640259,179.851868 846.793396,179.851868 
	C846.793396,169.325043 846.793396,158.912506 846.793335,147.999969 
z"/>
<path fill="#FBFDFE" opacity="1.000000" stroke="none" 
	d="
M1121.078369,138.021423 
	C1126.029541,140.096924 1130.774170,141.750153 1135.154663,144.086380 
	C1141.653564,147.552399 1145.248779,152.999466 1145.067261,160.684601 
	C1144.884766,168.412064 1141.311646,173.999405 1134.737305,177.742203 
	C1122.704590,184.592407 1104.683716,182.321579 1092.676025,172.209274 
	C1095.480713,168.263550 1098.314941,164.276398 1100.356934,161.403748 
	C1106.989380,163.445282 1112.682129,165.597198 1118.566284,166.850052 
	C1121.792358,167.536942 1125.600098,166.735962 1126.515259,162.593445 
	C1127.395386,158.610016 1124.119873,157.066925 1121.257324,155.732712 
	C1116.740601,153.627411 1111.968018,152.041763 1107.551025,149.757950 
	C1099.887573,145.795532 1094.959595,139.892487 1096.020508,130.612671 
	C1097.026978,121.810303 1102.385132,116.566536 1110.472168,113.936310 
	C1122.881958,109.900215 1133.972290,112.828751 1144.532471,120.765152 
	C1141.590454,124.689957 1138.827393,128.376114 1136.198486,131.883270 
	C1132.061157,130.186615 1128.391235,128.100388 1124.453369,127.238792 
	C1120.886719,126.458405 1116.221680,125.778366 1114.753784,130.698975 
	C1113.361816,135.365280 1117.755493,136.270935 1121.078369,138.021423 
z"/>
<path fill="#FAFDFE" opacity="1.000000" stroke="none" 
	d="
M714.660034,161.829590 
	C718.118408,167.449814 722.929932,166.376434 728.256714,165.014465 
	C729.288757,169.811523 730.273804,174.389984 731.382507,179.543198 
	C726.754028,180.329346 722.719543,181.384628 718.634827,181.642212 
	C703.627502,182.588470 694.527283,174.423172 694.017700,159.367401 
	C693.686401,149.580139 693.955261,139.772583 693.955261,129.421341 
	C690.839172,129.276901 688.111694,129.150482 685.091919,129.010529 
	C685.091919,124.236290 685.091919,119.658806 685.091919,114.593468 
	C688.235901,114.320953 691.326416,114.053070 694.724976,113.758492 
	C695.551392,107.951279 696.361755,102.256577 697.199463,96.369843 
	C702.569092,96.369843 707.683105,96.369843 713.353149,96.369843 
	C713.353149,101.965370 713.353149,107.544731 713.353149,113.635788 
	C718.779846,113.635788 723.687866,113.635788 728.968018,113.635788 
	C728.968018,119.014854 728.968018,123.882866 728.968018,129.249771 
	C723.968994,129.249771 719.039856,129.249771 714.465393,129.249771 
	C714.465393,140.315826 714.465393,150.885315 714.660034,161.829590 
z"/>
<path fill="#FAFDFE" opacity="1.000000" stroke="none" 
	d="
M1085.707275,122.917473 
	C1085.707153,125.173355 1085.707153,126.956276 1085.707153,129.220490 
	C1080.195923,129.220490 1075.271118,129.220490 1070.025269,129.220490 
	C1070.025269,139.477509 1069.775146,149.263519 1070.132568,159.027267 
	C1070.307007,163.790619 1073.793701,166.239929 1078.732788,166.066895 
	C1080.533936,166.003815 1082.322998,165.599548 1084.564819,165.288956 
	C1085.520752,169.728546 1086.483276,174.198303 1087.521606,179.021103 
	C1078.938599,182.024139 1070.654175,183.104782 1062.444092,179.717117 
	C1052.931641,175.792130 1050.393433,167.380432 1050.116699,158.121613 
	C1049.834229,148.672699 1050.054199,139.208755 1050.054199,129.382523 
	C1047.005005,129.382523 1044.399780,129.382523 1041.393188,129.382523 
	C1041.393188,124.474136 1041.393188,119.914856 1041.393188,114.739677 
	C1044.342163,114.406334 1047.546387,114.044151 1051.008789,113.652779 
	C1051.804321,107.980072 1052.585815,102.407852 1053.415405,96.492340 
	C1058.695068,96.492340 1063.926270,96.492340 1069.680908,96.492340 
	C1069.680908,102.107819 1069.680908,107.686859 1069.680908,113.720207 
	C1075.111206,113.720207 1080.039062,113.720207 1085.707275,113.720207 
	C1085.707275,116.927467 1085.707275,119.685982 1085.707275,122.917473 
z"/>
<path fill="#FAFDFE" opacity="1.000000" stroke="none" 
	d="
M1034.458740,119.175026 
	C1031.850708,123.577461 1029.021240,127.645966 1026.242310,131.641891 
	C1016.032410,126.664177 1008.878784,127.834770 1004.463745,134.899399 
	C999.270569,143.209351 1001.090088,157.593231 1008.089111,162.899445 
	C1012.475464,166.224945 1017.290588,166.443222 1022.229126,164.284439 
	C1024.173584,163.434464 1025.994263,162.301163 1028.244995,161.097000 
	C1030.765625,165.269836 1033.221680,169.335724 1035.633179,173.327759 
	C1024.949951,184.324524 1003.990112,184.425339 992.069458,173.783585 
	C978.885742,162.014328 977.390869,138.266983 988.946472,124.170921 
	C999.899048,110.810524 1020.601562,108.374229 1034.458740,119.175026 
z"/>
<path fill="#080808" opacity="1.000000" stroke="none" 
	d="
M790.782104,445.189270 
	C791.982056,463.604492 783.616577,476.702698 769.474426,486.536743 
	C759.654541,493.365234 749.170837,499.258759 739.526245,506.311981 
	C734.407227,510.055603 730.307007,515.258301 726.042542,520.064697 
	C724.747620,521.524170 724.440308,523.859924 723.391479,526.530762 
	C745.779053,526.530762 767.337158,526.530762 789.250244,526.530762 
	C789.250244,531.611633 789.250244,536.176147 789.250244,541.104370 
	C761.087463,541.104370 732.862915,541.104370 704.159607,541.104370 
	C704.911987,527.542664 708.288330,514.862793 717.921326,505.215363 
	C724.771912,498.354462 733.154236,493.000244 740.977173,487.139404 
	C748.678894,481.369415 757.065979,476.398743 764.196655,470.010590 
	C773.737000,461.463562 776.154236,447.885620 770.909790,438.188202 
	C765.965759,429.046173 757.800293,425.145630 747.741516,425.520111 
	C737.873230,425.887512 729.529785,432.647430 726.461609,442.461700 
	C725.285095,446.225006 724.752136,450.243317 724.389832,454.188019 
	C724.157227,456.721436 723.374207,457.739502 720.795410,457.650055 
	C705.207458,457.109436 706.337891,460.803925 708.540039,444.044922 
	C711.268188,423.282623 729.419739,409.574585 751.477112,410.785522 
	C766.146606,411.590942 779.118286,416.099213 786.401611,430.035034 
	C788.721680,434.474213 789.344788,439.800201 790.782104,445.189270 
z"/>
<path fill="#070707" opacity="1.000000" stroke="none" 
	d="
M459.491699,443.153259 
	C454.897156,431.016876 445.567322,424.186615 434.310333,425.539001 
	C415.833344,427.758698 411.557129,441.367493 410.483093,457.247955 
	C405.000427,457.247955 399.777649,457.247955 394.588928,457.247955 
	C392.377014,430.318420 408.964661,409.607941 438.536835,410.904633 
	C464.969635,412.063629 479.563477,428.670135 477.175293,453.705597 
	C476.073608,465.254700 470.699005,474.772156 461.775116,481.828186 
	C453.980835,487.991058 445.272919,492.983337 437.203430,498.817535 
	C429.829620,504.148773 422.501770,509.612061 415.703644,515.637573 
	C412.941681,518.085632 411.633789,522.174133 409.039490,526.576355 
	C432.229248,526.576355 453.946564,526.576355 475.894287,526.576355 
	C475.894287,531.746582 475.894287,536.346130 475.894287,541.203308 
	C447.625824,541.203308 419.526733,541.203308 390.852417,541.203308 
	C390.945312,533.377502 392.621063,525.900452 395.685547,518.739685 
	C400.138123,508.335144 407.498230,500.377136 416.859650,494.156464 
	C426.412262,487.808746 436.132812,481.689087 445.415680,474.966766 
	C455.987549,467.311035 461.589020,457.048065 459.491699,443.153259 
z"/>
<path fill="#090909" opacity="1.000000" stroke="none" 
	d="
M601.021118,503.112793 
	C600.984985,515.920959 600.984985,528.235718 600.984985,541.006592 
	C596.510071,541.006592 592.331848,541.006592 587.671082,541.006592 
	C587.671082,528.062073 587.671082,515.145630 587.671082,501.462311 
	C582.776062,501.462311 578.333069,501.462708 573.890137,501.462250 
	C566.560303,501.461517 559.228577,501.365387 551.901489,501.506104 
	C549.003479,501.561737 547.505737,500.800568 547.708801,497.604950 
	C547.896301,494.655487 547.748840,491.684753 547.748840,488.085083 
	C557.357300,488.085083 566.465515,488.085083 575.573792,488.085083 
	C587.638123,488.085083 587.617249,488.085022 587.644958,476.136658 
	C587.665771,467.147736 587.744324,458.158966 587.825012,449.170349 
	C587.827576,448.887390 588.137939,448.607178 588.362122,448.229004 
	C592.378052,448.229004 596.435059,448.229004 600.983643,448.229004 
	C600.983643,461.508423 600.983643,474.436615 600.983643,487.969421 
	C614.351807,487.969421 627.245544,487.969421 640.476318,487.969421 
	C640.476318,492.644073 640.476318,496.708984 640.476318,501.462311 
	C630.478577,501.462311 620.534302,501.370667 610.593506,501.515472 
	C607.410034,501.561859 604.235718,502.233734 601.021118,503.112793 
z"/>
<path fill="#141414" opacity="1.000000" stroke="none" 
	d="
M950.500366,506.339355 
	C952.064880,507.351624 953.990540,508.253418 954.144592,509.394379 
	C954.582764,512.639465 954.298340,515.982056 954.298340,519.563477 
	C952.630737,519.685608 951.352905,519.860046 950.074951,519.860779 
	C922.121033,519.876282 894.166443,519.783203 866.213745,519.967834 
	C861.985168,519.995789 860.805054,518.742737 860.962891,514.621155 
	C861.332031,504.982910 860.002380,506.371399 869.185852,506.354736 
	C896.141296,506.305817 923.096985,506.337769 950.500366,506.339355 
z"/>
<path fill="#111111" opacity="1.000000" stroke="none" 
	d="
M948.763855,482.834442 
	C921.162231,482.834412 894.028381,482.701355 866.898010,482.955078 
	C861.920837,483.001617 860.405823,481.425842 861.009460,476.767792 
	C861.301147,474.516785 861.059814,472.196686 861.059814,469.653381 
	C892.378296,469.653381 923.075806,469.653381 954.035217,469.653381 
	C954.035217,473.926544 954.035217,478.028229 954.035217,482.565704 
	C952.400085,482.657196 950.816406,482.745850 948.763855,482.834442 
z"/>
<path fill="#0298B3" opacity="1.000000" stroke="none" 
	d="
M162.937927,113.118698 
	C162.646835,110.130157 163.105133,108.492241 166.282257,108.770996 
	C170.892059,109.175446 175.611237,108.806351 180.134369,109.609009 
	C186.120041,110.671227 188.538147,113.854897 188.842117,119.422615 
	C189.167099,125.375534 186.359344,130.459473 180.840622,131.677551 
	C175.264420,132.908310 169.423401,132.939178 162.937775,133.569626 
	C162.937775,126.399872 162.937775,120.002823 162.937927,113.118698 
z"/>
<path fill="#0398B3" opacity="1.000000" stroke="none" 
	d="
M245.740112,156.106873 
	C239.896103,144.832779 239.699387,133.397354 243.212753,121.902977 
	C245.902130,113.104347 252.231735,108.545746 260.378967,108.567360 
	C268.551605,108.589043 274.712921,113.125328 277.488708,121.973572 
	C280.766113,132.421021 280.839172,143.038437 276.431915,153.181213 
	C270.345276,167.188766 255.074524,168.682724 245.740112,156.106873 
z"/>
<path fill="#079AB4" opacity="1.000000" stroke="none" 
	d="
M339.216980,144.008179 
	C337.598053,143.954636 336.447052,143.901184 334.834595,143.826294 
	C337.727020,132.047623 340.561218,120.506088 343.738586,107.567230 
	C346.995148,120.376343 349.944427,131.976776 353.003265,144.008270 
	C348.303009,144.008270 343.993988,144.008270 339.216980,144.008179 
z"/>
<path fill="#0599B3" opacity="1.000000" stroke="none" 
	d="
M655.014893,152.418671 
	C655.016785,162.228806 651.273560,166.823868 643.585632,166.057266 
	C641.337036,165.833054 637.983826,164.098541 637.460510,162.357788 
	C636.812012,160.200394 637.797363,155.978729 639.457336,155.006958 
	C643.758667,152.488968 648.807190,151.234314 653.610779,149.635635 
	C653.797241,149.573578 654.533752,151.164108 655.014893,152.418671 
z"/>
<path fill="#0599B3" opacity="1.000000" stroke="none" 
	d="
M948.732788,149.939835 
	C948.389893,154.964478 951.330322,160.627274 945.473572,163.731918 
	C943.083679,164.998810 940.191589,166.165222 937.622192,165.990662 
	C935.392822,165.839203 932.003113,164.126724 931.470215,162.386383 
	C930.810730,160.233002 931.804260,155.906418 933.430664,155.036026 
	C938.106567,152.533768 943.460938,151.299438 948.732788,149.939835 
z"/>
</svg>