<svg xmlns="http://www.w3.org/2000/svg" xmlns:xlink="http://www.w3.org/1999/xlink" width="1280" zoomAndPan="magnify" viewBox="0 0 960 540.000001" height="720" preserveAspectRatio="xMidYMid meet" version="1.0"><defs><g/><clipPath id="393e714008"><path d="M 0.886719 0 L 959.113281 0 L 959.113281 539 L 0.886719 539 Z M 0.886719 0 " clip-rule="nonzero"/></clipPath><clipPath id="6c1baba59a"><path d="M 55.882812 197.796875 L 904.117188 197.796875 L 904.117188 518.714844 L 55.882812 518.714844 Z M 55.882812 197.796875 " clip-rule="nonzero"/></clipPath><clipPath id="fe58d12088"><path d="M 81.335938 197.796875 L 878.664062 197.796875 C 885.414062 197.796875 891.886719 200.480469 896.660156 205.253906 C 901.433594 210.027344 904.117188 216.5 904.117188 223.25 L 904.117188 493.261719 C 904.117188 500.015625 901.433594 506.488281 896.660156 511.261719 C 891.886719 516.035156 885.414062 518.714844 878.664062 518.714844 L 81.335938 518.714844 C 74.585938 518.714844 68.109375 516.035156 63.339844 511.261719 C 58.566406 506.488281 55.882812 500.015625 55.882812 493.261719 L 55.882812 223.25 C 55.882812 216.5 58.566406 210.027344 63.339844 205.253906 C 68.109375 200.480469 74.585938 197.796875 81.335938 197.796875 Z M 81.335938 197.796875 " clip-rule="nonzero"/></clipPath><clipPath id="87df00d0d1"><path d="M 134.257812 358.9375 L 334.121094 358.9375 L 334.121094 448.667969 L 134.257812 448.667969 Z M 134.257812 358.9375 " clip-rule="nonzero"/></clipPath><clipPath id="961d5bc651"><path d="M 379.964844 358.9375 L 579.828125 358.9375 L 579.828125 448.667969 L 379.964844 448.667969 Z M 379.964844 358.9375 " clip-rule="nonzero"/></clipPath><clipPath id="3917a21ebf"><path d="M 625.671875 358.9375 L 825.535156 358.9375 L 825.535156 448.667969 L 625.671875 448.667969 Z M 625.671875 358.9375 " clip-rule="nonzero"/></clipPath></defs><g clip-path="url(#393e714008)"><path fill="#ffffff" d="M 0.886719 0 L 959.113281 0 L 959.113281 539 L 0.886719 539 Z M 0.886719 0 " fill-opacity="1" fill-rule="nonzero"/><path fill="#c65a5a" d="M 0.886719 0 L 959.113281 0 L 959.113281 539 L 0.886719 539 Z M 0.886719 0 " fill-opacity="1" fill-rule="nonzero"/></g><g clip-path="url(#6c1baba59a)"><g clip-path="url(#fe58d12088)"><path fill="#ffffff" d="M 55.882812 197.796875 L 904.117188 197.796875 L 904.117188 518.714844 L 55.882812 518.714844 Z M 55.882812 197.796875 " fill-opacity="1" fill-rule="nonzero"/></g></g><g fill="#ffffff" fill-opacity="1"><g transform="translate(37.854196, 155.376698)"><g><path d="M 7.78125 -107.046875 L 46.0625 -107.046875 C 56.351562 -107.046875 64.742188 -104.296875 71.234375 -98.796875 C 77.722656 -93.304688 80.96875 -85.457031 80.96875 -75.25 C 80.96875 -67.382812 79 -60.789062 75.0625 -55.46875 C 71.125 -50.144531 65.78125 -46.40625 59.03125 -44.25 L 95.890625 0 L 64.875 0 L 32.171875 -42.296875 L 32.171875 0 L 7.78125 0 Z M 32.171875 -59.5625 L 35.03125 -59.5625 C 37.28125 -59.5625 39.179688 -59.601562 40.734375 -59.6875 C 42.296875 -59.769531 44.070312 -60.070312 46.0625 -60.59375 C 48.050781 -61.113281 49.648438 -61.847656 50.859375 -62.796875 C 52.066406 -63.742188 53.101562 -65.125 53.96875 -66.9375 C 54.84375 -68.757812 55.28125 -70.96875 55.28125 -73.5625 C 55.28125 -76.15625 54.84375 -78.359375 53.96875 -80.171875 C 53.101562 -81.992188 52.066406 -83.378906 50.859375 -84.328125 C 49.648438 -85.285156 48.050781 -86.023438 46.0625 -86.546875 C 44.070312 -87.066406 42.296875 -87.367188 40.734375 -87.453125 C 39.179688 -87.535156 37.28125 -87.578125 35.03125 -87.578125 L 32.171875 -87.578125 Z M 32.171875 -59.5625 "/></g></g></g><g fill="#ffffff" fill-opacity="1"><g transform="translate(130.759371, 155.376698)"><g><path d="M 2.984375 -53.59375 C 2.984375 -69.070312 8.257812 -82.171875 18.8125 -92.890625 C 29.363281 -103.617188 42.078125 -108.984375 56.953125 -108.984375 C 71.921875 -108.984375 84.640625 -103.640625 95.109375 -92.953125 C 105.578125 -82.273438 110.8125 -69.15625 110.8125 -53.59375 C 110.8125 -37.9375 105.660156 -24.765625 95.359375 -14.078125 C 85.066406 -3.390625 72.265625 1.953125 56.953125 1.953125 C 41.296875 1.953125 28.382812 -3.34375 18.21875 -13.9375 C 8.0625 -24.539062 2.984375 -37.757812 2.984375 -53.59375 Z M 29.328125 -53.59375 C 29.328125 -47.96875 30.191406 -42.835938 31.921875 -38.203125 C 33.648438 -33.578125 36.675781 -29.664062 41 -26.46875 C 45.320312 -23.269531 50.640625 -21.671875 56.953125 -21.671875 C 66.035156 -21.671875 72.890625 -24.785156 77.515625 -31.015625 C 82.148438 -37.242188 84.46875 -44.769531 84.46875 -53.59375 C 84.46875 -62.320312 82.109375 -69.820312 77.390625 -76.09375 C 72.679688 -82.363281 65.867188 -85.5 56.953125 -85.5 C 48.128906 -85.5 41.316406 -82.363281 36.515625 -76.09375 C 31.722656 -69.820312 29.328125 -62.320312 29.328125 -53.59375 Z M 29.328125 -53.59375 "/></g></g></g><g fill="#ffffff" fill-opacity="1"><g transform="translate(244.555225, 155.376698)"><g><path d="M 62.15625 -107.046875 L 105.359375 0 L 79.140625 0 L 71.234375 -21.40625 L 30.484375 -21.40625 L 22.578125 0 L -3.640625 0 L 39.578125 -107.046875 Z M 62.921875 -42.8125 L 50.984375 -73.953125 L 50.734375 -73.953125 L 38.796875 -42.8125 Z M 62.921875 -42.8125 "/></g></g></g><g fill="#ffffff" fill-opacity="1"><g transform="translate(346.283796, 155.376698)"><g><path d="M 7.78125 -107.046875 L 46.0625 -107.046875 C 56.351562 -107.046875 64.742188 -104.296875 71.234375 -98.796875 C 77.722656 -93.304688 80.96875 -85.457031 80.96875 -75.25 C 80.96875 -67.382812 79 -60.789062 75.0625 -55.46875 C 71.125 -50.144531 65.78125 -46.40625 59.03125 -44.25 L 95.890625 0 L 64.875 0 L 32.171875 -42.296875 L 32.171875 0 L 7.78125 0 Z M 32.171875 -59.5625 L 35.03125 -59.5625 C 37.28125 -59.5625 39.179688 -59.601562 40.734375 -59.6875 C 42.296875 -59.769531 44.070312 -60.070312 46.0625 -60.59375 C 48.050781 -61.113281 49.648438 -61.847656 50.859375 -62.796875 C 52.066406 -63.742188 53.101562 -65.125 53.96875 -66.9375 C 54.84375 -68.757812 55.28125 -70.96875 55.28125 -73.5625 C 55.28125 -76.15625 54.84375 -78.359375 53.96875 -80.171875 C 53.101562 -81.992188 52.066406 -83.378906 50.859375 -84.328125 C 49.648438 -85.285156 48.050781 -86.023438 46.0625 -86.546875 C 44.070312 -87.066406 42.296875 -87.367188 40.734375 -87.453125 C 39.179688 -87.535156 37.28125 -87.578125 35.03125 -87.578125 L 32.171875 -87.578125 Z M 32.171875 -59.5625 "/></g></g></g><g fill="#ffffff" fill-opacity="1"><g transform="translate(439.18897, 155.376698)"><g/></g></g><g fill="#ffffff" fill-opacity="1"><g transform="translate(474.612323, 155.376698)"><g><path d="M 96.28125 0 L 91.21875 -63.453125 L 90.5625 -63.453125 L 68.640625 -0.65625 L 54.109375 -0.65625 L 32.171875 -63.453125 L 31.53125 -63.453125 L 26.46875 0 L 2.078125 0 L 11.671875 -107.046875 L 37.625 -107.046875 L 61.375 -45.28125 L 85.109375 -107.046875 L 111.0625 -107.046875 L 120.671875 0 Z M 96.28125 0 "/></g></g></g><g fill="#ffffff" fill-opacity="1"><g transform="translate(597.361339, 155.376698)"><g><path d="M 14.078125 -7.90625 C 6.679688 -14.488281 2.984375 -22.925781 2.984375 -33.21875 C 2.984375 -43.507812 6.832031 -51.960938 14.53125 -58.578125 C 22.226562 -65.203125 31.742188 -68.515625 43.078125 -68.515625 C 54.234375 -68.515625 63.640625 -65.179688 71.296875 -58.515625 C 78.953125 -51.859375 82.78125 -43.425781 82.78125 -33.21875 C 82.78125 -23.007812 79.035156 -14.59375 71.546875 -7.96875 C 64.066406 -1.351562 54.578125 1.953125 43.078125 1.953125 C 31.140625 1.953125 21.472656 -1.332031 14.078125 -7.90625 Z M 31.84375 -44.5 C 28.863281 -41.5625 27.375 -37.800781 27.375 -33.21875 C 27.375 -28.632812 28.800781 -24.890625 31.65625 -21.984375 C 34.507812 -19.085938 38.273438 -17.640625 42.953125 -17.640625 C 47.441406 -17.640625 51.132812 -19.109375 54.03125 -22.046875 C 56.9375 -24.992188 58.390625 -28.71875 58.390625 -33.21875 C 58.390625 -37.800781 56.894531 -41.5625 53.90625 -44.5 C 50.925781 -47.445312 47.273438 -48.921875 42.953125 -48.921875 C 38.535156 -48.921875 34.832031 -47.445312 31.84375 -44.5 Z M 31.84375 -44.5 "/></g></g></g><g fill="#ffffff" fill-opacity="1"><g transform="translate(683.129918, 155.376698)"><g><path d="M 7.78125 0 L 7.78125 -66.5625 L 30.75 -66.5625 L 30.75 -56.953125 L 31.015625 -56.953125 C 31.179688 -57.304688 31.457031 -57.738281 31.84375 -58.25 C 32.238281 -58.769531 33.082031 -59.675781 34.375 -60.96875 C 35.675781 -62.269531 37.0625 -63.441406 38.53125 -64.484375 C 40 -65.523438 41.898438 -66.457031 44.234375 -67.28125 C 46.578125 -68.101562 48.957031 -68.515625 51.375 -68.515625 C 53.882812 -68.515625 56.347656 -68.164062 58.765625 -67.46875 C 61.191406 -66.78125 62.96875 -66.085938 64.09375 -65.390625 L 65.90625 -64.359375 L 56.3125 -44.890625 C 53.457031 -47.316406 49.476562 -48.53125 44.375 -48.53125 C 41.601562 -48.53125 39.222656 -47.921875 37.234375 -46.703125 C 35.242188 -45.492188 33.835938 -44.023438 33.015625 -42.296875 C 32.191406 -40.566406 31.609375 -39.097656 31.265625 -37.890625 C 30.921875 -36.679688 30.75 -35.726562 30.75 -35.03125 L 30.75 0 Z M 7.78125 0 "/></g></g></g><g fill="#ffffff" fill-opacity="1"><g transform="translate(747.748335, 155.376698)"><g><path d="M 76.296875 -58.328125 C 82.523438 -51.535156 85.640625 -43.207031 85.640625 -33.34375 C 85.640625 -23.476562 82.523438 -15.128906 76.296875 -8.296875 C 70.066406 -1.460938 62.148438 1.953125 52.546875 1.953125 C 43.722656 1.953125 36.457031 -0.816406 30.75 -6.359375 L 30.75 33.734375 L 7.78125 33.734375 L 7.78125 -66.5625 L 30.484375 -66.5625 L 30.484375 -59.03125 L 30.75 -59.03125 C 36.457031 -65.351562 43.722656 -68.515625 52.546875 -68.515625 C 62.148438 -68.515625 70.066406 -65.117188 76.296875 -58.328125 Z M 56.765625 -22.046875 C 59.742188 -24.992188 61.234375 -28.757812 61.234375 -33.34375 C 61.234375 -37.925781 59.804688 -41.664062 56.953125 -44.5625 C 54.097656 -47.46875 50.335938 -48.921875 45.671875 -48.921875 C 41.171875 -48.921875 37.472656 -47.445312 34.578125 -44.5 C 31.679688 -41.5625 30.234375 -37.84375 30.234375 -33.34375 C 30.234375 -28.757812 31.722656 -24.992188 34.703125 -22.046875 C 37.691406 -19.109375 41.347656 -17.640625 45.671875 -17.640625 C 50.085938 -17.640625 53.785156 -19.109375 56.765625 -22.046875 Z M 56.765625 -22.046875 "/></g></g></g><g fill="#ffffff" fill-opacity="1"><g transform="translate(836.371553, 155.376698)"><g><path d="M 7.78125 0 L 7.78125 -111.578125 L 30.75 -111.578125 L 30.75 -59.5625 L 31.015625 -59.5625 C 36.984375 -65.53125 43.335938 -68.515625 50.078125 -68.515625 C 53.367188 -68.515625 56.632812 -68.078125 59.875 -67.203125 C 63.125 -66.335938 66.238281 -65 69.21875 -63.1875 C 72.207031 -61.375 74.628906 -58.800781 76.484375 -55.46875 C 78.347656 -52.132812 79.28125 -48.265625 79.28125 -43.859375 L 79.28125 0 L 56.3125 0 L 56.3125 -37.625 C 56.3125 -41.082031 55.207031 -44.109375 53 -46.703125 C 50.789062 -49.304688 47.914062 -50.609375 44.375 -50.609375 C 40.914062 -50.609375 37.78125 -49.265625 34.96875 -46.578125 C 32.15625 -43.898438 30.75 -40.914062 30.75 -37.625 L 30.75 0 Z M 7.78125 0 "/></g></g></g><g clip-path="url(#87df00d0d1)"><path stroke-linecap="butt" transform="matrix(0.53675, 0, 0, 0.536137, 134.258044, 358.938975)" fill="none" stroke-linejoin="miter" d="M -0.000431063 -0.0027513 L 372.35782 -0.0027513 L 372.35782 167.361966 L -0.000431063 167.361966 Z M -0.000431063 -0.0027513 " stroke="#000000" stroke-width="13.933112" stroke-opacity="1" stroke-miterlimit="4"/></g><g fill="#000000" fill-opacity="1"><g transform="translate(198.109049, 417.603228)"><g><path d="M 11.0625 0.375 C 9.363281 0.375 7.835938 -0.0078125 6.484375 -0.78125 C 5.128906 -1.5625 4.0625 -2.707031 3.28125 -4.21875 C 2.5 -5.726562 2.109375 -7.535156 2.109375 -9.640625 C 2.109375 -11.742188 2.5 -13.550781 3.28125 -15.0625 C 4.0625 -16.570312 5.128906 -17.710938 6.484375 -18.484375 C 7.835938 -19.265625 9.363281 -19.65625 11.0625 -19.65625 C 13.101562 -19.65625 14.726562 -19.269531 15.9375 -18.5 C 17.144531 -17.726562 18.015625 -16.703125 18.546875 -15.421875 L 16.609375 -14.03125 L 16.265625 -14.03125 C 15.734375 -15.082031 15.054688 -15.859375 14.234375 -16.359375 C 13.421875 -16.859375 12.363281 -17.109375 11.0625 -17.109375 C 9.875 -17.109375 8.832031 -16.828125 7.9375 -16.265625 C 7.039062 -15.703125 6.34375 -14.859375 5.84375 -13.734375 C 5.351562 -12.617188 5.109375 -11.253906 5.109375 -9.640625 C 5.109375 -8.023438 5.359375 -6.660156 5.859375 -5.546875 C 6.359375 -4.429688 7.050781 -3.59375 7.9375 -3.03125 C 8.832031 -2.46875 9.875 -2.1875 11.0625 -2.1875 C 12.40625 -2.1875 13.515625 -2.488281 14.390625 -3.09375 C 15.273438 -3.695312 15.96875 -4.65625 16.46875 -5.96875 L 16.84375 -5.96875 L 18.703125 -4.859375 C 18.203125 -3.242188 17.304688 -1.96875 16.015625 -1.03125 C 14.734375 -0.09375 13.082031 0.375 11.0625 0.375 Z M 11.0625 0.375 "/></g></g></g><g fill="#000000" fill-opacity="1"><g transform="translate(217.992005, 417.603228)"><g><path d="M 7.953125 0.375 C 6.054688 0.375 4.570312 -0.117188 3.5 -1.109375 C 2.4375 -2.109375 1.90625 -3.53125 1.90625 -5.375 C 1.90625 -6.507812 2.140625 -7.46875 2.609375 -8.25 C 3.085938 -9.039062 3.820312 -9.679688 4.8125 -10.171875 C 5.800781 -10.671875 7.09375 -11.054688 8.6875 -11.328125 C 10.09375 -11.566406 11.15625 -11.832031 11.875 -12.125 C 12.601562 -12.414062 13.09375 -12.738281 13.34375 -13.09375 C 13.601562 -13.457031 13.734375 -13.914062 13.734375 -14.46875 C 13.734375 -15.332031 13.429688 -16 12.828125 -16.46875 C 12.222656 -16.9375 11.257812 -17.171875 9.9375 -17.171875 C 8.6875 -17.171875 7.613281 -16.925781 6.71875 -16.4375 C 5.832031 -15.957031 5.015625 -15.238281 4.265625 -14.28125 L 3.921875 -14.28125 L 2.515625 -16.265625 C 3.328125 -17.296875 4.363281 -18.117188 5.625 -18.734375 C 6.882812 -19.347656 8.320312 -19.65625 9.9375 -19.65625 C 12.207031 -19.65625 13.878906 -19.15625 14.953125 -18.15625 C 16.035156 -17.164062 16.578125 -15.789062 16.578125 -14.03125 L 16.578125 -3.796875 C 16.578125 -2.722656 17.03125 -2.1875 17.9375 -2.1875 C 18.238281 -2.1875 18.53125 -2.238281 18.8125 -2.34375 L 19.0625 -2.265625 L 19.390625 -0.296875 C 19.179688 -0.160156 18.90625 -0.0546875 18.5625 0.015625 C 18.21875 0.0976562 17.863281 0.140625 17.5 0.140625 C 16.4375 0.140625 15.632812 -0.09375 15.09375 -0.5625 C 14.550781 -1.03125 14.207031 -1.71875 14.0625 -2.625 L 13.6875 -2.65625 C 13.144531 -1.644531 12.40625 -0.882812 11.46875 -0.375 C 10.539062 0.125 9.367188 0.375 7.953125 0.375 Z M 8.578125 -1.90625 C 9.648438 -1.90625 10.582031 -2.148438 11.375 -2.640625 C 12.164062 -3.140625 12.769531 -3.835938 13.1875 -4.734375 C 13.601562 -5.628906 13.8125 -6.664062 13.8125 -7.84375 L 13.8125 -10.296875 L 13.484375 -10.375 C 13.046875 -10.070312 12.519531 -9.816406 11.90625 -9.609375 C 11.289062 -9.398438 10.429688 -9.21875 9.328125 -9.0625 C 8.203125 -8.90625 7.3125 -8.671875 6.65625 -8.359375 C 6 -8.046875 5.53125 -7.644531 5.25 -7.15625 C 4.96875 -6.675781 4.828125 -6.082031 4.828125 -5.375 C 4.828125 -4.238281 5.15625 -3.375 5.8125 -2.78125 C 6.476562 -2.195312 7.398438 -1.90625 8.578125 -1.90625 Z M 8.578125 -1.90625 "/></g></g></g><g fill="#000000" fill-opacity="1"><g transform="translate(237.944911, 417.603228)"><g><path d="M 13.046875 -3.0625 L 13.953125 -1.015625 C 13.492188 -0.554688 12.894531 -0.210938 12.15625 0.015625 C 11.414062 0.253906 10.613281 0.375 9.75 0.375 C 6.070312 0.375 4.234375 -1.492188 4.234375 -5.234375 L 4.234375 -16.96875 L 0.875 -16.96875 L 0.875 -19.3125 L 4.234375 -19.3125 L 4.234375 -23.375 L 7.078125 -23.859375 L 7.078125 -19.3125 L 13.296875 -19.3125 L 13.296875 -16.96875 L 7.078125 -16.96875 L 7.078125 -5.515625 C 7.078125 -3.296875 8.039062 -2.1875 9.96875 -2.1875 C 11.019531 -2.1875 11.921875 -2.476562 12.671875 -3.0625 Z M 13.046875 -3.0625 "/></g></g></g><g fill="#000000" fill-opacity="1"><g transform="translate(252.634167, 417.603228)"><g><path d="M 8.796875 0.375 C 7.585938 0.375 6.460938 0.210938 5.421875 -0.109375 C 4.390625 -0.429688 3.519531 -0.867188 2.8125 -1.421875 C 2.101562 -1.984375 1.601562 -2.617188 1.3125 -3.328125 L 2.984375 -5.078125 L 3.359375 -5.078125 C 3.984375 -4.117188 4.738281 -3.394531 5.625 -2.90625 C 6.507812 -2.425781 7.566406 -2.1875 8.796875 -2.1875 C 10.210938 -2.1875 11.289062 -2.460938 12.03125 -3.015625 C 12.78125 -3.566406 13.15625 -4.335938 13.15625 -5.328125 C 13.15625 -6.085938 12.925781 -6.710938 12.46875 -7.203125 C 12.019531 -7.703125 11.296875 -8.078125 10.296875 -8.328125 L 7.046875 -9.125 C 5.304688 -9.539062 4.035156 -10.203125 3.234375 -11.109375 C 2.441406 -12.023438 2.046875 -13.15625 2.046875 -14.5 C 2.046875 -15.539062 2.3125 -16.445312 2.84375 -17.21875 C 3.382812 -18 4.160156 -18.597656 5.171875 -19.015625 C 6.179688 -19.441406 7.378906 -19.65625 8.765625 -19.65625 C 10.535156 -19.65625 11.929688 -19.40625 12.953125 -18.90625 C 13.972656 -18.414062 14.765625 -17.726562 15.328125 -16.84375 L 13.734375 -15.265625 L 13.375 -15.265625 C 12.757812 -15.972656 12.085938 -16.484375 11.359375 -16.796875 C 10.628906 -17.117188 9.765625 -17.28125 8.765625 -17.28125 C 7.492188 -17.28125 6.519531 -17.050781 5.84375 -16.59375 C 5.164062 -16.132812 4.828125 -15.476562 4.828125 -14.625 C 4.828125 -13.84375 5.066406 -13.210938 5.546875 -12.734375 C 6.023438 -12.253906 6.859375 -11.867188 8.046875 -11.578125 L 11.25 -10.8125 C 12.925781 -10.414062 14.132812 -9.753906 14.875 -8.828125 C 15.625 -7.910156 16 -6.757812 16 -5.375 C 16 -4.238281 15.726562 -3.238281 15.1875 -2.375 C 14.65625 -1.507812 13.847656 -0.832031 12.765625 -0.34375 C 11.679688 0.132812 10.359375 0.375 8.796875 0.375 Z M 8.796875 0.375 "/></g></g></g><g clip-path="url(#961d5bc651)"><path stroke-linecap="butt" transform="matrix(0.53675, 0, 0, 0.536137, 379.964317, 358.938975)" fill="none" stroke-linejoin="miter" d="M 0.000981639 -0.0027513 L 372.359233 -0.0027513 L 372.359233 167.361966 L 0.000981639 167.361966 Z M 0.000981639 -0.0027513 " stroke="#000000" stroke-width="13.933112" stroke-opacity="1" stroke-miterlimit="4"/></g><g fill="#000000" fill-opacity="1"><g transform="translate(452.730966, 417.603228)"><g><path d="M 11.0625 0.375 C 9.363281 0.375 7.835938 -0.0078125 6.484375 -0.78125 C 5.128906 -1.5625 4.0625 -2.707031 3.28125 -4.21875 C 2.5 -5.726562 2.109375 -7.535156 2.109375 -9.640625 C 2.109375 -11.742188 2.5 -13.550781 3.28125 -15.0625 C 4.0625 -16.570312 5.128906 -17.710938 6.484375 -18.484375 C 7.835938 -19.265625 9.363281 -19.65625 11.0625 -19.65625 C 13.101562 -19.65625 14.726562 -19.269531 15.9375 -18.5 C 17.144531 -17.726562 18.015625 -16.703125 18.546875 -15.421875 L 16.609375 -14.03125 L 16.265625 -14.03125 C 15.734375 -15.082031 15.054688 -15.859375 14.234375 -16.359375 C 13.421875 -16.859375 12.363281 -17.109375 11.0625 -17.109375 C 9.875 -17.109375 8.832031 -16.828125 7.9375 -16.265625 C 7.039062 -15.703125 6.34375 -14.859375 5.84375 -13.734375 C 5.351562 -12.617188 5.109375 -11.253906 5.109375 -9.640625 C 5.109375 -8.023438 5.359375 -6.660156 5.859375 -5.546875 C 6.359375 -4.429688 7.050781 -3.59375 7.9375 -3.03125 C 8.832031 -2.46875 9.875 -2.1875 11.0625 -2.1875 C 12.40625 -2.1875 13.515625 -2.488281 14.390625 -3.09375 C 15.273438 -3.695312 15.96875 -4.65625 16.46875 -5.96875 L 16.84375 -5.96875 L 18.703125 -4.859375 C 18.203125 -3.242188 17.304688 -1.96875 16.015625 -1.03125 C 14.734375 -0.09375 13.082031 0.375 11.0625 0.375 Z M 11.0625 0.375 "/></g></g></g><g fill="#000000" fill-opacity="1"><g transform="translate(472.613922, 417.603228)"><g><path d="M 7.953125 0.375 C 6.054688 0.375 4.570312 -0.117188 3.5 -1.109375 C 2.4375 -2.109375 1.90625 -3.53125 1.90625 -5.375 C 1.90625 -6.507812 2.140625 -7.46875 2.609375 -8.25 C 3.085938 -9.039062 3.820312 -9.679688 4.8125 -10.171875 C 5.800781 -10.671875 7.09375 -11.054688 8.6875 -11.328125 C 10.09375 -11.566406 11.15625 -11.832031 11.875 -12.125 C 12.601562 -12.414062 13.09375 -12.738281 13.34375 -13.09375 C 13.601562 -13.457031 13.734375 -13.914062 13.734375 -14.46875 C 13.734375 -15.332031 13.429688 -16 12.828125 -16.46875 C 12.222656 -16.9375 11.257812 -17.171875 9.9375 -17.171875 C 8.6875 -17.171875 7.613281 -16.925781 6.71875 -16.4375 C 5.832031 -15.957031 5.015625 -15.238281 4.265625 -14.28125 L 3.921875 -14.28125 L 2.515625 -16.265625 C 3.328125 -17.296875 4.363281 -18.117188 5.625 -18.734375 C 6.882812 -19.347656 8.320312 -19.65625 9.9375 -19.65625 C 12.207031 -19.65625 13.878906 -19.15625 14.953125 -18.15625 C 16.035156 -17.164062 16.578125 -15.789062 16.578125 -14.03125 L 16.578125 -3.796875 C 16.578125 -2.722656 17.03125 -2.1875 17.9375 -2.1875 C 18.238281 -2.1875 18.53125 -2.238281 18.8125 -2.34375 L 19.0625 -2.265625 L 19.390625 -0.296875 C 19.179688 -0.160156 18.90625 -0.0546875 18.5625 0.015625 C 18.21875 0.0976562 17.863281 0.140625 17.5 0.140625 C 16.4375 0.140625 15.632812 -0.09375 15.09375 -0.5625 C 14.550781 -1.03125 14.207031 -1.71875 14.0625 -2.625 L 13.6875 -2.65625 C 13.144531 -1.644531 12.40625 -0.882812 11.46875 -0.375 C 10.539062 0.125 9.367188 0.375 7.953125 0.375 Z M 8.578125 -1.90625 C 9.648438 -1.90625 10.582031 -2.148438 11.375 -2.640625 C 12.164062 -3.140625 12.769531 -3.835938 13.1875 -4.734375 C 13.601562 -5.628906 13.8125 -6.664062 13.8125 -7.84375 L 13.8125 -10.296875 L 13.484375 -10.375 C 13.046875 -10.070312 12.519531 -9.816406 11.90625 -9.609375 C 11.289062 -9.398438 10.429688 -9.21875 9.328125 -9.0625 C 8.203125 -8.90625 7.3125 -8.671875 6.65625 -8.359375 C 6 -8.046875 5.53125 -7.644531 5.25 -7.15625 C 4.96875 -6.675781 4.828125 -6.082031 4.828125 -5.375 C 4.828125 -4.238281 5.15625 -3.375 5.8125 -2.78125 C 6.476562 -2.195312 7.398438 -1.90625 8.578125 -1.90625 Z M 8.578125 -1.90625 "/></g></g></g><g fill="#000000" fill-opacity="1"><g transform="translate(492.566828, 417.603228)"><g><path d="M 13.046875 -3.0625 L 13.953125 -1.015625 C 13.492188 -0.554688 12.894531 -0.210938 12.15625 0.015625 C 11.414062 0.253906 10.613281 0.375 9.75 0.375 C 6.070312 0.375 4.234375 -1.492188 4.234375 -5.234375 L 4.234375 -16.96875 L 0.875 -16.96875 L 0.875 -19.3125 L 4.234375 -19.3125 L 4.234375 -23.375 L 7.078125 -23.859375 L 7.078125 -19.3125 L 13.296875 -19.3125 L 13.296875 -16.96875 L 7.078125 -16.96875 L 7.078125 -5.515625 C 7.078125 -3.296875 8.039062 -2.1875 9.96875 -2.1875 C 11.019531 -2.1875 11.921875 -2.476562 12.671875 -3.0625 Z M 13.046875 -3.0625 "/></g></g></g><g clip-path="url(#3917a21ebf)"><path stroke-linecap="butt" transform="matrix(0.53675, 0, 0, 0.536137, 625.670542, 358.938975)" fill="none" stroke-linejoin="miter" d="M 0.0024836 -0.0027513 L 372.360735 -0.0027513 L 372.360735 167.361966 L 0.0024836 167.361966 Z M 0.0024836 -0.0027513 " stroke="#000000" stroke-width="13.933112" stroke-opacity="1" stroke-miterlimit="4"/></g><g fill="#000000" fill-opacity="1"><g transform="translate(683.023746, 417.603228)"><g><path d="M 11.0625 0.375 C 9.363281 0.375 7.835938 -0.0078125 6.484375 -0.78125 C 5.128906 -1.5625 4.0625 -2.707031 3.28125 -4.21875 C 2.5 -5.726562 2.109375 -7.535156 2.109375 -9.640625 C 2.109375 -11.742188 2.5 -13.550781 3.28125 -15.0625 C 4.0625 -16.570312 5.128906 -17.710938 6.484375 -18.484375 C 7.835938 -19.265625 9.363281 -19.65625 11.0625 -19.65625 C 13.101562 -19.65625 14.726562 -19.269531 15.9375 -18.5 C 17.144531 -17.726562 18.015625 -16.703125 18.546875 -15.421875 L 16.609375 -14.03125 L 16.265625 -14.03125 C 15.734375 -15.082031 15.054688 -15.859375 14.234375 -16.359375 C 13.421875 -16.859375 12.363281 -17.109375 11.0625 -17.109375 C 9.875 -17.109375 8.832031 -16.828125 7.9375 -16.265625 C 7.039062 -15.703125 6.34375 -14.859375 5.84375 -13.734375 C 5.351562 -12.617188 5.109375 -11.253906 5.109375 -9.640625 C 5.109375 -8.023438 5.359375 -6.660156 5.859375 -5.546875 C 6.359375 -4.429688 7.050781 -3.59375 7.9375 -3.03125 C 8.832031 -2.46875 9.875 -2.1875 11.0625 -2.1875 C 12.40625 -2.1875 13.515625 -2.488281 14.390625 -3.09375 C 15.273438 -3.695312 15.96875 -4.65625 16.46875 -5.96875 L 16.84375 -5.96875 L 18.703125 -4.859375 C 18.203125 -3.242188 17.304688 -1.96875 16.015625 -1.03125 C 14.734375 -0.09375 13.082031 0.375 11.0625 0.375 Z M 11.0625 0.375 "/></g></g></g><g fill="#000000" fill-opacity="1"><g transform="translate(702.906703, 417.603228)"><g><path d="M 7.953125 0.375 C 6.054688 0.375 4.570312 -0.117188 3.5 -1.109375 C 2.4375 -2.109375 1.90625 -3.53125 1.90625 -5.375 C 1.90625 -6.507812 2.140625 -7.46875 2.609375 -8.25 C 3.085938 -9.039062 3.820312 -9.679688 4.8125 -10.171875 C 5.800781 -10.671875 7.09375 -11.054688 8.6875 -11.328125 C 10.09375 -11.566406 11.15625 -11.832031 11.875 -12.125 C 12.601562 -12.414062 13.09375 -12.738281 13.34375 -13.09375 C 13.601562 -13.457031 13.734375 -13.914062 13.734375 -14.46875 C 13.734375 -15.332031 13.429688 -16 12.828125 -16.46875 C 12.222656 -16.9375 11.257812 -17.171875 9.9375 -17.171875 C 8.6875 -17.171875 7.613281 -16.925781 6.71875 -16.4375 C 5.832031 -15.957031 5.015625 -15.238281 4.265625 -14.28125 L 3.921875 -14.28125 L 2.515625 -16.265625 C 3.328125 -17.296875 4.363281 -18.117188 5.625 -18.734375 C 6.882812 -19.347656 8.320312 -19.65625 9.9375 -19.65625 C 12.207031 -19.65625 13.878906 -19.15625 14.953125 -18.15625 C 16.035156 -17.164062 16.578125 -15.789062 16.578125 -14.03125 L 16.578125 -3.796875 C 16.578125 -2.722656 17.03125 -2.1875 17.9375 -2.1875 C 18.238281 -2.1875 18.53125 -2.238281 18.8125 -2.34375 L 19.0625 -2.265625 L 19.390625 -0.296875 C 19.179688 -0.160156 18.90625 -0.0546875 18.5625 0.015625 C 18.21875 0.0976562 17.863281 0.140625 17.5 0.140625 C 16.4375 0.140625 15.632812 -0.09375 15.09375 -0.5625 C 14.550781 -1.03125 14.207031 -1.71875 14.0625 -2.625 L 13.6875 -2.65625 C 13.144531 -1.644531 12.40625 -0.882812 11.46875 -0.375 C 10.539062 0.125 9.367188 0.375 7.953125 0.375 Z M 8.578125 -1.90625 C 9.648438 -1.90625 10.582031 -2.148438 11.375 -2.640625 C 12.164062 -3.140625 12.769531 -3.835938 13.1875 -4.734375 C 13.601562 -5.628906 13.8125 -6.664062 13.8125 -7.84375 L 13.8125 -10.296875 L 13.484375 -10.375 C 13.046875 -10.070312 12.519531 -9.816406 11.90625 -9.609375 C 11.289062 -9.398438 10.429688 -9.21875 9.328125 -9.0625 C 8.203125 -8.90625 7.3125 -8.671875 6.65625 -8.359375 C 6 -8.046875 5.53125 -7.644531 5.25 -7.15625 C 4.96875 -6.675781 4.828125 -6.082031 4.828125 -5.375 C 4.828125 -4.238281 5.15625 -3.375 5.8125 -2.78125 C 6.476562 -2.195312 7.398438 -1.90625 8.578125 -1.90625 Z M 8.578125 -1.90625 "/></g></g></g><g fill="#000000" fill-opacity="1"><g transform="translate(722.859608, 417.603228)"><g><path d="M 13.046875 -3.0625 L 13.953125 -1.015625 C 13.492188 -0.554688 12.894531 -0.210938 12.15625 0.015625 C 11.414062 0.253906 10.613281 0.375 9.75 0.375 C 6.070312 0.375 4.234375 -1.492188 4.234375 -5.234375 L 4.234375 -16.96875 L 0.875 -16.96875 L 0.875 -19.3125 L 4.234375 -19.3125 L 4.234375 -23.375 L 7.078125 -23.859375 L 7.078125 -19.3125 L 13.296875 -19.3125 L 13.296875 -16.96875 L 7.078125 -16.96875 L 7.078125 -5.515625 C 7.078125 -3.296875 8.039062 -2.1875 9.96875 -2.1875 C 11.019531 -2.1875 11.921875 -2.476562 12.671875 -3.0625 Z M 13.046875 -3.0625 "/></g></g></g><g fill="#000000" fill-opacity="1"><g transform="translate(737.548864, 417.603228)"><g><path d="M 7.671875 0.375 C 6.304688 0.375 5.234375 -0.0078125 4.453125 -0.78125 C 3.671875 -1.5625 3.28125 -2.722656 3.28125 -4.265625 L 3.28125 -27.03125 L 6.140625 -27.03125 L 6.140625 -4.453125 C 6.140625 -3.648438 6.289062 -3.070312 6.59375 -2.71875 C 6.90625 -2.363281 7.390625 -2.1875 8.046875 -2.1875 C 8.441406 -2.1875 8.84375 -2.25 9.25 -2.375 L 9.5 -2.3125 L 9.828125 -0.0625 C 9.617188 0.0703125 9.316406 0.175781 8.921875 0.25 C 8.535156 0.332031 8.117188 0.375 7.671875 0.375 Z M 7.671875 0.375 "/></g></g></g><g fill="#000000" fill-opacity="1"><g transform="translate(748.041189, 417.603228)"><g><path d="M 3.859375 8.1875 C 3.210938 8.1875 2.601562 8.128906 2.03125 8.015625 C 1.46875 7.898438 0.984375 7.742188 0.578125 7.546875 L 1.109375 5.296875 L 1.421875 5.1875 C 1.703125 5.332031 2.050781 5.453125 2.46875 5.546875 C 2.882812 5.648438 3.316406 5.703125 3.765625 5.703125 C 4.546875 5.703125 5.191406 5.597656 5.703125 5.390625 C 6.210938 5.179688 6.648438 4.832031 7.015625 4.34375 C 7.390625 3.863281 7.734375 3.195312 8.046875 2.34375 L 8.71875 0.453125 L 0.984375 -19.28125 L 4.0625 -19.28125 L 10.125 -3.546875 L 10.453125 -3.546875 L 16.328125 -19.28125 L 19.25 -19.28125 L 10.625 3.03125 C 10.132812 4.257812 9.585938 5.25 8.984375 6 C 8.378906 6.757812 7.660156 7.3125 6.828125 7.65625 C 6.003906 8.007812 5.015625 8.1875 3.859375 8.1875 Z M 3.859375 8.1875 "/></g></g></g><g fill="#000000" fill-opacity="1"><g transform="translate(208.654407, 301.497325)"><g><path d="M 7.953125 0 L 3.328125 0 L 3.328125 -25.5625 L 9.9375 -25.5625 L 16.40625 -6.765625 L 16.765625 -6.765625 L 23.203125 -25.5625 L 29.65625 -25.5625 L 29.65625 0 L 24.859375 0 L 24.859375 -16.890625 L 24.421875 -16.96875 L 18.515625 0 L 14.296875 0 L 8.390625 -16.96875 L 7.953125 -16.890625 Z M 7.953125 0 "/></g></g></g><g fill="#000000" fill-opacity="1"><g transform="translate(241.644468, 301.497325)"><g><path d="M 4.265625 8.1875 C 3.441406 8.1875 2.691406 8.117188 2.015625 7.984375 C 1.347656 7.859375 0.804688 7.691406 0.390625 7.484375 L 1.15625 3.5625 L 1.46875 3.46875 C 1.757812 3.613281 2.117188 3.734375 2.546875 3.828125 C 2.984375 3.921875 3.425781 3.96875 3.875 3.96875 C 4.65625 3.96875 5.304688 3.863281 5.828125 3.65625 C 6.347656 3.457031 6.785156 3.117188 7.140625 2.640625 C 7.503906 2.171875 7.828125 1.519531 8.109375 0.6875 L 0.421875 -19.28125 L 5.484375 -19.28125 L 10.28125 -5.875 L 10.703125 -5.875 L 15.375 -19.28125 L 20.296875 -19.28125 L 12.5625 1.203125 C 11.9375 2.859375 11.253906 4.191406 10.515625 5.203125 C 9.773438 6.210938 8.898438 6.960938 7.890625 7.453125 C 6.878906 7.941406 5.671875 8.1875 4.265625 8.1875 Z M 4.265625 8.1875 "/></g></g></g><g fill="#000000" fill-opacity="1"><g transform="translate(262.344111, 301.497325)"><g/></g></g><g fill="#000000" fill-opacity="1"><g transform="translate(270.788312, 301.497325)"><g><path d="M 3.375 0 L 3.375 -15.453125 L 0.640625 -15.453125 L 0.640625 -19.3125 L 3.375 -19.3125 C 3.175781 -20.125 3.078125 -20.882812 3.078125 -21.59375 C 3.078125 -22.820312 3.351562 -23.867188 3.90625 -24.734375 C 4.46875 -25.597656 5.273438 -26.257812 6.328125 -26.71875 C 7.378906 -27.175781 8.628906 -27.40625 10.078125 -27.40625 C 12.203125 -27.40625 13.789062 -27.035156 14.84375 -26.296875 L 13.703125 -22.734375 L 13.34375 -22.65625 C 12.625 -23.175781 11.695312 -23.4375 10.5625 -23.4375 C 9.6875 -23.4375 9.03125 -23.222656 8.59375 -22.796875 C 8.15625 -22.367188 7.9375 -21.785156 7.9375 -21.046875 C 7.9375 -20.734375 7.957031 -20.445312 8 -20.1875 C 8.039062 -19.925781 8.113281 -19.632812 8.21875 -19.3125 L 13.734375 -19.3125 L 13.734375 -15.453125 L 8.21875 -15.453125 L 8.21875 0 Z M 3.375 0 "/></g></g></g><g fill="#000000" fill-opacity="1"><g transform="translate(284.704626, 301.497325)"><g><path d="M 7.515625 0.375 C 6.285156 0.375 5.210938 0.144531 4.296875 -0.3125 C 3.390625 -0.769531 2.691406 -1.4375 2.203125 -2.3125 C 1.710938 -3.195312 1.46875 -4.253906 1.46875 -5.484375 C 1.46875 -6.628906 1.710938 -7.585938 2.203125 -8.359375 C 2.691406 -9.140625 3.445312 -9.773438 4.46875 -10.265625 C 5.5 -10.765625 6.84375 -11.148438 8.5 -11.421875 C 9.65625 -11.609375 10.53125 -11.8125 11.125 -12.03125 C 11.726562 -12.25 12.132812 -12.5 12.34375 -12.78125 C 12.550781 -13.0625 12.65625 -13.414062 12.65625 -13.84375 C 12.65625 -14.46875 12.4375 -14.941406 12 -15.265625 C 11.570312 -15.585938 10.859375 -15.75 9.859375 -15.75 C 8.785156 -15.75 7.765625 -15.507812 6.796875 -15.03125 C 5.828125 -14.5625 4.988281 -13.9375 4.28125 -13.15625 L 3.9375 -13.15625 L 1.90625 -16.203125 C 2.882812 -17.296875 4.078125 -18.144531 5.484375 -18.75 C 6.898438 -19.351562 8.441406 -19.65625 10.109375 -19.65625 C 12.660156 -19.65625 14.503906 -19.113281 15.640625 -18.03125 C 16.785156 -16.945312 17.359375 -15.40625 17.359375 -13.40625 L 17.359375 -5.03125 C 17.359375 -4.164062 17.738281 -3.734375 18.5 -3.734375 C 18.789062 -3.734375 19.078125 -3.789062 19.359375 -3.90625 L 19.609375 -3.828125 L 19.953125 -0.453125 C 19.679688 -0.273438 19.304688 -0.128906 18.828125 -0.015625 C 18.347656 0.0859375 17.828125 0.140625 17.265625 0.140625 C 16.109375 0.140625 15.207031 -0.078125 14.5625 -0.515625 C 13.914062 -0.960938 13.453125 -1.660156 13.171875 -2.609375 L 12.796875 -2.640625 C 11.859375 -0.628906 10.097656 0.375 7.515625 0.375 Z M 9.0625 -3.25 C 10.175781 -3.25 11.066406 -3.625 11.734375 -4.375 C 12.410156 -5.132812 12.75 -6.179688 12.75 -7.515625 L 12.75 -9.484375 L 12.421875 -9.546875 C 12.128906 -9.316406 11.742188 -9.117188 11.265625 -8.953125 C 10.796875 -8.796875 10.117188 -8.644531 9.234375 -8.5 C 8.179688 -8.320312 7.425781 -8.019531 6.96875 -7.59375 C 6.507812 -7.164062 6.28125 -6.5625 6.28125 -5.78125 C 6.28125 -4.957031 6.523438 -4.328125 7.015625 -3.890625 C 7.503906 -3.460938 8.1875 -3.25 9.0625 -3.25 Z M 9.0625 -3.25 "/></g></g></g><g fill="#000000" fill-opacity="1"><g transform="translate(305.037135, 301.497325)"><g><path d="M 13.265625 0 L 7.5 0 L 0.375 -19.28125 L 5.4375 -19.28125 L 10.234375 -5.546875 L 10.625 -5.546875 L 15.4375 -19.28125 L 20.390625 -19.28125 Z M 13.265625 0 "/></g></g></g><g fill="#000000" fill-opacity="1"><g transform="translate(325.771743, 301.497325)"><g><path d="M 11.203125 0.375 C 9.316406 0.375 7.660156 -0.0078125 6.234375 -0.78125 C 4.804688 -1.5625 3.695312 -2.703125 2.90625 -4.203125 C 2.125 -5.703125 1.734375 -7.515625 1.734375 -9.640625 C 1.734375 -11.753906 2.125 -13.5625 2.90625 -15.0625 C 3.695312 -16.570312 4.804688 -17.710938 6.234375 -18.484375 C 7.660156 -19.265625 9.316406 -19.65625 11.203125 -19.65625 C 13.097656 -19.65625 14.757812 -19.265625 16.1875 -18.484375 C 17.613281 -17.710938 18.722656 -16.570312 19.515625 -15.0625 C 20.304688 -13.5625 20.703125 -11.753906 20.703125 -9.640625 C 20.703125 -7.515625 20.304688 -5.703125 19.515625 -4.203125 C 18.722656 -2.703125 17.613281 -1.5625 16.1875 -0.78125 C 14.757812 -0.0078125 13.097656 0.375 11.203125 0.375 Z M 11.203125 -3.734375 C 14.203125 -3.734375 15.703125 -5.703125 15.703125 -9.640625 C 15.703125 -11.671875 15.316406 -13.160156 14.546875 -14.109375 C 13.773438 -15.066406 12.660156 -15.546875 11.203125 -15.546875 C 8.210938 -15.546875 6.71875 -13.578125 6.71875 -9.640625 C 6.71875 -5.703125 8.210938 -3.734375 11.203125 -3.734375 Z M 11.203125 -3.734375 "/></g></g></g><g fill="#000000" fill-opacity="1"><g transform="translate(348.184701, 301.497325)"><g><path d="M 2.78125 0 L 2.78125 -19.28125 L 7.484375 -19.28125 L 7.484375 -16.421875 L 7.84375 -16.34375 C 8.3125 -17.414062 8.925781 -18.203125 9.6875 -18.703125 C 10.445312 -19.210938 11.367188 -19.46875 12.453125 -19.46875 C 13.546875 -19.46875 14.378906 -19.28125 14.953125 -18.90625 L 14.125 -14.71875 L 13.765625 -14.65625 C 13.453125 -14.78125 13.148438 -14.867188 12.859375 -14.921875 C 12.566406 -14.984375 12.207031 -15.015625 11.78125 -15.015625 C 10.425781 -15.015625 9.394531 -14.539062 8.6875 -13.59375 C 7.976562 -12.644531 7.625 -11.117188 7.625 -9.015625 L 7.625 0 Z M 2.78125 0 "/></g></g></g><g fill="#000000" fill-opacity="1"><g transform="translate(363.307334, 301.497325)"><g><path d="M 5.1875 -21.59375 C 4.3125 -21.59375 3.597656 -21.859375 3.046875 -22.390625 C 2.503906 -22.921875 2.234375 -23.609375 2.234375 -24.453125 C 2.234375 -25.273438 2.503906 -25.953125 3.046875 -26.484375 C 3.597656 -27.015625 4.3125 -27.28125 5.1875 -27.28125 C 5.769531 -27.28125 6.289062 -27.15625 6.75 -26.90625 C 7.207031 -26.664062 7.5625 -26.332031 7.8125 -25.90625 C 8.0625 -25.476562 8.1875 -24.992188 8.1875 -24.453125 C 8.1875 -23.898438 8.0625 -23.40625 7.8125 -22.96875 C 7.5625 -22.539062 7.207031 -22.203125 6.75 -21.953125 C 6.289062 -21.710938 5.769531 -21.59375 5.1875 -21.59375 Z M 2.78125 0 L 2.78125 -19.28125 L 7.625 -19.28125 L 7.625 0 Z M 2.78125 0 "/></g></g></g><g fill="#000000" fill-opacity="1"><g transform="translate(373.692121, 301.497325)"><g><path d="M 13.3125 -4.59375 L 14.5625 -1.015625 C 14.039062 -0.585938 13.382812 -0.25 12.59375 0 C 11.800781 0.25 10.898438 0.375 9.890625 0.375 C 7.804688 0.375 6.222656 -0.191406 5.140625 -1.328125 C 4.054688 -2.472656 3.515625 -4.128906 3.515625 -6.296875 L 3.515625 -15.453125 L 0.578125 -15.453125 L 0.578125 -19.3125 L 3.515625 -19.3125 L 3.515625 -23.0625 L 8.359375 -23.859375 L 8.359375 -19.3125 L 13.828125 -19.3125 L 13.828125 -15.453125 L 8.359375 -15.453125 L 8.359375 -6.640625 C 8.359375 -5.691406 8.554688 -5 8.953125 -4.5625 C 9.347656 -4.125 9.925781 -3.90625 10.6875 -3.90625 C 11.550781 -3.90625 12.300781 -4.132812 12.9375 -4.59375 Z M 13.3125 -4.59375 "/></g></g></g><g fill="#000000" fill-opacity="1"><g transform="translate(388.674891, 301.497325)"><g><path d="M 19.0625 -8.546875 L 6.65625 -8.546875 C 6.800781 -6.867188 7.28125 -5.644531 8.09375 -4.875 C 8.914062 -4.113281 10.03125 -3.734375 11.4375 -3.734375 C 12.539062 -3.734375 13.4375 -3.941406 14.125 -4.359375 C 14.8125 -4.773438 15.367188 -5.40625 15.796875 -6.25 L 16.15625 -6.25 L 19.375 -4.171875 C 18.75 -2.828125 17.800781 -1.734375 16.53125 -0.890625 C 15.257812 -0.046875 13.5625 0.375 11.4375 0.375 C 9.445312 0.375 7.722656 -0.00390625 6.265625 -0.765625 C 4.816406 -1.523438 3.695312 -2.65625 2.90625 -4.15625 C 2.125 -5.65625 1.734375 -7.484375 1.734375 -9.640625 C 1.734375 -11.828125 2.144531 -13.671875 2.96875 -15.171875 C 3.800781 -16.679688 4.921875 -17.804688 6.328125 -18.546875 C 7.742188 -19.285156 9.332031 -19.65625 11.09375 -19.65625 C 13.8125 -19.65625 15.894531 -18.929688 17.34375 -17.484375 C 18.800781 -16.035156 19.53125 -13.914062 19.53125 -11.125 C 19.53125 -10.101562 19.492188 -9.316406 19.421875 -8.765625 Z M 14.90625 -11.6875 C 14.851562 -13.15625 14.507812 -14.222656 13.875 -14.890625 C 13.238281 -15.554688 12.3125 -15.890625 11.09375 -15.890625 C 8.644531 -15.890625 7.203125 -14.488281 6.765625 -11.6875 Z M 14.90625 -11.6875 "/></g></g></g><g fill="#000000" fill-opacity="1"><g transform="translate(409.636793, 301.497325)"><g/></g></g><g fill="#000000" fill-opacity="1"><g transform="translate(418.080994, 301.497325)"><g><path d="M 7.515625 0.375 C 6.285156 0.375 5.210938 0.144531 4.296875 -0.3125 C 3.390625 -0.769531 2.691406 -1.4375 2.203125 -2.3125 C 1.710938 -3.195312 1.46875 -4.253906 1.46875 -5.484375 C 1.46875 -6.628906 1.710938 -7.585938 2.203125 -8.359375 C 2.691406 -9.140625 3.445312 -9.773438 4.46875 -10.265625 C 5.5 -10.765625 6.84375 -11.148438 8.5 -11.421875 C 9.65625 -11.609375 10.53125 -11.8125 11.125 -12.03125 C 11.726562 -12.25 12.132812 -12.5 12.34375 -12.78125 C 12.550781 -13.0625 12.65625 -13.414062 12.65625 -13.84375 C 12.65625 -14.46875 12.4375 -14.941406 12 -15.265625 C 11.570312 -15.585938 10.859375 -15.75 9.859375 -15.75 C 8.785156 -15.75 7.765625 -15.507812 6.796875 -15.03125 C 5.828125 -14.5625 4.988281 -13.9375 4.28125 -13.15625 L 3.9375 -13.15625 L 1.90625 -16.203125 C 2.882812 -17.296875 4.078125 -18.144531 5.484375 -18.75 C 6.898438 -19.351562 8.441406 -19.65625 10.109375 -19.65625 C 12.660156 -19.65625 14.503906 -19.113281 15.640625 -18.03125 C 16.785156 -16.945312 17.359375 -15.40625 17.359375 -13.40625 L 17.359375 -5.03125 C 17.359375 -4.164062 17.738281 -3.734375 18.5 -3.734375 C 18.789062 -3.734375 19.078125 -3.789062 19.359375 -3.90625 L 19.609375 -3.828125 L 19.953125 -0.453125 C 19.679688 -0.273438 19.304688 -0.128906 18.828125 -0.015625 C 18.347656 0.0859375 17.828125 0.140625 17.265625 0.140625 C 16.109375 0.140625 15.207031 -0.078125 14.5625 -0.515625 C 13.914062 -0.960938 13.453125 -1.660156 13.171875 -2.609375 L 12.796875 -2.640625 C 11.859375 -0.628906 10.097656 0.375 7.515625 0.375 Z M 9.0625 -3.25 C 10.175781 -3.25 11.066406 -3.625 11.734375 -4.375 C 12.410156 -5.132812 12.75 -6.179688 12.75 -7.515625 L 12.75 -9.484375 L 12.421875 -9.546875 C 12.128906 -9.316406 11.742188 -9.117188 11.265625 -8.953125 C 10.796875 -8.796875 10.117188 -8.644531 9.234375 -8.5 C 8.179688 -8.320312 7.425781 -8.019531 6.96875 -7.59375 C 6.507812 -7.164062 6.28125 -6.5625 6.28125 -5.78125 C 6.28125 -4.957031 6.523438 -4.328125 7.015625 -3.890625 C 7.503906 -3.460938 8.1875 -3.25 9.0625 -3.25 Z M 9.0625 -3.25 "/></g></g></g><g fill="#000000" fill-opacity="1"><g transform="translate(438.413503, 301.497325)"><g><path d="M 2.78125 0 L 2.78125 -19.28125 L 7.4375 -19.28125 L 7.4375 -16.453125 L 7.796875 -16.375 C 8.992188 -18.5625 10.941406 -19.65625 13.640625 -19.65625 C 15.867188 -19.65625 17.503906 -19.046875 18.546875 -17.828125 C 19.585938 -16.617188 20.109375 -14.851562 20.109375 -12.53125 L 20.109375 0 L 15.265625 0 L 15.265625 -11.9375 C 15.265625 -13.21875 15.007812 -14.140625 14.5 -14.703125 C 13.988281 -15.273438 13.164062 -15.5625 12.03125 -15.5625 C 10.644531 -15.5625 9.5625 -15.113281 8.78125 -14.21875 C 8.007812 -13.320312 7.625 -11.910156 7.625 -9.984375 L 7.625 0 Z M 2.78125 0 "/></g></g></g><g fill="#000000" fill-opacity="1"><g transform="translate(461.001289, 301.497325)"><g><path d="M 5.1875 -21.59375 C 4.3125 -21.59375 3.597656 -21.859375 3.046875 -22.390625 C 2.503906 -22.921875 2.234375 -23.609375 2.234375 -24.453125 C 2.234375 -25.273438 2.503906 -25.953125 3.046875 -26.484375 C 3.597656 -27.015625 4.3125 -27.28125 5.1875 -27.28125 C 5.769531 -27.28125 6.289062 -27.15625 6.75 -26.90625 C 7.207031 -26.664062 7.5625 -26.332031 7.8125 -25.90625 C 8.0625 -25.476562 8.1875 -24.992188 8.1875 -24.453125 C 8.1875 -23.898438 8.0625 -23.40625 7.8125 -22.96875 C 7.5625 -22.539062 7.207031 -22.203125 6.75 -21.953125 C 6.289062 -21.710938 5.769531 -21.59375 5.1875 -21.59375 Z M 2.78125 0 L 2.78125 -19.28125 L 7.625 -19.28125 L 7.625 0 Z M 2.78125 0 "/></g></g></g><g fill="#000000" fill-opacity="1"><g transform="translate(471.386087, 301.497325)"><g><path d="M 2.78125 0 L 2.78125 -19.28125 L 7.4375 -19.28125 L 7.4375 -16.703125 L 7.796875 -16.625 C 8.429688 -17.664062 9.171875 -18.429688 10.015625 -18.921875 C 10.859375 -19.410156 11.9375 -19.65625 13.25 -19.65625 C 14.707031 -19.65625 15.878906 -19.363281 16.765625 -18.78125 C 17.648438 -18.207031 18.296875 -17.367188 18.703125 -16.265625 L 19.078125 -16.265625 C 19.671875 -17.421875 20.4375 -18.273438 21.375 -18.828125 C 22.3125 -19.378906 23.484375 -19.65625 24.890625 -19.65625 C 28.878906 -19.65625 30.875 -17.425781 30.875 -12.96875 L 30.875 0 L 26.03125 0 L 26.03125 -12.359375 C 26.03125 -13.492188 25.804688 -14.3125 25.359375 -14.8125 C 24.921875 -15.3125 24.210938 -15.5625 23.234375 -15.5625 C 20.578125 -15.5625 19.25 -13.785156 19.25 -10.234375 L 19.25 0 L 14.40625 0 L 14.40625 -12.359375 C 14.40625 -13.492188 14.179688 -14.3125 13.734375 -14.8125 C 13.285156 -15.3125 12.570312 -15.5625 11.59375 -15.5625 C 10.34375 -15.5625 9.367188 -15.144531 8.671875 -14.3125 C 7.972656 -13.476562 7.625 -12.148438 7.625 -10.328125 L 7.625 0 Z M 2.78125 0 "/></g></g></g><g fill="#000000" fill-opacity="1"><g transform="translate(504.743281, 301.497325)"><g><path d="M 7.515625 0.375 C 6.285156 0.375 5.210938 0.144531 4.296875 -0.3125 C 3.390625 -0.769531 2.691406 -1.4375 2.203125 -2.3125 C 1.710938 -3.195312 1.46875 -4.253906 1.46875 -5.484375 C 1.46875 -6.628906 1.710938 -7.585938 2.203125 -8.359375 C 2.691406 -9.140625 3.445312 -9.773438 4.46875 -10.265625 C 5.5 -10.765625 6.84375 -11.148438 8.5 -11.421875 C 9.65625 -11.609375 10.53125 -11.8125 11.125 -12.03125 C 11.726562 -12.25 12.132812 -12.5 12.34375 -12.78125 C 12.550781 -13.0625 12.65625 -13.414062 12.65625 -13.84375 C 12.65625 -14.46875 12.4375 -14.941406 12 -15.265625 C 11.570312 -15.585938 10.859375 -15.75 9.859375 -15.75 C 8.785156 -15.75 7.765625 -15.507812 6.796875 -15.03125 C 5.828125 -14.5625 4.988281 -13.9375 4.28125 -13.15625 L 3.9375 -13.15625 L 1.90625 -16.203125 C 2.882812 -17.296875 4.078125 -18.144531 5.484375 -18.75 C 6.898438 -19.351562 8.441406 -19.65625 10.109375 -19.65625 C 12.660156 -19.65625 14.503906 -19.113281 15.640625 -18.03125 C 16.785156 -16.945312 17.359375 -15.40625 17.359375 -13.40625 L 17.359375 -5.03125 C 17.359375 -4.164062 17.738281 -3.734375 18.5 -3.734375 C 18.789062 -3.734375 19.078125 -3.789062 19.359375 -3.90625 L 19.609375 -3.828125 L 19.953125 -0.453125 C 19.679688 -0.273438 19.304688 -0.128906 18.828125 -0.015625 C 18.347656 0.0859375 17.828125 0.140625 17.265625 0.140625 C 16.109375 0.140625 15.207031 -0.078125 14.5625 -0.515625 C 13.914062 -0.960938 13.453125 -1.660156 13.171875 -2.609375 L 12.796875 -2.640625 C 11.859375 -0.628906 10.097656 0.375 7.515625 0.375 Z M 9.0625 -3.25 C 10.175781 -3.25 11.066406 -3.625 11.734375 -4.375 C 12.410156 -5.132812 12.75 -6.179688 12.75 -7.515625 L 12.75 -9.484375 L 12.421875 -9.546875 C 12.128906 -9.316406 11.742188 -9.117188 11.265625 -8.953125 C 10.796875 -8.796875 10.117188 -8.644531 9.234375 -8.5 C 8.179688 -8.320312 7.425781 -8.019531 6.96875 -7.59375 C 6.507812 -7.164062 6.28125 -6.5625 6.28125 -5.78125 C 6.28125 -4.957031 6.523438 -4.328125 7.015625 -3.890625 C 7.503906 -3.460938 8.1875 -3.25 9.0625 -3.25 Z M 9.0625 -3.25 "/></g></g></g><g fill="#000000" fill-opacity="1"><g transform="translate(525.07579, 301.497325)"><g><path d="M 8.015625 0.375 C 6.273438 0.375 4.945312 -0.09375 4.03125 -1.03125 C 3.113281 -1.976562 2.65625 -3.40625 2.65625 -5.3125 L 2.65625 -27.03125 L 7.5 -27.03125 L 7.5 -5.515625 C 7.5 -4.328125 7.988281 -3.734375 8.96875 -3.734375 C 9.25 -3.734375 9.546875 -3.78125 9.859375 -3.875 L 10.109375 -3.8125 L 10.546875 -0.09375 C 10.273438 0.0507812 9.914062 0.164062 9.46875 0.25 C 9.03125 0.332031 8.546875 0.375 8.015625 0.375 Z M 8.015625 0.375 "/></g></g></g><g fill="#000000" fill-opacity="1"><g transform="translate(536.159901, 301.497325)"><g/></g></g><g fill="#000000" fill-opacity="1"><g transform="translate(544.604102, 301.497325)"><g><path d="M 5.1875 -21.59375 C 4.3125 -21.59375 3.597656 -21.859375 3.046875 -22.390625 C 2.503906 -22.921875 2.234375 -23.609375 2.234375 -24.453125 C 2.234375 -25.273438 2.503906 -25.953125 3.046875 -26.484375 C 3.597656 -27.015625 4.3125 -27.28125 5.1875 -27.28125 C 5.769531 -27.28125 6.289062 -27.15625 6.75 -26.90625 C 7.207031 -26.664062 7.5625 -26.332031 7.8125 -25.90625 C 8.0625 -25.476562 8.1875 -24.992188 8.1875 -24.453125 C 8.1875 -23.898438 8.0625 -23.40625 7.8125 -22.96875 C 7.5625 -22.539062 7.207031 -22.203125 6.75 -21.953125 C 6.289062 -21.710938 5.769531 -21.59375 5.1875 -21.59375 Z M 2.78125 0 L 2.78125 -19.28125 L 7.625 -19.28125 L 7.625 0 Z M 2.78125 0 "/></g></g></g><g fill="#000000" fill-opacity="1"><g transform="translate(554.988878, 301.497325)"><g><path d="M 9.015625 0.375 C 7.703125 0.375 6.5 0.21875 5.40625 -0.09375 C 4.3125 -0.40625 3.375 -0.832031 2.59375 -1.375 C 1.820312 -1.914062 1.25 -2.535156 0.875 -3.234375 L 3.5625 -6.140625 L 3.9375 -6.140625 C 4.570312 -5.273438 5.328125 -4.625 6.203125 -4.1875 C 7.078125 -3.757812 8.03125 -3.546875 9.0625 -3.546875 C 10 -3.546875 10.707031 -3.710938 11.1875 -4.046875 C 11.664062 -4.390625 11.90625 -4.878906 11.90625 -5.515625 C 11.90625 -6.003906 11.734375 -6.410156 11.390625 -6.734375 C 11.046875 -7.066406 10.488281 -7.328125 9.71875 -7.515625 L 7.171875 -8.125 C 5.253906 -8.582031 3.851562 -9.28125 2.96875 -10.21875 C 2.09375 -11.15625 1.65625 -12.347656 1.65625 -13.796875 C 1.65625 -14.992188 1.960938 -16.035156 2.578125 -16.921875 C 3.191406 -17.804688 4.054688 -18.484375 5.171875 -18.953125 C 6.285156 -19.421875 7.582031 -19.65625 9.0625 -19.65625 C 10.789062 -19.65625 12.226562 -19.40625 13.375 -18.90625 C 14.519531 -18.40625 15.410156 -17.734375 16.046875 -16.890625 L 13.46875 -14.09375 L 13.109375 -14.09375 C 12.578125 -14.695312 11.972656 -15.140625 11.296875 -15.421875 C 10.628906 -15.703125 9.882812 -15.84375 9.0625 -15.84375 C 7.144531 -15.84375 6.1875 -15.25 6.1875 -14.0625 C 6.1875 -13.5625 6.363281 -13.148438 6.71875 -12.828125 C 7.070312 -12.515625 7.703125 -12.257812 8.609375 -12.0625 L 10.984375 -11.546875 C 12.941406 -11.117188 14.367188 -10.441406 15.265625 -9.515625 C 16.171875 -8.585938 16.625 -7.34375 16.625 -5.78125 C 16.625 -4.5625 16.320312 -3.484375 15.71875 -2.546875 C 15.113281 -1.617188 14.238281 -0.898438 13.09375 -0.390625 C 11.957031 0.117188 10.597656 0.375 9.015625 0.375 Z M 9.015625 0.375 "/></g></g></g><g fill="#000000" fill-opacity="1"><g transform="translate(572.768908, 301.497325)"><g/></g></g><g fill="#000000" fill-opacity="1"><g transform="translate(581.21311, 301.497325)"><g><path d="M 7.515625 0.375 C 6.285156 0.375 5.210938 0.144531 4.296875 -0.3125 C 3.390625 -0.769531 2.691406 -1.4375 2.203125 -2.3125 C 1.710938 -3.195312 1.46875 -4.253906 1.46875 -5.484375 C 1.46875 -6.628906 1.710938 -7.585938 2.203125 -8.359375 C 2.691406 -9.140625 3.445312 -9.773438 4.46875 -10.265625 C 5.5 -10.765625 6.84375 -11.148438 8.5 -11.421875 C 9.65625 -11.609375 10.53125 -11.8125 11.125 -12.03125 C 11.726562 -12.25 12.132812 -12.5 12.34375 -12.78125 C 12.550781 -13.0625 12.65625 -13.414062 12.65625 -13.84375 C 12.65625 -14.46875 12.4375 -14.941406 12 -15.265625 C 11.570312 -15.585938 10.859375 -15.75 9.859375 -15.75 C 8.785156 -15.75 7.765625 -15.507812 6.796875 -15.03125 C 5.828125 -14.5625 4.988281 -13.9375 4.28125 -13.15625 L 3.9375 -13.15625 L 1.90625 -16.203125 C 2.882812 -17.296875 4.078125 -18.144531 5.484375 -18.75 C 6.898438 -19.351562 8.441406 -19.65625 10.109375 -19.65625 C 12.660156 -19.65625 14.503906 -19.113281 15.640625 -18.03125 C 16.785156 -16.945312 17.359375 -15.40625 17.359375 -13.40625 L 17.359375 -5.03125 C 17.359375 -4.164062 17.738281 -3.734375 18.5 -3.734375 C 18.789062 -3.734375 19.078125 -3.789062 19.359375 -3.90625 L 19.609375 -3.828125 L 19.953125 -0.453125 C 19.679688 -0.273438 19.304688 -0.128906 18.828125 -0.015625 C 18.347656 0.0859375 17.828125 0.140625 17.265625 0.140625 C 16.109375 0.140625 15.207031 -0.078125 14.5625 -0.515625 C 13.914062 -0.960938 13.453125 -1.660156 13.171875 -2.609375 L 12.796875 -2.640625 C 11.859375 -0.628906 10.097656 0.375 7.515625 0.375 Z M 9.0625 -3.25 C 10.175781 -3.25 11.066406 -3.625 11.734375 -4.375 C 12.410156 -5.132812 12.75 -6.179688 12.75 -7.515625 L 12.75 -9.484375 L 12.421875 -9.546875 C 12.128906 -9.316406 11.742188 -9.117188 11.265625 -8.953125 C 10.796875 -8.796875 10.117188 -8.644531 9.234375 -8.5 C 8.179688 -8.320312 7.425781 -8.019531 6.96875 -7.59375 C 6.507812 -7.164062 6.28125 -6.5625 6.28125 -5.78125 C 6.28125 -4.957031 6.523438 -4.328125 7.015625 -3.890625 C 7.503906 -3.460938 8.1875 -3.25 9.0625 -3.25 Z M 9.0625 -3.25 "/></g></g></g><g fill="#000000" fill-opacity="1"><g transform="translate(601.545619, 301.497325)"><g/></g></g><g fill="#000000" fill-opacity="1"><g transform="translate(609.98982, 301.497325)"><g><path d="M 16.4375 5.609375 L 0 5.609375 L 0 1.71875 L 16.4375 1.71875 Z M 16.4375 5.609375 "/></g></g></g><g fill="#000000" fill-opacity="1"><g transform="translate(626.423681, 301.497325)"><g><path d="M 16.4375 5.609375 L 0 5.609375 L 0 1.71875 L 16.4375 1.71875 Z M 16.4375 5.609375 "/></g></g></g><g fill="#000000" fill-opacity="1"><g transform="translate(642.857542, 301.497325)"><g><path d="M 16.4375 5.609375 L 0 5.609375 L 0 1.71875 L 16.4375 1.71875 Z M 16.4375 5.609375 "/></g></g></g><g fill="#000000" fill-opacity="1"><g transform="translate(659.291403, 301.497325)"><g><path d="M 16.4375 5.609375 L 0 5.609375 L 0 1.71875 L 16.4375 1.71875 Z M 16.4375 5.609375 "/></g></g></g><g fill="#000000" fill-opacity="1"><g transform="translate(675.725264, 301.497325)"><g><path d="M 16.4375 5.609375 L 0 5.609375 L 0 1.71875 L 16.4375 1.71875 Z M 16.4375 5.609375 "/></g></g></g><g fill="#000000" fill-opacity="1"><g transform="translate(692.159125, 301.497325)"><g><path d="M 16.4375 5.609375 L 0 5.609375 L 0 1.71875 L 16.4375 1.71875 Z M 16.4375 5.609375 "/></g></g></g><g fill="#000000" fill-opacity="1"><g transform="translate(708.592986, 301.497325)"><g><path d="M 16.4375 5.609375 L 0 5.609375 L 0 1.71875 L 16.4375 1.71875 Z M 16.4375 5.609375 "/></g></g></g><g fill="#000000" fill-opacity="1"><g transform="translate(725.026847, 301.497325)"><g><path d="M 16.4375 5.609375 L 0 5.609375 L 0 1.71875 L 16.4375 1.71875 Z M 16.4375 5.609375 "/></g></g></g><g fill="#000000" fill-opacity="1"><g transform="translate(741.460708, 301.497325)"><g><path d="M 4.9375 0.15625 C 4.3125 0.15625 3.765625 0.03125 3.296875 -0.21875 C 2.828125 -0.46875 2.46875 -0.8125 2.21875 -1.25 C 1.96875 -1.695312 1.84375 -2.203125 1.84375 -2.765625 C 1.84375 -3.328125 1.96875 -3.828125 2.21875 -4.265625 C 2.46875 -4.710938 2.828125 -5.0625 3.296875 -5.3125 C 3.765625 -5.570312 4.3125 -5.703125 4.9375 -5.703125 C 5.5625 -5.703125 6.109375 -5.578125 6.578125 -5.328125 C 7.054688 -5.078125 7.421875 -4.726562 7.671875 -4.28125 C 7.921875 -3.84375 8.046875 -3.34375 8.046875 -2.78125 C 8.046875 -1.925781 7.757812 -1.222656 7.1875 -0.671875 C 6.625 -0.117188 5.875 0.15625 4.9375 0.15625 Z M 4.9375 0.15625 "/></g></g></g></svg>