<svg xmlns="http://www.w3.org/2000/svg" xmlns:xlink="http://www.w3.org/1999/xlink" width="1280" zoomAndPan="magnify" viewBox="0 0 960 540.000001" height="720" preserveAspectRatio="xMidYMid meet" version="1.0"><defs><g/><clipPath id="2a6d939308"><path d="M 0.886719 0 L 959.113281 0 L 959.113281 539 L 0.886719 539 Z M 0.886719 0 " clip-rule="nonzero"/></clipPath><clipPath id="090c6113af"><path d="M 54.789062 186.570312 L 903.019531 186.570312 L 903.019531 507.488281 L 54.789062 507.488281 Z M 54.789062 186.570312 " clip-rule="nonzero"/></clipPath><clipPath id="965705350c"><path d="M 80.242188 186.570312 L 877.570312 186.570312 C 884.320312 186.570312 890.792969 189.25 895.566406 194.023438 C 900.339844 198.796875 903.019531 205.269531 903.019531 212.023438 L 903.019531 482.035156 C 903.019531 488.785156 900.339844 495.257812 895.566406 500.03125 C 890.792969 504.804688 884.320312 507.488281 877.570312 507.488281 L 80.242188 507.488281 C 73.488281 507.488281 67.015625 504.804688 62.242188 500.03125 C 57.46875 495.257812 54.789062 488.785156 54.789062 482.035156 L 54.789062 212.023438 C 54.789062 205.269531 57.46875 198.796875 62.242188 194.023438 C 67.015625 189.25 73.488281 186.570312 80.242188 186.570312 Z M 80.242188 186.570312 " clip-rule="nonzero"/></clipPath><clipPath id="5cd7bda83e"><path d="M 221.109375 210.980469 L 402.261719 210.980469 L 402.261719 392.136719 L 221.109375 392.136719 Z M 221.109375 210.980469 " clip-rule="nonzero"/></clipPath><clipPath id="67eb97f61a"><path d="M 311.683594 210.980469 C 261.660156 210.980469 221.109375 251.535156 221.109375 301.558594 C 221.109375 351.582031 261.660156 392.136719 311.683594 392.136719 C 361.710938 392.136719 402.261719 351.582031 402.261719 301.558594 C 402.261719 251.535156 361.710938 210.980469 311.683594 210.980469 Z M 311.683594 210.980469 " clip-rule="nonzero"/></clipPath><clipPath id="47b1a04201"><path d="M 552.152344 210.980469 L 733.304688 210.980469 L 733.304688 392.136719 L 552.152344 392.136719 Z M 552.152344 210.980469 " clip-rule="nonzero"/></clipPath><clipPath id="80a3b24a49"><path d="M 642.726562 210.980469 C 592.703125 210.980469 552.152344 251.535156 552.152344 301.558594 C 552.152344 351.582031 592.703125 392.136719 642.726562 392.136719 C 692.75 392.136719 733.304688 351.582031 733.304688 301.558594 C 733.304688 251.535156 692.75 210.980469 642.726562 210.980469 Z M 642.726562 210.980469 " clip-rule="nonzero"/></clipPath><clipPath id="0ba457edaa"><path d="M 426.039062 288.65625 L 533.835938 288.65625 L 533.835938 334.320312 L 426.039062 334.320312 Z M 426.039062 288.65625 " clip-rule="nonzero"/></clipPath></defs><g clip-path="url(#2a6d939308)"><path fill="#ffffff" d="M 0.886719 0 L 959.113281 0 L 959.113281 539 L 0.886719 539 Z M 0.886719 0 " fill-opacity="1" fill-rule="nonzero"/><path fill="#75a5b4" d="M 0.886719 0 L 959.113281 0 L 959.113281 539 L 0.886719 539 Z M 0.886719 0 " fill-opacity="1" fill-rule="nonzero"/></g><g clip-path="url(#090c6113af)"><g clip-path="url(#965705350c)"><path fill="#ffffff" d="M 54.789062 186.570312 L 903.019531 186.570312 L 903.019531 507.488281 L 54.789062 507.488281 Z M 54.789062 186.570312 " fill-opacity="1" fill-rule="nonzero"/></g></g><g clip-path="url(#5cd7bda83e)"><g clip-path="url(#67eb97f61a)"><path stroke-linecap="butt" transform="matrix(0.748614, 0, 0, 0.748614, 221.109028, 210.982389)" fill="none" stroke-linejoin="miter" d="M 120.989742 -0.00256515 C 54.168303 -0.00256515 0.000463987 54.170492 0.000463987 120.99193 C 0.000463987 187.813369 54.168303 241.986426 120.989742 241.986426 C 187.816398 241.986426 241.984237 187.813369 241.984237 120.99193 C 241.984237 54.170492 187.816398 -0.00256515 120.989742 -0.00256515 Z M 120.989742 -0.00256515 " stroke="#696a6a" stroke-width="8" stroke-opacity="1" stroke-miterlimit="4"/></g></g><g fill="#000000" fill-opacity="1"><g transform="translate(282.174272, 340.830998)"><g><path d="M 24.203125 1.046875 C 20.566406 1.046875 17.226562 0.503906 14.1875 -0.578125 C 11.144531 -1.660156 8.578125 -3.132812 6.484375 -5 C 4.398438 -6.875 2.875 -8.945312 1.90625 -11.21875 L 6.359375 -17.09375 L 7.625 -17.09375 C 9.09375 -13.945312 11.253906 -11.460938 14.109375 -9.640625 C 16.960938 -7.828125 20.328125 -6.921875 24.203125 -6.921875 C 27.347656 -6.921875 29.90625 -7.425781 31.875 -8.4375 C 33.84375 -9.457031 35.316406 -11.144531 36.296875 -13.5 C 37.285156 -15.863281 37.78125 -19.046875 37.78125 -23.046875 L 37.78125 -73.265625 L 46.359375 -73.265625 L 46.359375 -22.90625 C 46.359375 -14.613281 44.507812 -8.546875 40.8125 -4.703125 C 37.125 -0.867188 31.585938 1.046875 24.203125 1.046875 Z M 24.203125 1.046875 "/></g></g></g><g clip-path="url(#47b1a04201)"><g clip-path="url(#80a3b24a49)"><path stroke-linecap="butt" transform="matrix(0.748614, 0, 0, 0.748614, 552.151124, 210.982389)" fill="none" stroke-linejoin="miter" d="M 120.990907 -0.00256515 C 54.169469 -0.00256515 0.00162944 54.170492 0.00162944 120.99193 C 0.00162944 187.813369 54.169469 241.986426 120.990907 241.986426 C 187.812345 241.986426 241.985403 187.813369 241.985403 120.99193 C 241.985403 54.170492 187.812345 -0.00256515 120.990907 -0.00256515 Z M 120.990907 -0.00256515 " stroke="#696a6a" stroke-width="8" stroke-opacity="1" stroke-miterlimit="4"/></g></g><g fill="#000000" fill-opacity="1"><g transform="translate(613.216385, 340.830998)"><g><path d="M 24.203125 1.046875 C 20.566406 1.046875 17.226562 0.503906 14.1875 -0.578125 C 11.144531 -1.660156 8.578125 -3.132812 6.484375 -5 C 4.398438 -6.875 2.875 -8.945312 1.90625 -11.21875 L 6.359375 -17.09375 L 7.625 -17.09375 C 9.09375 -13.945312 11.253906 -11.460938 14.109375 -9.640625 C 16.960938 -7.828125 20.328125 -6.921875 24.203125 -6.921875 C 27.347656 -6.921875 29.90625 -7.425781 31.875 -8.4375 C 33.84375 -9.457031 35.316406 -11.144531 36.296875 -13.5 C 37.285156 -15.863281 37.78125 -19.046875 37.78125 -23.046875 L 37.78125 -73.265625 L 46.359375 -73.265625 L 46.359375 -22.90625 C 46.359375 -14.613281 44.507812 -8.546875 40.8125 -4.703125 C 37.125 -0.867188 31.585938 1.046875 24.203125 1.046875 Z M 24.203125 1.046875 "/></g></g></g><g clip-path="url(#0ba457edaa)"><path fill="#000000" d="M 533.835938 311.488281 L 511.144531 288.664062 L 511.144531 305.78125 L 426.039062 305.78125 L 426.039062 317.195312 L 511.144531 317.195312 L 511.144531 334.3125 Z M 533.835938 311.488281 " fill-opacity="1" fill-rule="nonzero"/></g><g fill="#ffffff" fill-opacity="1"><g transform="translate(113.955456, 154.646522)"><g><path d="M 7.78125 -107.046875 L 46.0625 -107.046875 C 56.351562 -107.046875 64.742188 -104.296875 71.234375 -98.796875 C 77.722656 -93.304688 80.96875 -85.457031 80.96875 -75.25 C 80.96875 -67.382812 79 -60.789062 75.0625 -55.46875 C 71.125 -50.144531 65.78125 -46.40625 59.03125 -44.25 L 95.890625 0 L 64.875 0 L 32.171875 -42.296875 L 32.171875 0 L 7.78125 0 Z M 32.171875 -59.5625 L 35.03125 -59.5625 C 37.28125 -59.5625 39.179688 -59.601562 40.734375 -59.6875 C 42.296875 -59.769531 44.070312 -60.070312 46.0625 -60.59375 C 48.050781 -61.113281 49.648438 -61.847656 50.859375 -62.796875 C 52.066406 -63.742188 53.101562 -65.125 53.96875 -66.9375 C 54.84375 -68.757812 55.28125 -70.96875 55.28125 -73.5625 C 55.28125 -76.15625 54.84375 -78.359375 53.96875 -80.171875 C 53.101562 -81.992188 52.066406 -83.378906 50.859375 -84.328125 C 49.648438 -85.285156 48.050781 -86.023438 46.0625 -86.546875 C 44.070312 -87.066406 42.296875 -87.367188 40.734375 -87.453125 C 39.179688 -87.535156 37.28125 -87.578125 35.03125 -87.578125 L 32.171875 -87.578125 Z M 32.171875 -59.5625 "/></g></g></g><g fill="#ffffff" fill-opacity="1"><g transform="translate(206.86063, 154.646522)"><g><path d="M 2.984375 -53.59375 C 2.984375 -69.070312 8.257812 -82.171875 18.8125 -92.890625 C 29.363281 -103.617188 42.078125 -108.984375 56.953125 -108.984375 C 71.921875 -108.984375 84.640625 -103.640625 95.109375 -92.953125 C 105.578125 -82.273438 110.8125 -69.15625 110.8125 -53.59375 C 110.8125 -37.9375 105.660156 -24.765625 95.359375 -14.078125 C 85.066406 -3.390625 72.265625 1.953125 56.953125 1.953125 C 41.296875 1.953125 28.382812 -3.34375 18.21875 -13.9375 C 8.0625 -24.539062 2.984375 -37.757812 2.984375 -53.59375 Z M 29.328125 -53.59375 C 29.328125 -47.96875 30.191406 -42.835938 31.921875 -38.203125 C 33.648438 -33.578125 36.675781 -29.664062 41 -26.46875 C 45.320312 -23.269531 50.640625 -21.671875 56.953125 -21.671875 C 66.035156 -21.671875 72.890625 -24.785156 77.515625 -31.015625 C 82.148438 -37.242188 84.46875 -44.769531 84.46875 -53.59375 C 84.46875 -62.320312 82.109375 -69.820312 77.390625 -76.09375 C 72.679688 -82.363281 65.867188 -85.5 56.953125 -85.5 C 48.128906 -85.5 41.316406 -82.363281 36.515625 -76.09375 C 31.722656 -69.820312 29.328125 -62.320312 29.328125 -53.59375 Z M 29.328125 -53.59375 "/></g></g></g><g fill="#ffffff" fill-opacity="1"><g transform="translate(320.656485, 154.646522)"><g><path d="M 62.15625 -107.046875 L 105.359375 0 L 79.140625 0 L 71.234375 -21.40625 L 30.484375 -21.40625 L 22.578125 0 L -3.640625 0 L 39.578125 -107.046875 Z M 62.921875 -42.8125 L 50.984375 -73.953125 L 50.734375 -73.953125 L 38.796875 -42.8125 Z M 62.921875 -42.8125 "/></g></g></g><g fill="#ffffff" fill-opacity="1"><g transform="translate(422.385056, 154.646522)"><g><path d="M 7.78125 -107.046875 L 46.0625 -107.046875 C 56.351562 -107.046875 64.742188 -104.296875 71.234375 -98.796875 C 77.722656 -93.304688 80.96875 -85.457031 80.96875 -75.25 C 80.96875 -67.382812 79 -60.789062 75.0625 -55.46875 C 71.125 -50.144531 65.78125 -46.40625 59.03125 -44.25 L 95.890625 0 L 64.875 0 L 32.171875 -42.296875 L 32.171875 0 L 7.78125 0 Z M 32.171875 -59.5625 L 35.03125 -59.5625 C 37.28125 -59.5625 39.179688 -59.601562 40.734375 -59.6875 C 42.296875 -59.769531 44.070312 -60.070312 46.0625 -60.59375 C 48.050781 -61.113281 49.648438 -61.847656 50.859375 -62.796875 C 52.066406 -63.742188 53.101562 -65.125 53.96875 -66.9375 C 54.84375 -68.757812 55.28125 -70.96875 55.28125 -73.5625 C 55.28125 -76.15625 54.84375 -78.359375 53.96875 -80.171875 C 53.101562 -81.992188 52.066406 -83.378906 50.859375 -84.328125 C 49.648438 -85.285156 48.050781 -86.023438 46.0625 -86.546875 C 44.070312 -87.066406 42.296875 -87.367188 40.734375 -87.453125 C 39.179688 -87.535156 37.28125 -87.578125 35.03125 -87.578125 L 32.171875 -87.578125 Z M 32.171875 -59.5625 "/></g></g></g><g fill="#ffffff" fill-opacity="1"><g transform="translate(515.29023, 154.646522)"><g/></g></g><g fill="#ffffff" fill-opacity="1"><g transform="translate(550.713583, 154.646522)"><g><path d="M 62.15625 -107.046875 L 105.359375 0 L 79.140625 0 L 71.234375 -21.40625 L 30.484375 -21.40625 L 22.578125 0 L -3.640625 0 L 39.578125 -107.046875 Z M 62.921875 -42.8125 L 50.984375 -73.953125 L 50.734375 -73.953125 L 38.796875 -42.8125 Z M 62.921875 -42.8125 "/></g></g></g><g fill="#ffffff" fill-opacity="1"><g transform="translate(652.442154, 154.646522)"><g><path d="M 32.171875 -66.4375 L 32.171875 0 L 7.78125 0 L 7.78125 -107.046875 L 32.171875 -107.046875 L 74.734375 -40.609375 L 75 -40.609375 L 75 -107.046875 L 99.390625 -107.046875 L 99.390625 0 L 75 0 L 32.4375 -66.4375 Z M 32.171875 -66.4375 "/></g></g></g><g fill="#ffffff" fill-opacity="1"><g transform="translate(759.620472, 154.646522)"><g><path d="M 7.78125 -107.046875 L 41 -107.046875 C 51.03125 -107.046875 59.03125 -104.90625 65 -100.625 C 70.96875 -96.34375 73.953125 -89.398438 73.953125 -79.796875 C 73.953125 -69.066406 69.5 -61.410156 60.59375 -56.828125 C 75.8125 -54.148438 83.421875 -45.15625 83.421875 -29.84375 C 83.421875 -20.84375 80.304688 -13.617188 74.078125 -8.171875 C 67.859375 -2.722656 59.296875 0 48.390625 0 L 7.78125 0 Z M 32.171875 -65.140625 L 34.125 -65.140625 C 39.570312 -65.140625 43.632812 -66.085938 46.3125 -67.984375 C 49 -69.890625 50.34375 -73.003906 50.34375 -77.328125 C 50.34375 -84.597656 44.9375 -88.234375 34.125 -88.234375 L 32.171875 -88.234375 Z M 32.171875 -18.8125 L 39.828125 -18.8125 C 51.765625 -18.8125 57.734375 -22.789062 57.734375 -30.75 C 57.734375 -35.507812 56.238281 -38.925781 53.25 -41 C 50.269531 -43.070312 45.796875 -44.109375 39.828125 -44.109375 L 32.171875 -44.109375 Z M 32.171875 -18.8125 "/></g></g></g><g fill="#000000" fill-opacity="1"><g transform="translate(228.915245, 465.785084)"><g><path d="M 9.984375 0 L 4.171875 0 L 4.171875 -32.0625 L 12.453125 -32.0625 L 20.578125 -8.484375 L 21.03125 -8.484375 L 29.109375 -32.0625 L 37.203125 -32.0625 L 37.203125 0 L 31.1875 0 L 31.1875 -21.1875 L 30.640625 -21.28125 L 23.234375 0 L 17.9375 0 L 10.53125 -21.28125 L 9.984375 -21.1875 Z M 9.984375 0 "/></g></g></g><g fill="#000000" fill-opacity="1"><g transform="translate(270.301005, 465.785084)"><g><path d="M 9.4375 0.453125 C 7.882812 0.453125 6.535156 0.171875 5.390625 -0.390625 C 4.253906 -0.960938 3.378906 -1.800781 2.765625 -2.90625 C 2.148438 -4.007812 1.84375 -5.335938 1.84375 -6.890625 C 1.84375 -8.316406 2.148438 -9.515625 2.765625 -10.484375 C 3.378906 -11.460938 4.328125 -12.257812 5.609375 -12.875 C 6.898438 -13.5 8.582031 -13.984375 10.65625 -14.328125 C 12.101562 -14.554688 13.203125 -14.804688 13.953125 -15.078125 C 14.710938 -15.359375 15.222656 -15.675781 15.484375 -16.03125 C 15.742188 -16.382812 15.875 -16.832031 15.875 -17.375 C 15.875 -18.144531 15.601562 -18.734375 15.0625 -19.140625 C 14.519531 -19.554688 13.625 -19.765625 12.375 -19.765625 C 11.03125 -19.765625 9.75 -19.460938 8.53125 -18.859375 C 7.320312 -18.265625 6.269531 -17.476562 5.375 -16.5 L 4.9375 -16.5 L 2.390625 -20.328125 C 3.617188 -21.691406 5.117188 -22.753906 6.890625 -23.515625 C 8.660156 -24.273438 10.585938 -24.65625 12.671875 -24.65625 C 15.878906 -24.65625 18.195312 -23.972656 19.625 -22.609375 C 21.0625 -21.253906 21.78125 -19.328125 21.78125 -16.828125 L 21.78125 -6.3125 C 21.78125 -5.226562 22.253906 -4.6875 23.203125 -4.6875 C 23.566406 -4.6875 23.925781 -4.753906 24.28125 -4.890625 L 24.59375 -4.796875 L 25.03125 -0.5625 C 24.6875 -0.34375 24.210938 -0.164062 23.609375 -0.03125 C 23.015625 0.101562 22.363281 0.171875 21.65625 0.171875 C 20.207031 0.171875 19.078125 -0.101562 18.265625 -0.65625 C 17.453125 -1.207031 16.867188 -2.078125 16.515625 -3.265625 L 16.0625 -3.3125 C 14.875 -0.800781 12.664062 0.453125 9.4375 0.453125 Z M 11.359375 -4.078125 C 12.765625 -4.078125 13.882812 -4.546875 14.71875 -5.484375 C 15.5625 -6.429688 15.984375 -7.75 15.984375 -9.4375 L 15.984375 -11.890625 L 15.578125 -11.96875 C 15.210938 -11.675781 14.734375 -11.429688 14.140625 -11.234375 C 13.546875 -11.046875 12.691406 -10.851562 11.578125 -10.65625 C 10.265625 -10.4375 9.316406 -10.0625 8.734375 -9.53125 C 8.160156 -9 7.875 -8.242188 7.875 -7.265625 C 7.875 -6.222656 8.179688 -5.429688 8.796875 -4.890625 C 9.410156 -4.347656 10.265625 -4.078125 11.359375 -4.078125 Z M 11.359375 -4.078125 "/></g></g></g><g fill="#000000" fill-opacity="1"><g transform="translate(295.807968, 465.785084)"><g><path d="M 16.6875 -5.765625 L 18.265625 -1.265625 C 17.609375 -0.722656 16.78125 -0.300781 15.78125 0 C 14.789062 0.300781 13.671875 0.453125 12.421875 0.453125 C 9.796875 0.453125 7.800781 -0.253906 6.4375 -1.671875 C 5.082031 -3.097656 4.40625 -5.171875 4.40625 -7.890625 L 4.40625 -19.390625 L 0.71875 -19.390625 L 0.71875 -24.21875 L 4.40625 -24.21875 L 4.40625 -28.9375 L 10.484375 -29.921875 L 10.484375 -24.21875 L 17.34375 -24.21875 L 17.34375 -19.390625 L 10.484375 -19.390625 L 10.484375 -8.328125 C 10.484375 -7.128906 10.726562 -6.253906 11.21875 -5.703125 C 11.71875 -5.160156 12.445312 -4.890625 13.40625 -4.890625 C 14.488281 -4.890625 15.429688 -5.179688 16.234375 -5.765625 Z M 16.6875 -5.765625 "/></g></g></g><g fill="#000000" fill-opacity="1"><g transform="translate(314.603727, 465.785084)"><g><path d="M 14.109375 0.453125 C 11.765625 0.453125 9.691406 -0.03125 7.890625 -1 C 6.097656 -1.96875 4.695312 -3.394531 3.6875 -5.28125 C 2.675781 -7.164062 2.171875 -9.429688 2.171875 -12.078125 C 2.171875 -14.742188 2.675781 -17.019531 3.6875 -18.90625 C 4.695312 -20.789062 6.09375 -22.21875 7.875 -23.1875 C 9.65625 -24.164062 11.695312 -24.65625 14 -24.65625 C 19.101562 -24.65625 22.367188 -22.804688 23.796875 -19.109375 L 19.625 -16.125 L 19.171875 -16.125 C 18.671875 -17.257812 18.019531 -18.101562 17.21875 -18.65625 C 16.425781 -19.21875 15.351562 -19.5 14 -19.5 C 12.238281 -19.5 10.867188 -18.890625 9.890625 -17.671875 C 8.910156 -16.460938 8.421875 -14.597656 8.421875 -12.078125 C 8.421875 -9.597656 8.914062 -7.742188 9.90625 -6.515625 C 10.90625 -5.296875 12.304688 -4.6875 14.109375 -4.6875 C 15.421875 -4.6875 16.53125 -5.039062 17.4375 -5.75 C 18.351562 -6.46875 19.007812 -7.488281 19.40625 -8.8125 L 19.875 -8.859375 L 24.1875 -6.5 C 23.570312 -4.445312 22.4375 -2.773438 20.78125 -1.484375 C 19.125 -0.191406 16.898438 0.453125 14.109375 0.453125 Z M 14.109375 0.453125 "/></g></g></g><g fill="#000000" fill-opacity="1"><g transform="translate(339.540457, 465.785084)"><g><path d="M 3.484375 0 L 3.484375 -33.90625 L 9.5625 -33.90625 L 9.5625 -21.03125 L 10.03125 -20.953125 C 10.832031 -22.128906 11.816406 -23.039062 12.984375 -23.6875 C 14.148438 -24.332031 15.5625 -24.65625 17.21875 -24.65625 C 22.550781 -24.65625 25.21875 -21.628906 25.21875 -15.578125 L 25.21875 0 L 19.15625 0 L 19.15625 -14.8125 C 19.15625 -16.457031 18.820312 -17.648438 18.15625 -18.390625 C 17.5 -19.140625 16.476562 -19.515625 15.09375 -19.515625 C 13.394531 -19.515625 12.046875 -18.945312 11.046875 -17.8125 C 10.054688 -16.6875 9.5625 -14.925781 9.5625 -12.53125 L 9.5625 0 Z M 3.484375 0 "/></g></g></g><g fill="#000000" fill-opacity="1"><g transform="translate(367.876654, 465.785084)"><g><path d="M 6.515625 -27.09375 C 5.421875 -27.09375 4.53125 -27.421875 3.84375 -28.078125 C 3.15625 -28.742188 2.8125 -29.609375 2.8125 -30.671875 C 2.8125 -31.703125 3.15625 -32.550781 3.84375 -33.21875 C 4.53125 -33.882812 5.421875 -34.21875 6.515625 -34.21875 C 7.242188 -34.21875 7.894531 -34.0625 8.46875 -33.75 C 9.039062 -33.445312 9.484375 -33.03125 9.796875 -32.5 C 10.109375 -31.96875 10.265625 -31.359375 10.265625 -30.671875 C 10.265625 -29.984375 10.109375 -29.367188 9.796875 -28.828125 C 9.484375 -28.285156 9.039062 -27.859375 8.46875 -27.546875 C 7.894531 -27.242188 7.242188 -27.09375 6.515625 -27.09375 Z M 3.484375 0 L 3.484375 -24.1875 L 9.5625 -24.1875 L 9.5625 0 Z M 3.484375 0 "/></g></g></g><g fill="#000000" fill-opacity="1"><g transform="translate(380.904286, 465.785084)"><g><path d="M 3.484375 0 L 3.484375 -24.1875 L 9.328125 -24.1875 L 9.328125 -20.640625 L 9.78125 -20.53125 C 11.289062 -23.28125 13.734375 -24.65625 17.109375 -24.65625 C 19.898438 -24.65625 21.945312 -23.894531 23.25 -22.375 C 24.5625 -20.851562 25.21875 -18.640625 25.21875 -15.734375 L 25.21875 0 L 19.15625 0 L 19.15625 -14.984375 C 19.15625 -16.585938 18.832031 -17.742188 18.1875 -18.453125 C 17.539062 -19.160156 16.507812 -19.515625 15.09375 -19.515625 C 13.351562 -19.515625 11.992188 -18.953125 11.015625 -17.828125 C 10.046875 -16.703125 9.5625 -14.9375 9.5625 -12.53125 L 9.5625 0 Z M 3.484375 0 "/></g></g></g><g fill="#000000" fill-opacity="1"><g transform="translate(409.240483, 465.785084)"><g><path d="M 12.546875 10.265625 C 8.554688 10.265625 5.609375 9.675781 3.703125 8.5 C 1.804688 7.332031 0.859375 5.707031 0.859375 3.625 C 0.859375 2.34375 1.265625 1.296875 2.078125 0.484375 C 2.890625 -0.316406 4.054688 -0.859375 5.578125 -1.140625 L 5.578125 -1.59375 C 4.753906 -2.09375 4.160156 -2.644531 3.796875 -3.25 C 3.441406 -3.863281 3.265625 -4.570312 3.265625 -5.375 C 3.265625 -7.320312 4.53125 -8.628906 7.0625 -9.296875 L 7.0625 -9.765625 C 5.757812 -10.503906 4.78125 -11.425781 4.125 -12.53125 C 3.46875 -13.632812 3.140625 -14.96875 3.140625 -16.53125 C 3.140625 -18.144531 3.507812 -19.5625 4.25 -20.78125 C 4.988281 -22 6.066406 -22.945312 7.484375 -23.625 C 8.910156 -24.3125 10.617188 -24.65625 12.609375 -24.65625 C 14.628906 -24.65625 16.238281 -24.300781 17.4375 -23.59375 C 18.1875 -24.675781 18.617188 -25.929688 18.734375 -27.359375 L 19.1875 -27.640625 L 23.5625 -26.5625 C 23.425781 -25.40625 23.085938 -24.4375 22.546875 -23.65625 C 22.003906 -22.875 21.164062 -22.175781 20.03125 -21.5625 L 20.03125 -21.078125 C 21.382812 -19.878906 22.0625 -18.207031 22.0625 -16.0625 C 22.0625 -14.5625 21.6875 -13.21875 20.9375 -12.03125 C 20.195312 -10.851562 19.113281 -9.921875 17.6875 -9.234375 C 16.257812 -8.546875 14.566406 -8.203125 12.609375 -8.203125 L 11.6875 -8.21875 C 11.101562 -8.25 10.695312 -8.265625 10.46875 -8.265625 C 9.90625 -8.265625 9.46875 -8.113281 9.15625 -7.8125 C 8.84375 -7.519531 8.6875 -7.140625 8.6875 -6.671875 C 8.6875 -6.160156 8.890625 -5.757812 9.296875 -5.46875 C 9.710938 -5.1875 10.3125 -5.03125 11.09375 -5 L 16.515625 -4.796875 C 21.867188 -4.640625 24.546875 -2.335938 24.546875 2.109375 C 24.546875 3.671875 24.144531 5.0625 23.34375 6.28125 C 22.550781 7.5 21.257812 8.46875 19.46875 9.1875 C 17.6875 9.90625 15.378906 10.265625 12.546875 10.265625 Z M 12.609375 -12.453125 C 13.773438 -12.453125 14.6875 -12.796875 15.34375 -13.484375 C 16.007812 -14.171875 16.34375 -15.148438 16.34375 -16.421875 C 16.34375 -17.703125 16.007812 -18.679688 15.34375 -19.359375 C 14.6875 -20.035156 13.773438 -20.375 12.609375 -20.375 C 11.421875 -20.375 10.503906 -20.035156 9.859375 -19.359375 C 9.222656 -18.679688 8.90625 -17.703125 8.90625 -16.421875 C 8.90625 -15.140625 9.222656 -14.15625 9.859375 -13.46875 C 10.503906 -12.789062 11.421875 -12.453125 12.609375 -12.453125 Z M 12.546875 5.859375 C 14.617188 5.859375 16.125 5.566406 17.0625 4.984375 C 18.007812 4.398438 18.484375 3.640625 18.484375 2.703125 C 18.484375 1.941406 18.242188 1.378906 17.765625 1.015625 C 17.285156 0.660156 16.519531 0.46875 15.46875 0.4375 L 10.6875 0.21875 C 10.519531 0.21875 10.367188 0.207031 10.234375 0.1875 C 10.097656 0.175781 9.960938 0.171875 9.828125 0.171875 C 8.804688 0.171875 8.023438 0.390625 7.484375 0.828125 C 6.953125 1.265625 6.6875 1.875 6.6875 2.65625 C 6.6875 3.675781 7.175781 4.460938 8.15625 5.015625 C 9.132812 5.578125 10.597656 5.859375 12.546875 5.859375 Z M 12.546875 5.859375 "/></g></g></g><g fill="#000000" fill-opacity="1"><g transform="translate(434.396534, 465.785084)"><g/></g></g><g fill="#000000" fill-opacity="1"><g transform="translate(444.989709, 465.785084)"><g><path d="M 16.90625 0.453125 C 13.820312 0.453125 11.53125 -0.695312 10.03125 -3 L 9.5625 -2.921875 L 9.5625 0 L 3.484375 0 L 3.484375 -33.90625 L 9.5625 -33.90625 L 9.5625 -21.34375 L 10.03125 -21.25 C 10.863281 -22.40625 11.84375 -23.257812 12.96875 -23.8125 C 14.101562 -24.375 15.460938 -24.65625 17.046875 -24.65625 C 19.003906 -24.65625 20.710938 -24.191406 22.171875 -23.265625 C 23.640625 -22.347656 24.78125 -20.945312 25.59375 -19.0625 C 26.414062 -17.1875 26.828125 -14.859375 26.828125 -12.078125 C 26.828125 -9.335938 26.398438 -7.023438 25.546875 -5.140625 C 24.703125 -3.265625 23.535156 -1.863281 22.046875 -0.9375 C 20.554688 -0.0078125 18.84375 0.453125 16.90625 0.453125 Z M 15.0625 -4.6875 C 16.851562 -4.6875 18.210938 -5.28125 19.140625 -6.46875 C 20.078125 -7.664062 20.546875 -9.535156 20.546875 -12.078125 C 20.546875 -14.640625 20.078125 -16.515625 19.140625 -17.703125 C 18.210938 -18.898438 16.851562 -19.5 15.0625 -19.5 C 13.351562 -19.5 12 -18.882812 11 -17.65625 C 10 -16.425781 9.5 -14.566406 9.5 -12.078125 C 9.5 -9.597656 10 -7.742188 11 -6.515625 C 12 -5.296875 13.351562 -4.6875 15.0625 -4.6875 Z M 15.0625 -4.6875 "/></g></g></g><g fill="#000000" fill-opacity="1"><g transform="translate(473.961935, 465.785084)"><g><path d="M 9.4375 0.453125 C 7.882812 0.453125 6.535156 0.171875 5.390625 -0.390625 C 4.253906 -0.960938 3.378906 -1.800781 2.765625 -2.90625 C 2.148438 -4.007812 1.84375 -5.335938 1.84375 -6.890625 C 1.84375 -8.316406 2.148438 -9.515625 2.765625 -10.484375 C 3.378906 -11.460938 4.328125 -12.257812 5.609375 -12.875 C 6.898438 -13.5 8.582031 -13.984375 10.65625 -14.328125 C 12.101562 -14.554688 13.203125 -14.804688 13.953125 -15.078125 C 14.710938 -15.359375 15.222656 -15.675781 15.484375 -16.03125 C 15.742188 -16.382812 15.875 -16.832031 15.875 -17.375 C 15.875 -18.144531 15.601562 -18.734375 15.0625 -19.140625 C 14.519531 -19.554688 13.625 -19.765625 12.375 -19.765625 C 11.03125 -19.765625 9.75 -19.460938 8.53125 -18.859375 C 7.320312 -18.265625 6.269531 -17.476562 5.375 -16.5 L 4.9375 -16.5 L 2.390625 -20.328125 C 3.617188 -21.691406 5.117188 -22.753906 6.890625 -23.515625 C 8.660156 -24.273438 10.585938 -24.65625 12.671875 -24.65625 C 15.878906 -24.65625 18.195312 -23.972656 19.625 -22.609375 C 21.0625 -21.253906 21.78125 -19.328125 21.78125 -16.828125 L 21.78125 -6.3125 C 21.78125 -5.226562 22.253906 -4.6875 23.203125 -4.6875 C 23.566406 -4.6875 23.925781 -4.753906 24.28125 -4.890625 L 24.59375 -4.796875 L 25.03125 -0.5625 C 24.6875 -0.34375 24.210938 -0.164062 23.609375 -0.03125 C 23.015625 0.101562 22.363281 0.171875 21.65625 0.171875 C 20.207031 0.171875 19.078125 -0.101562 18.265625 -0.65625 C 17.453125 -1.207031 16.867188 -2.078125 16.515625 -3.265625 L 16.0625 -3.3125 C 14.875 -0.800781 12.664062 0.453125 9.4375 0.453125 Z M 11.359375 -4.078125 C 12.765625 -4.078125 13.882812 -4.546875 14.71875 -5.484375 C 15.5625 -6.429688 15.984375 -7.75 15.984375 -9.4375 L 15.984375 -11.890625 L 15.578125 -11.96875 C 15.210938 -11.675781 14.734375 -11.429688 14.140625 -11.234375 C 13.546875 -11.046875 12.691406 -10.851562 11.578125 -10.65625 C 10.265625 -10.4375 9.316406 -10.0625 8.734375 -9.53125 C 8.160156 -9 7.875 -8.242188 7.875 -7.265625 C 7.875 -6.222656 8.179688 -5.429688 8.796875 -4.890625 C 9.410156 -4.347656 10.265625 -4.078125 11.359375 -4.078125 Z M 11.359375 -4.078125 "/></g></g></g><g fill="#000000" fill-opacity="1"><g transform="translate(499.468898, 465.785084)"><g><path d="M 14.109375 0.453125 C 11.765625 0.453125 9.691406 -0.03125 7.890625 -1 C 6.097656 -1.96875 4.695312 -3.394531 3.6875 -5.28125 C 2.675781 -7.164062 2.171875 -9.429688 2.171875 -12.078125 C 2.171875 -14.742188 2.675781 -17.019531 3.6875 -18.90625 C 4.695312 -20.789062 6.09375 -22.21875 7.875 -23.1875 C 9.65625 -24.164062 11.695312 -24.65625 14 -24.65625 C 19.101562 -24.65625 22.367188 -22.804688 23.796875 -19.109375 L 19.625 -16.125 L 19.171875 -16.125 C 18.671875 -17.257812 18.019531 -18.101562 17.21875 -18.65625 C 16.425781 -19.21875 15.351562 -19.5 14 -19.5 C 12.238281 -19.5 10.867188 -18.890625 9.890625 -17.671875 C 8.910156 -16.460938 8.421875 -14.597656 8.421875 -12.078125 C 8.421875 -9.597656 8.914062 -7.742188 9.90625 -6.515625 C 10.90625 -5.296875 12.304688 -4.6875 14.109375 -4.6875 C 15.421875 -4.6875 16.53125 -5.039062 17.4375 -5.75 C 18.351562 -6.46875 19.007812 -7.488281 19.40625 -8.8125 L 19.875 -8.859375 L 24.1875 -6.5 C 23.570312 -4.445312 22.4375 -2.773438 20.78125 -1.484375 C 19.125 -0.191406 16.898438 0.453125 14.109375 0.453125 Z M 14.109375 0.453125 "/></g></g></g><g fill="#000000" fill-opacity="1"><g transform="translate(524.405628, 465.785084)"><g><path d="M 3.484375 0 L 3.484375 -33.90625 L 9.5625 -33.90625 L 9.5625 -15.09375 L 10.15625 -15.09375 L 17.15625 -24.1875 L 23.3125 -24.1875 L 23.3125 -23.6875 L 15.09375 -13.078125 L 24.234375 -0.546875 L 24.234375 0 L 17.828125 0 L 10.15625 -10.203125 L 9.5625 -10.203125 L 9.5625 0 Z M 3.484375 0 "/></g></g></g><g fill="#000000" fill-opacity="1"><g transform="translate(548.684397, 465.785084)"><g/></g></g><g fill="#000000" fill-opacity="1"><g transform="translate(559.277573, 465.785084)"><g><path d="M 16.6875 -5.765625 L 18.265625 -1.265625 C 17.609375 -0.722656 16.78125 -0.300781 15.78125 0 C 14.789062 0.300781 13.671875 0.453125 12.421875 0.453125 C 9.796875 0.453125 7.800781 -0.253906 6.4375 -1.671875 C 5.082031 -3.097656 4.40625 -5.171875 4.40625 -7.890625 L 4.40625 -19.390625 L 0.71875 -19.390625 L 0.71875 -24.21875 L 4.40625 -24.21875 L 4.40625 -28.9375 L 10.484375 -29.921875 L 10.484375 -24.21875 L 17.34375 -24.21875 L 17.34375 -19.390625 L 10.484375 -19.390625 L 10.484375 -8.328125 C 10.484375 -7.128906 10.726562 -6.253906 11.21875 -5.703125 C 11.71875 -5.160156 12.445312 -4.890625 13.40625 -4.890625 C 14.488281 -4.890625 15.429688 -5.179688 16.234375 -5.765625 Z M 16.6875 -5.765625 "/></g></g></g><g fill="#000000" fill-opacity="1"><g transform="translate(578.073332, 465.785084)"><g><path d="M 14.0625 0.453125 C 11.6875 0.453125 9.601562 -0.03125 7.8125 -1 C 6.019531 -1.96875 4.628906 -3.390625 3.640625 -5.265625 C 2.660156 -7.148438 2.171875 -9.421875 2.171875 -12.078125 C 2.171875 -14.742188 2.660156 -17.019531 3.640625 -18.90625 C 4.628906 -20.789062 6.019531 -22.21875 7.8125 -23.1875 C 9.601562 -24.164062 11.6875 -24.65625 14.0625 -24.65625 C 16.425781 -24.65625 18.503906 -24.164062 20.296875 -23.1875 C 22.085938 -22.21875 23.476562 -20.789062 24.46875 -18.90625 C 25.46875 -17.019531 25.96875 -14.742188 25.96875 -12.078125 C 25.96875 -9.421875 25.46875 -7.148438 24.46875 -5.265625 C 23.476562 -3.390625 22.085938 -1.96875 20.296875 -1 C 18.503906 -0.03125 16.425781 0.453125 14.0625 0.453125 Z M 14.0625 -4.6875 C 17.820312 -4.6875 19.703125 -7.148438 19.703125 -12.078125 C 19.703125 -14.640625 19.21875 -16.515625 18.25 -17.703125 C 17.28125 -18.898438 15.882812 -19.5 14.0625 -19.5 C 10.300781 -19.5 8.421875 -17.023438 8.421875 -12.078125 C 8.421875 -7.148438 10.300781 -4.6875 14.0625 -4.6875 Z M 14.0625 -4.6875 "/></g></g></g><g fill="#000000" fill-opacity="1"><g transform="translate(606.190208, 465.785084)"><g/></g></g><g fill="#000000" fill-opacity="1"><g transform="translate(616.783383, 465.785084)"><g><path d="M 16.90625 0.453125 C 13.820312 0.453125 11.53125 -0.695312 10.03125 -3 L 9.5625 -2.921875 L 9.5625 0 L 3.484375 0 L 3.484375 -33.90625 L 9.5625 -33.90625 L 9.5625 -21.34375 L 10.03125 -21.25 C 10.863281 -22.40625 11.84375 -23.257812 12.96875 -23.8125 C 14.101562 -24.375 15.460938 -24.65625 17.046875 -24.65625 C 19.003906 -24.65625 20.710938 -24.191406 22.171875 -23.265625 C 23.640625 -22.347656 24.78125 -20.945312 25.59375 -19.0625 C 26.414062 -17.1875 26.828125 -14.859375 26.828125 -12.078125 C 26.828125 -9.335938 26.398438 -7.023438 25.546875 -5.140625 C 24.703125 -3.265625 23.535156 -1.863281 22.046875 -0.9375 C 20.554688 -0.0078125 18.84375 0.453125 16.90625 0.453125 Z M 15.0625 -4.6875 C 16.851562 -4.6875 18.210938 -5.28125 19.140625 -6.46875 C 20.078125 -7.664062 20.546875 -9.535156 20.546875 -12.078125 C 20.546875 -14.640625 20.078125 -16.515625 19.140625 -17.703125 C 18.210938 -18.898438 16.851562 -19.5 15.0625 -19.5 C 13.351562 -19.5 12 -18.882812 11 -17.65625 C 10 -16.425781 9.5 -14.566406 9.5 -12.078125 C 9.5 -9.597656 10 -7.742188 11 -6.515625 C 12 -5.296875 13.351562 -4.6875 15.0625 -4.6875 Z M 15.0625 -4.6875 "/></g></g></g><g fill="#000000" fill-opacity="1"><g transform="translate(645.755609, 465.785084)"><g><path d="M 9.4375 0.453125 C 7.882812 0.453125 6.535156 0.171875 5.390625 -0.390625 C 4.253906 -0.960938 3.378906 -1.800781 2.765625 -2.90625 C 2.148438 -4.007812 1.84375 -5.335938 1.84375 -6.890625 C 1.84375 -8.316406 2.148438 -9.515625 2.765625 -10.484375 C 3.378906 -11.460938 4.328125 -12.257812 5.609375 -12.875 C 6.898438 -13.5 8.582031 -13.984375 10.65625 -14.328125 C 12.101562 -14.554688 13.203125 -14.804688 13.953125 -15.078125 C 14.710938 -15.359375 15.222656 -15.675781 15.484375 -16.03125 C 15.742188 -16.382812 15.875 -16.832031 15.875 -17.375 C 15.875 -18.144531 15.601562 -18.734375 15.0625 -19.140625 C 14.519531 -19.554688 13.625 -19.765625 12.375 -19.765625 C 11.03125 -19.765625 9.75 -19.460938 8.53125 -18.859375 C 7.320312 -18.265625 6.269531 -17.476562 5.375 -16.5 L 4.9375 -16.5 L 2.390625 -20.328125 C 3.617188 -21.691406 5.117188 -22.753906 6.890625 -23.515625 C 8.660156 -24.273438 10.585938 -24.65625 12.671875 -24.65625 C 15.878906 -24.65625 18.195312 -23.972656 19.625 -22.609375 C 21.0625 -21.253906 21.78125 -19.328125 21.78125 -16.828125 L 21.78125 -6.3125 C 21.78125 -5.226562 22.253906 -4.6875 23.203125 -4.6875 C 23.566406 -4.6875 23.925781 -4.753906 24.28125 -4.890625 L 24.59375 -4.796875 L 25.03125 -0.5625 C 24.6875 -0.34375 24.210938 -0.164062 23.609375 -0.03125 C 23.015625 0.101562 22.363281 0.171875 21.65625 0.171875 C 20.207031 0.171875 19.078125 -0.101562 18.265625 -0.65625 C 17.453125 -1.207031 16.867188 -2.078125 16.515625 -3.265625 L 16.0625 -3.3125 C 14.875 -0.800781 12.664062 0.453125 9.4375 0.453125 Z M 11.359375 -4.078125 C 12.765625 -4.078125 13.882812 -4.546875 14.71875 -5.484375 C 15.5625 -6.429688 15.984375 -7.75 15.984375 -9.4375 L 15.984375 -11.890625 L 15.578125 -11.96875 C 15.210938 -11.675781 14.734375 -11.429688 14.140625 -11.234375 C 13.546875 -11.046875 12.691406 -10.851562 11.578125 -10.65625 C 10.265625 -10.4375 9.316406 -10.0625 8.734375 -9.53125 C 8.160156 -9 7.875 -8.242188 7.875 -7.265625 C 7.875 -6.222656 8.179688 -5.429688 8.796875 -4.890625 C 9.410156 -4.347656 10.265625 -4.078125 11.359375 -4.078125 Z M 11.359375 -4.078125 "/></g></g></g><g fill="#000000" fill-opacity="1"><g transform="translate(671.262572, 465.785084)"><g><path d="M 14.109375 0.453125 C 11.765625 0.453125 9.691406 -0.03125 7.890625 -1 C 6.097656 -1.96875 4.695312 -3.394531 3.6875 -5.28125 C 2.675781 -7.164062 2.171875 -9.429688 2.171875 -12.078125 C 2.171875 -14.742188 2.675781 -17.019531 3.6875 -18.90625 C 4.695312 -20.789062 6.09375 -22.21875 7.875 -23.1875 C 9.65625 -24.164062 11.695312 -24.65625 14 -24.65625 C 19.101562 -24.65625 22.367188 -22.804688 23.796875 -19.109375 L 19.625 -16.125 L 19.171875 -16.125 C 18.671875 -17.257812 18.019531 -18.101562 17.21875 -18.65625 C 16.425781 -19.21875 15.351562 -19.5 14 -19.5 C 12.238281 -19.5 10.867188 -18.890625 9.890625 -17.671875 C 8.910156 -16.460938 8.421875 -14.597656 8.421875 -12.078125 C 8.421875 -9.597656 8.914062 -7.742188 9.90625 -6.515625 C 10.90625 -5.296875 12.304688 -4.6875 14.109375 -4.6875 C 15.421875 -4.6875 16.53125 -5.039062 17.4375 -5.75 C 18.351562 -6.46875 19.007812 -7.488281 19.40625 -8.8125 L 19.875 -8.859375 L 24.1875 -6.5 C 23.570312 -4.445312 22.4375 -2.773438 20.78125 -1.484375 C 19.125 -0.191406 16.898438 0.453125 14.109375 0.453125 Z M 14.109375 0.453125 "/></g></g></g><g fill="#000000" fill-opacity="1"><g transform="translate(696.199302, 465.785084)"><g><path d="M 3.484375 0 L 3.484375 -33.90625 L 9.5625 -33.90625 L 9.5625 -15.09375 L 10.15625 -15.09375 L 17.15625 -24.1875 L 23.3125 -24.1875 L 23.3125 -23.6875 L 15.09375 -13.078125 L 24.234375 -0.546875 L 24.234375 0 L 17.828125 0 L 10.15625 -10.203125 L 9.5625 -10.203125 L 9.5625 0 Z M 3.484375 0 "/></g></g></g><g fill="#000000" fill-opacity="1"><g transform="translate(720.485375, 465.785084)"><g/></g></g></svg>