<svg xmlns="http://www.w3.org/2000/svg" xmlns:xlink="http://www.w3.org/1999/xlink" width="1280" zoomAndPan="magnify" viewBox="0 0 960 540.000001" height="720" preserveAspectRatio="xMidYMid meet" version="1.0"><defs><g/><clipPath id="81933df63b"><path d="M 0.886719 0 L 959.113281 0 L 959.113281 539 L 0.886719 539 Z M 0.886719 0 " clip-rule="nonzero"/></clipPath><clipPath id="61103b97c3"><path d="M 55.882812 197.796875 L 904.117188 197.796875 L 904.117188 518.714844 L 55.882812 518.714844 Z M 55.882812 197.796875 " clip-rule="nonzero"/></clipPath><clipPath id="86fc98ab31"><path d="M 81.335938 197.796875 L 878.664062 197.796875 C 885.414062 197.796875 891.886719 200.480469 896.660156 205.253906 C 901.433594 210.027344 904.117188 216.5 904.117188 223.25 L 904.117188 493.261719 C 904.117188 500.015625 901.433594 506.488281 896.660156 511.261719 C 891.886719 516.035156 885.414062 518.714844 878.664062 518.714844 L 81.335938 518.714844 C 74.585938 518.714844 68.109375 516.035156 63.339844 511.261719 C 58.566406 506.488281 55.882812 500.015625 55.882812 493.261719 L 55.882812 223.25 C 55.882812 216.5 58.566406 210.027344 63.339844 205.253906 C 68.109375 200.480469 74.585938 197.796875 81.335938 197.796875 Z M 81.335938 197.796875 " clip-rule="nonzero"/></clipPath><clipPath id="d5edf60aa5"><path d="M 226.761719 253.203125 L 437.78125 253.203125 L 437.78125 463.308594 L 226.761719 463.308594 Z M 226.761719 253.203125 " clip-rule="nonzero"/></clipPath><clipPath id="9ee5827db8"><path d="M 522.21875 253.203125 L 733.234375 253.203125 L 733.234375 463.308594 L 522.21875 463.308594 Z M 522.21875 253.203125 " clip-rule="nonzero"/></clipPath><clipPath id="9c52026a94"><path d="M 560 308 L 695.800781 308 L 695.800781 439.230469 L 560 439.230469 Z M 560 308 " clip-rule="nonzero"/></clipPath><clipPath id="f1a25b0bc9"><path d="M 632 290 L 695.800781 290 L 695.800781 314 L 632 314 Z M 632 290 " clip-rule="nonzero"/></clipPath><clipPath id="9d61d23fcd"><path d="M 623 277.019531 L 646 277.019531 L 646 323 L 623 323 Z M 623 277.019531 " clip-rule="nonzero"/></clipPath><clipPath id="5432ead3c4"><path d="M 787 225.097656 L 817 225.097656 L 817 314.183594 L 787 314.183594 Z M 787 225.097656 " clip-rule="nonzero"/></clipPath><clipPath id="2a549d5b63"><path d="M 767.625 246 L 782 246 L 782 293 L 767.625 293 Z M 767.625 246 " clip-rule="nonzero"/></clipPath><clipPath id="24e7ac65bc"><path d="M 848 230 L 868.6875 230 L 868.6875 310 L 848 310 Z M 848 230 " clip-rule="nonzero"/></clipPath></defs><g clip-path="url(#81933df63b)"><path fill="#ffffff" d="M 0.886719 0 L 959.113281 0 L 959.113281 539 L 0.886719 539 Z M 0.886719 0 " fill-opacity="1" fill-rule="nonzero"/><path fill="#9b619a" d="M 0.886719 0 L 959.113281 0 L 959.113281 539 L 0.886719 539 Z M 0.886719 0 " fill-opacity="1" fill-rule="nonzero"/></g><g clip-path="url(#61103b97c3)"><g clip-path="url(#86fc98ab31)"><path fill="#ffffff" d="M 55.882812 197.796875 L 904.117188 197.796875 L 904.117188 518.714844 L 55.882812 518.714844 Z M 55.882812 197.796875 " fill-opacity="1" fill-rule="nonzero"/></g></g><g clip-path="url(#d5edf60aa5)"><path stroke-linecap="butt" transform="matrix(0.943094, 0, 0, 0.943094, 226.76286, 253.205047)" fill="none" stroke-linejoin="miter" d="M -0.00120987 -0.00203783 L 223.751251 -0.00203783 L 223.751251 222.781206 L -0.00120987 222.781206 Z M -0.00120987 -0.00203783 " stroke="#000000" stroke-width="7.93785" stroke-opacity="1" stroke-miterlimit="4"/></g><path fill="#77b255" d="M 379.851562 326.984375 C 393.082031 319.039062 396.351562 295.835938 393.703125 298.484375 C 396.351562 295.835938 372.527344 298.484375 364.585938 311.722656 C 364.585938 306.429688 359.292969 285.25 351.355469 303.78125 C 343.410156 322.3125 346.054688 324.957031 346.054688 330.25 C 346.054688 335.546875 356.648438 335.546875 356.648438 335.546875 C 356.648438 335.546875 356.179688 345.667969 361.476562 345.667969 C 366.769531 345.667969 368.953125 347.851562 387.480469 339.910156 C 406.011719 331.964844 385.144531 326.984375 379.851562 326.984375 Z M 379.851562 326.984375 " fill-opacity="1" fill-rule="nonzero"/><path fill="#f4900c" d="M 347.378906 381.867188 C 318.871094 410.375 271.9375 430.839844 265.320312 424.21875 C 258.699219 417.601562 279.167969 370.667969 307.667969 342.160156 C 336.175781 313.652344 350.832031 313.851562 363.261719 326.277344 C 375.6875 338.703125 375.886719 353.359375 347.378906 381.867188 Z M 347.378906 381.867188 " fill-opacity="1" fill-rule="nonzero"/><path fill="#d67503" d="M 345.332031 348.050781 C 341.691406 344.410156 334.960938 337.621094 327.765625 325.191406 C 324.945312 327.03125 321.949219 329.273438 318.746094 331.957031 C 329.242188 345.484375 349.148438 351.863281 345.332031 348.050781 Z M 317.308594 378.265625 C 313.414062 374.371094 305.964844 366.847656 298.199219 352.636719 C 295.625 355.753906 293.148438 358.976562 290.785156 362.257812 C 301.292969 375.726562 321.113281 382.070312 317.308594 378.265625 Z M 352.128906 376.953125 C 338.722656 369.4375 331.578125 362.316406 327.789062 358.53125 C 323.96875 354.703125 330.378906 374.683594 343.949219 385.164062 C 345.113281 384.078125 350.636719 378.546875 352.128906 376.953125 Z M 306.519531 411.859375 C 309.871094 410.015625 313.273438 408.019531 316.683594 405.878906 C 304.429688 398.75 297.707031 392.09375 294.09375 388.480469 C 290.644531 385.023438 295.539062 401.007812 306.519531 411.859375 Z M 306.519531 411.859375 " fill-opacity="1" fill-rule="nonzero"/><g clip-path="url(#9ee5827db8)"><path stroke-linecap="butt" transform="matrix(0.943094, 0, 0, 0.943094, 522.218628, 253.205047)" fill="none" stroke-linejoin="miter" d="M 0.000129709 -0.00203783 L 223.748449 -0.00203783 L 223.748449 222.781206 L 0.000129709 222.781206 Z M 0.000129709 -0.00203783 " stroke="#000000" stroke-width="7.93785" stroke-opacity="1" stroke-miterlimit="4"/></g><g clip-path="url(#9c52026a94)"><path fill="#dd2e44" d="M 654.972656 308.921875 C 641.433594 308.921875 641.433594 313.414062 627.898438 313.414062 C 614.359375 313.414062 614.359375 308.921875 600.824219 308.921875 C 582.773438 308.921875 560.210938 317.90625 560.210938 349.363281 C 560.210938 398.789062 587.285156 439.230469 605.335938 439.230469 C 618.871094 439.230469 618.871094 434.738281 627.898438 434.738281 C 636.921875 434.738281 636.921875 439.230469 650.460938 439.230469 C 668.511719 439.230469 695.585938 398.789062 695.585938 349.363281 C 695.585938 317.902344 673.023438 308.921875 654.972656 308.921875 Z M 654.972656 308.921875 " fill-opacity="1" fill-rule="nonzero"/></g><g clip-path="url(#f1a25b0bc9)"><path fill="#77b255" d="M 632.410156 308.921875 C 632.410156 308.921875 645.949219 290.949219 668.511719 290.949219 C 686.558594 290.949219 695.585938 299.933594 695.585938 299.933594 C 695.585938 299.933594 677.535156 313.414062 663.996094 313.414062 C 650.460938 313.414062 632.410156 308.921875 632.410156 308.921875 Z M 632.410156 308.921875 " fill-opacity="1" fill-rule="nonzero"/></g><g clip-path="url(#9d61d23fcd)"><path fill="#662113" d="M 627.898438 322.402344 C 625.40625 322.402344 623.386719 320.386719 623.386719 317.90625 C 623.386719 302.445312 628.800781 288.183594 638.246094 278.785156 C 640.007812 277.027344 642.859375 277.027344 644.625 278.785156 C 646.390625 280.539062 646.390625 283.386719 644.625 285.136719 C 636.859375 292.867188 632.410156 304.808594 632.410156 317.90625 C 632.410156 320.386719 630.386719 322.402344 627.898438 322.402344 Z M 627.898438 322.402344 " fill-opacity="1" fill-rule="nonzero"/></g><g clip-path="url(#5432ead3c4)"><path fill="#231f20" d="M 787.195312 292.523438 L 816.527344 314.183594 L 816.527344 225.097656 L 787.195312 246.753906 Z M 787.195312 292.523438 " fill-opacity="1" fill-rule="nonzero"/></g><g clip-path="url(#2a549d5b63)"><path fill="#231f20" d="M 767.636719 246.753906 L 781.488281 246.753906 L 781.488281 292.523438 L 767.636719 292.523438 Z M 767.636719 246.753906 " fill-opacity="1" fill-rule="nonzero"/></g><path fill="#231f20" d="M 822.984375 257.160156 C 822.027344 258.117188 822.027344 259.667969 822.984375 260.625 C 825.382812 263.035156 826.707031 266.234375 826.707031 269.640625 C 826.707031 273.042969 825.382812 276.246094 822.984375 278.65625 C 822.027344 279.613281 822.027344 281.164062 822.984375 282.121094 C 823.460938 282.601562 824.085938 282.839844 824.710938 282.839844 C 825.335938 282.839844 825.960938 282.601562 826.441406 282.121094 C 829.765625 278.785156 831.59375 274.355469 831.59375 269.640625 C 831.59375 264.925781 829.765625 260.492188 826.441406 257.160156 C 825.484375 256.203125 823.9375 256.199219 822.984375 257.160156 Z M 822.984375 257.160156 " fill-opacity="1" fill-rule="nonzero"/><path fill="#231f20" d="M 839.542969 244.019531 C 838.585938 243.0625 837.039062 243.0625 836.085938 244.019531 C 835.128906 244.976562 835.128906 246.527344 836.082031 247.484375 C 841.980469 253.410156 845.226562 261.277344 845.226562 269.640625 C 845.226562 278.003906 841.980469 285.871094 836.082031 291.792969 C 835.128906 292.75 835.128906 294.300781 836.085938 295.257812 C 836.5625 295.738281 837.1875 295.976562 837.8125 295.976562 C 838.4375 295.976562 839.0625 295.738281 839.542969 295.257812 C 846.359375 288.410156 850.117188 279.3125 850.117188 269.640625 C 850.117188 259.96875 846.359375 250.867188 839.542969 244.019531 Z M 839.542969 244.019531 " fill-opacity="1" fill-rule="nonzero"/><g clip-path="url(#24e7ac65bc)"><path fill="#231f20" d="M 852.632812 230.886719 C 851.675781 229.929688 850.128906 229.929688 849.175781 230.886719 C 848.21875 231.84375 848.21875 233.394531 849.175781 234.351562 C 858.570312 243.777344 863.746094 256.308594 863.746094 269.640625 C 863.746094 282.96875 858.570312 295.5 849.171875 304.925781 C 848.21875 305.886719 848.21875 307.4375 849.171875 308.394531 C 849.652344 308.875 850.277344 309.113281 850.902344 309.113281 C 851.527344 309.113281 852.152344 308.875 852.628906 308.394531 C 862.953125 298.039062 868.636719 284.277344 868.636719 269.640625 C 868.636719 255 862.953125 241.238281 852.632812 230.886719 Z M 852.632812 230.886719 " fill-opacity="1" fill-rule="nonzero"/></g><g fill="#ffffff" fill-opacity="1"><g transform="translate(58.733499, 131.660058)"><g><path d="M 4.796875 -65.875 L 28.34375 -65.875 C 34.675781 -65.875 39.835938 -64.179688 43.828125 -60.796875 C 47.828125 -57.421875 49.828125 -52.59375 49.828125 -46.3125 C 49.828125 -41.46875 48.613281 -37.40625 46.1875 -34.125 C 43.769531 -30.851562 40.484375 -28.554688 36.328125 -27.234375 L 59 0 L 39.921875 0 L 19.796875 -26.03125 L 19.796875 0 L 4.796875 0 Z M 19.796875 -36.640625 L 21.5625 -36.640625 C 22.945312 -36.640625 24.117188 -36.664062 25.078125 -36.71875 C 26.035156 -36.78125 27.125 -36.96875 28.34375 -37.28125 C 29.570312 -37.601562 30.554688 -38.054688 31.296875 -38.640625 C 32.046875 -39.222656 32.6875 -40.070312 33.21875 -41.1875 C 33.75 -42.3125 34.015625 -43.671875 34.015625 -45.265625 C 34.015625 -46.867188 33.75 -48.226562 33.21875 -49.34375 C 32.6875 -50.457031 32.046875 -51.304688 31.296875 -51.890625 C 30.554688 -52.484375 29.570312 -52.9375 28.34375 -53.25 C 27.125 -53.570312 26.035156 -53.757812 25.078125 -53.8125 C 24.117188 -53.863281 22.945312 -53.890625 21.5625 -53.890625 L 19.796875 -53.890625 Z M 19.796875 -36.640625 "/></g></g></g><g fill="#ffffff" fill-opacity="1"><g transform="translate(115.90207, 131.660058)"><g><path d="M 1.84375 -32.96875 C 1.84375 -42.5 5.085938 -50.5625 11.578125 -57.15625 C 18.066406 -63.757812 25.890625 -67.0625 35.046875 -67.0625 C 44.253906 -67.0625 52.078125 -63.773438 58.515625 -57.203125 C 64.960938 -50.628906 68.1875 -42.550781 68.1875 -32.96875 C 68.1875 -23.34375 65.019531 -15.238281 58.6875 -8.65625 C 52.351562 -2.082031 44.472656 1.203125 35.046875 1.203125 C 25.410156 1.203125 17.46875 -2.054688 11.21875 -8.578125 C 4.96875 -15.097656 1.84375 -23.226562 1.84375 -32.96875 Z M 18.046875 -32.96875 C 18.046875 -29.507812 18.578125 -26.359375 19.640625 -23.515625 C 20.703125 -20.671875 22.5625 -18.257812 25.21875 -16.28125 C 27.882812 -14.3125 31.160156 -13.328125 35.046875 -13.328125 C 40.640625 -13.328125 44.859375 -15.242188 47.703125 -19.078125 C 50.554688 -22.910156 51.984375 -27.539062 51.984375 -32.96875 C 51.984375 -38.351562 50.53125 -42.972656 47.625 -46.828125 C 44.726562 -50.679688 40.535156 -52.609375 35.046875 -52.609375 C 29.617188 -52.609375 25.425781 -50.679688 22.46875 -46.828125 C 19.519531 -42.972656 18.046875 -38.351562 18.046875 -32.96875 Z M 18.046875 -32.96875 "/></g></g></g><g fill="#ffffff" fill-opacity="1"><g transform="translate(185.92558, 131.660058)"><g><path d="M 38.25 -65.875 L 64.828125 0 L 48.703125 0 L 43.828125 -13.171875 L 18.765625 -13.171875 L 13.890625 0 L -2.234375 0 L 24.359375 -65.875 Z M 38.71875 -26.34375 L 31.375 -45.515625 L 31.21875 -45.515625 L 23.875 -26.34375 Z M 38.71875 -26.34375 "/></g></g></g><g fill="#ffffff" fill-opacity="1"><g transform="translate(248.523565, 131.660058)"><g><path d="M 4.796875 -65.875 L 28.34375 -65.875 C 34.675781 -65.875 39.835938 -64.179688 43.828125 -60.796875 C 47.828125 -57.421875 49.828125 -52.59375 49.828125 -46.3125 C 49.828125 -41.46875 48.613281 -37.40625 46.1875 -34.125 C 43.769531 -30.851562 40.484375 -28.554688 36.328125 -27.234375 L 59 0 L 39.921875 0 L 19.796875 -26.03125 L 19.796875 0 L 4.796875 0 Z M 19.796875 -36.640625 L 21.5625 -36.640625 C 22.945312 -36.640625 24.117188 -36.664062 25.078125 -36.71875 C 26.035156 -36.78125 27.125 -36.96875 28.34375 -37.28125 C 29.570312 -37.601562 30.554688 -38.054688 31.296875 -38.640625 C 32.046875 -39.222656 32.6875 -40.070312 33.21875 -41.1875 C 33.75 -42.3125 34.015625 -43.671875 34.015625 -45.265625 C 34.015625 -46.867188 33.75 -48.226562 33.21875 -49.34375 C 32.6875 -50.457031 32.046875 -51.304688 31.296875 -51.890625 C 30.554688 -52.484375 29.570312 -52.9375 28.34375 -53.25 C 27.125 -53.570312 26.035156 -53.757812 25.078125 -53.8125 C 24.117188 -53.863281 22.945312 -53.890625 21.5625 -53.890625 L 19.796875 -53.890625 Z M 19.796875 -36.640625 "/></g></g></g><g fill="#ffffff" fill-opacity="1"><g transform="translate(305.692136, 131.660058)"><g/></g></g><g fill="#ffffff" fill-opacity="1"><g transform="translate(327.489637, 131.660058)"><g><path d="M 4.796875 -65.875 L 28.828125 -65.875 C 35.535156 -65.875 40.960938 -64.140625 45.109375 -60.671875 C 49.265625 -57.210938 51.34375 -52.179688 51.34375 -45.578125 C 51.34375 -38.984375 49.238281 -33.8125 45.03125 -30.0625 C 40.820312 -26.3125 35.421875 -24.4375 28.828125 -24.4375 L 19.796875 -24.4375 L 19.796875 0 L 4.796875 0 Z M 19.796875 -36.40625 L 24.03125 -36.40625 C 27.382812 -36.40625 30.140625 -37.082031 32.296875 -38.4375 C 34.453125 -39.800781 35.53125 -42.023438 35.53125 -45.109375 C 35.53125 -48.253906 34.453125 -50.503906 32.296875 -51.859375 C 30.140625 -53.210938 27.382812 -53.890625 24.03125 -53.890625 L 19.796875 -53.890625 Z M 19.796875 -36.40625 "/></g></g></g><g fill="#ffffff" fill-opacity="1"><g transform="translate(380.665994, 131.660058)"><g><path d="M 6.140625 -63.78125 C 7.796875 -65.4375 9.765625 -66.265625 12.046875 -66.265625 C 14.335938 -66.265625 16.304688 -65.4375 17.953125 -63.78125 C 19.609375 -62.132812 20.4375 -60.164062 20.4375 -57.875 C 20.4375 -55.59375 19.609375 -53.625 17.953125 -51.96875 C 16.304688 -50.320312 14.335938 -49.5 12.046875 -49.5 C 9.765625 -49.5 7.796875 -50.320312 6.140625 -51.96875 C 4.492188 -53.625 3.671875 -55.59375 3.671875 -57.875 C 3.671875 -60.164062 4.492188 -62.132812 6.140625 -63.78125 Z M 4.796875 -40.953125 L 4.796875 0 L 18.921875 0 L 18.921875 -40.953125 Z M 4.796875 -40.953125 "/></g></g></g><g fill="#ffffff" fill-opacity="1"><g transform="translate(404.778993, 131.660058)"><g><path d="M 26.59375 -30.578125 C 23.925781 -30.578125 21.632812 -29.59375 19.71875 -27.625 C 17.800781 -25.65625 16.84375 -23.285156 16.84375 -20.515625 C 16.84375 -17.691406 17.800781 -15.296875 19.71875 -13.328125 C 21.632812 -11.359375 23.925781 -10.375 26.59375 -10.375 C 27.863281 -10.375 29.070312 -10.535156 30.21875 -10.859375 C 31.363281 -11.179688 32.203125 -11.5 32.734375 -11.8125 L 33.453125 -12.296875 L 38.25 -2.46875 C 37.875 -2.207031 37.351562 -1.875 36.6875 -1.46875 C 36.019531 -1.070312 34.5 -0.53125 32.125 0.15625 C 29.757812 0.851562 27.222656 1.203125 24.515625 1.203125 C 18.492188 1.203125 13.207031 -0.910156 8.65625 -5.140625 C 4.113281 -9.378906 1.84375 -14.453125 1.84375 -20.359375 C 1.84375 -26.316406 4.113281 -31.4375 8.65625 -35.71875 C 13.207031 -40.007812 18.492188 -42.15625 24.515625 -42.15625 C 27.222656 -42.15625 29.722656 -41.832031 32.015625 -41.1875 C 34.304688 -40.550781 35.929688 -39.914062 36.890625 -39.28125 L 38.25 -38.328125 L 33.453125 -28.65625 C 31.691406 -29.9375 29.40625 -30.578125 26.59375 -30.578125 Z M 26.59375 -30.578125 "/></g></g></g><g fill="#ffffff" fill-opacity="1"><g transform="translate(443.982584, 131.660058)"><g><path d="M 7.1875 -40.953125 L 7.1875 -56.203125 L 21.3125 -56.203125 L 21.3125 -40.953125 L 29.9375 -40.953125 L 29.9375 -30.1875 L 21.3125 -30.1875 L 21.3125 -17.171875 C 21.3125 -13.390625 22.378906 -11.5 24.515625 -11.5 C 25.046875 -11.5 25.601562 -11.601562 26.1875 -11.8125 C 26.769531 -12.03125 27.222656 -12.242188 27.546875 -12.453125 L 28.03125 -12.78125 L 31.53125 -1.359375 C 28.5 0.347656 25.039062 1.203125 21.15625 1.203125 C 18.5 1.203125 16.210938 0.738281 14.296875 -0.1875 C 12.378906 -1.125 10.925781 -2.378906 9.9375 -3.953125 C 8.957031 -5.523438 8.253906 -7.175781 7.828125 -8.90625 C 7.398438 -10.632812 7.1875 -12.484375 7.1875 -14.453125 L 7.1875 -30.1875 L 1.28125 -30.1875 L 1.28125 -40.953125 Z M 7.1875 -40.953125 "/></g></g></g><g fill="#ffffff" fill-opacity="1"><g transform="translate(475.521132, 131.660058)"><g><path d="M 18.125 -40.953125 L 18.125 -21.484375 C 18.125 -17.429688 18.734375 -14.550781 19.953125 -12.84375 C 21.179688 -11.144531 23.257812 -10.296875 26.1875 -10.296875 C 29.113281 -10.296875 31.1875 -11.144531 32.40625 -12.84375 C 33.632812 -14.550781 34.25 -17.429688 34.25 -21.484375 L 34.25 -40.953125 L 48.390625 -40.953125 L 48.390625 -18.046875 C 48.390625 -11.234375 46.617188 -6.320312 43.078125 -3.3125 C 39.535156 -0.300781 33.90625 1.203125 26.1875 1.203125 C 18.46875 1.203125 12.835938 -0.300781 9.296875 -3.3125 C 5.765625 -6.320312 4 -11.234375 4 -18.046875 L 4 -40.953125 Z M 18.125 -40.953125 "/></g></g></g><g fill="#ffffff" fill-opacity="1"><g transform="translate(527.899049, 131.660058)"><g><path d="M 4.796875 0 L 4.796875 -40.953125 L 18.921875 -40.953125 L 18.921875 -35.046875 L 19.078125 -35.046875 C 19.191406 -35.265625 19.367188 -35.53125 19.609375 -35.84375 C 19.847656 -36.164062 20.363281 -36.722656 21.15625 -37.515625 C 21.957031 -38.316406 22.8125 -39.035156 23.71875 -39.671875 C 24.625 -40.316406 25.789062 -40.890625 27.21875 -41.390625 C 28.65625 -41.898438 30.125 -42.15625 31.625 -42.15625 C 33.164062 -42.15625 34.679688 -41.941406 36.171875 -41.515625 C 37.660156 -41.085938 38.75 -40.660156 39.4375 -40.234375 L 40.5625 -39.609375 L 34.65625 -27.625 C 32.894531 -29.113281 30.445312 -29.859375 27.3125 -29.859375 C 25.601562 -29.859375 24.132812 -29.484375 22.90625 -28.734375 C 21.6875 -27.992188 20.820312 -27.09375 20.3125 -26.03125 C 19.8125 -24.96875 19.453125 -24.0625 19.234375 -23.3125 C 19.023438 -22.570312 18.921875 -21.988281 18.921875 -21.5625 L 18.921875 0 Z M 4.796875 0 "/></g></g></g><g fill="#ffffff" fill-opacity="1"><g transform="translate(567.661564, 131.660058)"><g><path d="M 46.234375 -18.53125 L 16.53125 -18.53125 C 16.53125 -15.65625 17.457031 -13.523438 19.3125 -12.140625 C 21.175781 -10.753906 23.203125 -10.0625 25.390625 -10.0625 C 27.679688 -10.0625 29.488281 -10.363281 30.8125 -10.96875 C 32.144531 -11.582031 33.664062 -12.796875 35.375 -14.609375 L 45.59375 -9.5 C 41.332031 -2.363281 34.253906 1.203125 24.359375 1.203125 C 18.179688 1.203125 12.882812 -0.910156 8.46875 -5.140625 C 4.050781 -9.378906 1.84375 -14.476562 1.84375 -20.4375 C 1.84375 -26.394531 4.050781 -31.503906 8.46875 -35.765625 C 12.882812 -40.023438 18.179688 -42.15625 24.359375 -42.15625 C 30.847656 -42.15625 36.128906 -40.28125 40.203125 -36.53125 C 44.273438 -32.78125 46.3125 -27.414062 46.3125 -20.4375 C 46.3125 -19.476562 46.285156 -18.84375 46.234375 -18.53125 Z M 16.921875 -26.34375 L 32.5 -26.34375 C 32.175781 -28.476562 31.335938 -30.113281 29.984375 -31.25 C 28.628906 -32.394531 26.882812 -32.96875 24.75 -32.96875 C 22.40625 -32.96875 20.539062 -32.351562 19.15625 -31.125 C 17.78125 -29.90625 17.035156 -28.3125 16.921875 -26.34375 Z M 16.921875 -26.34375 "/></g></g></g><g fill="#ffffff" fill-opacity="1"><g transform="translate(615.807693, 131.660058)"><g/></g></g><g fill="#ffffff" fill-opacity="1"><g transform="translate(637.605218, 131.660058)"><g><path d="M 25.390625 0 L -2.234375 -65.875 L 14.6875 -65.875 L 31.296875 -22.59375 L 47.90625 -65.875 L 64.828125 -65.875 L 37.203125 0 Z M 25.390625 0 "/></g></g></g><g fill="#ffffff" fill-opacity="1"><g transform="translate(700.20319, 131.660058)"><g><path d="M 8.65625 -4.859375 C 4.113281 -8.910156 1.84375 -14.101562 1.84375 -20.4375 C 1.84375 -26.769531 4.207031 -31.972656 8.9375 -36.046875 C 13.675781 -40.117188 19.535156 -42.15625 26.515625 -42.15625 C 33.378906 -42.15625 39.164062 -40.101562 43.875 -36 C 48.582031 -31.90625 50.9375 -26.71875 50.9375 -20.4375 C 50.9375 -14.15625 48.632812 -8.976562 44.03125 -4.90625 C 39.425781 -0.832031 33.585938 1.203125 26.515625 1.203125 C 19.160156 1.203125 13.207031 -0.816406 8.65625 -4.859375 Z M 19.59375 -27.375 C 17.757812 -25.570312 16.84375 -23.257812 16.84375 -20.4375 C 16.84375 -17.613281 17.71875 -15.3125 19.46875 -13.53125 C 21.226562 -11.75 23.546875 -10.859375 26.421875 -10.859375 C 29.191406 -10.859375 31.46875 -11.757812 33.25 -13.5625 C 35.039062 -15.375 35.9375 -17.664062 35.9375 -20.4375 C 35.9375 -23.257812 35.015625 -25.570312 33.171875 -27.375 C 31.335938 -29.1875 29.085938 -30.09375 26.421875 -30.09375 C 23.710938 -30.09375 21.4375 -29.1875 19.59375 -27.375 Z M 19.59375 -27.375 "/></g></g></g><g fill="#ffffff" fill-opacity="1"><g transform="translate(752.980316, 131.660058)"><g><path d="M 26.59375 -30.578125 C 23.925781 -30.578125 21.632812 -29.59375 19.71875 -27.625 C 17.800781 -25.65625 16.84375 -23.285156 16.84375 -20.515625 C 16.84375 -17.691406 17.800781 -15.296875 19.71875 -13.328125 C 21.632812 -11.359375 23.925781 -10.375 26.59375 -10.375 C 27.863281 -10.375 29.070312 -10.535156 30.21875 -10.859375 C 31.363281 -11.179688 32.203125 -11.5 32.734375 -11.8125 L 33.453125 -12.296875 L 38.25 -2.46875 C 37.875 -2.207031 37.351562 -1.875 36.6875 -1.46875 C 36.019531 -1.070312 34.5 -0.53125 32.125 0.15625 C 29.757812 0.851562 27.222656 1.203125 24.515625 1.203125 C 18.492188 1.203125 13.207031 -0.910156 8.65625 -5.140625 C 4.113281 -9.378906 1.84375 -14.453125 1.84375 -20.359375 C 1.84375 -26.316406 4.113281 -31.4375 8.65625 -35.71875 C 13.207031 -40.007812 18.492188 -42.15625 24.515625 -42.15625 C 27.222656 -42.15625 29.722656 -41.832031 32.015625 -41.1875 C 34.304688 -40.550781 35.929688 -39.914062 36.890625 -39.28125 L 38.25 -38.328125 L 33.453125 -28.65625 C 31.691406 -29.9375 29.40625 -30.578125 26.59375 -30.578125 Z M 26.59375 -30.578125 "/></g></g></g><g fill="#ffffff" fill-opacity="1"><g transform="translate(792.183884, 131.660058)"><g><path d="M 7.578125 -5.0625 C 3.753906 -9.25 1.84375 -14.375 1.84375 -20.4375 C 1.84375 -26.507812 3.753906 -31.644531 7.578125 -35.84375 C 11.410156 -40.050781 16.285156 -42.15625 22.203125 -42.15625 C 27.628906 -42.15625 32.097656 -40.453125 35.609375 -37.046875 L 35.609375 -40.953125 L 49.75 -40.953125 L 49.75 0 L 35.765625 0 L 35.765625 -4.625 L 35.609375 -4.625 C 32.097656 -0.738281 27.628906 1.203125 22.203125 1.203125 C 16.285156 1.203125 11.410156 -0.882812 7.578125 -5.0625 Z M 19.59375 -27.375 C 17.757812 -25.570312 16.84375 -23.257812 16.84375 -20.4375 C 16.84375 -17.613281 17.71875 -15.3125 19.46875 -13.53125 C 21.226562 -11.75 23.546875 -10.859375 26.421875 -10.859375 C 29.191406 -10.859375 31.46875 -11.757812 33.25 -13.5625 C 35.039062 -15.375 35.9375 -17.664062 35.9375 -20.4375 C 35.9375 -23.257812 35.015625 -25.570312 33.171875 -27.375 C 31.335938 -29.1875 29.085938 -30.09375 26.421875 -30.09375 C 23.710938 -30.09375 21.4375 -29.1875 19.59375 -27.375 Z M 19.59375 -27.375 "/></g></g></g><g fill="#ffffff" fill-opacity="1"><g transform="translate(846.717628, 131.660058)"><g><path d="M 46.953125 -35.84375 C 50.785156 -31.644531 52.703125 -26.507812 52.703125 -20.4375 C 52.703125 -14.375 50.785156 -9.25 46.953125 -5.0625 C 43.117188 -0.882812 38.25 1.203125 32.34375 1.203125 C 26.90625 1.203125 22.429688 -0.738281 18.921875 -4.625 L 18.765625 -4.625 L 18.765625 0 L 4.796875 0 L 4.796875 -68.671875 L 18.921875 -68.671875 L 18.921875 -37.046875 C 22.429688 -40.453125 26.90625 -42.15625 32.34375 -42.15625 C 38.25 -42.15625 43.117188 -40.050781 46.953125 -35.84375 Z M 35.046875 -13.53125 C 36.804688 -15.3125 37.6875 -17.613281 37.6875 -20.4375 C 37.6875 -23.257812 36.765625 -25.570312 34.921875 -27.375 C 33.085938 -29.1875 30.816406 -30.09375 28.109375 -30.09375 C 25.441406 -30.09375 23.191406 -29.1875 21.359375 -27.375 C 19.523438 -25.570312 18.609375 -23.257812 18.609375 -20.4375 C 18.609375 -17.664062 19.5 -15.375 21.28125 -13.5625 C 23.0625 -11.757812 25.335938 -10.859375 28.109375 -10.859375 C 30.984375 -10.859375 33.296875 -11.75 35.046875 -13.53125 Z M 35.046875 -13.53125 "/></g></g></g></svg>