<svg xmlns="http://www.w3.org/2000/svg" xmlns:xlink="http://www.w3.org/1999/xlink" width="1280" zoomAndPan="magnify" viewBox="0 0 960 540.000001" height="720" preserveAspectRatio="xMidYMid meet" version="1.0"><defs><g/><clipPath id="098c1d153f"><path d="M 0.886719 0 L 959.113281 0 L 959.113281 539 L 0.886719 539 Z M 0.886719 0 " clip-rule="nonzero"/></clipPath><clipPath id="7caafd3903"><path d="M 55.882812 197.796875 L 904.558594 197.796875 L 904.558594 518.714844 L 55.882812 518.714844 Z M 55.882812 197.796875 " clip-rule="nonzero"/></clipPath><clipPath id="27432f67e5"><path d="M 81.335938 197.796875 L 878.664062 197.796875 C 885.414062 197.796875 891.890625 200.480469 896.660156 205.253906 C 901.433594 210.027344 904.117188 216.5 904.117188 223.25 L 904.117188 493.261719 C 904.117188 500.015625 901.433594 506.488281 896.660156 511.261719 C 891.890625 516.035156 885.414062 518.714844 878.664062 518.714844 L 81.335938 518.714844 C 74.585938 518.714844 68.109375 516.035156 63.339844 511.261719 C 58.566406 506.488281 55.882812 500.015625 55.882812 493.261719 L 55.882812 223.25 C 55.882812 216.5 58.566406 210.027344 63.339844 205.253906 C 68.109375 200.480469 74.585938 197.796875 81.335938 197.796875 Z M 81.335938 197.796875 " clip-rule="nonzero"/></clipPath><clipPath id="568a917a6d"><path d="M 330.765625 259 L 444 259 L 444 337 L 330.765625 337 Z M 330.765625 259 " clip-rule="nonzero"/></clipPath></defs><g clip-path="url(#098c1d153f)"><path fill="#ffffff" d="M 0.886719 0 L 959.113281 0 L 959.113281 539 L 0.886719 539 Z M 0.886719 0 " fill-opacity="1" fill-rule="nonzero"/><path fill="#a8c684" d="M 0.886719 0 L 959.113281 0 L 959.113281 539 L 0.886719 539 Z M 0.886719 0 " fill-opacity="1" fill-rule="nonzero"/></g><g clip-path="url(#7caafd3903)"><g clip-path="url(#27432f67e5)"><path fill="#ffffff" d="M 55.882812 197.796875 L 904.558594 197.796875 L 904.558594 518.714844 L 55.882812 518.714844 Z M 55.882812 197.796875 " fill-opacity="1" fill-rule="nonzero"/></g></g><g fill="#ffffff" fill-opacity="1"><g transform="translate(235.654003, 138.02957)"><g><path d="M 5.09375 -70 L 30.125 -70 C 36.851562 -70 42.335938 -68.203125 46.578125 -64.609375 C 50.816406 -61.015625 52.9375 -55.878906 52.9375 -49.203125 C 52.9375 -44.054688 51.648438 -39.742188 49.078125 -36.265625 C 46.503906 -32.785156 43.015625 -30.34375 38.609375 -28.9375 L 62.703125 0 L 42.421875 0 L 21.046875 -27.65625 L 21.046875 0 L 5.09375 0 Z M 21.046875 -38.9375 L 22.90625 -38.9375 C 24.375 -38.9375 25.617188 -38.960938 26.640625 -39.015625 C 27.660156 -39.078125 28.820312 -39.273438 30.125 -39.609375 C 31.425781 -39.953125 32.472656 -40.4375 33.265625 -41.0625 C 34.054688 -41.6875 34.734375 -42.59375 35.296875 -43.78125 C 35.859375 -44.96875 36.140625 -46.410156 36.140625 -48.109375 C 36.140625 -49.804688 35.859375 -51.25 35.296875 -52.4375 C 34.734375 -53.625 34.054688 -54.523438 33.265625 -55.140625 C 32.472656 -55.765625 31.425781 -56.242188 30.125 -56.578125 C 28.820312 -56.921875 27.660156 -57.117188 26.640625 -57.171875 C 25.617188 -57.234375 24.375 -57.265625 22.90625 -57.265625 L 21.046875 -57.265625 Z M 21.046875 -38.9375 "/></g></g></g><g fill="#ffffff" fill-opacity="1"><g transform="translate(296.398764, 138.02957)"><g><path d="M 1.953125 -35.046875 C 1.953125 -45.171875 5.398438 -53.738281 12.296875 -60.75 C 19.203125 -67.757812 27.519531 -71.265625 37.25 -71.265625 C 47.03125 -71.265625 55.34375 -67.769531 62.1875 -60.78125 C 69.03125 -53.800781 72.453125 -45.222656 72.453125 -35.046875 C 72.453125 -24.804688 69.085938 -16.191406 62.359375 -9.203125 C 55.628906 -2.222656 47.257812 1.265625 37.25 1.265625 C 27.007812 1.265625 18.566406 -2.195312 11.921875 -9.125 C 5.273438 -16.050781 1.953125 -24.691406 1.953125 -35.046875 Z M 19.171875 -35.046875 C 19.171875 -31.367188 19.734375 -28.015625 20.859375 -24.984375 C 21.992188 -21.960938 23.972656 -19.40625 26.796875 -17.3125 C 29.628906 -15.21875 33.113281 -14.171875 37.25 -14.171875 C 43.1875 -14.171875 47.664062 -16.207031 50.6875 -20.28125 C 53.71875 -24.351562 55.234375 -29.273438 55.234375 -35.046875 C 55.234375 -40.753906 53.691406 -45.65625 50.609375 -49.75 C 47.523438 -53.851562 43.070312 -55.90625 37.25 -55.90625 C 31.476562 -55.90625 27.019531 -53.851562 23.875 -49.75 C 20.738281 -45.65625 19.171875 -40.753906 19.171875 -35.046875 Z M 19.171875 -35.046875 "/></g></g></g><g fill="#ffffff" fill-opacity="1"><g transform="translate(370.802618, 138.02957)"><g><path d="M 40.640625 -70 L 68.890625 0 L 51.75 0 L 46.578125 -14 L 19.9375 -14 L 14.765625 0 L -2.375 0 L 25.875 -70 Z M 41.15625 -28 L 33.34375 -48.359375 L 33.171875 -48.359375 L 25.375 -28 Z M 41.15625 -28 "/></g></g></g><g fill="#ffffff" fill-opacity="1"><g transform="translate(437.316419, 138.02957)"><g><path d="M 26.984375 0 L -2.375 -70 L 15.609375 -70 L 33.265625 -24.015625 L 50.90625 -70 L 68.890625 -70 L 39.53125 0 Z M 26.984375 0 "/></g></g></g><g fill="#ffffff" fill-opacity="1"><g transform="translate(503.830221, 138.02957)"><g/></g></g><g fill="#ffffff" fill-opacity="1"><g transform="translate(526.991278, 138.02957)"><g><path d="M 5.09375 -70 L 30.125 -70 C 36.851562 -70 42.335938 -68.203125 46.578125 -64.609375 C 50.816406 -61.015625 52.9375 -55.878906 52.9375 -49.203125 C 52.9375 -44.054688 51.648438 -39.742188 49.078125 -36.265625 C 46.503906 -32.785156 43.015625 -30.34375 38.609375 -28.9375 L 62.703125 0 L 42.421875 0 L 21.046875 -27.65625 L 21.046875 0 L 5.09375 0 Z M 21.046875 -38.9375 L 22.90625 -38.9375 C 24.375 -38.9375 25.617188 -38.960938 26.640625 -39.015625 C 27.660156 -39.078125 28.820312 -39.273438 30.125 -39.609375 C 31.425781 -39.953125 32.472656 -40.4375 33.265625 -41.0625 C 34.054688 -41.6875 34.734375 -42.59375 35.296875 -43.78125 C 35.859375 -44.96875 36.140625 -46.410156 36.140625 -48.109375 C 36.140625 -49.804688 35.859375 -51.25 35.296875 -52.4375 C 34.734375 -53.625 34.054688 -54.523438 33.265625 -55.140625 C 32.472656 -55.765625 31.425781 -56.242188 30.125 -56.578125 C 28.820312 -56.921875 27.660156 -57.117188 26.640625 -57.171875 C 25.617188 -57.234375 24.375 -57.265625 22.90625 -57.265625 L 21.046875 -57.265625 Z M 21.046875 -38.9375 "/></g></g></g><g fill="#ffffff" fill-opacity="1"><g transform="translate(587.73604, 138.02957)"><g><path d="M 40.640625 -70 L 68.890625 0 L 51.75 0 L 46.578125 -14 L 19.9375 -14 L 14.765625 0 L -2.375 0 L 25.875 -70 Z M 41.15625 -28 L 33.34375 -48.359375 L 33.171875 -48.359375 L 25.375 -28 Z M 41.15625 -28 "/></g></g></g><g fill="#ffffff" fill-opacity="1"><g transform="translate(654.249841, 138.02957)"><g><path d="M 21.046875 -43.4375 L 21.046875 0 L 5.09375 0 L 5.09375 -70 L 21.046875 -70 L 48.875 -26.5625 L 49.046875 -26.5625 L 49.046875 -70 L 64.984375 -70 L 64.984375 0 L 49.046875 0 L 21.203125 -43.4375 Z M 21.046875 -43.4375 "/></g></g></g><g fill="#000000" fill-opacity="1"><g transform="translate(141.972669, 434.751381)"><g><path d="M 25 0 L 10.109375 0 L 10.109375 -77.78125 L 27.71875 -77.78125 L 58.953125 -27.65625 L 60.328125 -27.875 L 60.328125 -77.78125 L 75.125 -77.78125 L 75.125 0 L 59.375 0 L 26.328125 -53.515625 L 25 -53.3125 Z M 25 0 "/></g></g><g transform="translate(227.250883, 434.751381)"><g/></g><g transform="translate(252.946065, 434.751381)"><g><path d="M 42.5 1.125 C 35.34375 1.125 29.03125 -0.363281 23.5625 -3.34375 C 18.101562 -6.332031 13.832031 -10.8125 10.75 -16.78125 C 7.664062 -22.757812 6.125 -30.128906 6.125 -38.890625 C 6.125 -47.648438 7.664062 -55.015625 10.75 -60.984375 C 13.832031 -66.960938 18.101562 -71.441406 23.5625 -74.421875 C 29.03125 -77.398438 35.34375 -78.890625 42.5 -78.890625 C 49.988281 -78.890625 56.347656 -77.425781 61.578125 -74.5 C 66.804688 -71.582031 70.539062 -67.125 72.78125 -61.125 L 61.546875 -54.265625 L 60.21875 -54.3125 C 58.550781 -58.351562 56.289062 -61.253906 53.4375 -63.015625 C 50.582031 -64.773438 46.9375 -65.65625 42.5 -65.65625 C 36.050781 -65.65625 31.015625 -63.515625 27.390625 -59.234375 C 23.773438 -54.960938 21.96875 -48.179688 21.96875 -38.890625 C 21.96875 -29.628906 23.773438 -22.863281 27.390625 -18.59375 C 31.015625 -14.320312 36.050781 -12.1875 42.5 -12.1875 C 52.613281 -12.1875 58.804688 -17.097656 61.078125 -26.921875 L 62.40625 -26.921875 L 73.734375 -21.015625 C 71.609375 -13.640625 67.972656 -8.101562 62.828125 -4.40625 C 57.679688 -0.71875 50.90625 1.125 42.5 1.125 Z M 42.5 1.125 "/></g></g><g transform="translate(329.233625, 434.751381)"><g/></g><g transform="translate(354.928807, 434.751381)"><g><path d="M 62.34375 -77.78125 L 62.34375 -64.84375 L 39.90625 -64.84375 L 39.90625 0 L 24.578125 0 L 24.578125 -64.84375 L 2.125 -64.84375 L 2.125 -77.78125 Z M 62.34375 -77.78125 "/></g></g><g transform="translate(419.40616, 434.751381)"><g/></g><g transform="translate(445.101342, 434.751381)"><g><path d="M 34.46875 1.125 C 29.082031 1.125 24.285156 0.457031 20.078125 -0.875 C 15.878906 -2.207031 12.378906 -3.953125 9.578125 -6.109375 C 6.773438 -8.273438 4.628906 -10.65625 3.140625 -13.25 L 11.59375 -23.5625 L 12.921875 -23.5625 C 15.265625 -20.09375 18.234375 -17.328125 21.828125 -15.265625 C 25.429688 -13.210938 29.644531 -12.1875 34.46875 -12.1875 C 38.582031 -12.1875 41.6875 -13.050781 43.78125 -14.78125 C 45.875 -16.519531 46.921875 -18.914062 46.921875 -21.96875 C 46.921875 -23.8125 46.582031 -25.351562 45.90625 -26.59375 C 45.238281 -27.84375 44.125 -28.910156 42.5625 -29.796875 C 41 -30.679688 38.890625 -31.441406 36.234375 -32.078125 L 26.234375 -34.359375 C 19.242188 -35.960938 14.035156 -38.613281 10.609375 -42.3125 C 7.191406 -46.019531 5.484375 -50.835938 5.484375 -56.765625 C 5.484375 -61.160156 6.582031 -65.023438 8.78125 -68.359375 C 10.976562 -71.691406 14.175781 -74.28125 18.375 -76.125 C 22.582031 -77.96875 27.613281 -78.890625 33.46875 -78.890625 C 39.457031 -78.890625 44.585938 -78.097656 48.859375 -76.515625 C 53.140625 -74.941406 56.75 -72.523438 59.6875 -69.265625 L 52.078125 -58.84375 L 50.75 -58.84375 C 48.550781 -61.144531 46.03125 -62.867188 43.1875 -64.015625 C 40.351562 -65.171875 37.113281 -65.75 33.46875 -65.75 C 29.238281 -65.75 26.023438 -65.003906 23.828125 -63.515625 C 21.628906 -62.023438 20.53125 -59.96875 20.53125 -57.34375 C 20.53125 -54.894531 21.300781 -52.941406 22.84375 -51.484375 C 24.382812 -50.035156 27.054688 -48.90625 30.859375 -48.09375 L 41.0625 -45.96875 C 48.625 -44.375 54.101562 -41.664062 57.5 -37.84375 C 60.90625 -34.03125 62.609375 -29.054688 62.609375 -22.921875 C 62.609375 -18.066406 61.5625 -13.835938 59.46875 -10.234375 C 57.382812 -6.640625 54.226562 -3.847656 50 -1.859375 C 45.78125 0.128906 40.601562 1.125 34.46875 1.125 Z M 34.46875 1.125 "/></g></g><g transform="translate(511.919457, 434.751381)"><g/></g><g transform="translate(537.614639, 434.751381)"><g><path d="M 10.109375 0 L 10.109375 -77.78125 L 25.484375 -77.78125 L 25.484375 -46.015625 L 27.1875 -46.015625 L 53.140625 -77.78125 L 68.890625 -77.78125 L 68.890625 -76.453125 L 40.265625 -41.0625 L 71.875 -1.328125 L 71.875 0 L 54.484375 0 L 27.1875 -33.5625 L 25.484375 -33.5625 L 25.484375 0 Z M 10.109375 0 "/></g></g><g transform="translate(609.486671, 434.751381)"><g/></g><g transform="translate(635.181853, 434.751381)"><g><path d="M 25 0 L 10.109375 0 L 10.109375 -77.78125 L 27.71875 -77.78125 L 58.953125 -27.65625 L 60.328125 -27.875 L 60.328125 -77.78125 L 75.125 -77.78125 L 75.125 0 L 59.375 0 L 26.328125 -53.515625 L 25 -53.3125 Z M 25 0 "/></g></g><g transform="translate(720.460067, 434.751381)"><g/></g><g transform="translate(746.155249, 434.751381)"><g><path d="M 10.109375 0 L 10.109375 -77.78125 L 25.484375 -77.78125 L 25.484375 -46.015625 L 27.1875 -46.015625 L 53.140625 -77.78125 L 68.890625 -77.78125 L 68.890625 -76.453125 L 40.265625 -41.0625 L 71.875 -1.328125 L 71.875 0 L 54.484375 0 L 27.1875 -33.5625 L 25.484375 -33.5625 L 25.484375 0 Z M 10.109375 0 "/></g></g></g><g clip-path="url(#568a917a6d)"><path fill="#eb5353" d="M 403.257812 335.179688 L 441.96875 302.113281 C 444.554688 299.882812 444.554688 295.796875 441.96875 293.691406 L 403.257812 260.621094 C 399.683594 257.527344 394.132812 260.128906 394.132812 264.832031 L 394.132812 287.003906 L 336.316406 287.003906 C 333.234375 287.003906 330.765625 289.480469 330.765625 292.574219 L 330.765625 303.101562 C 330.765625 306.199219 333.234375 308.675781 336.316406 308.675781 L 394.132812 308.675781 L 394.132812 330.84375 C 394.132812 335.675781 399.683594 338.273438 403.257812 335.179688 Z M 403.257812 335.179688 " fill-opacity="1" fill-rule="nonzero"/></g><path fill="#eb5353" d="M 150.785156 293.996094 L 158.269531 293.996094 L 158.269531 301.480469 L 150.785156 301.480469 M 165.757812 293.996094 L 173.242188 293.996094 L 173.242188 301.480469 L 165.757812 301.480469 M 180.730469 293.996094 L 188.214844 293.996094 L 188.214844 301.480469 L 180.730469 301.480469 M 195.703125 293.996094 L 203.1875 293.996094 L 203.1875 301.480469 L 195.703125 301.480469 M 210.675781 293.996094 L 218.160156 293.996094 L 218.160156 301.480469 L 210.675781 301.480469 M 225.644531 293.996094 L 233.132812 293.996094 L 233.132812 301.480469 L 225.644531 301.480469 M 240.617188 293.996094 L 248.105469 293.996094 L 248.105469 301.480469 L 240.617188 301.480469 M 255.589844 293.996094 L 263.078125 293.996094 L 263.078125 301.480469 L 255.589844 301.480469 M 270.5625 293.996094 L 278.050781 293.996094 L 278.050781 301.480469 L 270.5625 301.480469 M 285.535156 293.996094 L 293.019531 293.996094 L 293.019531 301.480469 L 285.535156 301.480469 M 300.507812 293.996094 L 307.992188 293.996094 L 307.992188 301.480469 L 300.507812 301.480469 M 315.480469 293.996094 L 322.964844 293.996094 L 322.964844 301.480469 L 315.480469 301.480469 M 330.453125 293.996094 L 337.9375 293.996094 L 337.9375 301.480469 L 330.453125 301.480469 M 345.425781 293.996094 L 352.910156 293.996094 L 352.910156 301.480469 L 345.425781 301.480469 M 360.398438 293.996094 L 366.972656 293.996094 L 366.972656 301.480469 L 360.398438 301.480469 " fill-opacity="1" fill-rule="nonzero"/></svg>