<svg xmlns="http://www.w3.org/2000/svg" xmlns:xlink="http://www.w3.org/1999/xlink" width="1280" zoomAndPan="magnify" viewBox="0 0 960 540.000001" height="720" preserveAspectRatio="xMidYMid meet" version="1.0"><defs><g/><clipPath id="39c7e168a9"><path d="M 0.886719 0 L 959.113281 0 L 959.113281 539 L 0.886719 539 Z M 0.886719 0 " clip-rule="nonzero"/></clipPath><clipPath id="0984777e5a"><path d="M 55.882812 197.796875 L 904.117188 197.796875 L 904.117188 518.714844 L 55.882812 518.714844 Z M 55.882812 197.796875 " clip-rule="nonzero"/></clipPath><clipPath id="67c52080e8"><path d="M 81.335938 197.796875 L 878.664062 197.796875 C 885.414062 197.796875 891.886719 200.480469 896.660156 205.253906 C 901.433594 210.027344 904.117188 216.5 904.117188 223.25 L 904.117188 493.261719 C 904.117188 500.015625 901.433594 506.488281 896.660156 511.261719 C 891.886719 516.035156 885.414062 518.714844 878.664062 518.714844 L 81.335938 518.714844 C 74.585938 518.714844 68.109375 516.035156 63.339844 511.261719 C 58.566406 506.488281 55.882812 500.015625 55.882812 493.261719 L 55.882812 223.25 C 55.882812 216.5 58.566406 210.027344 63.339844 205.253906 C 68.109375 200.480469 74.585938 197.796875 81.335938 197.796875 " clip-rule="nonzero"/></clipPath><clipPath id="1c5efcc28f"><path d="M 226.761719 253.203125 L 438.015625 253.203125 L 438.015625 463.515625 L 226.761719 463.515625 Z M 226.761719 253.203125 " clip-rule="nonzero"/></clipPath><clipPath id="88c07e4196"><path d="M 522.21875 253.203125 L 733.472656 253.203125 L 733.472656 463.515625 L 522.21875 463.515625 Z M 522.21875 253.203125 " clip-rule="nonzero"/></clipPath><clipPath id="be4a123fa1"><path d="M 560 308 L 695.800781 308 L 695.800781 439.230469 L 560 439.230469 Z M 560 308 " clip-rule="nonzero"/></clipPath><clipPath id="7cf7650fd2"><path d="M 632 290 L 695.800781 290 L 695.800781 314 L 632 314 Z M 632 290 " clip-rule="nonzero"/></clipPath><clipPath id="f1dede3748"><path d="M 623 277.019531 L 646 277.019531 L 646 323 L 623 323 Z M 623 277.019531 " clip-rule="nonzero"/></clipPath><clipPath id="b218d8c302"><path d="M 787 225.097656 L 817 225.097656 L 817 314.183594 L 787 314.183594 Z M 787 225.097656 " clip-rule="nonzero"/></clipPath><clipPath id="310ea9ac1a"><path d="M 767.625 246 L 782 246 L 782 293 L 767.625 293 Z M 767.625 246 " clip-rule="nonzero"/></clipPath><clipPath id="721be31f3d"><path d="M 848 230 L 868.6875 230 L 868.6875 310 L 848 310 Z M 848 230 " clip-rule="nonzero"/></clipPath></defs><g clip-path="url(#39c7e168a9)"><path fill="#ffffff" d="M 0.886719 0 L 959.113281 0 L 959.113281 539 L 0.886719 539 Z M 0.886719 0 " fill-opacity="1" fill-rule="nonzero"/><path fill="#9b619a" d="M 0.886719 0 L 959.113281 0 L 959.113281 539 L 0.886719 539 Z M 0.886719 0 " fill-opacity="1" fill-rule="nonzero"/></g><g clip-path="url(#0984777e5a)"><g clip-path="url(#67c52080e8)"><path fill="#ffffff" d="M 55.882812 197.796875 L 904.117188 197.796875 L 904.117188 518.714844 L 55.882812 518.714844 Z M 55.882812 197.796875 " fill-opacity="1" fill-rule="nonzero"/></g></g><g clip-path="url(#1c5efcc28f)"><path stroke-linecap="butt" transform="matrix(0.944147, 0, 0, 0.94402, 226.76286, 253.204872)" fill="none" stroke-linejoin="miter" d="M -0.00120852 -0.00185059 L 223.749774 -0.00185059 L 223.749774 222.78217 L -0.00120852 222.78217 L -0.00120852 -0.00185059 " stroke="#000000" stroke-width="7.93785" stroke-opacity="1" stroke-miterlimit="4"/></g><path fill="#77b255" d="M 379.851562 326.984375 C 393.082031 319.039062 396.351562 295.835938 393.703125 298.484375 C 396.351562 295.835938 372.527344 298.484375 364.585938 311.722656 C 364.585938 306.429688 359.292969 285.25 351.355469 303.78125 C 343.410156 322.3125 346.054688 324.957031 346.054688 330.253906 C 346.054688 335.546875 356.648438 335.546875 356.648438 335.546875 C 356.648438 335.546875 356.179688 345.667969 361.476562 345.667969 C 366.769531 345.667969 368.953125 347.851562 387.480469 339.910156 C 406.011719 331.964844 385.144531 326.984375 379.851562 326.984375 Z M 379.851562 326.984375 " fill-opacity="1" fill-rule="nonzero"/><path fill="#f4900c" d="M 347.378906 381.867188 C 318.871094 410.375 271.9375 430.839844 265.320312 424.21875 C 258.699219 417.601562 279.167969 370.667969 307.667969 342.160156 C 336.175781 313.652344 350.832031 313.851562 363.261719 326.277344 C 375.6875 338.703125 375.886719 353.359375 347.378906 381.867188 Z M 347.378906 381.867188 " fill-opacity="1" fill-rule="nonzero"/><path fill="#d67503" d="M 345.332031 348.050781 C 341.691406 344.410156 334.960938 337.625 327.765625 325.191406 C 324.945312 327.03125 321.949219 329.273438 318.746094 331.960938 C 329.242188 345.484375 349.148438 351.863281 345.332031 348.050781 Z M 317.308594 378.265625 C 313.414062 374.371094 305.964844 366.847656 298.199219 352.636719 C 295.625 355.753906 293.148438 358.976562 290.785156 362.257812 C 301.292969 375.726562 321.113281 382.070312 317.308594 378.265625 Z M 352.128906 376.953125 C 338.722656 369.4375 331.578125 362.316406 327.789062 358.53125 C 323.96875 354.703125 330.378906 374.683594 343.949219 385.164062 C 345.113281 384.078125 350.636719 378.546875 352.128906 376.953125 Z M 306.519531 411.859375 C 309.871094 410.015625 313.273438 408.019531 316.683594 405.878906 C 304.429688 398.75 297.707031 392.09375 294.09375 388.480469 C 290.644531 385.023438 295.539062 401.007812 306.519531 411.859375 Z M 306.519531 411.859375 " fill-opacity="1" fill-rule="nonzero"/><g clip-path="url(#88c07e4196)"><path stroke-linecap="butt" transform="matrix(0.944147, 0, 0, 0.94402, 522.218628, 253.204872)" fill="none" stroke-linejoin="miter" d="M 0.000129564 -0.00185059 L 223.751112 -0.00185059 L 223.751112 222.78217 L 0.000129564 222.78217 L 0.000129564 -0.00185059 " stroke="#000000" stroke-width="7.93785" stroke-opacity="1" stroke-miterlimit="4"/></g><g clip-path="url(#be4a123fa1)"><path fill="#dd2e44" d="M 654.972656 308.921875 C 641.433594 308.921875 641.433594 313.414062 627.898438 313.414062 C 614.359375 313.414062 614.359375 308.921875 600.824219 308.921875 C 582.773438 308.921875 560.210938 317.910156 560.210938 349.363281 C 560.210938 398.789062 587.285156 439.230469 605.335938 439.230469 C 618.871094 439.230469 618.871094 434.738281 627.898438 434.738281 C 636.921875 434.738281 636.921875 439.230469 650.460938 439.230469 C 668.511719 439.230469 695.585938 398.789062 695.585938 349.363281 C 695.585938 317.902344 673.023438 308.921875 654.972656 308.921875 Z M 654.972656 308.921875 " fill-opacity="1" fill-rule="nonzero"/></g><g clip-path="url(#7cf7650fd2)"><path fill="#77b255" d="M 632.410156 308.921875 C 632.410156 308.921875 645.949219 290.949219 668.511719 290.949219 C 686.558594 290.949219 695.585938 299.933594 695.585938 299.933594 C 695.585938 299.933594 677.535156 313.414062 663.996094 313.414062 C 650.460938 313.414062 632.410156 308.921875 632.410156 308.921875 Z M 632.410156 308.921875 " fill-opacity="1" fill-rule="nonzero"/></g><g clip-path="url(#f1dede3748)"><path fill="#662113" d="M 627.898438 322.402344 C 625.40625 322.402344 623.386719 320.386719 623.386719 317.910156 C 623.386719 302.445312 628.800781 288.183594 638.246094 278.785156 C 640.007812 277.027344 642.859375 277.027344 644.625 278.785156 C 646.390625 280.542969 646.390625 283.386719 644.625 285.136719 C 636.859375 292.867188 632.410156 304.808594 632.410156 317.910156 C 632.410156 320.386719 630.386719 322.402344 627.898438 322.402344 Z M 627.898438 322.402344 " fill-opacity="1" fill-rule="nonzero"/></g><g fill="#ffffff" fill-opacity="1"><g transform="translate(64.043977, 152.705039)"><g><path d="M 7.484375 -102.9375 L 44.296875 -102.9375 C 54.191406 -102.9375 62.257812 -100.296875 68.5 -95.015625 C 74.738281 -89.734375 77.859375 -82.179688 77.859375 -72.359375 C 77.859375 -64.796875 75.960938 -58.457031 72.171875 -53.34375 C 68.390625 -48.226562 63.253906 -44.628906 56.765625 -42.546875 L 92.203125 0 L 62.390625 0 L 30.9375 -40.671875 L 30.9375 0 L 7.484375 0 Z M 30.9375 -57.265625 L 33.6875 -57.265625 C 35.851562 -57.265625 37.679688 -57.304688 39.171875 -57.390625 C 40.671875 -57.472656 42.375 -57.765625 44.28125 -58.265625 C 46.195312 -58.765625 47.738281 -59.472656 48.90625 -60.390625 C 50.070312 -61.304688 51.070312 -62.632812 51.90625 -64.375 C 52.738281 -66.125 53.15625 -68.242188 53.15625 -70.734375 C 53.15625 -73.234375 52.738281 -75.351562 51.90625 -77.09375 C 51.070312 -78.84375 50.070312 -80.175781 48.90625 -81.09375 C 47.738281 -82.007812 46.195312 -82.71875 44.28125 -83.21875 C 42.375 -83.71875 40.671875 -84.007812 39.171875 -84.09375 C 37.679688 -84.175781 35.851562 -84.21875 33.6875 -84.21875 L 30.9375 -84.21875 Z M 30.9375 -57.265625 "/></g></g></g><g fill="#ffffff" fill-opacity="1"><g transform="translate(153.372961, 152.705039)"><g><path d="M 2.875 -51.53125 C 2.875 -66.414062 7.945312 -79.015625 18.09375 -89.328125 C 28.238281 -99.640625 40.460938 -104.796875 54.765625 -104.796875 C 69.160156 -104.796875 81.390625 -99.660156 91.453125 -89.390625 C 101.515625 -79.117188 106.546875 -66.5 106.546875 -51.53125 C 106.546875 -36.476562 101.597656 -23.8125 91.703125 -13.53125 C 81.804688 -3.257812 69.492188 1.875 54.765625 1.875 C 39.710938 1.875 27.300781 -3.21875 17.53125 -13.40625 C 7.757812 -23.601562 2.875 -36.3125 2.875 -51.53125 Z M 28.203125 -51.53125 C 28.203125 -46.125 29.03125 -41.191406 30.6875 -36.734375 C 32.351562 -32.285156 35.265625 -28.519531 39.421875 -25.4375 C 43.585938 -22.363281 48.703125 -20.828125 54.765625 -20.828125 C 63.503906 -20.828125 70.097656 -23.820312 74.546875 -29.8125 C 78.992188 -35.800781 81.21875 -43.039062 81.21875 -51.53125 C 81.21875 -59.925781 78.953125 -67.140625 74.421875 -73.171875 C 69.890625 -79.203125 63.335938 -82.21875 54.765625 -82.21875 C 46.285156 -82.21875 39.738281 -79.203125 35.125 -73.171875 C 30.507812 -67.140625 28.203125 -59.925781 28.203125 -51.53125 Z M 28.203125 -51.53125 "/></g></g></g><g fill="#ffffff" fill-opacity="1"><g transform="translate(262.788472, 152.705039)"><g><path d="M 59.765625 -102.9375 L 101.3125 0 L 76.109375 0 L 68.5 -20.59375 L 29.3125 -20.59375 L 21.703125 0 L -3.5 0 L 38.046875 -102.9375 Z M 60.515625 -41.171875 L 49.03125 -71.109375 L 48.78125 -71.109375 L 37.3125 -41.171875 Z M 60.515625 -41.171875 "/></g></g></g><g fill="#ffffff" fill-opacity="1"><g transform="translate(360.601215, 152.705039)"><g><path d="M 7.484375 -102.9375 L 44.296875 -102.9375 C 54.191406 -102.9375 62.257812 -100.296875 68.5 -95.015625 C 74.738281 -89.734375 77.859375 -82.179688 77.859375 -72.359375 C 77.859375 -64.796875 75.960938 -58.457031 72.171875 -53.34375 C 68.390625 -48.226562 63.253906 -44.628906 56.765625 -42.546875 L 92.203125 0 L 62.390625 0 L 30.9375 -40.671875 L 30.9375 0 L 7.484375 0 Z M 30.9375 -57.265625 L 33.6875 -57.265625 C 35.851562 -57.265625 37.679688 -57.304688 39.171875 -57.390625 C 40.671875 -57.472656 42.375 -57.765625 44.28125 -58.265625 C 46.195312 -58.765625 47.738281 -59.472656 48.90625 -60.390625 C 50.070312 -61.304688 51.070312 -62.632812 51.90625 -64.375 C 52.738281 -66.125 53.15625 -68.242188 53.15625 -70.734375 C 53.15625 -73.234375 52.738281 -75.351562 51.90625 -77.09375 C 51.070312 -78.84375 50.070312 -80.175781 48.90625 -81.09375 C 47.738281 -82.007812 46.195312 -82.71875 44.28125 -83.21875 C 42.375 -83.71875 40.671875 -84.007812 39.171875 -84.09375 C 37.679688 -84.175781 35.851562 -84.21875 33.6875 -84.21875 L 30.9375 -84.21875 Z M 30.9375 -57.265625 "/></g></g></g><g fill="#ffffff" fill-opacity="1"><g transform="translate(449.930187, 152.705039)"><g/></g></g><g fill="#ffffff" fill-opacity="1"><g transform="translate(483.990006, 152.705039)"><g><path d="M 39.671875 0 L -3.5 -102.9375 L 22.953125 -102.9375 L 48.90625 -35.3125 L 74.859375 -102.9375 L 101.3125 -102.9375 L 58.140625 0 Z M 39.671875 0 "/></g></g></g><g fill="#ffffff" fill-opacity="1"><g transform="translate(581.802749, 152.705039)"><g><path d="M 13.53125 -7.609375 C 6.425781 -13.929688 2.875 -22.039062 2.875 -31.9375 C 2.875 -41.832031 6.570312 -49.960938 13.96875 -56.328125 C 21.375 -62.691406 30.523438 -65.875 41.421875 -65.875 C 52.148438 -65.875 61.191406 -62.671875 68.546875 -56.265625 C 75.910156 -49.859375 79.59375 -41.75 79.59375 -31.9375 C 79.59375 -22.125 75.992188 -14.035156 68.796875 -7.671875 C 61.609375 -1.304688 52.484375 1.875 41.421875 1.875 C 29.941406 1.875 20.644531 -1.285156 13.53125 -7.609375 Z M 30.625 -42.78125 C 27.757812 -39.957031 26.328125 -36.34375 26.328125 -31.9375 C 26.328125 -27.53125 27.695312 -23.929688 30.4375 -21.140625 C 33.1875 -18.359375 36.804688 -16.96875 41.296875 -16.96875 C 45.617188 -16.96875 49.171875 -18.378906 51.953125 -21.203125 C 54.742188 -24.035156 56.140625 -27.613281 56.140625 -31.9375 C 56.140625 -36.34375 54.703125 -39.957031 51.828125 -42.78125 C 48.960938 -45.613281 45.453125 -47.03125 41.296875 -47.03125 C 37.054688 -47.03125 33.5 -45.613281 30.625 -42.78125 Z M 30.625 -42.78125 "/></g></g></g><g fill="#ffffff" fill-opacity="1"><g transform="translate(664.269871, 152.705039)"><g><path d="M 41.546875 -47.78125 C 37.390625 -47.78125 33.8125 -46.238281 30.8125 -43.15625 C 27.820312 -40.082031 26.328125 -36.382812 26.328125 -32.0625 C 26.328125 -27.65625 27.820312 -23.910156 30.8125 -20.828125 C 33.8125 -17.753906 37.390625 -16.21875 41.546875 -16.21875 C 43.546875 -16.21875 45.4375 -16.46875 47.21875 -16.96875 C 49.007812 -17.46875 50.320312 -17.96875 51.15625 -18.46875 L 52.28125 -19.21875 L 59.765625 -3.875 C 59.179688 -3.457031 58.367188 -2.9375 57.328125 -2.3125 C 56.285156 -1.6875 53.914062 -0.832031 50.21875 0.25 C 46.519531 1.332031 42.546875 1.875 38.296875 1.875 C 28.898438 1.875 20.644531 -1.429688 13.53125 -8.046875 C 6.425781 -14.660156 2.875 -22.582031 2.875 -31.8125 C 2.875 -41.125 6.425781 -49.128906 13.53125 -55.828125 C 20.644531 -62.523438 28.898438 -65.875 38.296875 -65.875 C 42.546875 -65.875 46.457031 -65.375 50.03125 -64.375 C 53.601562 -63.375 56.140625 -62.378906 57.640625 -61.390625 L 59.765625 -59.890625 L 52.28125 -44.796875 C 49.53125 -46.785156 45.953125 -47.78125 41.546875 -47.78125 Z M 41.546875 -47.78125 "/></g></g></g><g fill="#ffffff" fill-opacity="1"><g transform="translate(725.527568, 152.705039)"><g><path d="M 11.84375 -7.921875 C 5.863281 -14.453125 2.875 -22.457031 2.875 -31.9375 C 2.875 -41.414062 5.863281 -49.441406 11.84375 -56.015625 C 17.832031 -62.585938 25.445312 -65.875 34.6875 -65.875 C 43.164062 -65.875 50.148438 -63.210938 55.640625 -57.890625 L 55.640625 -64 L 77.734375 -64 L 77.734375 0 L 55.890625 0 L 55.890625 -7.234375 L 55.640625 -7.234375 C 50.148438 -1.160156 43.164062 1.875 34.6875 1.875 C 25.445312 1.875 17.832031 -1.390625 11.84375 -7.921875 Z M 30.625 -42.78125 C 27.757812 -39.957031 26.328125 -36.34375 26.328125 -31.9375 C 26.328125 -27.53125 27.695312 -23.929688 30.4375 -21.140625 C 33.1875 -18.359375 36.804688 -16.96875 41.296875 -16.96875 C 45.617188 -16.96875 49.171875 -18.378906 51.953125 -21.203125 C 54.742188 -24.035156 56.140625 -27.613281 56.140625 -31.9375 C 56.140625 -36.34375 54.703125 -39.957031 51.828125 -42.78125 C 48.960938 -45.613281 45.453125 -47.03125 41.296875 -47.03125 C 37.054688 -47.03125 33.5 -45.613281 30.625 -42.78125 Z M 30.625 -42.78125 "/></g></g></g><g fill="#ffffff" fill-opacity="1"><g transform="translate(810.739439, 152.705039)"><g><path d="M 73.359375 -56.015625 C 79.347656 -49.441406 82.34375 -41.414062 82.34375 -31.9375 C 82.34375 -22.457031 79.347656 -14.453125 73.359375 -7.921875 C 67.367188 -1.390625 59.757812 1.875 50.53125 1.875 C 42.039062 1.875 35.050781 -1.160156 29.5625 -7.234375 L 29.3125 -7.234375 L 29.3125 0 L 7.484375 0 L 7.484375 -107.296875 L 29.5625 -107.296875 L 29.5625 -57.890625 C 35.050781 -63.210938 42.039062 -65.875 50.53125 -65.875 C 59.757812 -65.875 67.367188 -62.585938 73.359375 -56.015625 Z M 54.765625 -21.140625 C 57.515625 -23.929688 58.890625 -27.53125 58.890625 -31.9375 C 58.890625 -36.34375 57.453125 -39.957031 54.578125 -42.78125 C 51.710938 -45.613281 48.160156 -47.03125 43.921875 -47.03125 C 39.753906 -47.03125 36.238281 -45.613281 33.375 -42.78125 C 30.507812 -39.957031 29.078125 -36.34375 29.078125 -31.9375 C 29.078125 -27.613281 30.46875 -24.035156 33.25 -21.203125 C 36.039062 -18.378906 39.597656 -16.96875 43.921875 -16.96875 C 48.410156 -16.96875 52.023438 -18.359375 54.765625 -21.140625 Z M 54.765625 -21.140625 "/></g></g></g><g clip-path="url(#b218d8c302)"><path fill="#231f20" d="M 787.195312 292.523438 L 816.527344 314.183594 L 816.527344 225.097656 L 787.195312 246.753906 Z M 787.195312 292.523438 " fill-opacity="1" fill-rule="nonzero"/></g><g clip-path="url(#310ea9ac1a)"><path fill="#231f20" d="M 767.636719 246.753906 L 781.488281 246.753906 L 781.488281 292.523438 L 767.636719 292.523438 Z M 767.636719 246.753906 " fill-opacity="1" fill-rule="nonzero"/></g><path fill="#231f20" d="M 822.984375 257.160156 C 822.027344 258.117188 822.027344 259.667969 822.984375 260.625 C 825.382812 263.035156 826.707031 266.234375 826.707031 269.640625 C 826.707031 273.042969 825.382812 276.246094 822.984375 278.65625 C 822.027344 279.613281 822.027344 281.164062 822.984375 282.121094 C 823.460938 282.601562 824.085938 282.839844 824.710938 282.839844 C 825.335938 282.839844 825.960938 282.601562 826.441406 282.121094 C 829.765625 278.785156 831.59375 274.355469 831.59375 269.640625 C 831.59375 264.925781 829.765625 260.492188 826.441406 257.160156 C 825.484375 256.203125 823.9375 256.199219 822.984375 257.160156 Z M 822.984375 257.160156 " fill-opacity="1" fill-rule="nonzero"/><path fill="#231f20" d="M 839.542969 244.019531 C 838.585938 243.0625 837.039062 243.0625 836.085938 244.019531 C 835.128906 244.976562 835.128906 246.527344 836.082031 247.484375 C 841.980469 253.410156 845.226562 261.277344 845.226562 269.640625 C 845.226562 278.003906 841.980469 285.871094 836.082031 291.792969 C 835.128906 292.75 835.128906 294.300781 836.085938 295.257812 C 836.5625 295.738281 837.1875 295.976562 837.8125 295.976562 C 838.4375 295.976562 839.0625 295.738281 839.542969 295.257812 C 846.359375 288.410156 850.117188 279.3125 850.117188 269.640625 C 850.117188 259.96875 846.359375 250.867188 839.542969 244.019531 Z M 839.542969 244.019531 " fill-opacity="1" fill-rule="nonzero"/><g clip-path="url(#721be31f3d)"><path fill="#231f20" d="M 852.632812 230.886719 C 851.675781 229.929688 850.128906 229.929688 849.175781 230.886719 C 848.21875 231.84375 848.21875 233.394531 849.175781 234.351562 C 858.570312 243.777344 863.746094 256.308594 863.746094 269.640625 C 863.746094 282.96875 858.570312 295.5 849.171875 304.925781 C 848.21875 305.886719 848.21875 307.4375 849.171875 308.394531 C 849.652344 308.875 850.277344 309.113281 850.902344 309.113281 C 851.527344 309.113281 852.152344 308.875 852.628906 308.394531 C 862.953125 298.039062 868.636719 284.277344 868.636719 269.640625 C 868.636719 255 862.953125 241.238281 852.632812 230.886719 Z M 852.632812 230.886719 " fill-opacity="1" fill-rule="nonzero"/></g></svg>