<svg xmlns="http://www.w3.org/2000/svg" xmlns:xlink="http://www.w3.org/1999/xlink" width="1280" zoomAndPan="magnify" viewBox="0 0 960 540.000001" height="720" preserveAspectRatio="xMidYMid meet" version="1.0"><defs><g/><clipPath id="11c01e96c2"><path d="M 0.886719 0 L 959.113281 0 L 959.113281 539 L 0.886719 539 Z M 0.886719 0 " clip-rule="nonzero"/></clipPath><clipPath id="6b49d8547a"><path d="M 55.882812 197.796875 L 904.117188 197.796875 L 904.117188 518.714844 L 55.882812 518.714844 Z M 55.882812 197.796875 " clip-rule="nonzero"/></clipPath><clipPath id="a0ba74d087"><path d="M 81.335938 197.796875 L 878.664062 197.796875 C 885.414062 197.796875 891.886719 200.480469 896.660156 205.253906 C 901.433594 210.027344 904.117188 216.5 904.117188 223.25 L 904.117188 493.261719 C 904.117188 500.015625 901.433594 506.488281 896.660156 511.261719 C 891.886719 516.035156 885.414062 518.714844 878.664062 518.714844 L 81.335938 518.714844 C 74.585938 518.714844 68.109375 516.035156 63.339844 511.261719 C 58.566406 506.488281 55.882812 500.015625 55.882812 493.261719 L 55.882812 223.25 C 55.882812 216.5 58.566406 210.027344 63.339844 205.253906 C 68.109375 200.480469 74.585938 197.796875 81.335938 197.796875 Z M 81.335938 197.796875 " clip-rule="nonzero"/></clipPath><clipPath id="b2fde29be0"><path d="M 380.023438 361.46875 L 579.890625 361.46875 L 579.890625 443.675781 L 380.023438 443.675781 Z M 380.023438 361.46875 " clip-rule="nonzero"/></clipPath><clipPath id="bf4b243474"><path d="M 146.890625 361.46875 L 346.757812 361.46875 L 346.757812 443.675781 L 146.890625 443.675781 Z M 146.890625 361.46875 " clip-rule="nonzero"/></clipPath><clipPath id="30d2544fd7"><path d="M 613.042969 361.46875 L 812.90625 361.46875 L 812.90625 443.675781 L 613.042969 443.675781 Z M 613.042969 361.46875 " clip-rule="nonzero"/></clipPath></defs><g clip-path="url(#11c01e96c2)"><path fill="#ffffff" d="M 0.886719 0 L 959.113281 0 L 959.113281 539 L 0.886719 539 Z M 0.886719 0 " fill-opacity="1" fill-rule="nonzero"/><path fill="#9f2152" d="M 0.886719 0 L 959.113281 0 L 959.113281 539 L 0.886719 539 Z M 0.886719 0 " fill-opacity="1" fill-rule="nonzero"/></g><g clip-path="url(#6b49d8547a)"><g clip-path="url(#a0ba74d087)"><path fill="#ffffff" d="M 55.882812 197.796875 L 904.117188 197.796875 L 904.117188 518.714844 L 55.882812 518.714844 Z M 55.882812 197.796875 " fill-opacity="1" fill-rule="nonzero"/></g></g><g fill="#ffffff" fill-opacity="1"><g transform="translate(44.205715, 132.548149)"><g><path d="M 4.796875 -65.875 L 28.34375 -65.875 C 34.675781 -65.875 39.835938 -64.179688 43.828125 -60.796875 C 47.828125 -57.421875 49.828125 -52.59375 49.828125 -46.3125 C 49.828125 -41.46875 48.613281 -37.40625 46.1875 -34.125 C 43.769531 -30.851562 40.484375 -28.554688 36.328125 -27.234375 L 59 0 L 39.921875 0 L 19.796875 -26.03125 L 19.796875 0 L 4.796875 0 Z M 19.796875 -36.640625 L 21.5625 -36.640625 C 22.945312 -36.640625 24.117188 -36.664062 25.078125 -36.71875 C 26.035156 -36.78125 27.125 -36.96875 28.34375 -37.28125 C 29.570312 -37.601562 30.554688 -38.054688 31.296875 -38.640625 C 32.046875 -39.222656 32.6875 -40.070312 33.21875 -41.1875 C 33.75 -42.3125 34.015625 -43.671875 34.015625 -45.265625 C 34.015625 -46.867188 33.75 -48.226562 33.21875 -49.34375 C 32.6875 -50.457031 32.046875 -51.304688 31.296875 -51.890625 C 30.554688 -52.484375 29.570312 -52.9375 28.34375 -53.25 C 27.125 -53.570312 26.035156 -53.757812 25.078125 -53.8125 C 24.117188 -53.863281 22.945312 -53.890625 21.5625 -53.890625 L 19.796875 -53.890625 Z M 19.796875 -36.640625 "/></g></g></g><g fill="#ffffff" fill-opacity="1"><g transform="translate(101.374286, 132.548149)"><g><path d="M 1.84375 -32.96875 C 1.84375 -42.5 5.085938 -50.5625 11.578125 -57.15625 C 18.066406 -63.757812 25.890625 -67.0625 35.046875 -67.0625 C 44.253906 -67.0625 52.078125 -63.773438 58.515625 -57.203125 C 64.960938 -50.628906 68.1875 -42.550781 68.1875 -32.96875 C 68.1875 -23.34375 65.019531 -15.238281 58.6875 -8.65625 C 52.351562 -2.082031 44.472656 1.203125 35.046875 1.203125 C 25.410156 1.203125 17.46875 -2.054688 11.21875 -8.578125 C 4.96875 -15.097656 1.84375 -23.226562 1.84375 -32.96875 Z M 18.046875 -32.96875 C 18.046875 -29.507812 18.578125 -26.359375 19.640625 -23.515625 C 20.703125 -20.671875 22.5625 -18.257812 25.21875 -16.28125 C 27.882812 -14.3125 31.160156 -13.328125 35.046875 -13.328125 C 40.640625 -13.328125 44.859375 -15.242188 47.703125 -19.078125 C 50.554688 -22.910156 51.984375 -27.539062 51.984375 -32.96875 C 51.984375 -38.351562 50.53125 -42.972656 47.625 -46.828125 C 44.726562 -50.679688 40.535156 -52.609375 35.046875 -52.609375 C 29.617188 -52.609375 25.425781 -50.679688 22.46875 -46.828125 C 19.519531 -42.972656 18.046875 -38.351562 18.046875 -32.96875 Z M 18.046875 -32.96875 "/></g></g></g><g fill="#ffffff" fill-opacity="1"><g transform="translate(171.397797, 132.548149)"><g><path d="M 38.25 -65.875 L 64.828125 0 L 48.703125 0 L 43.828125 -13.171875 L 18.765625 -13.171875 L 13.890625 0 L -2.234375 0 L 24.359375 -65.875 Z M 38.71875 -26.34375 L 31.375 -45.515625 L 31.21875 -45.515625 L 23.875 -26.34375 Z M 38.71875 -26.34375 "/></g></g></g><g fill="#ffffff" fill-opacity="1"><g transform="translate(233.995781, 132.548149)"><g><path d="M 4.796875 -65.875 L 28.34375 -65.875 C 34.675781 -65.875 39.835938 -64.179688 43.828125 -60.796875 C 47.828125 -57.421875 49.828125 -52.59375 49.828125 -46.3125 C 49.828125 -41.46875 48.613281 -37.40625 46.1875 -34.125 C 43.769531 -30.851562 40.484375 -28.554688 36.328125 -27.234375 L 59 0 L 39.921875 0 L 19.796875 -26.03125 L 19.796875 0 L 4.796875 0 Z M 19.796875 -36.640625 L 21.5625 -36.640625 C 22.945312 -36.640625 24.117188 -36.664062 25.078125 -36.71875 C 26.035156 -36.78125 27.125 -36.96875 28.34375 -37.28125 C 29.570312 -37.601562 30.554688 -38.054688 31.296875 -38.640625 C 32.046875 -39.222656 32.6875 -40.070312 33.21875 -41.1875 C 33.75 -42.3125 34.015625 -43.671875 34.015625 -45.265625 C 34.015625 -46.867188 33.75 -48.226562 33.21875 -49.34375 C 32.6875 -50.457031 32.046875 -51.304688 31.296875 -51.890625 C 30.554688 -52.484375 29.570312 -52.9375 28.34375 -53.25 C 27.125 -53.570312 26.035156 -53.757812 25.078125 -53.8125 C 24.117188 -53.863281 22.945312 -53.890625 21.5625 -53.890625 L 19.796875 -53.890625 Z M 19.796875 -36.640625 "/></g></g></g><g fill="#ffffff" fill-opacity="1"><g transform="translate(291.164352, 132.548149)"><g/></g></g><g fill="#ffffff" fill-opacity="1"><g transform="translate(312.961853, 132.548149)"><g><path d="M 55.328125 0 L 44.796875 -36.96875 L 34.25 0 L 17.5625 0 L -1.203125 -65.875 L 15.484375 -65.875 L 26.75 -20.671875 L 27.140625 -20.671875 L 39.125 -65.875 L 50.46875 -65.875 L 62.4375 -20.671875 L 62.84375 -20.671875 L 74.09375 -65.875 L 90.703125 -65.875 L 71.9375 0 Z M 55.328125 0 "/></g></g></g><g fill="#ffffff" fill-opacity="1"><g transform="translate(402.467379, 132.548149)"><g><path d="M 4.796875 0 L 4.796875 -40.953125 L 18.921875 -40.953125 L 18.921875 -35.046875 L 19.078125 -35.046875 C 19.191406 -35.265625 19.367188 -35.53125 19.609375 -35.84375 C 19.847656 -36.164062 20.363281 -36.722656 21.15625 -37.515625 C 21.957031 -38.316406 22.8125 -39.035156 23.71875 -39.671875 C 24.625 -40.316406 25.789062 -40.890625 27.21875 -41.390625 C 28.65625 -41.898438 30.125 -42.15625 31.625 -42.15625 C 33.164062 -42.15625 34.679688 -41.941406 36.171875 -41.515625 C 37.660156 -41.085938 38.75 -40.660156 39.4375 -40.234375 L 40.5625 -39.609375 L 34.65625 -27.625 C 32.894531 -29.113281 30.445312 -29.859375 27.3125 -29.859375 C 25.601562 -29.859375 24.132812 -29.484375 22.90625 -28.734375 C 21.6875 -27.992188 20.820312 -27.09375 20.3125 -26.03125 C 19.8125 -24.96875 19.453125 -24.0625 19.234375 -23.3125 C 19.023438 -22.570312 18.921875 -21.988281 18.921875 -21.5625 L 18.921875 0 Z M 4.796875 0 "/></g></g></g><g fill="#ffffff" fill-opacity="1"><g transform="translate(442.229848, 132.548149)"><g><path d="M 6.140625 -63.78125 C 7.796875 -65.4375 9.765625 -66.265625 12.046875 -66.265625 C 14.335938 -66.265625 16.304688 -65.4375 17.953125 -63.78125 C 19.609375 -62.132812 20.4375 -60.164062 20.4375 -57.875 C 20.4375 -55.59375 19.609375 -53.625 17.953125 -51.96875 C 16.304688 -50.320312 14.335938 -49.5 12.046875 -49.5 C 9.765625 -49.5 7.796875 -50.320312 6.140625 -51.96875 C 4.492188 -53.625 3.671875 -55.59375 3.671875 -57.875 C 3.671875 -60.164062 4.492188 -62.132812 6.140625 -63.78125 Z M 4.796875 -40.953125 L 4.796875 0 L 18.921875 0 L 18.921875 -40.953125 Z M 4.796875 -40.953125 "/></g></g></g><g fill="#ffffff" fill-opacity="1"><g transform="translate(466.342848, 132.548149)"><g><path d="M 7.1875 -40.953125 L 7.1875 -56.203125 L 21.3125 -56.203125 L 21.3125 -40.953125 L 29.9375 -40.953125 L 29.9375 -30.1875 L 21.3125 -30.1875 L 21.3125 -17.171875 C 21.3125 -13.390625 22.378906 -11.5 24.515625 -11.5 C 25.046875 -11.5 25.601562 -11.601562 26.1875 -11.8125 C 26.769531 -12.03125 27.222656 -12.242188 27.546875 -12.453125 L 28.03125 -12.78125 L 31.53125 -1.359375 C 28.5 0.347656 25.039062 1.203125 21.15625 1.203125 C 18.5 1.203125 16.210938 0.738281 14.296875 -0.1875 C 12.378906 -1.125 10.925781 -2.378906 9.9375 -3.953125 C 8.957031 -5.523438 8.253906 -7.175781 7.828125 -8.90625 C 7.398438 -10.632812 7.1875 -12.484375 7.1875 -14.453125 L 7.1875 -30.1875 L 1.28125 -30.1875 L 1.28125 -40.953125 Z M 7.1875 -40.953125 "/></g></g></g><g fill="#ffffff" fill-opacity="1"><g transform="translate(497.881396, 132.548149)"><g><path d="M 7.1875 -40.953125 L 7.1875 -56.203125 L 21.3125 -56.203125 L 21.3125 -40.953125 L 29.9375 -40.953125 L 29.9375 -30.1875 L 21.3125 -30.1875 L 21.3125 -17.171875 C 21.3125 -13.390625 22.378906 -11.5 24.515625 -11.5 C 25.046875 -11.5 25.601562 -11.601562 26.1875 -11.8125 C 26.769531 -12.03125 27.222656 -12.242188 27.546875 -12.453125 L 28.03125 -12.78125 L 31.53125 -1.359375 C 28.5 0.347656 25.039062 1.203125 21.15625 1.203125 C 18.5 1.203125 16.210938 0.738281 14.296875 -0.1875 C 12.378906 -1.125 10.925781 -2.378906 9.9375 -3.953125 C 8.957031 -5.523438 8.253906 -7.175781 7.828125 -8.90625 C 7.398438 -10.632812 7.1875 -12.484375 7.1875 -14.453125 L 7.1875 -30.1875 L 1.28125 -30.1875 L 1.28125 -40.953125 Z M 7.1875 -40.953125 "/></g></g></g><g fill="#ffffff" fill-opacity="1"><g transform="translate(529.419944, 132.548149)"><g><path d="M 46.234375 -18.53125 L 16.53125 -18.53125 C 16.53125 -15.65625 17.457031 -13.523438 19.3125 -12.140625 C 21.175781 -10.753906 23.203125 -10.0625 25.390625 -10.0625 C 27.679688 -10.0625 29.488281 -10.363281 30.8125 -10.96875 C 32.144531 -11.582031 33.664062 -12.796875 35.375 -14.609375 L 45.59375 -9.5 C 41.332031 -2.363281 34.253906 1.203125 24.359375 1.203125 C 18.179688 1.203125 12.882812 -0.910156 8.46875 -5.140625 C 4.050781 -9.378906 1.84375 -14.476562 1.84375 -20.4375 C 1.84375 -26.394531 4.050781 -31.503906 8.46875 -35.765625 C 12.882812 -40.023438 18.179688 -42.15625 24.359375 -42.15625 C 30.847656 -42.15625 36.128906 -40.28125 40.203125 -36.53125 C 44.273438 -32.78125 46.3125 -27.414062 46.3125 -20.4375 C 46.3125 -19.476562 46.285156 -18.84375 46.234375 -18.53125 Z M 16.921875 -26.34375 L 32.5 -26.34375 C 32.175781 -28.476562 31.335938 -30.113281 29.984375 -31.25 C 28.628906 -32.394531 26.882812 -32.96875 24.75 -32.96875 C 22.40625 -32.96875 20.539062 -32.351562 19.15625 -31.125 C 17.78125 -29.90625 17.035156 -28.3125 16.921875 -26.34375 Z M 16.921875 -26.34375 "/></g></g></g><g fill="#ffffff" fill-opacity="1"><g transform="translate(577.566073, 132.548149)"><g><path d="M 4.796875 0 L 4.796875 -40.953125 L 18.921875 -40.953125 L 18.921875 -36.640625 L 19.078125 -36.640625 C 22.753906 -40.316406 26.664062 -42.15625 30.8125 -42.15625 C 32.84375 -42.15625 34.851562 -41.890625 36.84375 -41.359375 C 38.84375 -40.828125 40.757812 -40 42.59375 -38.875 C 44.425781 -37.757812 45.914062 -36.175781 47.0625 -34.125 C 48.207031 -32.082031 48.78125 -29.703125 48.78125 -26.984375 L 48.78125 0 L 34.65625 0 L 34.65625 -23.15625 C 34.65625 -25.28125 33.972656 -27.140625 32.609375 -28.734375 C 31.253906 -30.335938 29.488281 -31.140625 27.3125 -31.140625 C 25.175781 -31.140625 23.242188 -30.3125 21.515625 -28.65625 C 19.785156 -27.007812 18.921875 -25.175781 18.921875 -23.15625 L 18.921875 0 Z M 4.796875 0 "/></g></g></g><g fill="#ffffff" fill-opacity="1"><g transform="translate(630.343198, 132.548149)"><g/></g></g><g fill="#ffffff" fill-opacity="1"><g transform="translate(652.140722, 132.548149)"><g><path d="M 25.390625 0 L -2.234375 -65.875 L 14.6875 -65.875 L 31.296875 -22.59375 L 47.90625 -65.875 L 64.828125 -65.875 L 37.203125 0 Z M 25.390625 0 "/></g></g></g><g fill="#ffffff" fill-opacity="1"><g transform="translate(714.738695, 132.548149)"><g><path d="M 8.65625 -4.859375 C 4.113281 -8.910156 1.84375 -14.101562 1.84375 -20.4375 C 1.84375 -26.769531 4.207031 -31.972656 8.9375 -36.046875 C 13.675781 -40.117188 19.535156 -42.15625 26.515625 -42.15625 C 33.378906 -42.15625 39.164062 -40.101562 43.875 -36 C 48.582031 -31.90625 50.9375 -26.71875 50.9375 -20.4375 C 50.9375 -14.15625 48.632812 -8.976562 44.03125 -4.90625 C 39.425781 -0.832031 33.585938 1.203125 26.515625 1.203125 C 19.160156 1.203125 13.207031 -0.816406 8.65625 -4.859375 Z M 19.59375 -27.375 C 17.757812 -25.570312 16.84375 -23.257812 16.84375 -20.4375 C 16.84375 -17.613281 17.71875 -15.3125 19.46875 -13.53125 C 21.226562 -11.75 23.546875 -10.859375 26.421875 -10.859375 C 29.191406 -10.859375 31.46875 -11.757812 33.25 -13.5625 C 35.039062 -15.375 35.9375 -17.664062 35.9375 -20.4375 C 35.9375 -23.257812 35.015625 -25.570312 33.171875 -27.375 C 31.335938 -29.1875 29.085938 -30.09375 26.421875 -30.09375 C 23.710938 -30.09375 21.4375 -29.1875 19.59375 -27.375 Z M 19.59375 -27.375 "/></g></g></g><g fill="#ffffff" fill-opacity="1"><g transform="translate(767.515821, 132.548149)"><g><path d="M 26.59375 -30.578125 C 23.925781 -30.578125 21.632812 -29.59375 19.71875 -27.625 C 17.800781 -25.65625 16.84375 -23.285156 16.84375 -20.515625 C 16.84375 -17.691406 17.800781 -15.296875 19.71875 -13.328125 C 21.632812 -11.359375 23.925781 -10.375 26.59375 -10.375 C 27.863281 -10.375 29.070312 -10.535156 30.21875 -10.859375 C 31.363281 -11.179688 32.203125 -11.5 32.734375 -11.8125 L 33.453125 -12.296875 L 38.25 -2.46875 C 37.875 -2.207031 37.351562 -1.875 36.6875 -1.46875 C 36.019531 -1.070312 34.5 -0.53125 32.125 0.15625 C 29.757812 0.851562 27.222656 1.203125 24.515625 1.203125 C 18.492188 1.203125 13.207031 -0.910156 8.65625 -5.140625 C 4.113281 -9.378906 1.84375 -14.453125 1.84375 -20.359375 C 1.84375 -26.316406 4.113281 -31.4375 8.65625 -35.71875 C 13.207031 -40.007812 18.492188 -42.15625 24.515625 -42.15625 C 27.222656 -42.15625 29.722656 -41.832031 32.015625 -41.1875 C 34.304688 -40.550781 35.929688 -39.914062 36.890625 -39.28125 L 38.25 -38.328125 L 33.453125 -28.65625 C 31.691406 -29.9375 29.40625 -30.578125 26.59375 -30.578125 Z M 26.59375 -30.578125 "/></g></g></g><g fill="#ffffff" fill-opacity="1"><g transform="translate(806.719434, 132.548149)"><g><path d="M 7.578125 -5.0625 C 3.753906 -9.25 1.84375 -14.375 1.84375 -20.4375 C 1.84375 -26.507812 3.753906 -31.644531 7.578125 -35.84375 C 11.410156 -40.050781 16.285156 -42.15625 22.203125 -42.15625 C 27.628906 -42.15625 32.097656 -40.453125 35.609375 -37.046875 L 35.609375 -40.953125 L 49.75 -40.953125 L 49.75 0 L 35.765625 0 L 35.765625 -4.625 L 35.609375 -4.625 C 32.097656 -0.738281 27.628906 1.203125 22.203125 1.203125 C 16.285156 1.203125 11.410156 -0.882812 7.578125 -5.0625 Z M 19.59375 -27.375 C 17.757812 -25.570312 16.84375 -23.257812 16.84375 -20.4375 C 16.84375 -17.613281 17.71875 -15.3125 19.46875 -13.53125 C 21.226562 -11.75 23.546875 -10.859375 26.421875 -10.859375 C 29.191406 -10.859375 31.46875 -11.757812 33.25 -13.5625 C 35.039062 -15.375 35.9375 -17.664062 35.9375 -20.4375 C 35.9375 -23.257812 35.015625 -25.570312 33.171875 -27.375 C 31.335938 -29.1875 29.085938 -30.09375 26.421875 -30.09375 C 23.710938 -30.09375 21.4375 -29.1875 19.59375 -27.375 Z M 19.59375 -27.375 "/></g></g></g><g fill="#ffffff" fill-opacity="1"><g transform="translate(861.253178, 132.548149)"><g><path d="M 46.953125 -35.84375 C 50.785156 -31.644531 52.703125 -26.507812 52.703125 -20.4375 C 52.703125 -14.375 50.785156 -9.25 46.953125 -5.0625 C 43.117188 -0.882812 38.25 1.203125 32.34375 1.203125 C 26.90625 1.203125 22.429688 -0.738281 18.921875 -4.625 L 18.765625 -4.625 L 18.765625 0 L 4.796875 0 L 4.796875 -68.671875 L 18.921875 -68.671875 L 18.921875 -37.046875 C 22.429688 -40.453125 26.90625 -42.15625 32.34375 -42.15625 C 38.25 -42.15625 43.117188 -40.050781 46.953125 -35.84375 Z M 35.046875 -13.53125 C 36.804688 -15.3125 37.6875 -17.613281 37.6875 -20.4375 C 37.6875 -23.257812 36.765625 -25.570312 34.921875 -27.375 C 33.085938 -29.1875 30.816406 -30.09375 28.109375 -30.09375 C 25.441406 -30.09375 23.191406 -29.1875 21.359375 -27.375 C 19.523438 -25.570312 18.609375 -23.257812 18.609375 -20.4375 C 18.609375 -17.664062 19.5 -15.375 21.28125 -13.5625 C 23.0625 -11.757812 25.335938 -10.859375 28.109375 -10.859375 C 30.984375 -10.859375 33.296875 -11.75 35.046875 -13.53125 Z M 35.046875 -13.53125 "/></g></g></g><g fill="#000000" fill-opacity="1"><g transform="translate(172.123083, 306.562689)"><g><path d="M 8.375 0 L 3.328125 0 L 3.328125 -25.5625 L 8.375 -25.5625 Z M 8.375 0 "/></g></g></g><g fill="#000000" fill-opacity="1"><g transform="translate(183.836563, 306.562689)"><g/></g></g><g fill="#000000" fill-opacity="1"><g transform="translate(192.280764, 306.562689)"><g><path d="M 2.78125 7.8125 L 2.78125 -19.28125 L 7.625 -19.28125 L 7.625 -16.765625 L 7.984375 -16.703125 C 8.554688 -17.679688 9.320312 -18.414062 10.28125 -18.90625 C 11.238281 -19.40625 12.359375 -19.65625 13.640625 -19.65625 C 15.191406 -19.65625 16.546875 -19.285156 17.703125 -18.546875 C 18.859375 -17.816406 19.757812 -16.703125 20.40625 -15.203125 C 21.0625 -13.703125 21.390625 -11.847656 21.390625 -9.640625 C 21.390625 -7.429688 21.046875 -5.582031 20.359375 -4.09375 C 19.679688 -2.601562 18.734375 -1.484375 17.515625 -0.734375 C 16.304688 0.00390625 14.910156 0.375 13.328125 0.375 C 12.128906 0.375 11.09375 0.171875 10.21875 -0.234375 C 9.34375 -0.640625 8.597656 -1.265625 7.984375 -2.109375 L 7.625 -2.046875 L 7.625 7.8125 Z M 11.984375 -3.734375 C 13.421875 -3.734375 14.515625 -4.207031 15.265625 -5.15625 C 16.015625 -6.101562 16.390625 -7.597656 16.390625 -9.640625 C 16.390625 -11.671875 16.015625 -13.160156 15.265625 -14.109375 C 14.515625 -15.066406 13.421875 -15.546875 11.984375 -15.546875 C 10.628906 -15.546875 9.554688 -15.054688 8.765625 -14.078125 C 7.972656 -13.097656 7.578125 -11.617188 7.578125 -9.640625 C 7.578125 -7.671875 7.972656 -6.191406 8.765625 -5.203125 C 9.554688 -4.222656 10.628906 -3.734375 11.984375 -3.734375 Z M 11.984375 -3.734375 "/></g></g></g><g fill="#000000" fill-opacity="1"><g transform="translate(215.375557, 306.562689)"><g><path d="M 8.015625 0.375 C 6.273438 0.375 4.945312 -0.09375 4.03125 -1.03125 C 3.113281 -1.976562 2.65625 -3.40625 2.65625 -5.3125 L 2.65625 -27.03125 L 7.5 -27.03125 L 7.5 -5.515625 C 7.5 -4.328125 7.988281 -3.734375 8.96875 -3.734375 C 9.25 -3.734375 9.546875 -3.78125 9.859375 -3.875 L 10.109375 -3.8125 L 10.546875 -0.09375 C 10.273438 0.0507812 9.914062 0.164062 9.46875 0.25 C 9.03125 0.332031 8.546875 0.375 8.015625 0.375 Z M 8.015625 0.375 "/></g></g></g><g fill="#000000" fill-opacity="1"><g transform="translate(226.459656, 306.562689)"><g><path d="M 7.515625 0.375 C 6.285156 0.375 5.210938 0.144531 4.296875 -0.3125 C 3.390625 -0.769531 2.691406 -1.4375 2.203125 -2.3125 C 1.710938 -3.195312 1.46875 -4.253906 1.46875 -5.484375 C 1.46875 -6.628906 1.710938 -7.585938 2.203125 -8.359375 C 2.691406 -9.140625 3.445312 -9.773438 4.46875 -10.265625 C 5.5 -10.765625 6.84375 -11.148438 8.5 -11.421875 C 9.65625 -11.609375 10.53125 -11.8125 11.125 -12.03125 C 11.726562 -12.25 12.132812 -12.5 12.34375 -12.78125 C 12.550781 -13.0625 12.65625 -13.414062 12.65625 -13.84375 C 12.65625 -14.46875 12.4375 -14.941406 12 -15.265625 C 11.570312 -15.585938 10.859375 -15.75 9.859375 -15.75 C 8.785156 -15.75 7.765625 -15.507812 6.796875 -15.03125 C 5.828125 -14.5625 4.988281 -13.9375 4.28125 -13.15625 L 3.9375 -13.15625 L 1.90625 -16.203125 C 2.882812 -17.296875 4.078125 -18.144531 5.484375 -18.75 C 6.898438 -19.351562 8.441406 -19.65625 10.109375 -19.65625 C 12.660156 -19.65625 14.503906 -19.113281 15.640625 -18.03125 C 16.785156 -16.945312 17.359375 -15.40625 17.359375 -13.40625 L 17.359375 -5.03125 C 17.359375 -4.164062 17.738281 -3.734375 18.5 -3.734375 C 18.789062 -3.734375 19.078125 -3.789062 19.359375 -3.90625 L 19.609375 -3.828125 L 19.953125 -0.453125 C 19.679688 -0.273438 19.304688 -0.128906 18.828125 -0.015625 C 18.347656 0.0859375 17.828125 0.140625 17.265625 0.140625 C 16.109375 0.140625 15.207031 -0.078125 14.5625 -0.515625 C 13.914062 -0.960938 13.453125 -1.660156 13.171875 -2.609375 L 12.796875 -2.640625 C 11.859375 -0.628906 10.097656 0.375 7.515625 0.375 Z M 9.0625 -3.25 C 10.175781 -3.25 11.066406 -3.625 11.734375 -4.375 C 12.410156 -5.132812 12.75 -6.179688 12.75 -7.515625 L 12.75 -9.484375 L 12.421875 -9.546875 C 12.128906 -9.316406 11.742188 -9.117188 11.265625 -8.953125 C 10.796875 -8.796875 10.117188 -8.644531 9.234375 -8.5 C 8.179688 -8.320312 7.425781 -8.019531 6.96875 -7.59375 C 6.507812 -7.164062 6.28125 -6.5625 6.28125 -5.78125 C 6.28125 -4.957031 6.523438 -4.328125 7.015625 -3.890625 C 7.503906 -3.460938 8.1875 -3.25 9.0625 -3.25 Z M 9.0625 -3.25 "/></g></g></g><g fill="#000000" fill-opacity="1"><g transform="translate(246.792165, 306.562689)"><g><path d="M 4.265625 8.1875 C 3.441406 8.1875 2.691406 8.117188 2.015625 7.984375 C 1.347656 7.859375 0.804688 7.691406 0.390625 7.484375 L 1.15625 3.5625 L 1.46875 3.46875 C 1.757812 3.613281 2.117188 3.734375 2.546875 3.828125 C 2.984375 3.921875 3.425781 3.96875 3.875 3.96875 C 4.65625 3.96875 5.304688 3.863281 5.828125 3.65625 C 6.347656 3.457031 6.785156 3.117188 7.140625 2.640625 C 7.503906 2.171875 7.828125 1.519531 8.109375 0.6875 L 0.421875 -19.28125 L 5.484375 -19.28125 L 10.28125 -5.875 L 10.703125 -5.875 L 15.375 -19.28125 L 20.296875 -19.28125 L 12.5625 1.203125 C 11.9375 2.859375 11.253906 4.191406 10.515625 5.203125 C 9.773438 6.210938 8.898438 6.960938 7.890625 7.453125 C 6.878906 7.941406 5.671875 8.1875 4.265625 8.1875 Z M 4.265625 8.1875 "/></g></g></g><g fill="#000000" fill-opacity="1"><g transform="translate(267.491808, 306.562689)"><g><path d="M 19.0625 -8.546875 L 6.65625 -8.546875 C 6.800781 -6.867188 7.28125 -5.644531 8.09375 -4.875 C 8.914062 -4.113281 10.03125 -3.734375 11.4375 -3.734375 C 12.539062 -3.734375 13.4375 -3.941406 14.125 -4.359375 C 14.8125 -4.773438 15.367188 -5.40625 15.796875 -6.25 L 16.15625 -6.25 L 19.375 -4.171875 C 18.75 -2.828125 17.800781 -1.734375 16.53125 -0.890625 C 15.257812 -0.046875 13.5625 0.375 11.4375 0.375 C 9.445312 0.375 7.722656 -0.00390625 6.265625 -0.765625 C 4.816406 -1.523438 3.695312 -2.65625 2.90625 -4.15625 C 2.125 -5.65625 1.734375 -7.484375 1.734375 -9.640625 C 1.734375 -11.828125 2.144531 -13.671875 2.96875 -15.171875 C 3.800781 -16.679688 4.921875 -17.804688 6.328125 -18.546875 C 7.742188 -19.285156 9.332031 -19.65625 11.09375 -19.65625 C 13.8125 -19.65625 15.894531 -18.929688 17.34375 -17.484375 C 18.800781 -16.035156 19.53125 -13.914062 19.53125 -11.125 C 19.53125 -10.101562 19.492188 -9.316406 19.421875 -8.765625 Z M 14.90625 -11.6875 C 14.851562 -13.15625 14.507812 -14.222656 13.875 -14.890625 C 13.238281 -15.554688 12.3125 -15.890625 11.09375 -15.890625 C 8.644531 -15.890625 7.203125 -14.488281 6.765625 -11.6875 Z M 14.90625 -11.6875 "/></g></g></g><g fill="#000000" fill-opacity="1"><g transform="translate(288.453698, 306.562689)"><g><path d="M 9.53125 0.375 C 8 0.375 6.644531 0.00390625 5.46875 -0.734375 C 4.300781 -1.484375 3.382812 -2.601562 2.71875 -4.09375 C 2.0625 -5.59375 1.734375 -7.441406 1.734375 -9.640625 C 1.734375 -11.835938 2.070312 -13.6875 2.75 -15.1875 C 3.4375 -16.6875 4.378906 -17.804688 5.578125 -18.546875 C 6.785156 -19.285156 8.1875 -19.65625 9.78125 -19.65625 C 10.976562 -19.65625 12.015625 -19.445312 12.890625 -19.03125 C 13.773438 -18.613281 14.519531 -17.972656 15.125 -17.109375 L 15.5 -17.1875 L 15.5 -27.03125 L 20.34375 -27.03125 L 20.34375 0 L 15.5 0 L 15.5 -2.5 L 15.125 -2.578125 C 14.59375 -1.660156 13.859375 -0.9375 12.921875 -0.40625 C 11.992188 0.113281 10.863281 0.375 9.53125 0.375 Z M 11.109375 -3.734375 C 12.472656 -3.734375 13.550781 -4.21875 14.34375 -5.1875 C 15.132812 -6.164062 15.53125 -7.648438 15.53125 -9.640625 C 15.53125 -11.617188 15.132812 -13.097656 14.34375 -14.078125 C 13.550781 -15.054688 12.472656 -15.546875 11.109375 -15.546875 C 9.679688 -15.546875 8.59375 -15.066406 7.84375 -14.109375 C 7.09375 -13.160156 6.71875 -11.671875 6.71875 -9.640625 C 6.71875 -7.609375 7.09375 -6.113281 7.84375 -5.15625 C 8.59375 -4.207031 9.679688 -3.734375 11.109375 -3.734375 Z M 11.109375 -3.734375 "/></g></g></g><g fill="#000000" fill-opacity="1"><g transform="translate(311.565968, 306.562689)"><g/></g></g><path fill="#000000" d="M 320.019531 308.808594 L 378.835938 308.808594 L 378.835938 311.804688 L 320.019531 311.804688 Z M 320.019531 308.808594 " fill-opacity="1" fill-rule="nonzero"/><g fill="#000000" fill-opacity="1"><g transform="translate(320.021071, 306.562689)"><g><path d="M 3.375 0 L 3.375 -15.453125 L 0.640625 -15.453125 L 0.640625 -19.3125 L 3.375 -19.3125 C 3.175781 -20.125 3.078125 -20.882812 3.078125 -21.59375 C 3.078125 -22.820312 3.351562 -23.867188 3.90625 -24.734375 C 4.46875 -25.597656 5.273438 -26.257812 6.328125 -26.71875 C 7.378906 -27.175781 8.628906 -27.40625 10.078125 -27.40625 C 12.203125 -27.40625 13.789062 -27.035156 14.84375 -26.296875 L 13.703125 -22.734375 L 13.34375 -22.65625 C 12.625 -23.175781 11.695312 -23.4375 10.5625 -23.4375 C 9.6875 -23.4375 9.03125 -23.222656 8.59375 -22.796875 C 8.15625 -22.367188 7.9375 -21.785156 7.9375 -21.046875 C 7.9375 -20.734375 7.957031 -20.445312 8 -20.1875 C 8.039062 -19.925781 8.113281 -19.632812 8.21875 -19.3125 L 13.734375 -19.3125 L 13.734375 -15.453125 L 8.21875 -15.453125 L 8.21875 0 Z M 3.375 0 "/></g></g></g><g fill="#000000" fill-opacity="1"><g transform="translate(333.937384, 306.562689)"><g><path d="M 8.828125 0.375 C 6.660156 0.375 5.0625 -0.21875 4.03125 -1.40625 C 3 -2.59375 2.484375 -4.289062 2.484375 -6.5 L 2.484375 -19.28125 L 7.328125 -19.28125 L 7.328125 -7.109375 C 7.328125 -5.929688 7.578125 -5.070312 8.078125 -4.53125 C 8.585938 -3.988281 9.375 -3.71875 10.4375 -3.71875 C 11.78125 -3.71875 12.820312 -4.15625 13.5625 -5.03125 C 14.3125 -5.914062 14.6875 -7.304688 14.6875 -9.203125 L 14.6875 -19.28125 L 19.53125 -19.28125 L 19.53125 0 L 14.875 0 L 14.875 -2.828125 L 14.515625 -2.921875 C 13.898438 -1.816406 13.144531 -0.988281 12.25 -0.4375 C 11.351562 0.101562 10.210938 0.375 8.828125 0.375 Z M 8.828125 0.375 "/></g></g></g><g fill="#000000" fill-opacity="1"><g transform="translate(356.245445, 306.562689)"><g><path d="M 2.78125 0 L 2.78125 -19.28125 L 7.4375 -19.28125 L 7.4375 -16.453125 L 7.796875 -16.375 C 8.992188 -18.5625 10.941406 -19.65625 13.640625 -19.65625 C 15.867188 -19.65625 17.503906 -19.046875 18.546875 -17.828125 C 19.585938 -16.617188 20.109375 -14.851562 20.109375 -12.53125 L 20.109375 0 L 15.265625 0 L 15.265625 -11.9375 C 15.265625 -13.21875 15.007812 -14.140625 14.5 -14.703125 C 13.988281 -15.273438 13.164062 -15.5625 12.03125 -15.5625 C 10.644531 -15.5625 9.5625 -15.113281 8.78125 -14.21875 C 8.007812 -13.320312 7.625 -11.910156 7.625 -9.984375 L 7.625 0 Z M 2.78125 0 "/></g></g></g><g fill="#000000" fill-opacity="1"><g transform="translate(378.83403, 306.562689)"><g/></g></g><g fill="#000000" fill-opacity="1"><g transform="translate(387.278231, 306.562689)"><g><path d="M 10 8.1875 C 6.820312 8.1875 4.472656 7.71875 2.953125 6.78125 C 1.441406 5.851562 0.6875 4.554688 0.6875 2.890625 C 0.6875 1.867188 1.007812 1.035156 1.65625 0.390625 C 2.300781 -0.253906 3.226562 -0.6875 4.4375 -0.90625 L 4.4375 -1.28125 C 3.789062 -1.675781 3.320312 -2.113281 3.03125 -2.59375 C 2.75 -3.082031 2.609375 -3.644531 2.609375 -4.28125 C 2.609375 -5.832031 3.613281 -6.878906 5.625 -7.421875 L 5.625 -7.78125 C 4.59375 -8.375 3.8125 -9.109375 3.28125 -9.984375 C 2.757812 -10.867188 2.5 -11.9375 2.5 -13.1875 C 2.5 -14.46875 2.789062 -15.59375 3.375 -16.5625 C 3.96875 -17.539062 4.832031 -18.300781 5.96875 -18.84375 C 7.101562 -19.382812 8.46875 -19.65625 10.0625 -19.65625 C 11.664062 -19.65625 12.945312 -19.375 13.90625 -18.8125 C 14.5 -19.675781 14.84375 -20.675781 14.9375 -21.8125 L 15.296875 -22.03125 L 18.78125 -21.171875 C 18.675781 -20.253906 18.40625 -19.484375 17.96875 -18.859375 C 17.539062 -18.234375 16.875 -17.675781 15.96875 -17.1875 L 15.96875 -16.796875 C 17.050781 -15.847656 17.59375 -14.515625 17.59375 -12.796875 C 17.59375 -11.609375 17.296875 -10.539062 16.703125 -9.59375 C 16.109375 -8.65625 15.238281 -7.910156 14.09375 -7.359375 C 12.957031 -6.816406 11.613281 -6.546875 10.0625 -6.546875 L 9.328125 -6.5625 C 8.859375 -6.582031 8.53125 -6.59375 8.34375 -6.59375 C 7.894531 -6.59375 7.546875 -6.472656 7.296875 -6.234375 C 7.046875 -5.992188 6.921875 -5.6875 6.921875 -5.3125 C 6.921875 -4.90625 7.082031 -4.585938 7.40625 -4.359375 C 7.738281 -4.128906 8.21875 -4.003906 8.84375 -3.984375 L 13.171875 -3.828125 C 17.429688 -3.703125 19.5625 -1.867188 19.5625 1.671875 C 19.5625 2.921875 19.242188 4.03125 18.609375 5 C 17.972656 5.976562 16.941406 6.753906 15.515625 7.328125 C 14.097656 7.898438 12.257812 8.1875 10 8.1875 Z M 10.0625 -9.9375 C 10.988281 -9.9375 11.710938 -10.207031 12.234375 -10.75 C 12.765625 -11.300781 13.03125 -12.082031 13.03125 -13.09375 C 13.03125 -14.113281 12.765625 -14.894531 12.234375 -15.4375 C 11.710938 -15.976562 10.988281 -16.25 10.0625 -16.25 C 9.113281 -16.25 8.378906 -15.976562 7.859375 -15.4375 C 7.347656 -14.894531 7.09375 -14.113281 7.09375 -13.09375 C 7.09375 -12.070312 7.347656 -11.289062 7.859375 -10.75 C 8.378906 -10.207031 9.113281 -9.9375 10.0625 -9.9375 Z M 10 4.671875 C 11.65625 4.671875 12.859375 4.4375 13.609375 3.96875 C 14.359375 3.5 14.734375 2.894531 14.734375 2.15625 C 14.734375 1.539062 14.539062 1.09375 14.15625 0.8125 C 13.78125 0.53125 13.171875 0.375 12.328125 0.34375 L 8.515625 0.171875 C 8.390625 0.171875 8.269531 0.164062 8.15625 0.15625 C 8.039062 0.144531 7.929688 0.140625 7.828125 0.140625 C 7.015625 0.140625 6.394531 0.3125 5.96875 0.65625 C 5.539062 1.007812 5.328125 1.492188 5.328125 2.109375 C 5.328125 2.929688 5.71875 3.5625 6.5 4 C 7.28125 4.445312 8.445312 4.671875 10 4.671875 Z M 10 4.671875 "/></g></g></g><g fill="#000000" fill-opacity="1"><g transform="translate(407.331016, 306.562689)"><g><path d="M 7.515625 0.375 C 6.285156 0.375 5.210938 0.144531 4.296875 -0.3125 C 3.390625 -0.769531 2.691406 -1.4375 2.203125 -2.3125 C 1.710938 -3.195312 1.46875 -4.253906 1.46875 -5.484375 C 1.46875 -6.628906 1.710938 -7.585938 2.203125 -8.359375 C 2.691406 -9.140625 3.445312 -9.773438 4.46875 -10.265625 C 5.5 -10.765625 6.84375 -11.148438 8.5 -11.421875 C 9.65625 -11.609375 10.53125 -11.8125 11.125 -12.03125 C 11.726562 -12.25 12.132812 -12.5 12.34375 -12.78125 C 12.550781 -13.0625 12.65625 -13.414062 12.65625 -13.84375 C 12.65625 -14.46875 12.4375 -14.941406 12 -15.265625 C 11.570312 -15.585938 10.859375 -15.75 9.859375 -15.75 C 8.785156 -15.75 7.765625 -15.507812 6.796875 -15.03125 C 5.828125 -14.5625 4.988281 -13.9375 4.28125 -13.15625 L 3.9375 -13.15625 L 1.90625 -16.203125 C 2.882812 -17.296875 4.078125 -18.144531 5.484375 -18.75 C 6.898438 -19.351562 8.441406 -19.65625 10.109375 -19.65625 C 12.660156 -19.65625 14.503906 -19.113281 15.640625 -18.03125 C 16.785156 -16.945312 17.359375 -15.40625 17.359375 -13.40625 L 17.359375 -5.03125 C 17.359375 -4.164062 17.738281 -3.734375 18.5 -3.734375 C 18.789062 -3.734375 19.078125 -3.789062 19.359375 -3.90625 L 19.609375 -3.828125 L 19.953125 -0.453125 C 19.679688 -0.273438 19.304688 -0.128906 18.828125 -0.015625 C 18.347656 0.0859375 17.828125 0.140625 17.265625 0.140625 C 16.109375 0.140625 15.207031 -0.078125 14.5625 -0.515625 C 13.914062 -0.960938 13.453125 -1.660156 13.171875 -2.609375 L 12.796875 -2.640625 C 11.859375 -0.628906 10.097656 0.375 7.515625 0.375 Z M 9.0625 -3.25 C 10.175781 -3.25 11.066406 -3.625 11.734375 -4.375 C 12.410156 -5.132812 12.75 -6.179688 12.75 -7.515625 L 12.75 -9.484375 L 12.421875 -9.546875 C 12.128906 -9.316406 11.742188 -9.117188 11.265625 -8.953125 C 10.796875 -8.796875 10.117188 -8.644531 9.234375 -8.5 C 8.179688 -8.320312 7.425781 -8.019531 6.96875 -7.59375 C 6.507812 -7.164062 6.28125 -6.5625 6.28125 -5.78125 C 6.28125 -4.957031 6.523438 -4.328125 7.015625 -3.890625 C 7.503906 -3.460938 8.1875 -3.25 9.0625 -3.25 Z M 9.0625 -3.25 "/></g></g></g><g fill="#000000" fill-opacity="1"><g transform="translate(427.663525, 306.562689)"><g><path d="M 2.78125 0 L 2.78125 -19.28125 L 7.4375 -19.28125 L 7.4375 -16.703125 L 7.796875 -16.625 C 8.429688 -17.664062 9.171875 -18.429688 10.015625 -18.921875 C 10.859375 -19.410156 11.9375 -19.65625 13.25 -19.65625 C 14.707031 -19.65625 15.878906 -19.363281 16.765625 -18.78125 C 17.648438 -18.207031 18.296875 -17.367188 18.703125 -16.265625 L 19.078125 -16.265625 C 19.671875 -17.421875 20.4375 -18.273438 21.375 -18.828125 C 22.3125 -19.378906 23.484375 -19.65625 24.890625 -19.65625 C 28.878906 -19.65625 30.875 -17.425781 30.875 -12.96875 L 30.875 0 L 26.03125 0 L 26.03125 -12.359375 C 26.03125 -13.492188 25.804688 -14.3125 25.359375 -14.8125 C 24.921875 -15.3125 24.210938 -15.5625 23.234375 -15.5625 C 20.578125 -15.5625 19.25 -13.785156 19.25 -10.234375 L 19.25 0 L 14.40625 0 L 14.40625 -12.359375 C 14.40625 -13.492188 14.179688 -14.3125 13.734375 -14.8125 C 13.285156 -15.3125 12.570312 -15.5625 11.59375 -15.5625 C 10.34375 -15.5625 9.367188 -15.144531 8.671875 -14.3125 C 7.972656 -13.476562 7.625 -12.148438 7.625 -10.328125 L 7.625 0 Z M 2.78125 0 "/></g></g></g><g fill="#000000" fill-opacity="1"><g transform="translate(461.020719, 306.562689)"><g><path d="M 19.0625 -8.546875 L 6.65625 -8.546875 C 6.800781 -6.867188 7.28125 -5.644531 8.09375 -4.875 C 8.914062 -4.113281 10.03125 -3.734375 11.4375 -3.734375 C 12.539062 -3.734375 13.4375 -3.941406 14.125 -4.359375 C 14.8125 -4.773438 15.367188 -5.40625 15.796875 -6.25 L 16.15625 -6.25 L 19.375 -4.171875 C 18.75 -2.828125 17.800781 -1.734375 16.53125 -0.890625 C 15.257812 -0.046875 13.5625 0.375 11.4375 0.375 C 9.445312 0.375 7.722656 -0.00390625 6.265625 -0.765625 C 4.816406 -1.523438 3.695312 -2.65625 2.90625 -4.15625 C 2.125 -5.65625 1.734375 -7.484375 1.734375 -9.640625 C 1.734375 -11.828125 2.144531 -13.671875 2.96875 -15.171875 C 3.800781 -16.679688 4.921875 -17.804688 6.328125 -18.546875 C 7.742188 -19.285156 9.332031 -19.65625 11.09375 -19.65625 C 13.8125 -19.65625 15.894531 -18.929688 17.34375 -17.484375 C 18.800781 -16.035156 19.53125 -13.914062 19.53125 -11.125 C 19.53125 -10.101562 19.492188 -9.316406 19.421875 -8.765625 Z M 14.90625 -11.6875 C 14.851562 -13.15625 14.507812 -14.222656 13.875 -14.890625 C 13.238281 -15.554688 12.3125 -15.890625 11.09375 -15.890625 C 8.644531 -15.890625 7.203125 -14.488281 6.765625 -11.6875 Z M 14.90625 -11.6875 "/></g></g></g><g fill="#000000" fill-opacity="1"><g transform="translate(481.982609, 306.562689)"><g><path d="M 9.015625 0.375 C 7.703125 0.375 6.5 0.21875 5.40625 -0.09375 C 4.3125 -0.40625 3.375 -0.832031 2.59375 -1.375 C 1.820312 -1.914062 1.25 -2.535156 0.875 -3.234375 L 3.5625 -6.140625 L 3.9375 -6.140625 C 4.570312 -5.273438 5.328125 -4.625 6.203125 -4.1875 C 7.078125 -3.757812 8.03125 -3.546875 9.0625 -3.546875 C 10 -3.546875 10.707031 -3.710938 11.1875 -4.046875 C 11.664062 -4.390625 11.90625 -4.878906 11.90625 -5.515625 C 11.90625 -6.003906 11.734375 -6.410156 11.390625 -6.734375 C 11.046875 -7.066406 10.488281 -7.328125 9.71875 -7.515625 L 7.171875 -8.125 C 5.253906 -8.582031 3.851562 -9.28125 2.96875 -10.21875 C 2.09375 -11.15625 1.65625 -12.347656 1.65625 -13.796875 C 1.65625 -14.992188 1.960938 -16.035156 2.578125 -16.921875 C 3.191406 -17.804688 4.054688 -18.484375 5.171875 -18.953125 C 6.285156 -19.421875 7.582031 -19.65625 9.0625 -19.65625 C 10.789062 -19.65625 12.226562 -19.40625 13.375 -18.90625 C 14.519531 -18.40625 15.410156 -17.734375 16.046875 -16.890625 L 13.46875 -14.09375 L 13.109375 -14.09375 C 12.578125 -14.695312 11.972656 -15.140625 11.296875 -15.421875 C 10.628906 -15.703125 9.882812 -15.84375 9.0625 -15.84375 C 7.144531 -15.84375 6.1875 -15.25 6.1875 -14.0625 C 6.1875 -13.5625 6.363281 -13.148438 6.71875 -12.828125 C 7.070312 -12.515625 7.703125 -12.257812 8.609375 -12.0625 L 10.984375 -11.546875 C 12.941406 -11.117188 14.367188 -10.441406 15.265625 -9.515625 C 16.171875 -8.585938 16.625 -7.34375 16.625 -5.78125 C 16.625 -4.5625 16.320312 -3.484375 15.71875 -2.546875 C 15.113281 -1.617188 14.238281 -0.898438 13.09375 -0.390625 C 11.957031 0.117188 10.597656 0.375 9.015625 0.375 Z M 9.015625 0.375 "/></g></g></g><g fill="#000000" fill-opacity="1"><g transform="translate(499.762629, 306.562689)"><g/></g></g><g fill="#000000" fill-opacity="1"><g transform="translate(508.20683, 306.562689)"><g><path d="M 7.515625 0.375 C 6.285156 0.375 5.210938 0.144531 4.296875 -0.3125 C 3.390625 -0.769531 2.691406 -1.4375 2.203125 -2.3125 C 1.710938 -3.195312 1.46875 -4.253906 1.46875 -5.484375 C 1.46875 -6.628906 1.710938 -7.585938 2.203125 -8.359375 C 2.691406 -9.140625 3.445312 -9.773438 4.46875 -10.265625 C 5.5 -10.765625 6.84375 -11.148438 8.5 -11.421875 C 9.65625 -11.609375 10.53125 -11.8125 11.125 -12.03125 C 11.726562 -12.25 12.132812 -12.5 12.34375 -12.78125 C 12.550781 -13.0625 12.65625 -13.414062 12.65625 -13.84375 C 12.65625 -14.46875 12.4375 -14.941406 12 -15.265625 C 11.570312 -15.585938 10.859375 -15.75 9.859375 -15.75 C 8.785156 -15.75 7.765625 -15.507812 6.796875 -15.03125 C 5.828125 -14.5625 4.988281 -13.9375 4.28125 -13.15625 L 3.9375 -13.15625 L 1.90625 -16.203125 C 2.882812 -17.296875 4.078125 -18.144531 5.484375 -18.75 C 6.898438 -19.351562 8.441406 -19.65625 10.109375 -19.65625 C 12.660156 -19.65625 14.503906 -19.113281 15.640625 -18.03125 C 16.785156 -16.945312 17.359375 -15.40625 17.359375 -13.40625 L 17.359375 -5.03125 C 17.359375 -4.164062 17.738281 -3.734375 18.5 -3.734375 C 18.789062 -3.734375 19.078125 -3.789062 19.359375 -3.90625 L 19.609375 -3.828125 L 19.953125 -0.453125 C 19.679688 -0.273438 19.304688 -0.128906 18.828125 -0.015625 C 18.347656 0.0859375 17.828125 0.140625 17.265625 0.140625 C 16.109375 0.140625 15.207031 -0.078125 14.5625 -0.515625 C 13.914062 -0.960938 13.453125 -1.660156 13.171875 -2.609375 L 12.796875 -2.640625 C 11.859375 -0.628906 10.097656 0.375 7.515625 0.375 Z M 9.0625 -3.25 C 10.175781 -3.25 11.066406 -3.625 11.734375 -4.375 C 12.410156 -5.132812 12.75 -6.179688 12.75 -7.515625 L 12.75 -9.484375 L 12.421875 -9.546875 C 12.128906 -9.316406 11.742188 -9.117188 11.265625 -8.953125 C 10.796875 -8.796875 10.117188 -8.644531 9.234375 -8.5 C 8.179688 -8.320312 7.425781 -8.019531 6.96875 -7.59375 C 6.507812 -7.164062 6.28125 -6.5625 6.28125 -5.78125 C 6.28125 -4.957031 6.523438 -4.328125 7.015625 -3.890625 C 7.503906 -3.460938 8.1875 -3.25 9.0625 -3.25 Z M 9.0625 -3.25 "/></g></g></g><g fill="#000000" fill-opacity="1"><g transform="translate(528.539339, 306.562689)"><g><path d="M 13.3125 -4.59375 L 14.5625 -1.015625 C 14.039062 -0.585938 13.382812 -0.25 12.59375 0 C 11.800781 0.25 10.898438 0.375 9.890625 0.375 C 7.804688 0.375 6.222656 -0.191406 5.140625 -1.328125 C 4.054688 -2.472656 3.515625 -4.128906 3.515625 -6.296875 L 3.515625 -15.453125 L 0.578125 -15.453125 L 0.578125 -19.3125 L 3.515625 -19.3125 L 3.515625 -23.0625 L 8.359375 -23.859375 L 8.359375 -19.3125 L 13.828125 -19.3125 L 13.828125 -15.453125 L 8.359375 -15.453125 L 8.359375 -6.640625 C 8.359375 -5.691406 8.554688 -5 8.953125 -4.5625 C 9.347656 -4.125 9.925781 -3.90625 10.6875 -3.90625 C 11.550781 -3.90625 12.300781 -4.132812 12.9375 -4.59375 Z M 13.3125 -4.59375 "/></g></g></g><g fill="#000000" fill-opacity="1"><g transform="translate(543.52211, 306.562689)"><g/></g></g><g fill="#000000" fill-opacity="1"><g transform="translate(551.966311, 306.562689)"><g><path d="M 9.015625 0.375 C 7.703125 0.375 6.5 0.21875 5.40625 -0.09375 C 4.3125 -0.40625 3.375 -0.832031 2.59375 -1.375 C 1.820312 -1.914062 1.25 -2.535156 0.875 -3.234375 L 3.5625 -6.140625 L 3.9375 -6.140625 C 4.570312 -5.273438 5.328125 -4.625 6.203125 -4.1875 C 7.078125 -3.757812 8.03125 -3.546875 9.0625 -3.546875 C 10 -3.546875 10.707031 -3.710938 11.1875 -4.046875 C 11.664062 -4.390625 11.90625 -4.878906 11.90625 -5.515625 C 11.90625 -6.003906 11.734375 -6.410156 11.390625 -6.734375 C 11.046875 -7.066406 10.488281 -7.328125 9.71875 -7.515625 L 7.171875 -8.125 C 5.253906 -8.582031 3.851562 -9.28125 2.96875 -10.21875 C 2.09375 -11.15625 1.65625 -12.347656 1.65625 -13.796875 C 1.65625 -14.992188 1.960938 -16.035156 2.578125 -16.921875 C 3.191406 -17.804688 4.054688 -18.484375 5.171875 -18.953125 C 6.285156 -19.421875 7.582031 -19.65625 9.0625 -19.65625 C 10.789062 -19.65625 12.226562 -19.40625 13.375 -18.90625 C 14.519531 -18.40625 15.410156 -17.734375 16.046875 -16.890625 L 13.46875 -14.09375 L 13.109375 -14.09375 C 12.578125 -14.695312 11.972656 -15.140625 11.296875 -15.421875 C 10.628906 -15.703125 9.882812 -15.84375 9.0625 -15.84375 C 7.144531 -15.84375 6.1875 -15.25 6.1875 -14.0625 C 6.1875 -13.5625 6.363281 -13.148438 6.71875 -12.828125 C 7.070312 -12.515625 7.703125 -12.257812 8.609375 -12.0625 L 10.984375 -11.546875 C 12.941406 -11.117188 14.367188 -10.441406 15.265625 -9.515625 C 16.171875 -8.585938 16.625 -7.34375 16.625 -5.78125 C 16.625 -4.5625 16.320312 -3.484375 15.71875 -2.546875 C 15.113281 -1.617188 14.238281 -0.898438 13.09375 -0.390625 C 11.957031 0.117188 10.597656 0.375 9.015625 0.375 Z M 9.015625 0.375 "/></g></g></g><g fill="#000000" fill-opacity="1"><g transform="translate(569.746331, 306.562689)"><g><path d="M 11.25 0.375 C 9.382812 0.375 7.734375 -0.0078125 6.296875 -0.78125 C 4.859375 -1.5625 3.738281 -2.703125 2.9375 -4.203125 C 2.132812 -5.710938 1.734375 -7.523438 1.734375 -9.640625 C 1.734375 -11.753906 2.132812 -13.5625 2.9375 -15.0625 C 3.738281 -16.570312 4.847656 -17.710938 6.265625 -18.484375 C 7.691406 -19.265625 9.320312 -19.65625 11.15625 -19.65625 C 15.226562 -19.65625 17.832031 -18.179688 18.96875 -15.234375 L 15.65625 -12.859375 L 15.28125 -12.859375 C 14.882812 -13.765625 14.367188 -14.4375 13.734375 -14.875 C 13.097656 -15.320312 12.238281 -15.546875 11.15625 -15.546875 C 9.757812 -15.546875 8.671875 -15.0625 7.890625 -14.09375 C 7.109375 -13.125 6.71875 -11.640625 6.71875 -9.640625 C 6.71875 -7.648438 7.113281 -6.164062 7.90625 -5.1875 C 8.695312 -4.21875 9.8125 -3.734375 11.25 -3.734375 C 12.289062 -3.734375 13.175781 -4.015625 13.90625 -4.578125 C 14.632812 -5.148438 15.15625 -5.96875 15.46875 -7.03125 L 15.84375 -7.0625 L 19.28125 -5.171875 C 18.789062 -3.546875 17.882812 -2.210938 16.5625 -1.171875 C 15.238281 -0.140625 13.46875 0.375 11.25 0.375 Z M 11.25 0.375 "/></g></g></g><g fill="#000000" fill-opacity="1"><g transform="translate(589.624287, 306.562689)"><g><path d="M 2.78125 0 L 2.78125 -27.03125 L 7.625 -27.03125 L 7.625 -16.765625 L 7.984375 -16.703125 C 8.628906 -17.640625 9.414062 -18.363281 10.34375 -18.875 C 11.28125 -19.394531 12.410156 -19.65625 13.734375 -19.65625 C 17.984375 -19.65625 20.109375 -17.242188 20.109375 -12.421875 L 20.109375 0 L 15.265625 0 L 15.265625 -11.796875 C 15.265625 -13.117188 15 -14.078125 14.46875 -14.671875 C 13.945312 -15.265625 13.132812 -15.5625 12.03125 -15.5625 C 10.675781 -15.5625 9.601562 -15.109375 8.8125 -14.203125 C 8.019531 -13.304688 7.625 -11.898438 7.625 -9.984375 L 7.625 0 Z M 2.78125 0 "/></g></g></g><g fill="#000000" fill-opacity="1"><g transform="translate(612.212073, 306.562689)"><g><path d="M 11.203125 0.375 C 9.316406 0.375 7.660156 -0.0078125 6.234375 -0.78125 C 4.804688 -1.5625 3.695312 -2.703125 2.90625 -4.203125 C 2.125 -5.703125 1.734375 -7.515625 1.734375 -9.640625 C 1.734375 -11.753906 2.125 -13.5625 2.90625 -15.0625 C 3.695312 -16.570312 4.804688 -17.710938 6.234375 -18.484375 C 7.660156 -19.265625 9.316406 -19.65625 11.203125 -19.65625 C 13.097656 -19.65625 14.757812 -19.265625 16.1875 -18.484375 C 17.613281 -17.710938 18.722656 -16.570312 19.515625 -15.0625 C 20.304688 -13.5625 20.703125 -11.753906 20.703125 -9.640625 C 20.703125 -7.515625 20.304688 -5.703125 19.515625 -4.203125 C 18.722656 -2.703125 17.613281 -1.5625 16.1875 -0.78125 C 14.757812 -0.0078125 13.097656 0.375 11.203125 0.375 Z M 11.203125 -3.734375 C 14.203125 -3.734375 15.703125 -5.703125 15.703125 -9.640625 C 15.703125 -11.671875 15.316406 -13.160156 14.546875 -14.109375 C 13.773438 -15.066406 12.660156 -15.546875 11.203125 -15.546875 C 8.210938 -15.546875 6.71875 -13.578125 6.71875 -9.640625 C 6.71875 -5.703125 8.210938 -3.734375 11.203125 -3.734375 Z M 11.203125 -3.734375 "/></g></g></g><g fill="#000000" fill-opacity="1"><g transform="translate(634.625042, 306.562689)"><g><path d="M 11.203125 0.375 C 9.316406 0.375 7.660156 -0.0078125 6.234375 -0.78125 C 4.804688 -1.5625 3.695312 -2.703125 2.90625 -4.203125 C 2.125 -5.703125 1.734375 -7.515625 1.734375 -9.640625 C 1.734375 -11.753906 2.125 -13.5625 2.90625 -15.0625 C 3.695312 -16.570312 4.804688 -17.710938 6.234375 -18.484375 C 7.660156 -19.265625 9.316406 -19.65625 11.203125 -19.65625 C 13.097656 -19.65625 14.757812 -19.265625 16.1875 -18.484375 C 17.613281 -17.710938 18.722656 -16.570312 19.515625 -15.0625 C 20.304688 -13.5625 20.703125 -11.753906 20.703125 -9.640625 C 20.703125 -7.515625 20.304688 -5.703125 19.515625 -4.203125 C 18.722656 -2.703125 17.613281 -1.5625 16.1875 -0.78125 C 14.757812 -0.0078125 13.097656 0.375 11.203125 0.375 Z M 11.203125 -3.734375 C 14.203125 -3.734375 15.703125 -5.703125 15.703125 -9.640625 C 15.703125 -11.671875 15.316406 -13.160156 14.546875 -14.109375 C 13.773438 -15.066406 12.660156 -15.546875 11.203125 -15.546875 C 8.210938 -15.546875 6.71875 -13.578125 6.71875 -9.640625 C 6.71875 -5.703125 8.210938 -3.734375 11.203125 -3.734375 Z M 11.203125 -3.734375 "/></g></g></g><g fill="#000000" fill-opacity="1"><g transform="translate(657.037988, 306.562689)"><g><path d="M 8.015625 0.375 C 6.273438 0.375 4.945312 -0.09375 4.03125 -1.03125 C 3.113281 -1.976562 2.65625 -3.40625 2.65625 -5.3125 L 2.65625 -27.03125 L 7.5 -27.03125 L 7.5 -5.515625 C 7.5 -4.328125 7.988281 -3.734375 8.96875 -3.734375 C 9.25 -3.734375 9.546875 -3.78125 9.859375 -3.875 L 10.109375 -3.8125 L 10.546875 -0.09375 C 10.273438 0.0507812 9.914062 0.164062 9.46875 0.25 C 9.03125 0.332031 8.546875 0.375 8.015625 0.375 Z M 8.015625 0.375 "/></g></g></g><g fill="#000000" fill-opacity="1"><g transform="translate(668.122076, 306.562689)"><g/></g></g><g fill="#000000" fill-opacity="1"><g transform="translate(676.566277, 306.562689)"><g><path d="M 13.3125 -4.59375 L 14.5625 -1.015625 C 14.039062 -0.585938 13.382812 -0.25 12.59375 0 C 11.800781 0.25 10.898438 0.375 9.890625 0.375 C 7.804688 0.375 6.222656 -0.191406 5.140625 -1.328125 C 4.054688 -2.472656 3.515625 -4.128906 3.515625 -6.296875 L 3.515625 -15.453125 L 0.578125 -15.453125 L 0.578125 -19.3125 L 3.515625 -19.3125 L 3.515625 -23.0625 L 8.359375 -23.859375 L 8.359375 -19.3125 L 13.828125 -19.3125 L 13.828125 -15.453125 L 8.359375 -15.453125 L 8.359375 -6.640625 C 8.359375 -5.691406 8.554688 -5 8.953125 -4.5625 C 9.347656 -4.125 9.925781 -3.90625 10.6875 -3.90625 C 11.550781 -3.90625 12.300781 -4.132812 12.9375 -4.59375 Z M 13.3125 -4.59375 "/></g></g></g><g fill="#000000" fill-opacity="1"><g transform="translate(691.549059, 306.562689)"><g><path d="M 11.203125 0.375 C 9.316406 0.375 7.660156 -0.0078125 6.234375 -0.78125 C 4.804688 -1.5625 3.695312 -2.703125 2.90625 -4.203125 C 2.125 -5.703125 1.734375 -7.515625 1.734375 -9.640625 C 1.734375 -11.753906 2.125 -13.5625 2.90625 -15.0625 C 3.695312 -16.570312 4.804688 -17.710938 6.234375 -18.484375 C 7.660156 -19.265625 9.316406 -19.65625 11.203125 -19.65625 C 13.097656 -19.65625 14.757812 -19.265625 16.1875 -18.484375 C 17.613281 -17.710938 18.722656 -16.570312 19.515625 -15.0625 C 20.304688 -13.5625 20.703125 -11.753906 20.703125 -9.640625 C 20.703125 -7.515625 20.304688 -5.703125 19.515625 -4.203125 C 18.722656 -2.703125 17.613281 -1.5625 16.1875 -0.78125 C 14.757812 -0.0078125 13.097656 0.375 11.203125 0.375 Z M 11.203125 -3.734375 C 14.203125 -3.734375 15.703125 -5.703125 15.703125 -9.640625 C 15.703125 -11.671875 15.316406 -13.160156 14.546875 -14.109375 C 13.773438 -15.066406 12.660156 -15.546875 11.203125 -15.546875 C 8.210938 -15.546875 6.71875 -13.578125 6.71875 -9.640625 C 6.71875 -5.703125 8.210938 -3.734375 11.203125 -3.734375 Z M 11.203125 -3.734375 "/></g></g></g><g fill="#000000" fill-opacity="1"><g transform="translate(713.962005, 306.562689)"><g><path d="M 9.53125 0.375 C 8 0.375 6.644531 0.00390625 5.46875 -0.734375 C 4.300781 -1.484375 3.382812 -2.601562 2.71875 -4.09375 C 2.0625 -5.59375 1.734375 -7.441406 1.734375 -9.640625 C 1.734375 -11.835938 2.070312 -13.6875 2.75 -15.1875 C 3.4375 -16.6875 4.378906 -17.804688 5.578125 -18.546875 C 6.785156 -19.285156 8.1875 -19.65625 9.78125 -19.65625 C 10.976562 -19.65625 12.015625 -19.445312 12.890625 -19.03125 C 13.773438 -18.613281 14.519531 -17.972656 15.125 -17.109375 L 15.5 -17.1875 L 15.5 -27.03125 L 20.34375 -27.03125 L 20.34375 0 L 15.5 0 L 15.5 -2.5 L 15.125 -2.578125 C 14.59375 -1.660156 13.859375 -0.9375 12.921875 -0.40625 C 11.992188 0.113281 10.863281 0.375 9.53125 0.375 Z M 11.109375 -3.734375 C 12.472656 -3.734375 13.550781 -4.21875 14.34375 -5.1875 C 15.132812 -6.164062 15.53125 -7.648438 15.53125 -9.640625 C 15.53125 -11.617188 15.132812 -13.097656 14.34375 -14.078125 C 13.550781 -15.054688 12.472656 -15.546875 11.109375 -15.546875 C 9.679688 -15.546875 8.59375 -15.066406 7.84375 -14.109375 C 7.09375 -13.160156 6.71875 -11.671875 6.71875 -9.640625 C 6.71875 -7.609375 7.09375 -6.113281 7.84375 -5.15625 C 8.59375 -4.207031 9.679688 -3.734375 11.109375 -3.734375 Z M 11.109375 -3.734375 "/></g></g></g><g fill="#000000" fill-opacity="1"><g transform="translate(737.074264, 306.562689)"><g><path d="M 7.515625 0.375 C 6.285156 0.375 5.210938 0.144531 4.296875 -0.3125 C 3.390625 -0.769531 2.691406 -1.4375 2.203125 -2.3125 C 1.710938 -3.195312 1.46875 -4.253906 1.46875 -5.484375 C 1.46875 -6.628906 1.710938 -7.585938 2.203125 -8.359375 C 2.691406 -9.140625 3.445312 -9.773438 4.46875 -10.265625 C 5.5 -10.765625 6.84375 -11.148438 8.5 -11.421875 C 9.65625 -11.609375 10.53125 -11.8125 11.125 -12.03125 C 11.726562 -12.25 12.132812 -12.5 12.34375 -12.78125 C 12.550781 -13.0625 12.65625 -13.414062 12.65625 -13.84375 C 12.65625 -14.46875 12.4375 -14.941406 12 -15.265625 C 11.570312 -15.585938 10.859375 -15.75 9.859375 -15.75 C 8.785156 -15.75 7.765625 -15.507812 6.796875 -15.03125 C 5.828125 -14.5625 4.988281 -13.9375 4.28125 -13.15625 L 3.9375 -13.15625 L 1.90625 -16.203125 C 2.882812 -17.296875 4.078125 -18.144531 5.484375 -18.75 C 6.898438 -19.351562 8.441406 -19.65625 10.109375 -19.65625 C 12.660156 -19.65625 14.503906 -19.113281 15.640625 -18.03125 C 16.785156 -16.945312 17.359375 -15.40625 17.359375 -13.40625 L 17.359375 -5.03125 C 17.359375 -4.164062 17.738281 -3.734375 18.5 -3.734375 C 18.789062 -3.734375 19.078125 -3.789062 19.359375 -3.90625 L 19.609375 -3.828125 L 19.953125 -0.453125 C 19.679688 -0.273438 19.304688 -0.128906 18.828125 -0.015625 C 18.347656 0.0859375 17.828125 0.140625 17.265625 0.140625 C 16.109375 0.140625 15.207031 -0.078125 14.5625 -0.515625 C 13.914062 -0.960938 13.453125 -1.660156 13.171875 -2.609375 L 12.796875 -2.640625 C 11.859375 -0.628906 10.097656 0.375 7.515625 0.375 Z M 9.0625 -3.25 C 10.175781 -3.25 11.066406 -3.625 11.734375 -4.375 C 12.410156 -5.132812 12.75 -6.179688 12.75 -7.515625 L 12.75 -9.484375 L 12.421875 -9.546875 C 12.128906 -9.316406 11.742188 -9.117188 11.265625 -8.953125 C 10.796875 -8.796875 10.117188 -8.644531 9.234375 -8.5 C 8.179688 -8.320312 7.425781 -8.019531 6.96875 -7.59375 C 6.507812 -7.164062 6.28125 -6.5625 6.28125 -5.78125 C 6.28125 -4.957031 6.523438 -4.328125 7.015625 -3.890625 C 7.503906 -3.460938 8.1875 -3.25 9.0625 -3.25 Z M 9.0625 -3.25 "/></g></g></g><g fill="#000000" fill-opacity="1"><g transform="translate(757.406773, 306.562689)"><g><path d="M 4.265625 8.1875 C 3.441406 8.1875 2.691406 8.117188 2.015625 7.984375 C 1.347656 7.859375 0.804688 7.691406 0.390625 7.484375 L 1.15625 3.5625 L 1.46875 3.46875 C 1.757812 3.613281 2.117188 3.734375 2.546875 3.828125 C 2.984375 3.921875 3.425781 3.96875 3.875 3.96875 C 4.65625 3.96875 5.304688 3.863281 5.828125 3.65625 C 6.347656 3.457031 6.785156 3.117188 7.140625 2.640625 C 7.503906 2.171875 7.828125 1.519531 8.109375 0.6875 L 0.421875 -19.28125 L 5.484375 -19.28125 L 10.28125 -5.875 L 10.703125 -5.875 L 15.375 -19.28125 L 20.296875 -19.28125 L 12.5625 1.203125 C 11.9375 2.859375 11.253906 4.191406 10.515625 5.203125 C 9.773438 6.210938 8.898438 6.960938 7.890625 7.453125 C 6.878906 7.941406 5.671875 8.1875 4.265625 8.1875 Z M 4.265625 8.1875 "/></g></g></g><g fill="#000000" fill-opacity="1"><g transform="translate(778.106415, 306.562689)"><g><path d="M 4.9375 0.15625 C 4.3125 0.15625 3.765625 0.03125 3.296875 -0.21875 C 2.828125 -0.46875 2.46875 -0.8125 2.21875 -1.25 C 1.96875 -1.695312 1.84375 -2.203125 1.84375 -2.765625 C 1.84375 -3.328125 1.96875 -3.828125 2.21875 -4.265625 C 2.46875 -4.710938 2.828125 -5.0625 3.296875 -5.3125 C 3.765625 -5.570312 4.3125 -5.703125 4.9375 -5.703125 C 5.5625 -5.703125 6.109375 -5.578125 6.578125 -5.328125 C 7.054688 -5.078125 7.421875 -4.726562 7.671875 -4.28125 C 7.921875 -3.84375 8.046875 -3.34375 8.046875 -2.78125 C 8.046875 -1.925781 7.757812 -1.222656 7.1875 -0.671875 C 6.625 -0.117188 5.875 0.15625 4.9375 0.15625 Z M 4.9375 0.15625 "/></g></g></g><g clip-path="url(#b2fde29be0)"><path stroke-linecap="butt" transform="matrix(0.537291, 0, 0, 0.537291, 380.023418, 361.470137)" fill="none" stroke-linejoin="miter" d="M 0.0000366528 -0.00258191 L 372.354116 -0.00258191 L 372.354116 153.21833 L 0.0000366528 153.21833 Z M 0.0000366528 -0.00258191 " stroke="#000000" stroke-width="13.933112" stroke-opacity="1" stroke-miterlimit="4"/></g><g fill="#000000" fill-opacity="1"><g transform="translate(409.774494, 414.238716)"><g><path d="M 15.3125 -7.484375 L 4.265625 -7.484375 C 4.335938 -5.535156 4.804688 -4.101562 5.671875 -3.1875 C 6.535156 -2.28125 7.726562 -1.828125 9.25 -1.828125 C 10.394531 -1.828125 11.316406 -2.03125 12.015625 -2.4375 C 12.710938 -2.84375 13.257812 -3.484375 13.65625 -4.359375 L 13.96875 -4.359375 L 15.515625 -3.4375 C 15.046875 -2.269531 14.296875 -1.351562 13.265625 -0.6875 C 12.242188 -0.0195312 10.90625 0.3125 9.25 0.3125 C 7.695312 0.3125 6.359375 0.00390625 5.234375 -0.609375 C 4.117188 -1.222656 3.257812 -2.148438 2.65625 -3.390625 C 2.0625 -4.628906 1.765625 -6.175781 1.765625 -8.03125 C 1.765625 -9.851562 2.082031 -11.390625 2.71875 -12.640625 C 3.351562 -13.890625 4.21875 -14.820312 5.3125 -15.4375 C 6.414062 -16.0625 7.679688 -16.375 9.109375 -16.375 C 11.160156 -16.375 12.765625 -15.789062 13.921875 -14.625 C 15.078125 -13.46875 15.660156 -11.75 15.671875 -9.46875 C 15.671875 -8.570312 15.648438 -7.96875 15.609375 -7.65625 Z M 13.328125 -9.46875 C 13.285156 -11.175781 12.90625 -12.414062 12.1875 -13.1875 C 11.46875 -13.96875 10.441406 -14.359375 9.109375 -14.359375 C 7.691406 -14.359375 6.582031 -13.96875 5.78125 -13.1875 C 4.988281 -12.40625 4.503906 -11.164062 4.328125 -9.46875 Z M 13.328125 -9.46875 "/></g></g></g><g fill="#000000" fill-opacity="1"><g transform="translate(426.89533, 414.238716)"><g><path d="M 2.796875 0 L 2.796875 -16.0625 L 5.046875 -16.0625 L 5.046875 -13.546875 L 5.359375 -13.46875 C 5.890625 -14.414062 6.570312 -15.132812 7.40625 -15.625 C 8.238281 -16.125 9.25 -16.375 10.4375 -16.375 C 12.375 -16.375 13.773438 -15.878906 14.640625 -14.890625 C 15.515625 -13.898438 15.953125 -12.382812 15.953125 -10.34375 L 15.953125 0 L 13.578125 0 L 13.578125 -10.28125 C 13.578125 -11.25 13.453125 -12.023438 13.203125 -12.609375 C 12.953125 -13.203125 12.566406 -13.628906 12.046875 -13.890625 C 11.523438 -14.160156 10.84375 -14.296875 10 -14.296875 C 8.550781 -14.296875 7.382812 -13.816406 6.5 -12.859375 C 5.613281 -11.910156 5.171875 -10.375 5.171875 -8.25 L 5.171875 0 Z M 2.796875 0 "/></g></g></g><g fill="#000000" fill-opacity="1"><g transform="translate(445.384669, 414.238716)"><g><path d="M 3.984375 -19.171875 C 3.484375 -19.171875 3.070312 -19.328125 2.75 -19.640625 C 2.4375 -19.953125 2.28125 -20.351562 2.28125 -20.84375 C 2.28125 -21.320312 2.4375 -21.71875 2.75 -22.03125 C 3.070312 -22.351562 3.484375 -22.515625 3.984375 -22.515625 C 4.492188 -22.515625 4.90625 -22.351562 5.21875 -22.03125 C 5.53125 -21.71875 5.6875 -21.320312 5.6875 -20.84375 C 5.6875 -20.351562 5.53125 -19.953125 5.21875 -19.640625 C 4.90625 -19.328125 4.492188 -19.171875 3.984375 -19.171875 Z M 0.78125 6.8125 C 0.28125 6.8125 -0.160156 6.773438 -0.546875 6.703125 C -0.941406 6.628906 -1.316406 6.523438 -1.671875 6.390625 L -1.3125 4.5625 L -1.03125 4.46875 C -0.550781 4.65625 -0.0546875 4.75 0.453125 4.75 C 1.210938 4.75 1.789062 4.5 2.1875 4 C 2.59375 3.5 2.796875 2.78125 2.796875 1.84375 L 2.796875 -16.0625 L 5.171875 -16.0625 L 5.171875 1.765625 C 5.171875 3.378906 4.785156 4.625 4.015625 5.5 C 3.253906 6.375 2.175781 6.8125 0.78125 6.8125 Z M 0.78125 6.8125 "/></g></g></g><g fill="#000000" fill-opacity="1"><g transform="translate(453.348192, 414.238716)"><g><path d="M 9.21875 0.3125 C 7.707031 0.3125 6.390625 -0.00390625 5.265625 -0.640625 C 4.140625 -1.285156 3.273438 -2.234375 2.671875 -3.484375 C 2.066406 -4.734375 1.765625 -6.25 1.765625 -8.03125 C 1.765625 -9.800781 2.066406 -11.3125 2.671875 -12.5625 C 3.273438 -13.820312 4.140625 -14.769531 5.265625 -15.40625 C 6.390625 -16.050781 7.707031 -16.375 9.21875 -16.375 C 10.726562 -16.375 12.046875 -16.050781 13.171875 -15.40625 C 14.296875 -14.769531 15.160156 -13.820312 15.765625 -12.5625 C 16.367188 -11.3125 16.671875 -9.800781 16.671875 -8.03125 C 16.671875 -6.25 16.367188 -4.734375 15.765625 -3.484375 C 15.160156 -2.234375 14.296875 -1.285156 13.171875 -0.640625 C 12.046875 -0.00390625 10.726562 0.3125 9.21875 0.3125 Z M 9.21875 -1.828125 C 10.820312 -1.828125 12.046875 -2.328125 12.890625 -3.328125 C 13.742188 -4.335938 14.171875 -5.90625 14.171875 -8.03125 C 14.171875 -10.15625 13.742188 -11.722656 12.890625 -12.734375 C 12.046875 -13.742188 10.820312 -14.25 9.21875 -14.25 C 7.613281 -14.25 6.382812 -13.738281 5.53125 -12.71875 C 4.675781 -11.707031 4.25 -10.144531 4.25 -8.03125 C 4.25 -5.90625 4.675781 -4.335938 5.53125 -3.328125 C 6.382812 -2.328125 7.613281 -1.828125 9.21875 -1.828125 Z M 9.21875 -1.828125 "/></g></g></g><g fill="#000000" fill-opacity="1"><g transform="translate(471.779297, 414.238716)"><g><path d="M 3.21875 6.8125 C 2.675781 6.8125 2.164062 6.765625 1.6875 6.671875 C 1.21875 6.585938 0.816406 6.460938 0.484375 6.296875 L 0.921875 4.40625 L 1.1875 4.328125 C 1.414062 4.441406 1.703125 4.539062 2.046875 4.625 C 2.398438 4.707031 2.757812 4.75 3.125 4.75 C 3.78125 4.75 4.320312 4.660156 4.75 4.484375 C 5.175781 4.304688 5.539062 4.015625 5.84375 3.609375 C 6.15625 3.210938 6.441406 2.660156 6.703125 1.953125 L 7.265625 0.375 L 0.8125 -16.0625 L 3.375 -16.0625 L 8.4375 -2.953125 L 8.703125 -2.953125 L 13.609375 -16.0625 L 16.03125 -16.0625 L 8.859375 2.515625 C 8.453125 3.546875 7.992188 4.375 7.484375 5 C 6.984375 5.625 6.382812 6.082031 5.6875 6.375 C 5 6.664062 4.175781 6.8125 3.21875 6.8125 Z M 3.21875 6.8125 "/></g></g></g><g fill="#000000" fill-opacity="1"><g transform="translate(488.710878, 414.238716)"><g><path d="M 6.625 0.3125 C 5.039062 0.3125 3.804688 -0.0976562 2.921875 -0.921875 C 2.035156 -1.753906 1.59375 -2.9375 1.59375 -4.46875 C 1.59375 -5.425781 1.785156 -6.226562 2.171875 -6.875 C 2.566406 -7.53125 3.175781 -8.066406 4 -8.484375 C 4.832031 -8.898438 5.910156 -9.21875 7.234375 -9.4375 C 8.398438 -9.632812 9.285156 -9.851562 9.890625 -10.09375 C 10.503906 -10.332031 10.914062 -10.601562 11.125 -10.90625 C 11.332031 -11.207031 11.4375 -11.585938 11.4375 -12.046875 C 11.4375 -12.773438 11.1875 -13.332031 10.6875 -13.71875 C 10.1875 -14.101562 9.378906 -14.296875 8.265625 -14.296875 C 7.234375 -14.296875 6.34375 -14.09375 5.59375 -13.6875 C 4.851562 -13.289062 4.171875 -12.695312 3.546875 -11.90625 L 3.265625 -11.90625 L 2.09375 -13.546875 C 2.769531 -14.410156 3.632812 -15.097656 4.6875 -15.609375 C 5.738281 -16.117188 6.929688 -16.375 8.265625 -16.375 C 10.160156 -16.375 11.554688 -15.957031 12.453125 -15.125 C 13.359375 -14.289062 13.8125 -13.144531 13.8125 -11.6875 L 13.8125 -3.15625 C 13.8125 -2.269531 14.1875 -1.828125 14.9375 -1.828125 C 15.195312 -1.828125 15.441406 -1.867188 15.671875 -1.953125 L 15.875 -1.890625 L 16.15625 -0.25 C 15.976562 -0.132812 15.742188 -0.046875 15.453125 0.015625 C 15.171875 0.078125 14.878906 0.109375 14.578125 0.109375 C 13.691406 0.109375 13.023438 -0.0820312 12.578125 -0.46875 C 12.128906 -0.851562 11.835938 -1.425781 11.703125 -2.1875 L 11.40625 -2.21875 C 10.945312 -1.375 10.328125 -0.738281 9.546875 -0.3125 C 8.773438 0.101562 7.800781 0.3125 6.625 0.3125 Z M 7.15625 -1.59375 C 8.039062 -1.59375 8.8125 -1.796875 9.46875 -2.203125 C 10.125 -2.617188 10.625 -3.195312 10.96875 -3.9375 C 11.320312 -4.6875 11.5 -5.554688 11.5 -6.546875 L 11.5 -8.578125 L 11.234375 -8.640625 C 10.867188 -8.390625 10.425781 -8.175781 9.90625 -8 C 9.394531 -7.832031 8.679688 -7.679688 7.765625 -7.546875 C 6.828125 -7.421875 6.082031 -7.222656 5.53125 -6.953125 C 4.988281 -6.691406 4.597656 -6.359375 4.359375 -5.953125 C 4.128906 -5.554688 4.015625 -5.0625 4.015625 -4.46875 C 4.015625 -3.53125 4.289062 -2.816406 4.84375 -2.328125 C 5.40625 -1.835938 6.175781 -1.59375 7.15625 -1.59375 Z M 7.15625 -1.59375 "/></g></g></g><g fill="#000000" fill-opacity="1"><g transform="translate(505.322171, 414.238716)"><g><path d="M 10.671875 0.3125 C 9.484375 0.3125 8.445312 0.0820312 7.5625 -0.375 C 6.6875 -0.84375 5.988281 -1.457031 5.46875 -2.21875 L 5.171875 -2.15625 L 5.171875 0 L 2.796875 0 L 2.796875 -22.515625 L 5.171875 -22.515625 L 5.171875 -13.65625 L 5.46875 -13.609375 C 6.695312 -15.453125 8.476562 -16.375 10.8125 -16.375 C 12.125 -16.375 13.273438 -16.066406 14.265625 -15.453125 C 15.265625 -14.835938 16.035156 -13.90625 16.578125 -12.65625 C 17.128906 -11.414062 17.40625 -9.875 17.40625 -8.03125 C 17.40625 -6.195312 17.113281 -4.65625 16.53125 -3.40625 C 15.957031 -2.164062 15.164062 -1.234375 14.15625 -0.609375 C 13.144531 0.00390625 11.984375 0.3125 10.671875 0.3125 Z M 10.109375 -1.828125 C 13.316406 -1.828125 14.921875 -3.894531 14.921875 -8.03125 C 14.921875 -10.175781 14.5 -11.75 13.65625 -12.75 C 12.820312 -13.75 11.640625 -14.25 10.109375 -14.25 C 8.597656 -14.25 7.394531 -13.734375 6.5 -12.703125 C 5.613281 -11.679688 5.171875 -10.125 5.171875 -8.03125 C 5.171875 -5.9375 5.613281 -4.378906 6.5 -3.359375 C 7.394531 -2.335938 8.597656 -1.828125 10.109375 -1.828125 Z M 10.109375 -1.828125 "/></g></g></g><g fill="#000000" fill-opacity="1"><g transform="translate(524.481202, 414.238716)"><g><path d="M 6.390625 0.3125 C 5.253906 0.3125 4.359375 -0.0078125 3.703125 -0.65625 C 3.054688 -1.300781 2.734375 -2.265625 2.734375 -3.546875 L 2.734375 -22.515625 L 5.109375 -22.515625 L 5.109375 -3.71875 C 5.109375 -3.039062 5.238281 -2.554688 5.5 -2.265625 C 5.757812 -1.972656 6.160156 -1.828125 6.703125 -1.828125 C 7.023438 -1.828125 7.359375 -1.878906 7.703125 -1.984375 L 7.90625 -1.921875 L 8.1875 -0.0625 C 8.007812 0.0507812 7.757812 0.140625 7.4375 0.203125 C 7.113281 0.273438 6.765625 0.3125 6.390625 0.3125 Z M 6.390625 0.3125 "/></g></g></g><g fill="#000000" fill-opacity="1"><g transform="translate(533.216323, 414.238716)"><g><path d="M 15.3125 -7.484375 L 4.265625 -7.484375 C 4.335938 -5.535156 4.804688 -4.101562 5.671875 -3.1875 C 6.535156 -2.28125 7.726562 -1.828125 9.25 -1.828125 C 10.394531 -1.828125 11.316406 -2.03125 12.015625 -2.4375 C 12.710938 -2.84375 13.257812 -3.484375 13.65625 -4.359375 L 13.96875 -4.359375 L 15.515625 -3.4375 C 15.046875 -2.269531 14.296875 -1.351562 13.265625 -0.6875 C 12.242188 -0.0195312 10.90625 0.3125 9.25 0.3125 C 7.695312 0.3125 6.359375 0.00390625 5.234375 -0.609375 C 4.117188 -1.222656 3.257812 -2.148438 2.65625 -3.390625 C 2.0625 -4.628906 1.765625 -6.175781 1.765625 -8.03125 C 1.765625 -9.851562 2.082031 -11.390625 2.71875 -12.640625 C 3.351562 -13.890625 4.21875 -14.820312 5.3125 -15.4375 C 6.414062 -16.0625 7.679688 -16.375 9.109375 -16.375 C 11.160156 -16.375 12.765625 -15.789062 13.921875 -14.625 C 15.078125 -13.46875 15.660156 -11.75 15.671875 -9.46875 C 15.671875 -8.570312 15.648438 -7.96875 15.609375 -7.65625 Z M 13.328125 -9.46875 C 13.285156 -11.175781 12.90625 -12.414062 12.1875 -13.1875 C 11.46875 -13.96875 10.441406 -14.359375 9.109375 -14.359375 C 7.691406 -14.359375 6.582031 -13.96875 5.78125 -13.1875 C 4.988281 -12.40625 4.503906 -11.164062 4.328125 -9.46875 Z M 13.328125 -9.46875 "/></g></g></g><g clip-path="url(#bf4b243474)"><path stroke-linecap="butt" transform="matrix(0.537291, 0, 0, 0.537291, 146.890872, 361.470137)" fill="none" stroke-linejoin="miter" d="M -0.00045905 -0.00258191 L 372.353621 -0.00258191 L 372.353621 153.21833 L -0.00045905 153.21833 Z M -0.00045905 -0.00258191 " stroke="#000000" stroke-width="13.933112" stroke-opacity="1" stroke-miterlimit="4"/></g><g fill="#000000" fill-opacity="1"><g transform="translate(200.468931, 414.238716)"><g><path d="M 10.671875 0.3125 C 9.484375 0.3125 8.445312 0.0820312 7.5625 -0.375 C 6.6875 -0.84375 5.988281 -1.457031 5.46875 -2.21875 L 5.171875 -2.15625 L 5.171875 0 L 2.796875 0 L 2.796875 -22.515625 L 5.171875 -22.515625 L 5.171875 -13.65625 L 5.46875 -13.609375 C 6.695312 -15.453125 8.476562 -16.375 10.8125 -16.375 C 12.125 -16.375 13.273438 -16.066406 14.265625 -15.453125 C 15.265625 -14.835938 16.035156 -13.90625 16.578125 -12.65625 C 17.128906 -11.414062 17.40625 -9.875 17.40625 -8.03125 C 17.40625 -6.195312 17.113281 -4.65625 16.53125 -3.40625 C 15.957031 -2.164062 15.164062 -1.234375 14.15625 -0.609375 C 13.144531 0.00390625 11.984375 0.3125 10.671875 0.3125 Z M 10.109375 -1.828125 C 13.316406 -1.828125 14.921875 -3.894531 14.921875 -8.03125 C 14.921875 -10.175781 14.5 -11.75 13.65625 -12.75 C 12.820312 -13.75 11.640625 -14.25 10.109375 -14.25 C 8.597656 -14.25 7.394531 -13.734375 6.5 -12.703125 C 5.613281 -11.679688 5.171875 -10.125 5.171875 -8.03125 C 5.171875 -5.9375 5.613281 -4.378906 6.5 -3.359375 C 7.394531 -2.335938 8.597656 -1.828125 10.109375 -1.828125 Z M 10.109375 -1.828125 "/></g></g></g><g fill="#000000" fill-opacity="1"><g transform="translate(219.627962, 414.238716)"><g><path d="M 9.21875 0.3125 C 7.707031 0.3125 6.390625 -0.00390625 5.265625 -0.640625 C 4.140625 -1.285156 3.273438 -2.234375 2.671875 -3.484375 C 2.066406 -4.734375 1.765625 -6.25 1.765625 -8.03125 C 1.765625 -9.800781 2.066406 -11.3125 2.671875 -12.5625 C 3.273438 -13.820312 4.140625 -14.769531 5.265625 -15.40625 C 6.390625 -16.050781 7.707031 -16.375 9.21875 -16.375 C 10.726562 -16.375 12.046875 -16.050781 13.171875 -15.40625 C 14.296875 -14.769531 15.160156 -13.820312 15.765625 -12.5625 C 16.367188 -11.3125 16.671875 -9.800781 16.671875 -8.03125 C 16.671875 -6.25 16.367188 -4.734375 15.765625 -3.484375 C 15.160156 -2.234375 14.296875 -1.285156 13.171875 -0.640625 C 12.046875 -0.00390625 10.726562 0.3125 9.21875 0.3125 Z M 9.21875 -1.828125 C 10.820312 -1.828125 12.046875 -2.328125 12.890625 -3.328125 C 13.742188 -4.335938 14.171875 -5.90625 14.171875 -8.03125 C 14.171875 -10.15625 13.742188 -11.722656 12.890625 -12.734375 C 12.046875 -13.742188 10.820312 -14.25 9.21875 -14.25 C 7.613281 -14.25 6.382812 -13.738281 5.53125 -12.71875 C 4.675781 -11.707031 4.25 -10.144531 4.25 -8.03125 C 4.25 -5.90625 4.675781 -4.335938 5.53125 -3.328125 C 6.382812 -2.328125 7.613281 -1.828125 9.21875 -1.828125 Z M 9.21875 -1.828125 "/></g></g></g><g fill="#000000" fill-opacity="1"><g transform="translate(238.059067, 414.238716)"><g><path d="M 2.796875 0 L 2.796875 -16.0625 L 5.046875 -16.0625 L 5.046875 -13.546875 L 5.359375 -13.46875 C 6.109375 -15.289062 7.515625 -16.203125 9.578125 -16.203125 C 10.679688 -16.203125 11.503906 -16.003906 12.046875 -15.609375 L 11.4375 -13.609375 L 11.140625 -13.546875 C 10.535156 -13.847656 9.875 -14 9.15625 -14 C 7.875 -14 6.890625 -13.515625 6.203125 -12.546875 C 5.515625 -11.585938 5.171875 -10.03125 5.171875 -7.875 L 5.171875 0 Z M 2.796875 0 "/></g></g></g><g fill="#000000" fill-opacity="1"><g transform="translate(250.462938, 414.238716)"><g><path d="M 3.984375 -19.171875 C 3.484375 -19.171875 3.070312 -19.328125 2.75 -19.640625 C 2.4375 -19.953125 2.28125 -20.351562 2.28125 -20.84375 C 2.28125 -21.320312 2.4375 -21.71875 2.75 -22.03125 C 3.070312 -22.351562 3.484375 -22.515625 3.984375 -22.515625 C 4.492188 -22.515625 4.90625 -22.351562 5.21875 -22.03125 C 5.53125 -21.71875 5.6875 -21.320312 5.6875 -20.84375 C 5.6875 -20.351562 5.53125 -19.953125 5.21875 -19.640625 C 4.90625 -19.328125 4.492188 -19.171875 3.984375 -19.171875 Z M 2.796875 0 L 2.796875 -16.0625 L 5.171875 -16.0625 L 5.171875 0 Z M 2.796875 0 "/></g></g></g><g fill="#000000" fill-opacity="1"><g transform="translate(258.426462, 414.238716)"><g><path d="M 2.796875 0 L 2.796875 -16.0625 L 5.046875 -16.0625 L 5.046875 -13.546875 L 5.359375 -13.46875 C 5.890625 -14.414062 6.570312 -15.132812 7.40625 -15.625 C 8.238281 -16.125 9.25 -16.375 10.4375 -16.375 C 12.375 -16.375 13.773438 -15.878906 14.640625 -14.890625 C 15.515625 -13.898438 15.953125 -12.382812 15.953125 -10.34375 L 15.953125 0 L 13.578125 0 L 13.578125 -10.28125 C 13.578125 -11.25 13.453125 -12.023438 13.203125 -12.609375 C 12.953125 -13.203125 12.566406 -13.628906 12.046875 -13.890625 C 11.523438 -14.160156 10.84375 -14.296875 10 -14.296875 C 8.550781 -14.296875 7.382812 -13.816406 6.5 -12.859375 C 5.613281 -11.910156 5.171875 -10.375 5.171875 -8.25 L 5.171875 0 Z M 2.796875 0 "/></g></g></g><g fill="#000000" fill-opacity="1"><g transform="translate(276.9158, 414.238716)"><g><path d="M 8.265625 6.8125 C 5.734375 6.8125 3.882812 6.390625 2.71875 5.546875 C 1.550781 4.703125 0.96875 3.582031 0.96875 2.1875 C 0.96875 1.28125 1.238281 0.5625 1.78125 0.03125 C 2.332031 -0.5 3.128906 -0.882812 4.171875 -1.125 L 4.171875 -1.421875 C 3.671875 -1.703125 3.296875 -2.03125 3.046875 -2.40625 C 2.804688 -2.789062 2.6875 -3.242188 2.6875 -3.765625 C 2.6875 -4.390625 2.878906 -4.894531 3.265625 -5.28125 C 3.660156 -5.675781 4.25 -5.972656 5.03125 -6.171875 L 5.03125 -6.484375 C 3.28125 -7.398438 2.40625 -8.898438 2.40625 -10.984375 C 2.40625 -12.023438 2.640625 -12.953125 3.109375 -13.765625 C 3.585938 -14.585938 4.269531 -15.226562 5.15625 -15.6875 C 6.039062 -16.144531 7.070312 -16.375 8.25 -16.375 C 9.59375 -16.375 10.71875 -16.078125 11.625 -15.484375 C 11.957031 -15.859375 12.207031 -16.257812 12.375 -16.6875 C 12.550781 -17.125 12.664062 -17.613281 12.71875 -18.15625 L 13.015625 -18.34375 L 14.96875 -17.890625 C 14.875 -17.066406 14.628906 -16.375 14.234375 -15.8125 C 13.835938 -15.25 13.28125 -14.785156 12.5625 -14.421875 L 12.5625 -14.109375 C 13.082031 -13.703125 13.460938 -13.222656 13.703125 -12.671875 C 13.953125 -12.128906 14.078125 -11.492188 14.078125 -10.765625 C 14.078125 -9.753906 13.832031 -8.84375 13.34375 -8.03125 C 12.863281 -7.226562 12.179688 -6.597656 11.296875 -6.140625 C 10.421875 -5.679688 9.40625 -5.453125 8.25 -5.453125 C 8.113281 -5.453125 7.867188 -5.457031 7.515625 -5.46875 C 7.128906 -5.488281 6.84375 -5.5 6.65625 -5.5 C 6.15625 -5.5 5.753906 -5.367188 5.453125 -5.109375 C 5.148438 -4.847656 5 -4.515625 5 -4.109375 C 5 -3.597656 5.160156 -3.222656 5.484375 -2.984375 C 5.804688 -2.753906 6.34375 -2.625 7.09375 -2.59375 L 10.890625 -2.46875 C 12.535156 -2.40625 13.753906 -2.019531 14.546875 -1.3125 C 15.335938 -0.613281 15.734375 0.378906 15.734375 1.671875 C 15.734375 2.628906 15.472656 3.492188 14.953125 4.265625 C 14.441406 5.046875 13.628906 5.664062 12.515625 6.125 C 11.398438 6.582031 9.984375 6.8125 8.265625 6.8125 Z M 8.25 -7.484375 C 9.382812 -7.484375 10.257812 -7.78125 10.875 -8.375 C 11.5 -8.96875 11.8125 -9.796875 11.8125 -10.859375 C 11.8125 -11.972656 11.503906 -12.828125 10.890625 -13.421875 C 10.273438 -14.023438 9.394531 -14.328125 8.25 -14.328125 C 7.101562 -14.328125 6.226562 -14.03125 5.625 -13.4375 C 5.019531 -12.84375 4.71875 -11.984375 4.71875 -10.859375 C 4.71875 -9.785156 5.019531 -8.953125 5.625 -8.359375 C 6.226562 -7.773438 7.101562 -7.484375 8.25 -7.484375 Z M 8.265625 4.78125 C 9.453125 4.78125 10.421875 4.644531 11.171875 4.375 C 11.929688 4.113281 12.472656 3.765625 12.796875 3.328125 C 13.128906 2.898438 13.296875 2.421875 13.296875 1.890625 C 13.296875 1.421875 13.207031 1.039062 13.03125 0.75 C 12.851562 0.457031 12.5625 0.238281 12.15625 0.09375 C 11.757812 -0.0507812 11.21875 -0.144531 10.53125 -0.1875 L 6.9375 -0.359375 L 6.421875 -0.359375 C 4.410156 -0.335938 3.40625 0.441406 3.40625 1.984375 C 3.40625 3.847656 5.023438 4.78125 8.265625 4.78125 Z M 8.265625 4.78125 "/></g></g></g><g clip-path="url(#30d2544fd7)"><path stroke-linecap="butt" transform="matrix(0.537291, 0, 0, 0.537291, 613.041609, 361.470137)" fill="none" stroke-linejoin="miter" d="M 0.00253011 -0.00258191 L 372.35661 -0.00258191 L 372.35661 153.21833 L 0.00253011 153.21833 Z M 0.00253011 -0.00258191 " stroke="#000000" stroke-width="13.933112" stroke-opacity="1" stroke-miterlimit="4"/></g><g fill="#000000" fill-opacity="1"><g transform="translate(656.93447, 414.238716)"><g><path d="M 3.578125 0 L 3.578125 -14.125 L 0.78125 -14.125 L 0.78125 -16.078125 L 3.578125 -16.078125 C 3.410156 -16.773438 3.328125 -17.441406 3.328125 -18.078125 C 3.328125 -19.117188 3.546875 -19.992188 3.984375 -20.703125 C 4.421875 -21.421875 5.03125 -21.953125 5.8125 -22.296875 C 6.601562 -22.648438 7.515625 -22.828125 8.546875 -22.828125 C 10.148438 -22.828125 11.378906 -22.476562 12.234375 -21.78125 L 11.3125 -20.109375 L 11.015625 -20.0625 C 10.378906 -20.5625 9.554688 -20.8125 8.546875 -20.8125 C 7.609375 -20.8125 6.894531 -20.566406 6.40625 -20.078125 C 5.925781 -19.597656 5.6875 -18.910156 5.6875 -18.015625 C 5.6875 -17.460938 5.773438 -16.816406 5.953125 -16.078125 L 11.0625 -16.078125 L 11.0625 -14.125 L 5.953125 -14.125 L 5.953125 0 Z M 3.578125 0 "/></g></g></g><g fill="#000000" fill-opacity="1"><g transform="translate(668.377478, 414.238716)"><g><path d="M 2.796875 0 L 2.796875 -16.0625 L 5.046875 -16.0625 L 5.046875 -13.546875 L 5.359375 -13.46875 C 6.109375 -15.289062 7.515625 -16.203125 9.578125 -16.203125 C 10.679688 -16.203125 11.503906 -16.003906 12.046875 -15.609375 L 11.4375 -13.609375 L 11.140625 -13.546875 C 10.535156 -13.847656 9.875 -14 9.15625 -14 C 7.875 -14 6.890625 -13.515625 6.203125 -12.546875 C 5.515625 -11.585938 5.171875 -10.03125 5.171875 -7.875 L 5.171875 0 Z M 2.796875 0 "/></g></g></g><g fill="#000000" fill-opacity="1"><g transform="translate(680.781349, 414.238716)"><g><path d="M 3.984375 -19.171875 C 3.484375 -19.171875 3.070312 -19.328125 2.75 -19.640625 C 2.4375 -19.953125 2.28125 -20.351562 2.28125 -20.84375 C 2.28125 -21.320312 2.4375 -21.71875 2.75 -22.03125 C 3.070312 -22.351562 3.484375 -22.515625 3.984375 -22.515625 C 4.492188 -22.515625 4.90625 -22.351562 5.21875 -22.03125 C 5.53125 -21.71875 5.6875 -21.320312 5.6875 -20.84375 C 5.6875 -20.351562 5.53125 -19.953125 5.21875 -19.640625 C 4.90625 -19.328125 4.492188 -19.171875 3.984375 -19.171875 Z M 2.796875 0 L 2.796875 -16.0625 L 5.171875 -16.0625 L 5.171875 0 Z M 2.796875 0 "/></g></g></g><g fill="#000000" fill-opacity="1"><g transform="translate(688.744873, 414.238716)"><g><path d="M 15.3125 -7.484375 L 4.265625 -7.484375 C 4.335938 -5.535156 4.804688 -4.101562 5.671875 -3.1875 C 6.535156 -2.28125 7.726562 -1.828125 9.25 -1.828125 C 10.394531 -1.828125 11.316406 -2.03125 12.015625 -2.4375 C 12.710938 -2.84375 13.257812 -3.484375 13.65625 -4.359375 L 13.96875 -4.359375 L 15.515625 -3.4375 C 15.046875 -2.269531 14.296875 -1.351562 13.265625 -0.6875 C 12.242188 -0.0195312 10.90625 0.3125 9.25 0.3125 C 7.695312 0.3125 6.359375 0.00390625 5.234375 -0.609375 C 4.117188 -1.222656 3.257812 -2.148438 2.65625 -3.390625 C 2.0625 -4.628906 1.765625 -6.175781 1.765625 -8.03125 C 1.765625 -9.851562 2.082031 -11.390625 2.71875 -12.640625 C 3.351562 -13.890625 4.21875 -14.820312 5.3125 -15.4375 C 6.414062 -16.0625 7.679688 -16.375 9.109375 -16.375 C 11.160156 -16.375 12.765625 -15.789062 13.921875 -14.625 C 15.078125 -13.46875 15.660156 -11.75 15.671875 -9.46875 C 15.671875 -8.570312 15.648438 -7.96875 15.609375 -7.65625 Z M 13.328125 -9.46875 C 13.285156 -11.175781 12.90625 -12.414062 12.1875 -13.1875 C 11.46875 -13.96875 10.441406 -14.359375 9.109375 -14.359375 C 7.691406 -14.359375 6.582031 -13.96875 5.78125 -13.1875 C 4.988281 -12.40625 4.503906 -11.164062 4.328125 -9.46875 Z M 13.328125 -9.46875 "/></g></g></g><g fill="#000000" fill-opacity="1"><g transform="translate(705.865709, 414.238716)"><g><path d="M 2.796875 0 L 2.796875 -16.0625 L 5.046875 -16.0625 L 5.046875 -13.546875 L 5.359375 -13.46875 C 5.890625 -14.414062 6.570312 -15.132812 7.40625 -15.625 C 8.238281 -16.125 9.25 -16.375 10.4375 -16.375 C 12.375 -16.375 13.773438 -15.878906 14.640625 -14.890625 C 15.515625 -13.898438 15.953125 -12.382812 15.953125 -10.34375 L 15.953125 0 L 13.578125 0 L 13.578125 -10.28125 C 13.578125 -11.25 13.453125 -12.023438 13.203125 -12.609375 C 12.953125 -13.203125 12.566406 -13.628906 12.046875 -13.890625 C 11.523438 -14.160156 10.84375 -14.296875 10 -14.296875 C 8.550781 -14.296875 7.382812 -13.816406 6.5 -12.859375 C 5.613281 -11.910156 5.171875 -10.375 5.171875 -8.25 L 5.171875 0 Z M 2.796875 0 "/></g></g></g><g fill="#000000" fill-opacity="1"><g transform="translate(724.355047, 414.238716)"><g><path d="M 8.328125 0.3125 C 7.035156 0.3125 5.894531 0.00390625 4.90625 -0.609375 C 3.925781 -1.234375 3.15625 -2.164062 2.59375 -3.40625 C 2.039062 -4.644531 1.765625 -6.1875 1.765625 -8.03125 C 1.765625 -9.863281 2.054688 -11.398438 2.640625 -12.640625 C 3.222656 -13.890625 4.023438 -14.820312 5.046875 -15.4375 C 6.066406 -16.0625 7.253906 -16.375 8.609375 -16.375 C 9.671875 -16.375 10.628906 -16.171875 11.484375 -15.765625 C 12.335938 -15.359375 13.070312 -14.695312 13.6875 -13.78125 L 14 -13.84375 L 14 -22.515625 L 16.375 -22.515625 L 16.375 0 L 14 0 L 14 -2.34375 L 13.6875 -2.40625 C 13.164062 -1.601562 12.453125 -0.945312 11.546875 -0.4375 C 10.648438 0.0625 9.578125 0.3125 8.328125 0.3125 Z M 9.078125 -1.828125 C 10.566406 -1.828125 11.757812 -2.335938 12.65625 -3.359375 C 13.550781 -4.378906 14 -5.9375 14 -8.03125 C 14 -10.125 13.550781 -11.679688 12.65625 -12.703125 C 11.757812 -13.734375 10.566406 -14.25 9.078125 -14.25 C 7.535156 -14.25 6.34375 -13.75 5.5 -12.75 C 4.664062 -11.75 4.25 -10.175781 4.25 -8.03125 C 4.25 -3.894531 5.859375 -1.828125 9.078125 -1.828125 Z M 9.078125 -1.828125 "/></g></g></g><g fill="#000000" fill-opacity="1"><g transform="translate(743.528643, 414.238716)"><g><path d="M 6.390625 0.3125 C 5.253906 0.3125 4.359375 -0.0078125 3.703125 -0.65625 C 3.054688 -1.300781 2.734375 -2.265625 2.734375 -3.546875 L 2.734375 -22.515625 L 5.109375 -22.515625 L 5.109375 -3.71875 C 5.109375 -3.039062 5.238281 -2.554688 5.5 -2.265625 C 5.757812 -1.972656 6.160156 -1.828125 6.703125 -1.828125 C 7.023438 -1.828125 7.359375 -1.878906 7.703125 -1.984375 L 7.90625 -1.921875 L 8.1875 -0.0625 C 8.007812 0.0507812 7.757812 0.140625 7.4375 0.203125 C 7.113281 0.273438 6.765625 0.3125 6.390625 0.3125 Z M 6.390625 0.3125 "/></g></g></g><g fill="#000000" fill-opacity="1"><g transform="translate(752.263763, 414.238716)"><g><path d="M 3.21875 6.8125 C 2.675781 6.8125 2.164062 6.765625 1.6875 6.671875 C 1.21875 6.585938 0.816406 6.460938 0.484375 6.296875 L 0.921875 4.40625 L 1.1875 4.328125 C 1.414062 4.441406 1.703125 4.539062 2.046875 4.625 C 2.398438 4.707031 2.757812 4.75 3.125 4.75 C 3.78125 4.75 4.320312 4.660156 4.75 4.484375 C 5.175781 4.304688 5.539062 4.015625 5.84375 3.609375 C 6.15625 3.210938 6.441406 2.660156 6.703125 1.953125 L 7.265625 0.375 L 0.8125 -16.0625 L 3.375 -16.0625 L 8.4375 -2.953125 L 8.703125 -2.953125 L 13.609375 -16.0625 L 16.03125 -16.0625 L 8.859375 2.515625 C 8.453125 3.546875 7.992188 4.375 7.484375 5 C 6.984375 5.625 6.382812 6.082031 5.6875 6.375 C 5 6.664062 4.175781 6.8125 3.21875 6.8125 Z M 3.21875 6.8125 "/></g></g></g></svg>